<?xml version="1.0" encoding="utf-8"?>
<!-- Generator: Adobe Illustrator 25.0.0, SVG Export Plug-In . SVG Version: 6.00 Build 0)  -->
<svg version="1.1" id="Artwork" xmlns="http://www.w3.org/2000/svg" xmlns:xlink="http://www.w3.org/1999/xlink" x="0px" y="0px"
	 viewBox="0 0 1080 700" style="enable-background:new 0 0 1080 700;" xml:space="preserve">
<style type="text/css">
	.st0{fill:#FF5850;}
	.st1{fill:#0D0D2D;}
	.st2{fill:#FFF8F1;}
	.st3{fill:#FFFFFF;}
</style>
<path class="st0" d="M315.4,170.7c0,0-57.6-1.2-73.9,33.4S226.2,299.4,233,317c0,0,3.8,8.5,34.3,8.9s175.1,0.6,175.1,0.6
	s5.5-1.2,4.9-10.8c-0.6-9.6-3.3-25.6-3.3-25.6c-4.6-1.1-9.2-1.8-13.8-2.3c-7.1-0.6-26.4-1.6-26.4-1.6l0.9-30.2
	c4,3.5,7.2,7.8,9.4,12.7c3.3,7.5,10,14.4,10,14.4l2.6,2.5l15.6,3.1l3.3,2.4c0,0,16.5-6.2,20.9-1.5s5.2,9.3,2.5,12.9
	c1.1,0.6,2.4,0.8,3.7,0.7c2.3-0.2,8.3-1.2,8.3-1.2s-0.9-24.7,12.4-37.7c0,0-15.1-2.4-23.1-8.3c-8-5.9-14.4-13.2-20.9-27.7
	s-26.3-54.3-78.2-50.4c0,0-10.9,14.9-32.6,11.7C316.8,186.4,315.4,170.7,315.4,170.7z"/>
<polygon class="st1" points="353.7,145.5 371.1,177.9 373.3,146.4 "/>
<path class="st1" d="M325.9,75.7c0.9-14.5,1.9-28.9,3.2-43.4c0-1.4,0.3-2.8,0.9-4c0.9-1.5,2.4-2.7,4.1-3.2
	c5.9-2.1,12.5,0.2,15.8,5.5c3.3-8.2,11-14.8,19.9-15.6s18.1,5.3,19.9,14c7.2-7.9,18.7-10.1,28.3-5.4c7.2,3.7,12.2,11.7,11.6,19.8
	c-0.5,8.1-7,15.6-15,16.7c-8.8,1.2-17.2-5.1-21.9-12.6c-1.1,9.1-9.4,15.5-18.5,14.4c-5.8-0.7-10.9-4.5-13.2-9.9
	c-5.3,14.2-18.8,23.6-33.9,23.7"/>
<path class="st1" d="M327.7,75.7c0.8-12.6,1.7-25.2,2.7-37.7c0.1-1.5,0.3-3,0.4-4.5c0-1.5,0.2-3,0.8-4.3c1-2,3.7-2.8,5.8-3
	c4.4-0.4,8.7,1.6,11.1,5.3c0.5,0.9,1.7,1.1,2.5,0.6c0.4-0.2,0.6-0.6,0.8-1c3.1-7.5,10.4-13.9,18.8-14.3c7.9-0.4,15.8,4.9,17.6,12.7
	c0.3,1,1.3,1.5,2.2,1.2c0.3-0.1,0.6-0.2,0.8-0.5c8.5-9.6,24.8-9.9,32.9,0.5c3.9,5,5.3,11.8,2.8,17.8c-2.4,5.6-7.9,9.9-14.2,9.9
	c-7.7,0-14.2-5.7-18.1-11.9c-0.7-1.2-3.1-1.2-3.3,0.4c-0.9,8.1-8.2,14-16.3,13.1c-5.4-0.6-10-4-12.1-9c-0.7-1.5-2.8-0.9-3.3,0.4
	c-5.1,13.4-17.9,22.3-32.2,22.4c-1,0-1.8,0.8-1.8,1.8s0.8,1.8,1.8,1.8c15.9-0.1,30.1-10.1,35.7-25l-3.3,0.4
	c4.1,9.3,15,13.4,24.3,9.3c5.8-2.6,9.8-7.9,10.7-14.2l-3.4,0.4c4.1,6.4,10.5,12.2,18.3,13.4c7.5,1.1,15-2.5,18.9-9
	c4-6.5,4.1-14.6,0.3-21.2c-3.7-6.6-10.4-11.1-18-12c-8.3-1-16.6,2-22.3,8.2l3,0.8c-1.6-7.2-7.8-12.7-14.8-14.6
	c-7.5-2-15.3,0.5-21,5.5c-3.3,2.9-5.9,6.6-7.5,10.7l3.3-0.4c-4.2-6.6-14.4-9.8-21-4.6c-1.8,1.5-2.9,3.7-3,6
	c-0.3,2.8-0.5,5.6-0.7,8.4c-0.5,5.6-0.9,11.3-1.3,16.9c-0.5,6.4-0.9,12.9-1.3,19.3C323.9,78.1,327.5,78.1,327.7,75.7L327.7,75.7z"/>
<path class="st1" d="M327.3,74.4c-5.5,1.1-9.2,6.7-9.1,12.1c0.2,6,4.6,11.1,9.8,13.6l-0.8-2c-3.8,24.2-8.2,48.2-13.3,72.2
	c-0.5,2.3,3,3.2,3.5,1c5-24,9.5-48,13.3-72.2c0.2-0.8-0.1-1.6-0.8-2c-4-1.9-7.7-5.4-8-10.1c-0.4-4.2,2.3-8,6.4-9
	C330.5,77.4,329.5,73.9,327.3,74.4z"/>
<path class="st1" d="M354.5,146.1c2.9,0.6,5.8,1.3,8.7,1.6c2.9,0.3,5.7,0.2,8.5,0.2c8.5,0.1,17.3-1.6,24.6-6.1
	c15.6-9.6,20-28.7,21-45.7c0.9-11.4,0.9-22.8,0-34.2c-0.2-2.3-3.8-2.3-3.6,0c0.7,9.7,0.8,19.3,0.3,29c-0.3,9.1-1,18.3-4,27
	c-2.5,7.2-6.6,14.1-12.7,18.8c-6.4,5-14.7,7.2-22.7,7.5c-3.6,0.1-7.1,0.1-10.7-0.1c-2.9-0.3-5.7-0.8-8.6-1.5
	C353.2,142.2,352.2,145.6,354.5,146.1L354.5,146.1z"/>
<path class="st1" d="M371.3,147.6c-0.2,10-0.7,19.9-1.5,29.8c-0.2,2.3,3.4,2.3,3.6,0c0.9-9.9,1.4-19.9,1.5-29.8
	C374.9,145.3,371.3,145.3,371.3,147.6z"/>
<path class="st1" d="M314.2,172c4,7.7,9.7,15,18.2,17.9c9.2,3.2,20.3,0.9,29-2.9c4.7-1.9,8.7-5.1,11.6-9.2c1.3-1.9-1.8-3.7-3.1-1.8
	c-4.6,6.8-13.4,9.6-21.1,11.1c-4.5,1-9.2,0.9-13.7-0.1c-3.8-1-7.4-3-10.1-5.9c-3.1-3.2-5.7-6.9-7.7-10.9
	C316.3,168.2,313.1,170,314.2,172L314.2,172z"/>
<path class="st1" d="M361.4,78.4c5.2-2.8,11.4-2.8,17.1-1.9c0.9,0.2,1.9-0.3,2.2-1.2c0.3-0.9-0.3-1.9-1.2-2.2
	c-6.7-1-13.7-1-19.9,2.3C357.5,76.4,359.4,79.5,361.4,78.4L361.4,78.4z"/>
<path class="st1" d="M396.5,76.8c4.9-1.8,10.3-1.5,15.1,0.8c0.9,0.5,1.9,0.2,2.5-0.6c0.5-0.9,0.2-2-0.6-2.5
	c-5.6-2.7-12-3.1-17.8-1.1c-1,0.2-1.6,1.2-1.3,2.2c0.2,1,1.2,1.6,2.2,1.3C396.4,76.8,396.4,76.8,396.5,76.8L396.5,76.8z"/>
<path class="st1" d="M387.2,83.1c1.4,5.5,2.6,11.1,3.5,16.7c0.2,1.3,0.4,2.7,0.6,4c0.1,0.7,0.2,1.4,0.3,2s-0.1,0.9,0.5,0.5
	c-0.2,0.1-0.5,0.2-0.7,0.2c-2.7,0.6-5.4,0.8-8.2,0.6c-2.3-0.2-2.3,3.4,0,3.6c3.2,0.3,6.5,0,9.6-0.9c1.4-0.3,2.5-1.4,2.6-2.9
	c-0.1-1.7-0.3-3.3-0.6-4.9c-0.9-6.7-2.3-13.4-4-20C390.1,79.9,386.6,80.8,387.2,83.1L387.2,83.1z"/>
<path class="st1" d="M369.3,90.1c1,0,1.8-0.8,1.8-1.8s-0.8-1.8-1.8-1.8s-1.8,0.8-1.8,1.8C367.5,89.3,368.3,90.1,369.3,90.1z"/>
<path class="st1" d="M402.8,89.9c1,0,1.8-0.8,1.8-1.8s-0.8-1.8-1.8-1.8l0,0c-1,0-1.8,0.8-1.8,1.8S401.8,89.9,402.8,89.9z"/>
<path class="st1" d="M364.8,111.8c-0.3,3.8,1.5,7.6,4.7,9.7c3.5,2.2,7.8,2.6,11.7,1.2c0.9-0.3,1.5-1.3,1.3-2.2
	c-0.3-0.9-1.3-1.5-2.2-1.2c-2.9,1.1-6.1,0.8-8.7-0.7c-2.3-1.4-3.5-4.1-3.1-6.7c0-1-0.8-1.8-1.8-1.8
	C365.6,110,364.8,110.8,364.8,111.8z"/>
<path class="st1" d="M314.4,168.9c-10.9,0.2-21.8,1.8-32.3,4.8c-9.8,2.8-19.6,6.6-27.7,12.9c-14.3,11.1-20.9,28.8-24.1,46.1
	c-3.7,21.3-4.5,43-2.3,64.5c0.4,5.4,1,10.7,2.1,15.9c1,4.6,3.4,8.4,7.8,10.4c4.7,2.1,10.1,2.6,15.2,3.2c5.6,0.6,11.3,0.8,16.9,1
	c23.1,0.7,46.2,0.6,69.3,0.6h95.1c2.7,0,5.5,0.2,8.2,0c2.2,0,4.2-1,5.4-2.8c1.1-1.9,1-4.2,1-6.4c-0.1-5.6-0.5-11.2-1.2-16.8
	c-0.5-4.5-0.5-10.5-4.4-13.5c-1.8-1.2-3.8-1.9-5.9-2.2c-2.7-0.4-5.3-0.7-8-1c-11.3-1.2-22.7-1.8-34-2c-22.8-0.4-45.6,0.5-68.4,0.4
	c-5.7,0-11.4-0.1-17.1-0.3c-5.2-0.2-10.6-0.3-15.8-0.9c-4.2-0.6-8.7-1.8-11.6-5.2c-3-3.7-4-9.1-4.6-13.7c-0.7-5.4-0.4-10.9,0.6-16.2
	c0.4-2.3-3-3.2-3.5-1c-1,5.2-1.3,10.5-0.9,15.7c0.3,4.9,1.5,9.8,3.6,14.3c4.3,8.5,13.8,9.6,22.4,10.1c22.1,1.3,44.2,0.6,66.3,0.3
	s44.2-0.3,66.1,2.3c2.4,0.1,4.8,0.6,7.1,1.3c2.2,0.9,3.1,2.6,3.5,4.8c0.9,5.3,1.6,10.6,1.8,15.9c0.2,2.7,0.3,5.4,0.4,8.1
	c0,1.8,0.3,4.3-2,4.9c-2.3,0.5-5.2,0.1-7.6,0.1h-76c-22.4,0-44.8,0.1-67.3-0.2c-11.1-0.1-22.2-0.2-33.2-0.9
	c-5.5-0.3-10.9-1-16.3-2.1c-2.2-0.4-4.3-1.3-6.1-2.6c-1.6-1.5-2.7-3.4-3.2-5.6c-1.3-4.9-1.7-10.2-2.1-15.2
	c-0.5-5.4-0.9-10.9-1.1-16.3c-0.4-11,0-22,1.1-33c1.7-17.3,5.1-35.6,15.7-49.9c5.6-7.3,12.9-12.9,21.3-16.5
	c9.6-4.2,19.8-7.1,30.2-8.6c5.2-0.7,10.4-1.1,15.6-1.2c2.3,0,2.3-3.6,0-3.6V168.9z"/>
<path class="st1" d="M405.7,284.5l0.4-30.4l-3.1,1.3c8.7,10,13.2,22.9,22.2,32.6c1.6,1.7,4.1-0.9,2.5-2.6
	c-9-9.7-13.5-22.6-22.2-32.6c-0.7-0.7-1.9-0.7-2.6,0c-0.3,0.3-0.5,0.8-0.5,1.2l-0.4,30.4c0,1,0.8,1.8,1.8,1.8
	C404.9,286.3,405.7,285.5,405.7,284.5L405.7,284.5z"/>
<path class="st1" d="M371.6,179.6c20.6-1.8,40.9,5.2,56.1,19.2c7.8,7.2,13.2,15.9,17.9,25.4c4.7,9.5,9,19.2,16.2,26.9
	c8.6,9.3,20.9,14.2,33.5,13.5c2.3-0.1,2.3-3.7,0-3.6c-11.3,0.7-22.3-3.6-30.2-11.7c-7.4-7.6-11.7-17.5-16.3-26.8
	c-4.6-9.3-10-18.2-17.7-25.6c-7.4-7-16.1-12.5-25.6-16.1c-10.7-4.2-22.3-5.8-33.8-4.8C369.3,176.3,369.3,179.9,371.6,179.6
	L371.6,179.6z"/>
<path class="st1" d="M445.2,293.7c3-1.3,6.2-2.3,9.5-2.8c3.1-0.6,6.2-0.7,9.3-0.1c5.7,1.4,4.8,7.9,2.7,12c-0.5,0.9-0.2,2,0.7,2.5
	c0.3,0.1,0.6,0.2,0.9,0.2c5.1-0.2,10.5-2,15.6-0.9c3.7,0.7,8,3.3,7.5,7.7c-0.5,5-5.4,7.7-9.8,8.9c-5.2,1.3-10.5,2.1-15.8,2.5
	c-6.2,0.8-12.5,0.4-18.7-1c-1-0.2-1.9,0.4-2.1,1.4c-0.2,0.9,0.3,1.8,1.2,2.1c6.3,1.5,12.9,1.9,19.3,1.1c3.2-0.3,6.3-0.7,9.4-1.2
	c3-0.4,5.9-1,8.8-1.8c5.1-1.6,10-5.1,11-10.7c1-5.3-2.3-9.6-7-11.5c-6.3-2.6-13-0.3-19.5-0.1l1.5,2.7c2.8-5.5,3.6-13.7-3.1-16.7
	c-3.5-1.5-7.7-1.2-11.4-0.7c-4.1,0.5-8.2,1.7-12,3.4C441.2,291.5,443,294.6,445.2,293.7L445.2,293.7z"/>
<path class="st1" d="M235.8,323.6v299.9c0,6.5-0.2,13.1,0,19.7c0,4.5,0.8,9,2.6,13.2c4.2,8.7,14.5,9.6,23.1,9.4
	c5-0.1,10-0.6,15.1-0.9c6.1-0.4,12.3-0.2,18.5-0.2h448.4c1,0,1.8-0.8,1.8-1.8s-0.8-1.8-1.8-1.8H321.3c-13.8,0-27.6-0.3-41.4,0
	c-9.4,0.2-19.2,2.3-28.5,0.3c-4.8-1-8.4-3.3-10.2-8c-1.6-4.3-1.7-9.1-1.7-13.7c0-13.7,0-27.5,0-41.2v-275c0-1-0.8-1.8-1.8-1.8
	C236.6,321.8,235.8,322.6,235.8,323.6z"/>
<path class="st1" d="M480.7,324c0.5,7.9,5.5,14.7,12.1,18.9c7.7,4.9,17.3,6,26.2,5.7c8.9-0.3,18.5-1.7,26.2-6.5
	c6.8-4.5,12-11.1,14.9-18.8c3.5-8.9,3.9-18.8,3-28.3c-0.9-9-2.4-18.5-8.7-25.4c-6-6.5-14.6-11.1-23-13.5c-8.4-2.5-17.3-2.5-25.7,0
	c-7.7,2.3-14.4,7.1-19.2,13.5c-2.5,3.7-4.4,7.8-5.5,12.1c-1.4,4.5-2.1,9.2-2.3,13.9c0,2.3,0.2,4.7,0.5,7s3.8,1.3,3.5-0.9
	c-0.6-4.4-0.5-8.8,0.4-13.1c0.8-4.3,2.1-8.5,3.9-12.5c3.3-6.6,8.8-11.8,15.5-14.8c14.7-6.9,32.3-2.7,44.9,6.8c3.3,2.4,6,5.5,8,9.1
	c1.8,3.7,2.9,7.7,3.4,11.8c1.4,8.9,1.9,18.2-0.1,27c-1.5,7.3-5.2,14-10.5,19.3c-5.9,5.7-13.8,8.2-21.8,9.2
	c-9.3,1.1-19.5,1.2-28.1-2.7c-7.1-3.2-13.4-9.6-13.9-17.7C484.1,321.7,480.5,321.7,480.7,324L480.7,324z"/>
<path class="st1" d="M539.9,442.5c-0.4-0.4-0.6-1-0.6-1.5v-12.6c-0.1-1,0.6-1.9,1.6-2c0.1,0,0.3,0,0.4,0h7.9c0.5,0,1.1,0.1,1.5,0.4
	c0.7,0.7,0.7,1.8,0,2.6c-0.5,0.3-1,0.4-1.5,0.4h-5.6v3h5.2c0.5,0,1.1,0.1,1.5,0.4s0.5,0.8,0.5,1.3s-0.1,1-0.5,1.3
	c-0.5,0.3-1,0.4-1.5,0.4h-5.2v4.7c0,0.6-0.2,1.1-0.6,1.6C542.1,443.2,540.8,443.2,539.9,442.5L539.9,442.5z"/>
<path class="st1" d="M555.5,441.3c-1.3-1.4-2-3.4-1.9-5.3v-7.6c0-0.6,0.2-1.1,0.6-1.5c0.9-0.8,2.2-0.8,3.1,0c0.4,0.4,0.6,1,0.6,1.5
	v7.7c-0.1,1,0.2,2,0.8,2.7s1.4,1,2.3,1c0.9,0.1,1.7-0.3,2.3-1c0.6-0.8,0.9-1.8,0.8-2.7v-7.7c-0.1-1.1,0.8-2,1.8-2.1
	c0.1,0,0.2,0,0.3,0c0.6,0,1.1,0.2,1.5,0.6s0.6,1,0.6,1.5v7.6c0.1,2-0.6,3.9-1.9,5.3C563.2,443.7,558.7,443.7,555.5,441.3
	L555.5,441.3z"/>
<path class="st1" d="M586.4,441.3c0,0.5-0.2,1-0.6,1.3c-0.4,0.3-0.9,0.5-1.4,0.5c-0.4,0-0.7-0.1-1.1-0.3c-0.3-0.2-0.6-0.4-0.8-0.8
	l-3-4.5c-0.2-0.3-0.4-0.5-0.7-0.7s-0.6-0.2-0.9-0.2h-1.5v4.2c0,0.6-0.2,1.1-0.6,1.6c-0.4,0.4-1,0.6-1.5,0.6c-1.1,0.1-2-0.7-2.1-1.8
	c0-0.1,0-0.2,0-0.3v-12.5c0-0.5,0.1-1.1,0.5-1.5s0.9-0.5,1.5-0.5h5.9c1.6-0.1,3.2,0.3,4.5,1.3c1,1,1.6,2.3,1.5,3.8
	c0,1.1-0.3,2.3-1,3.2c-0.7,0.9-1.8,1.5-2.9,1.7c0.5,0.1,0.9,0.2,1.3,0.5c0.5,0.3,0.9,0.7,1.2,1.2l1.4,2.1
	C586.3,440.5,586.4,440.9,586.4,441.3z M581.4,433c0.4-0.3,0.7-0.9,0.6-1.4c0-0.6-0.2-1.1-0.6-1.5c-0.6-0.4-1.3-0.5-2-0.5h-3v3.8h3
	C580,433.5,580.7,433.4,581.4,433z"/>
<path class="st1" d="M603.8,426.9c0.4,0.4,0.6,0.9,0.6,1.5v12.5c0,0.6-0.2,1.1-0.6,1.5c-0.4,0.4-0.9,0.6-1.4,0.6
	c-0.6,0-1.2-0.2-1.6-0.7l-7.1-8.9v7.5c0,0.6-0.2,1.1-0.5,1.5c-0.4,0.4-0.9,0.6-1.4,0.6s-1.1-0.2-1.5-0.6s-0.6-1-0.6-1.5v-12.5
	c0-0.6,0.2-1.1,0.6-1.5c0.4-0.4,0.9-0.6,1.5-0.6s1.2,0.2,1.6,0.7l7.1,8.9v-7.5c0-0.5,0.2-1.1,0.5-1.5c0.4-0.4,0.9-0.6,1.4-0.6
	C602.8,426.3,603.4,426.5,603.8,426.9z"/>
<path class="st1" d="M608.9,442.5c-0.4-0.4-0.6-1-0.6-1.6v-12.6c0-0.6,0.2-1.1,0.6-1.5c0.4-0.4,1-0.6,1.6-0.6s1.2,0.2,1.6,0.6
	c0.4,0.4,0.6,1,0.6,1.5v12.5c0,0.6-0.2,1.1-0.6,1.6c-0.4,0.4-1,0.6-1.6,0.6C609.8,443,609.3,442.8,608.9,442.5z"/>
<path class="st1" d="M620.8,442.5c-0.4-0.4-0.6-1-0.6-1.5v-11h-3.3c-0.5,0-1.1-0.1-1.5-0.4s-0.5-0.8-0.5-1.3s0.1-1,0.5-1.3
	s1-0.5,1.5-0.4h10.9c0.5,0,1.1,0.1,1.5,0.4s0.5,0.8,0.5,1.3s-0.1,1-0.5,1.3s-1,0.5-1.5,0.4h-3.3v11c0,0.6-0.2,1.1-0.6,1.5
	C623.1,443.2,621.7,443.2,620.8,442.5z"/>
<path class="st1" d="M634,441.3c-1.3-1.4-2-3.4-1.9-5.3v-7.6c-0.1-1.1,0.8-2,1.8-2.1c0.1,0,0.2,0,0.3,0c1.1-0.1,2,0.7,2.1,1.8
	c0,0.1,0,0.2,0,0.3v7.7c-0.1,1,0.2,2,0.8,2.7c1.2,1.3,3.3,1.3,4.6,0l0,0c0.6-0.8,0.9-1.8,0.8-2.7v-7.7c0-0.6,0.2-1.1,0.6-1.5
	c0.4-0.4,1-0.6,1.5-0.6c0.6,0,1.1,0.2,1.5,0.6s0.6,1,0.6,1.5v7.6c0.1,2-0.6,3.9-1.9,5.3C641.7,443.7,637.2,443.7,634,441.3
	L634,441.3z"/>
<path class="st1" d="M664.9,441.3c0,0.5-0.2,1-0.6,1.3c-0.4,0.3-0.9,0.5-1.4,0.5c-0.4,0-0.7-0.1-1.1-0.3c-0.3-0.2-0.6-0.4-0.8-0.8
	l-3-4.5c-0.2-0.3-0.4-0.5-0.7-0.7s-0.6-0.2-0.9-0.2h-1.5v4.2c0,0.6-0.2,1.1-0.6,1.6c-0.4,0.4-1,0.6-1.5,0.6c-1.1,0.1-2-0.7-2.1-1.8
	c0-0.1,0-0.2,0-0.3v-12.5c-0.1-1,0.6-1.9,1.6-2c0.1,0,0.3,0,0.4,0h5.9c1.6-0.1,3.2,0.3,4.5,1.3c1,1,1.6,2.3,1.5,3.8
	c0,1.1-0.3,2.3-1,3.2c-0.7,0.9-1.8,1.5-2.9,1.7c0.5,0.1,0.9,0.2,1.3,0.5c0.5,0.3,0.9,0.7,1.2,1.2l1.4,2.1
	C664.8,440.5,664.9,440.9,664.9,441.3z M659.8,433c0.4-0.3,0.7-0.9,0.6-1.4c0.1-0.6-0.2-1.1-0.6-1.5c-0.6-0.4-1.3-0.5-2-0.5h-3v3.8
	h3C658.5,433.5,659.2,433.4,659.8,433z"/>
<path class="st1" d="M668.6,442.3c-0.4-0.4-0.6-0.9-0.5-1.5v-12.5c-0.1-1,0.6-1.9,1.6-2c0.1,0,0.3,0,0.4,0h8.1
	c0.5,0,1.1,0.1,1.5,0.4s0.5,0.7,0.5,1.2c0,1.1-0.7,1.7-2,1.7h-5.9v3.2h5.4c1.4,0,2,0.6,2,1.7c0,0.5-0.2,0.9-0.5,1.2
	c-0.4,0.3-1,0.5-1.5,0.4h-5.4v3.4h5.9c1.4,0,2,0.6,2,1.7c0,0.5-0.2,0.9-0.5,1.2c-0.4,0.3-1,0.5-1.5,0.4h-8.1
	C669.5,442.9,669,442.7,668.6,442.3z"/>
<path class="st1" d="M551,451.9c0.5,0,1,0.2,1.4,0.6c0.4,0.3,0.6,0.9,0.6,1.4s-0.2,0.9-0.5,1.3l-4.9,5.7v5.7c0,0.6-0.2,1.2-0.6,1.6
	c-0.4,0.4-1,0.6-1.5,0.6c-0.6,0-1.1-0.2-1.6-0.6c-0.4-0.4-0.7-1-0.6-1.6v-5.7l-4.9-5.7c-0.3-0.4-0.5-0.8-0.5-1.3s0.2-1,0.6-1.4
	c0.4-0.4,0.9-0.6,1.4-0.6c0.6,0,1.1,0.3,1.4,0.7l4.1,4.9l4.1-4.9C549.9,452.2,550.4,451.9,551,451.9z"/>
<path class="st1" d="M558,467.7c-1.2-0.7-2.2-1.7-2.9-2.9c-1.3-2.8-1.3-6.1,0-9c0.6-1.2,1.6-2.3,2.9-2.9c2.8-1.4,6-1.4,8.8,0
	c1.2,0.7,2.2,1.7,2.9,2.9c0.7,1.4,1,2.9,1,4.5s-0.3,3.1-1,4.5c-0.6,1.2-1.6,2.3-2.9,2.9C564,469.1,560.7,469.1,558,467.7L558,467.7z
	 M565.3,464.1c0.8-1.1,1.1-2.5,1-3.8c0.1-1.4-0.3-2.7-1.1-3.8c-0.7-0.9-1.8-1.4-2.9-1.3c-1.1,0-2.2,0.4-2.9,1.3
	c-1.4,2.4-1.4,5.3,0,7.7c1.4,1.6,3.9,1.8,5.5,0.3C565.1,464.4,565.2,464.3,565.3,464.1L565.3,464.1z"/>
<path class="st1" d="M575.9,466.9c-1.3-1.5-2-3.4-1.9-5.3V454c0-1.2,0.9-2.1,2.1-2.1c1.2,0,2.1,0.9,2.1,2.1v7.7
	c-0.1,1,0.2,2,0.8,2.7s1.4,1,2.3,1c0.9,0.1,1.7-0.3,2.3-1c0.6-0.8,0.9-1.8,0.8-2.7V454c-0.1-1.1,0.7-2,1.8-2.1c0.1,0,0.2,0,0.3,0
	c0.6,0,1.1,0.2,1.5,0.6s0.6,1,0.6,1.5v7.6c0.1,2-0.6,3.9-1.9,5.3C583.5,469.4,579.1,469.4,575.9,466.9L575.9,466.9z"/>
<path class="st1" d="M621.1,452.2c0.8-0.5,1.8-0.5,2.5,0.1c0.4,0.3,0.6,0.8,0.6,1.3c0,0.3-0.1,0.6-0.2,0.9l-4.7,12.7
	c-0.2,0.4-0.5,0.8-0.9,1s-0.9,0.4-1.4,0.4s-1-0.1-1.4-0.4c-0.4-0.2-0.7-0.6-0.8-1l-3-8.7l-3.2,8.7c-0.2,0.4-0.5,0.8-0.9,1
	s-0.9,0.4-1.3,0.4c-0.5,0-1-0.1-1.4-0.4c-0.4-0.2-0.7-0.6-0.8-1l-4.8-12.7c-0.1-0.3-0.2-0.6-0.2-0.9c0-0.5,0.2-1,0.6-1.4
	c0.8-0.6,1.8-0.7,2.6-0.2c0.4,0.2,0.7,0.6,0.8,1l3.2,9.2l3.4-9.2c0.1-0.4,0.4-0.8,0.8-1c0.4-0.2,0.8-0.4,1.2-0.4
	c0.9,0,1.6,0.6,1.9,1.4l3.2,9.4l3.3-9.4C620.4,452.8,620.7,452.5,621.1,452.2z"/>
<path class="st1" d="M627.9,468.1c-0.4-0.4-0.6-1-0.6-1.6V454c0-0.6,0.2-1.1,0.6-1.5c0.4-0.4,1-0.6,1.6-0.6s1.2,0.2,1.6,0.6
	c0.4,0.4,0.6,1,0.6,1.5v12.5c0,0.6-0.2,1.1-0.6,1.6c-0.4,0.4-1,0.6-1.6,0.6C628.8,468.7,628.3,468.5,627.9,468.1z"/>
<path class="st1" d="M636,468c-0.4-0.4-0.6-0.9-0.5-1.5V454c-0.1-1.1,0.7-2,1.8-2.1c0.1,0,0.2,0,0.3,0c0.6,0,1.2,0.2,1.6,0.6
	c0.4,0.4,0.6,1,0.6,1.5v11h5.4c1.4,0,2,0.6,2,1.7c0,0.5-0.1,1-0.5,1.3s-1,0.5-1.5,0.4h-7.7C637,468.6,636.4,468.4,636,468z"/>
<path class="st1" d="M650.4,468c-0.4-0.4-0.6-0.9-0.5-1.5V454c-0.1-1.1,0.7-2,1.8-2.1c0.1,0,0.2,0,0.3,0c0.6,0,1.2,0.2,1.6,0.6
	c0.4,0.4,0.6,1,0.6,1.5v11h5.4c1.4,0,2,0.6,2,1.7c0,0.5-0.1,1-0.5,1.3s-1,0.5-1.5,0.4h-7.7C651.3,468.6,650.8,468.4,650.4,468z"/>
<path class="st1" d="M539.8,493.7c-0.4-0.4-0.6-0.9-0.5-1.5v-12.5c0-0.6,0.2-1.1,0.6-1.5c0.4-0.4,1-0.6,1.6-0.6s1.2,0.2,1.6,0.6
	c0.4,0.4,0.6,1,0.6,1.5v11h5.4c1.4,0,2,0.6,2,1.8c0,0.5-0.1,1-0.5,1.3s-1,0.5-1.5,0.4h-7.7C540.7,494.3,540.2,494.1,539.8,493.7z"/>
<path class="st1" d="M556.1,493.4c-1.2-0.7-2.2-1.7-2.9-2.9c-1.3-2.8-1.3-6.1,0-9c0.6-1.2,1.6-2.3,2.9-2.9c2.8-1.4,6-1.4,8.8,0
	c1.2,0.7,2.2,1.7,2.9,2.9c0.7,1.4,1,2.9,1,4.5s-0.3,3.1-1,4.5c-0.6,1.2-1.6,2.3-2.9,2.9C562.1,494.8,558.9,494.8,556.1,493.4z
	 M563.4,489.8c0.8-1.1,1.1-2.5,1.1-3.8c0.1-1.4-0.3-2.7-1.1-3.8c-1.4-1.6-3.9-1.7-5.5-0.3c-0.1,0.1-0.2,0.2-0.3,0.3
	c-1.4,2.4-1.4,5.3,0,7.7c1.4,1.6,3.9,1.8,5.5,0.3C563.2,490.1,563.3,490,563.4,489.8L563.4,489.8z"/>
<path class="st1" d="M584.3,477.9c0.3-0.2,0.7-0.3,1-0.3c0.6,0,1.1,0.2,1.5,0.5s0.7,0.8,0.7,1.4c0,0.3-0.1,0.6-0.2,0.8l-6.2,12.8
	c-0.2,0.4-0.5,0.8-0.9,1s-0.8,0.3-1.3,0.3s-0.9-0.1-1.3-0.3c-0.4-0.2-0.7-0.6-0.9-1l-6.2-12.8c-0.1-0.3-0.2-0.5-0.2-0.8
	c0-0.5,0.3-1,0.7-1.3c0.4-0.4,1-0.6,1.6-0.6c0.4,0,0.7,0.1,1,0.3c0.3,0.2,0.6,0.5,0.7,0.8l4.6,10l4.6-10
	C583.7,478.4,584,478.1,584.3,477.9z"/>
<path class="st1" d="M590.6,493.7c-0.4-0.4-0.6-0.9-0.5-1.5v-12.5c-0.1-1,0.6-1.9,1.6-2c0.1,0,0.3,0,0.4,0h8.1
	c0.5,0,1.1,0.1,1.5,0.4s0.5,0.7,0.5,1.2c0,1.1-0.7,1.7-2,1.7h-5.9v3.1h5.4c1.4,0,2,0.6,2,1.7c0,0.5-0.2,0.9-0.5,1.2
	c-0.4,0.3-1,0.5-1.5,0.4h-5.4v3.4h5.9c1.4,0,2,0.6,2,1.7c0,0.5-0.2,0.9-0.5,1.2c-0.4,0.3-1,0.5-1.5,0.4h-8.1
	C591.5,494.2,591,494.1,590.6,493.7z"/>
<path class="st1" d="M689,387.9l24.4-1.1c2.3-0.1,2.3-3.7,0-3.6l-24.4,1.1C686.7,384.4,686.7,388,689,387.9z"/>
<path class="st1" d="M689.3,396.2l24.4-1.1c2.3-0.1,2.3-3.7,0-3.6l-24.4,1.1C687,392.8,687,396.3,689.3,396.2z"/>
<path class="st1" d="M689,404.6l24.4-1.1c2.3-0.1,2.3-3.7,0-3.6L689,401C686.7,401.1,686.7,404.7,689,404.6z"/>
<path class="st1" d="M378.8,531.4c0-21.3,0-42.6,0-63.9c0-9.1,0.1-18.2,0.1-27.3c0-5.7-1.4-12.1-8.2-12.7c-2.4-0.2-5,0-7.4,0h-8.1
	c-5.4,0-10.8,0-16.1,0c-10.6,0-21.3,0.2-31.9,0c-9.8-0.2-19.6-1.3-29.3,0c-3.3,0.4-6.7,1.3-9.1,3.8c-2,2.3-3.2,5.2-3.4,8.2
	c-0.3,4.7-0.4,9.3-0.2,14c0,5.4,0,10.8,0,16.1c0,10.8,0,21.6,0,32.3c0,21.4,0,42.9,0.1,64.3V598c0,2.5,0,5,0,7.5
	c-0.1,2.1,0.1,4.2,0.5,6.3c0.9,3.9,4.1,6.7,8.1,7c1.8,0.1,3.7,0.1,5.5,0c2.5-0.1,5.1,0,7.6,0h48c10.2,0,20.4-0.1,30.5,0.2
	c3.9,0.1,8.1-0.5,10.8-3.6c2.3-2.6,2.7-6.3,2.7-9.7c0-3.7-0.4-7.3-0.4-11c0-5.3,0-10.5,0-15.8c0-10.6,0-21.2,0-31.7
	c0-5.2,0-10.5,0-15.7c0-1-0.8-1.8-1.8-1.8s-1.8,0.8-1.8,1.8c0,20.3,0,40.6,0,60.9c0,3.7,0.2,7.4,0.4,11.1c0.2,2.9,0.5,6.9-1.5,9.3
	c-2.4,3.1-7,2.7-10.4,2.5c-4.8-0.2-9.7-0.1-14.5-0.1h-61.1c-2.6,0-5.1,0-7.7,0c-1.8,0-3.6,0.2-5.3,0.1c-1.6,0-3.1-0.6-4.2-1.7
	c-1.2-1.6-1.8-3.6-1.7-5.5c-0.2-4.7,0-9.5,0-14.2c0-5,0-10,0-15c0-20.5,0-41.1-0.1-61.6s0-41.1,0.1-61.7c0-4.8-0.2-9.6,0-14.4
	c0.1-2.6,0.6-5.4,2.4-7.4c2.4-2.4,6-2.8,9.2-3.1c4.7-0.4,9.3-0.4,14-0.2c4.8,0.2,9.5,0.4,14.3,0.5c5,0.1,10,0,15,0
	c10.3,0,20.5,0,30.8,0c5.1,0,10.2-0.1,15.3,0c2.3-0.1,4.3,1.5,4.7,3.8c0.6,2.5,0.7,5.1,0.5,7.7c-0.1,4.3,0,8.6,0,12.9
	c0,20.4,0,40.7,0,61.1c0,4.9,0,9.9,0,14.9c0.1,1,1,1.7,1.9,1.6C378,533,378.7,532.3,378.8,531.4z"/>
<path class="st1" d="M488.7,431.8c0.6,0,1.2,0,1.6,0.4s0.3,1.4,0.3,1.9c0.1,1.8,0.2,3.5,0.4,5.3c0.2,3.5,0.4,7.1,0.5,10.6
	c0.3,7.2,0.4,14.4,0.4,21.6c0,6.7-0.1,13.5,0,20.2c0.1,3.2,0,6.4-0.2,9.6c0.1,2.2-1,4.3-2.7,5.6c-4.4,3.2-10.6,2.5-15.7,2.6
	c-6,0.1-12,0-18,0l-14.5,0.1c-12.1,0.1-24.2,0.3-36.3-0.1c-0.5,0-0.5-0.2,0,0c-0.2-0.1,0.8,0.7,0.7,0.6c0.8,0.9,0.4,0.2,0.4-0.4
	l-0.1-1.8l-0.4-10.8l-0.8-21.5c-0.3-7.2-0.5-14.4-0.8-21.6c-0.1-3.5-0.3-7-0.4-10.5c-0.2-2.2,0.1-4.4,0.7-6.5
	c1.8-4.9,7.7-5.4,12.2-5.6c6.3-0.3,12.6,0.4,18.8,0.4c14.4-0.1,28.8-0.2,43.1-0.3c3.6,0,7.2,0,10.8,0c1,0,1.8-0.8,1.8-1.8
	s-0.8-1.8-1.8-1.8c-15.4,0-30.7,0.1-46.1,0.2c-7,0.1-13.9-0.1-20.8-0.3c-3.4-0.2-6.7,0-10.1,0.4c-2.8,0.2-5.4,1.2-7.7,2.7
	c-3.9,3-4.7,7.9-4.5,12.5c0.2,7.4,0.6,14.8,0.8,22.2c0.3,7.8,0.6,15.5,0.9,23.3l0.4,11.3l0.2,5.4l0.1,3c-0.1,1,0,1.9,0.2,2.9
	c0.5,1.7,2.8,1.4,4.2,1.5c2.7,0.1,5.3,0.1,8,0.1c7.6,0,15.1,0,22.7,0l17.6-0.1c5.2,0,10.3,0,15.5,0c3.7,0,7.4,0,11.1-0.2
	c2.5-0.1,5-0.6,7.3-1.6c2.2-0.9,4.1-2.4,5.4-4.3c1.5-2.4,1.5-5.3,1.7-8.1c0.3-7-0.1-14,0-21c0.1-7.6,0.1-15.2-0.2-22.8
	c-0.2-7.4-0.4-14.9-1.2-22.2c0-1.3-0.5-2.6-1.3-3.6c-1.1-1-2.6-1.4-4-1.3C486.3,428.2,486.3,431.7,488.7,431.8z"/>
<path class="st1" d="M488.5,534.7c3.3,3.3,3.6,8.4,3.7,12.7c0.1,5.1,0.1,10.2,0.3,15.2c0.2,6.6,0.3,13.2,0.2,19.7
	c-0.1,5.6,0.2,11.3,0,16.9c-0.1,2.7-0.4,5.5-0.9,8.2c-0.3,1.8-1.1,3.5-2.4,4.8c-2.5,2.4-6.4,2.7-9.6,2.8c-3.6,0.1-7.2-0.3-10.8-0.2
	c-6.6,0.2-13.2,0.4-19.7,0.6c-6.2,0.2-12.4,0-18.6,0.4c-5.1,0.3-10.2,1-15.3,0.6c-4.4-0.3-8.9-1.6-10.9-6s-1.5-9.8-1.5-14.5
	c0-13,0-26.1,0-39.1c0-2.9,0.1-5.9,0-8.8c-0.1-2.1-0.3-4.2-0.1-6.3c0-2,0.5-3.9,1.5-5.6c1.3-1.9,3.7-2.7,5.8-3.1
	c5-0.9,10.3,0,15.3,0l19.7-0.2l19.9-0.2c3.1,0,6.3,0,9.4-0.1c2.5-0.1,5-0.4,7.5-0.3c2.4,0,4.8,0.8,6.6,2.4c1.7,1.5,4.3-1,2.6-2.5
	c-4.3-3.9-9.9-3.5-15.3-3.2c-6.6,0.4-13.3,0.2-20,0.2l-21.4,0.2c-3.6,0-7.2,0.1-10.8,0.1c-2.6,0-5.2-0.2-7.8-0.3
	c-4.9-0.1-10.9,0.3-14.2,4.5c-2.9,3.7-2.7,8.7-2.4,13.2c0.3,6.3,0.1,12.6,0.1,18.9c0,7.1,0,14.2,0,21.3c0,3.5,0,6.9,0,10.4
	c-0.1,2.7,0,5.4,0.2,8c0.5,4.7,2.2,9.6,6.4,12.1c4.5,2.7,10.3,2.7,15.3,2.5c5.7-0.3,11.4-0.7,17.1-0.8c12.2-0.2,24.5-1.1,36.7-0.7
	c7.6,0.3,17.4-0.2,19.8-9c1.6-5.8,1.4-12.1,1.3-18c-0.1-6.4,0.1-12.8,0-19.2s-0.5-12.9-0.5-19.3c0-4.9,0.3-10.1-1.2-14.9
	c-0.7-2.3-1.9-4.3-3.6-6C489.4,530.6,486.8,533.1,488.5,534.7z"/>
<path class="st1" d="M288.3,454.4v35c0,1,0.8,1.8,1.8,1.8h17.1c2.4,0,5.3,0.4,7.6-0.2s3.3-2.7,3.6-4.9c0.9-5.4-0.1-11-0.5-16.4
	c-0.5-5.6-1-11.3-1.5-16.9c0-1-0.8-1.8-1.8-1.8c-8.2-0.7-16.5-0.5-24.7,0.6c-2.3,0.3-1.3,3.8,1,3.5c7.9-1.1,15.8-1.3,23.7-0.5
	l-1.8-1.8c0.5,5.1,0.9,10.1,1.3,15.2c0.6,4.9,0.9,9.8,1,14.8c0,1.2-0.1,2.4-0.4,3.6c-0.3,1-0.8,1.2-1.8,1.2c-2.5,0.1-5,0-7.5,0
	h-15.3l1.8,1.8v-35c0-1-0.8-1.8-1.8-1.8C289.1,452.6,288.3,453.4,288.3,454.4L288.3,454.4L288.3,454.4z"/>
<path class="st1" d="M293,490c2.4-8.5,4.8-17.4,10.5-24.3l-2.8-0.4c4.5,7.4,8.2,15.3,11,23.6c0.7,2.2,4.2,1.2,3.5-0.9
	c-2.9-8.5-6.7-16.7-11.4-24.4c-0.5-0.9-1.6-1.1-2.5-0.6c-0.1,0.1-0.2,0.2-0.3,0.3c-6.1,7.5-8.9,16.8-11.4,25.9
	c-0.2,1,0.4,1.9,1.3,2.2C291.8,491.4,292.7,490.9,293,490z"/>
<path class="st1" d="M530.5,281.2c-5.1-1.4-10.4-1.5-15.6-0.3c-4.7,1.3-8.7,4.3-11.1,8.6c-4.7,8-5.4,18.3-0.5,26.4
	c4.6,7.6,13.7,12.1,22.5,9.9c4.6-1.3,8.7-3.8,12-7.3c3.4-3.4,5.5-8,6-12.8c0.8-5.2,0.1-10.4-2-15.2
	C539.4,286,535.3,282.6,530.5,281.2c-2.2-0.7-3.2,2.8-0.9,3.5c3.7,1,6.8,3.5,8.7,6.7c1.7,3.4,2.5,7.2,2.2,11c-0.1,4-1,8.3-3.5,11.6
	c-2.5,3.1-5.7,5.6-9.3,7.3c-7,3.3-15.4,0.7-20-5.3c-4.8-6.2-5.2-14.6-2.2-21.6c1.7-4.1,4.6-7.9,8.9-9.5c5-1.6,10.3-1.7,15.3-0.2
	c1,0.3,2-0.3,2.2-1.3S531.4,281.5,530.5,281.2L530.5,281.2z"/>
<path class="st1" d="M560.9,287.4c22.8-1.5,45.6-3.2,68.4-3.5c2.7-0.1,5.5,0.1,8.2,0.4c1.1,0.2,2.1,0.2,2.4,1.3
	c0.3,1.3,0.6,2.6,0.8,3.9c0.5,2.6,0.9,5.3,1.1,8c0,0.2,0.2,1.3,0,1.5s-1.1,0.2-1.3,0.2l-4.4,0.3c-11.3,0.9-22.7,1.5-34.1,1.9
	c-12.9,0.5-25.7,0.7-38.6,0.6c-1,0-1.8,0.8-1.8,1.8s0.8,1.8,1.8,1.8c24.6,0.2,49.3-0.7,73.9-2.6c2.2-0.2,5.6,0.2,7.3-1.6
	c1.6-1.8,0.7-5.4,0.4-7.6c-0.4-2.9-0.8-5.7-1.5-8.6c-0.4-2.3-2.2-4.1-4.5-4.3c-5.9-1.1-12-0.6-17.9-0.5c-6.2,0.2-12.3,0.5-18.5,0.8
	c-13.9,0.7-27.8,1.6-41.7,2.5C558.5,284,558.5,287.6,560.9,287.4L560.9,287.4z"/>
<path class="st1" d="M596.1,304.8c-0.2,2.8-0.3,5.6-0.2,8.4c0,1.4,0.1,2.7,0.3,4c0,0.8,0.4,1.6,1,2.1c0.6,0.4,1.4,0.6,2.1,0.6
	c2.8,0.3,5.5,0.2,8.3-0.3c1.4-0.2,2.5-1.2,3-2.5c0.3-1.1,0.4-2.3,0.3-3.4l-0.3-9.4c0-1-0.8-1.8-1.8-1.8s-1.8,0.8-1.8,1.8l0.3,7
	c0,1.1,0.1,2.3,0.1,3.4v0.6c0,0.1,0,0.3,0,0.4c0,0,0-0.2,0,0c0,0.1,0,0.2-0.1,0.3c0,0,0.1-0.2,0,0s0,0,0,0l-0.1,0.1l-0.5,0.1
	l-0.6,0.1c-0.5,0.1-1.1,0.1-1.6,0.2c-1.1,0.1-2.3,0.1-3.4,0.1c-0.6,0-1.1-0.1-1.7-0.1c-0.1,0-0.3-0.1-0.4,0c0.2-0.1,0.6,0.6,0.5,0.4
	c0.6,0.8,0.3,0.5,0.3,0.2c0-0.2,0-0.4-0.1-0.7c-0.1-1.2-0.2-2.3-0.2-3.5c-0.1-2.7,0-5.3,0.2-8c0-1-0.8-1.8-1.8-1.8
	S596.2,303.8,596.1,304.8L596.1,304.8z"/>
<path class="st1" d="M619.6,302.9c0.1,4.1,0.3,8.1,0.6,12.2c0.2,2,0.3,4.1,0.5,6.1s0.3,4,2.6,4.2c1.9,0.1,3.7,0.1,5.6-0.2
	c1.8-0.1,3.7-0.3,5.5-0.6c1.6-0.3,3-1.3,3.8-2.8c0.8-1.7,0.4-3.7,0.2-5.5l-1.1-14c-0.2-2.3-3.8-2.3-3.6,0c0.4,5.5,1,11.1,1.3,16.6
	c0,0.8,0.1,1.6-0.7,1.9c-1,0.4-2.1,0.5-3.2,0.6c-1.4,0.1-2.7,0.2-4.1,0.3c-1.2,0.2-2.4,0.2-3.6,0l0.8,0.5c0.1,0.6,0.1,0.6,0,0v-0.4
	c0-0.4-0.1-0.8-0.1-1.2c-0.1-0.8-0.2-1.7-0.2-2.5c-0.1-1.7-0.3-3.4-0.4-5c-0.2-3.4-0.4-6.7-0.5-10.1
	C623.1,300.6,619.5,300.6,619.6,302.9L619.6,302.9z"/>
<path class="st1" d="M626.3,279.5c-5.5-5.5-8.4-13.2-5.9-20.8c2.7-7.4,8.7-13.2,16.2-15.6c7.1-2.1,14.8-0.7,20.7,3.8
	c5.7,4.5,8.9,11.5,8.9,18.7c-0.3,8-4.5,15.4-11.4,19.6c-0.6,0.3-0.9,0.9-0.9,1.6c1,10.9,1.3,21.8,1.6,32.7c0.1,2.8,0.3,6.6-1.6,9
	c-1.2,1.5-3.2,1.6-5,2c-2.8,0.6-5.6,1-8.5,1.2c-1.6,0.1-5.5,0.5-6.1-1.6c-0.5-1.7,0.1-3.8,0-5.5c-0.1-2.3-3.7-2.3-3.6,0
	c0.1,2-0.3,4.1,0,6.1c0.4,2,1.9,3.6,3.8,4.1c3,0.7,6.2,0.8,9.2,0.2c3.1-0.3,6.1-0.9,9.1-1.7c4-1.3,5.6-5.1,6-9
	c0.5-4.7,0.1-9.7-0.1-14.4c-0.2-7.7-0.7-15.4-1.4-23.1l-0.9,1.5c7.1-4.3,11.8-11.6,13-19.8c1-8.4-1.9-16.8-8-22.8
	c-6.2-5.9-14.8-8.4-23.2-6.9c-8.9,1.8-16.4,7.7-20.3,15.9c-2.1,4.4-2.7,9.5-1.7,14.3c1.2,4.9,3.8,9.4,7.4,12.9
	c0.7,0.7,1.8,0.7,2.5,0s0.7-1.8,0-2.5l0,0L626.3,279.5z"/>
<path class="st1" d="M574.2,306.8l1.4,28.1l0.3,7.2c0,1.9,0.2,3.8,0.8,5.6c1.5,3.6,5.6,4.6,9.1,5.2c4.4,0.5,8.9,0.8,13.3,0.7
	l13.7,0.2c9.3,0.1,18.6,0.3,28,0.3c18.6,0,37.3-0.3,55.9-1.3c7.1-0.4,16.6,0.1,19.9-7.6c1.4-3.3,1.5-6.9,1.8-10.4
	c0.3-4.7,0.6-9.5,0.9-14.2c0.9-18.6,1.2-37.1,1.2-55.8c0-9.2,0.1-18.5,0-27.7c-0.1-4.5-0.2-9-0.6-13.5c-0.2-2.1-0.4-4.3-0.6-6.4
	c-0.2-2.4-0.5-4.8-1-7.2c-1.1-4.3-5.6-4.1-9.2-4.5c-4.6-0.6-9.1-1.1-13.7-1.6c-9-0.9-18.1-1.6-27.2-2c-18.4-0.9-36.8-1.1-55.2-1.1
	h-14.1c-3.9-0.2-7.9,0-11.8,0.6c-3.6,0.6-6.8,2.5-9.1,5.4c-1.9,2.7-3.1,5.7-3.6,8.9c-0.8,4.1-1.2,8.3-1.6,12.5
	c-0.5,4.5-0.8,9-1.1,13.6c-0.6,9.2-0.8,18.5-0.7,27.8c0.1,4.5,0.2,9.1,0.5,13.6c0.1,2.3,3.7,2.3,3.6,0c-1-17.7-0.6-35.5,1.1-53.2
	c0.4-4,0.7-8.1,1.4-12c0.3-3.1,1.4-6,3-8.6c2-2.7,5.1-4.3,8.4-4.6c4.1-0.4,8.2-0.5,12.2-0.3c34.8-0.2,69.8-0.1,104.4,4.2
	c2.2,0.3,4.3,0.6,6.5,0.9c0.7,0,1.5,0.2,2.2,0.4c0.7,0.5,0.7,1.7,0.8,2.5c0.7,4.5,1.1,9,1.4,13.5c0.5,8.6,0.5,17.2,0.5,25.8
	c0,17.6,0,35.2-0.6,52.8c-0.3,8.9-0.7,17.8-1.3,26.7c-0.3,3.6-0.2,7.4-1.2,11c-1,3.5-3.4,5.5-7,6.2c-4,0.6-8,0.9-12,0.9
	c-4.3,0.2-8.7,0.4-13.1,0.6c-8.9,0.3-17.8,0.5-26.8,0.6c-17.6,0.1-35.3-0.1-52.9-0.4c-4.2-0.1-8.4,0-12.6-0.3c-3-0.2-8.8-0.4-9.7-4
	c-0.3-1.8-0.5-3.6-0.4-5.4l-0.4-7.2l-0.6-13.2l-0.6-13.2c-0.1-2.3-3.7-2.3-3.6,0L574.2,306.8z"/>
<path class="st1" d="M715.9,206.7c1.1-21.4,2.9-42.9,1.8-64.2c-0.5-9.8-1.2-20.1-4.4-29.6c-3-9-8.8-16.1-16.3-21.8
	c-14.8-10.9-32.9-16-51.2-14.6c-17.2,1.3-33.4,8.8-45.5,21.1c-6.4,6.7-11,14.8-14.6,23.3c-3.8,9-6.8,18.3-8.9,27.8
	c-2.1,9.1-3.2,18.4-3.3,27.7c0,3.8,0.4,8,3,11c2.3,2.6,6.3,2.8,9.5,3c6.1,0.3,15.3,2.9,19-3.6c1.8-3.1,2-6.9,2.3-10.4
	c0.5-5.1,1.1-10.3,2-15.3c3.2-17.7,10.5-37.1,27-46.4c7.5-4.4,16.5-5.5,24.9-3.1c8.4,2.6,13.7,9.7,16.8,17.6
	c7.3,18.7,7.2,39.7,5.4,59.4c-0.4,5-1,9.9-1.6,14.9c-0.3,2.3,3.3,2.3,3.6,0c2.4-19.7,4.1-39.9,0.4-59.6c-1.6-8.6-4-17.6-9.1-24.8
	c-4.8-6.9-12.3-11.3-20.7-12.1c-17.5-1.9-32.3,9.9-40.5,24.4c-4.6,8.5-7.8,17.7-9.4,27.3c-0.9,5-1.6,10-2.1,15
	c-0.4,3.5-0.3,7.6-1.9,10.9c-1.7,3.2-5.4,3-8.5,2.8s-6.4-0.5-9.6-0.7c-1.6,0-3.1-0.4-4.5-1.2c-1.3-1-1.8-3-2.1-4.6
	c-0.7-3.8-0.3-7.9,0-11.7c0.8-9.6,2.5-19.2,5.2-28.5c2.4-9.1,5.8-18,10.1-26.4c8.1-15.2,22-26.5,38.5-31.5
	c17.1-5.1,35.4-3.7,51.5,3.8c8,3.7,15.8,8.9,21.3,15.9c5.7,7.3,7.8,16.6,8.9,25.7c2.6,21,1.2,42.2,0.2,63.2l-0.8,15.2
	C712.2,209,715.8,209,715.9,206.7L715.9,206.7z"/>
<path class="st1" d="M559.7,322.7c5.6,0,11.3,0.1,16.9,0.1c1,0,1.8-0.8,1.8-1.8s-0.8-1.8-1.8-1.8c-5.6,0-11.3-0.1-16.9-0.1
	c-1,0-1.8,0.8-1.8,1.8C557.9,321.9,558.7,322.7,559.7,322.7z"/>
<path class="st1" d="M718.2,318.8c5.8,0,11.7,0.4,17.6,0.3c2.4,0,4.7-0.1,6,2.2c0.9,1.9,1.3,3.9,1.2,6c0.4,11.5,0.2,22.9,0.4,34.4
	c0.5,24.3,1.5,48.7,2.6,73c1,24.3,2.1,48.8,2.9,73.2c0.8,24.4,1.1,48.8,0.6,73.3c-0.5,24.4-1.7,48.5-4.2,72.6
	c-0.3,2.7-0.3,5.7-1.8,8.1c-0.5,0.9-0.1,2,0.7,2.4s1.9,0.2,2.4-0.6c1.2-2.3,1.9-4.9,2-7.5c0.3-3.1,0.6-6.1,0.9-9.2
	c0.6-6.2,1.1-12.5,1.5-18.7c0.8-12.4,1.4-24.8,1.8-37.1c0.7-25.2,0.5-50.4-0.1-75.6c-0.7-25.2-1.8-50.2-2.8-75.3s-2.1-50-2.7-75.1
	c-0.3-12.2-0.4-24.3-0.5-36.5c0-4-0.3-8.8-3.7-11.5c-1.9-1.5-4.3-1.7-6.6-1.7c-3,0.1-6-0.1-9-0.1c-3-0.1-6.1-0.1-9.1-0.1
	c-1,0-1.8,0.8-1.8,1.8C716.4,318.1,717.2,318.9,718.2,318.8L718.2,318.8z"/>
<path class="st1" d="M239.6,370.4h504.7c1,0,1.8-0.8,1.8-1.8s-0.8-1.8-1.8-1.8H239.6c-1,0-1.8,0.8-1.8,1.8S238.6,370.4,239.6,370.4z
	"/>
<path class="st1" d="M268.2,351.3c1.9-1.5,3.1-3.8,3-6.2c0-2.4-1.3-4.6-3.4-5.8c-2.7-1.3-5.9-0.6-7.9,1.7c-2.2,2.1-2.8,5.4-1.6,8.2
	c1.8,3.3,6,4.5,9.3,2.6C267.8,351.6,268,351.5,268.2,351.3c0.8-0.5,1.1-1.6,0.6-2.5s-1.6-1.1-2.5-0.6c-0.3,0.2-0.5,0.4-0.8,0.5
	c-0.4,0.2,0.3-0.1-0.2,0.1l-0.3,0.1l-0.5,0.1c-0.5,0.1,0.3,0-0.2,0H264c-0.1,0-0.7-0.1-0.3,0c-0.3-0.1-0.6-0.1-0.8-0.2s0.3,0.2,0,0
	l-0.4-0.2l-0.4-0.3c0.3,0.2,0.1,0,0,0s-0.2-0.2-0.3-0.3l-0.2-0.2c0.1,0.2,0.1,0.2,0,0s-0.3-0.4-0.4-0.6c0.2,0.4,0,0,0-0.1
	s-0.1-0.2-0.1-0.4c0-0.1-0.1,0,0,0.1c0-0.1,0-0.3,0-0.4s0-0.3,0-0.4s0-0.2,0-0.3v0.2c-0.1-0.2,0.1-0.6,0.2-0.8
	c0-0.2,0.3-0.7,0.1-0.3c0.1-0.2,0.2-0.5,0.4-0.7c0-0.1,0.1-0.1,0.1-0.2l0.1-0.2c-0.1,0.2-0.2,0.2,0,0s0.3-0.4,0.5-0.5l0.3-0.2
	c0.1-0.1,0.4-0.3,0-0.1c0.2-0.1,0.4-0.3,0.6-0.4l0.3-0.2c0.2-0.1,0.2-0.1-0.1,0l0.2-0.1c0.2-0.1,0.4-0.1,0.6-0.2c0.4-0.1-0.4,0,0,0
	h0.6c0.4,0-0.4-0.1,0,0c0.2,0,0.4,0.1,0.7,0.2c0.4,0.1-0.4-0.2,0,0l0.3,0.2c0.1,0,0.2,0.1,0.3,0.2c0.1,0.1,0.1,0.2-0.1-0.1
	c0.1,0.1,0.3,0.3,0.4,0.4l0.1,0.2c0.2,0.2-0.2-0.4,0,0c0.1,0.2,0.2,0.3,0.3,0.5c0.1,0.2,0.1,0.2,0.1,0.2s-0.2-0.4,0,0l0.1,0.5
	c0,0.1,0,0.2,0.1,0.3c0.1,0.5,0-0.3,0,0c0,0.4,0,0.8,0,1.3c0,0.4,0.1-0.4,0-0.1c0,0.1,0,0.3-0.1,0.4c0,0.2-0.1,0.4-0.2,0.6
	s-0.2,0.3,0,0c-0.1,0.1-0.1,0.2-0.2,0.3c-0.1,0.2-0.2,0.4-0.3,0.6c-0.2,0.3,0.2-0.3,0.1-0.1l-0.2,0.3l-0.2,0.2c-0.1,0.1-0.5,0.4,0,0
	c-0.8,0.5-1.1,1.6-0.6,2.5C266.2,351.5,267.3,351.8,268.2,351.3L268.2,351.3z"/>
<path class="st1" d="M286.4,351.7c2-1.5,3.1-3.8,3-6.2c0-2.4-1.3-4.6-3.4-5.8c-2.7-1.3-5.9-0.6-7.9,1.6c-2.2,2.1-2.8,5.4-1.6,8.2
	c1.8,3.3,6,4.5,9.3,2.6C286,352,286.2,351.9,286.4,351.7c0.8-0.5,1.1-1.6,0.6-2.5c-0.5-0.8-1.6-1.1-2.5-0.6
	c-0.3,0.2-0.5,0.3-0.8,0.5c-0.4,0.2,0.3-0.1-0.2,0.1l-0.3,0.1c-0.2,0-0.3,0.1-0.5,0.1c-0.5,0.1,0.3,0-0.2,0h-0.3
	c-0.1,0-0.7-0.1-0.3,0c-0.3,0-0.6-0.1-0.8-0.2s0.3,0.2,0,0l-0.4-0.2l-0.4-0.3c0.3,0.2,0.1,0,0,0l-0.3-0.3l-0.2-0.2
	c0.1,0.2,0.1,0.2,0,0s-0.3-0.4-0.4-0.6c0.2,0.4,0,0,0-0.1s-0.1-0.2-0.1-0.4c0-0.1-0.1,0,0,0.1s0-0.3,0-0.4s0-0.3,0-0.4s0-0.2,0-0.3
	v0.2c0-0.3,0.1-0.5,0.2-0.8c0-0.1,0.3-0.7,0.1-0.3c0.1-0.2,0.2-0.5,0.4-0.7l0.1-0.2l0.2-0.2c-0.1,0.2-0.2,0.2,0,0s0.3-0.4,0.5-0.5
	l0.2-0.2c0.1-0.1,0.4-0.3,0-0.1c0.2-0.1,0.4-0.3,0.6-0.4c0.1-0.1,0.2-0.1,0.3-0.2c0.2-0.1,0.2-0.1-0.1,0l0.3-0.1
	c0.2-0.1,0.4-0.1,0.6-0.2c0.4-0.1-0.4,0,0,0h0.4h0.3c0.4,0-0.4-0.1,0,0l0.7,0.2c0.4,0.1-0.4-0.2,0,0l0.3,0.2l0.3,0.2
	c0.1,0.1,0.1,0.2-0.1-0.1c0.1,0.2,0.3,0.3,0.5,0.4l0.1,0.2c0.2,0.2-0.2-0.4,0,0c0.1,0.2,0.2,0.3,0.3,0.5s0.1,0.2,0.1,0.2
	s-0.2-0.4,0,0c0.1,0.2,0.1,0.3,0.1,0.5c0,0.1,0,0.2,0,0.3c0.1,0.5,0-0.3,0,0c0,0.4,0,0.8,0,1.2c0,0.4,0.1-0.4,0,0
	c0,0.1-0.1,0.3-0.1,0.4c0,0.2-0.1,0.4-0.2,0.6s-0.2,0.3,0,0c-0.1,0.1-0.1,0.2-0.2,0.3c-0.1,0.2-0.2,0.4-0.3,0.6s0.2-0.2,0-0.1
	c-0.2,0.2-0.2,0.2-0.2,0.3l-0.2,0.2c-0.1,0.1-0.5,0.4,0,0.1c-0.8,0.5-1.1,1.6-0.6,2.5c0.5,0.8,1.5,1.1,2.4,0.6L286.4,351.7z"/>
<path class="st1" d="M303.4,352.2c2-1.5,3.1-3.8,3-6.2c0-2.4-1.3-4.6-3.4-5.8c-2.7-1.3-5.9-0.6-7.9,1.6c-2.2,2.1-2.8,5.4-1.6,8.2
	c1.8,3.3,6,4.5,9.3,2.6C302.9,352.4,303.2,352.3,303.4,352.2c0.9-0.5,1.2-1.6,0.7-2.4c-0.5-0.9-1.6-1.2-2.4-0.7c0,0-0.1,0-0.1,0.1
	c-0.3,0.2-0.5,0.4-0.8,0.5c-0.4,0.2,0.3,0-0.2,0.1l-0.3,0.1l-0.5,0.1c-0.5,0.1,0.3,0-0.2,0h-0.3c-0.1,0-0.7-0.1-0.3,0
	c-0.3,0-0.6-0.1-0.8-0.2s0.4,0.2,0,0l-0.4-0.2l-0.4-0.2c0.3,0.2,0.1,0,0,0l-0.3-0.3c-0.1-0.1-0.1-0.1-0.2-0.2c0.1,0.2,0.1,0.2,0,0
	s-0.3-0.4-0.4-0.6c0.2,0.4,0,0,0-0.1s-0.1-0.3-0.1-0.4s-0.1,0,0,0.1s0-0.3,0-0.4s0-0.3,0-0.4s0-0.2,0-0.3v0.2c0-0.3,0.1-0.5,0.2-0.8
	c0-0.1,0.3-0.7,0.1-0.3c0.1-0.2,0.2-0.5,0.4-0.7l0.1-0.2l0.2-0.2c-0.1,0.2-0.2,0.2,0,0s0.3-0.4,0.5-0.6l0.2-0.2c0.1,0,0.4-0.3,0.1,0
	c0.2-0.1,0.4-0.3,0.6-0.4c0.1-0.1,0.2-0.1,0.3-0.2c0.1-0.1,0.2-0.1-0.1,0l0.2-0.1c0.2-0.1,0.4-0.1,0.6-0.2c0.4-0.1-0.4,0,0,0h0.4
	h0.3c0.4,0-0.4-0.1,0,0l0.7,0.2c0.4,0.1-0.4-0.2,0,0l0.3,0.1c0.1,0.1,0.2,0.1,0.3,0.2c0.1,0.1,0.1,0.2-0.1-0.1
	c0.1,0.2,0.3,0.3,0.5,0.4l0.1,0.1c0.2,0.2-0.2-0.4,0,0c0.1,0.2,0.2,0.3,0.3,0.5s0.1,0.2,0.1,0.2s-0.2-0.4,0,0
	c0.1,0.2,0.1,0.3,0.1,0.5l0.1,0.3c0.1,0.5,0-0.3,0,0c0,0.4,0,0.8,0,1.3c0,0.4,0.1-0.4,0-0.1c0,0.1-0.1,0.3-0.1,0.4
	c0,0.2-0.1,0.4-0.2,0.6s-0.2,0.3,0,0c-0.1,0.1-0.1,0.2-0.2,0.3c0,0.1-0.2,0.4-0.3,0.6c-0.1,0.2,0.2-0.2,0.1-0.1s-0.2,0.2-0.2,0.3
	l-0.2,0.2c-0.1,0.1-0.5,0.4,0,0c-0.8,0.5-1.1,1.6-0.6,2.5C301.5,352.3,302.5,352.6,303.4,352.2z"/>
<path class="st1" d="M304.2,566.7c1-8.9,2.5-17.7,4.5-26.4c1-4.3,2.2-8.6,3.5-12.9c0.6-2.1,1.3-4.2,2-6.2c0.5-1.8,1.2-3.5,2.2-5.1
	c1-1.4,2.7-2.1,4.4-2.1c2.2-0.1,4.5,0,6.7,0c4.6,0,9.2-0.1,13.8-0.1s9.2,0,13.8,0.1l1.8,0.1l-0.6-0.5v0.4c-0.1,0.5-0.1,1.1-0.1,1.7
	c-0.1,0.5-0.2,1.1-0.4,1.6c-0.6,2.1-1.3,4.1-1.9,6.2c-2.4,7.6-4.4,15.2-6.9,22.8c-0.7,2.2,2.8,3.2,3.5,1c2.4-7.3,4.4-14.7,6.6-22.1
	c0.7-2.2,1.4-4.4,2.1-6.6c0.5-1.8,1.2-4.3,0.5-6.1c-0.9-2.3-3.8-1.8-5.7-1.9c-2.5-0.1-5.1-0.1-7.7-0.1c-5,0-10,0.1-15,0.1
	c-2.6,0-5.1,0-7.7,0c-2.2-0.2-4.4,0.1-6.5,0.7c-3.9,1.5-5.2,5.5-6.4,9.2c-1.6,4.6-3,9.4-4.2,14.1c-2.7,10.6-4.7,21.4-5.9,32.2
	C300.4,569,304,568.9,304.2,566.7L304.2,566.7z"/>
<path class="st1" d="M323.8,548.6c13.8-0.3,27.6-0.2,41.4,0.3c0.8,0.1,1.6,0.2,2.4,0.1h0.3c-0.4-0.7-0.5-0.7-0.3,0
	c0,0.4,0,0.7,0,1.1c0,0.7,0,1.4,0,2.2c0,0.4,0,0.7,0,1.1c-0.1,0.4-0.1,0.5,0.1,0.3s0.1-0.2-0.3,0c-0.8,0-1.6,0.1-2.4,0.2l-2.4,0.2
	l-5.3,0.4c-6.9,0.4-13.7,0.6-20.6,0.8l-5.6,0.1l-2.6,0.1c-1-0.1-2,0-2.9,0.1c-1.8,0.4,0.8,0.3,0.5,0.5c0,0-0.2-1.3-0.2-1.4
	c-0.1-0.8-0.2-1.7-0.3-2.5c-0.2-1.6-0.3-3.2-0.3-4.9c0-1-0.8-1.8-1.8-1.8s-1.8,0.8-1.8,1.8c0,1.6,0.1,3.2,0.3,4.9
	c0.1,1.8,0.3,3.5,0.6,5.2c0.5,1.6,1.7,1.8,3.2,1.8l6.2-0.2c8-0.2,16.1-0.4,24.1-0.8c4-0.2,8.1-0.3,12-0.9c3.7-0.6,3.1-4.7,3-7.5
	c-0.1-1.5-0.1-3.4-1.9-4c-0.9-0.2-1.7-0.2-2.6-0.2l-3-0.1c-4.2-0.1-8.4-0.3-12.5-0.3c-9.1-0.2-18.3-0.1-27.4,0.1
	c-2.3,0-2.3,3.6,0,3.6L323.8,548.6z"/>
<path class="st1" d="M304.5,546c-5.8-0.1-11.5-0.1-17.3-0.1h-4.1c-1.2,0-2.7-0.3-3.6,0.8s-0.7,3.2-0.7,4.7l-0.1,5.2
	c0,1,0.8,1.8,1.8,1.8l21.7,0.4c2.3,0,2.3-3.6,0-3.6l-21.7-0.4l1.8,1.8v-4.5V550c0-0.4,0-0.8,0-1.1c0.1-0.6-0.2-0.4-0.9,0.6h0.4
	c1.2,0.1,2.4,0.1,3.6,0h3.8c5.1,0,10.2,0,15.3,0.1C306.8,549.6,306.8,546,304.5,546L304.5,546z"/>
<path class="st1" d="M333.3,566.6c-13.6-0.8-27.3-0.9-40.9-1c-3.3,0-6.6-0.1-9.9,0c-3.1,0.1-4.6,1.8-5.3,4.7
	c-0.7,3.5-0.8,7.1-0.3,10.6c0.3,2.9,0.7,5.8,0.9,8.8c0.2,2.3,3.8,2.3,3.6,0c-0.4-4.8-1.5-9.7-1.3-14.5c0.1-1.4,0.3-2.8,0.6-4.2
	c0.1-0.4,0.2-1.3,0.7-1.6c0.6-0.2,1.2-0.3,1.8-0.2c3.2,0,6.3,0,9.5,0c6.3,0,12.7,0.1,19,0.2c7.2,0.1,14.4,0.4,21.6,0.8
	C335.6,570.3,335.6,566.7,333.3,566.6L333.3,566.6z"/>
<path class="st1" d="M361.3,556.1c0,10.7,0.2,21.3,0.2,32c0,1,0.8,1.8,1.8,1.8s1.8-0.8,1.8-1.8c0-10.7-0.2-21.3-0.2-32
	c0-1-0.8-1.8-1.8-1.8S361.3,555.1,361.3,556.1z"/>
<path class="st1" d="M279.9,592.5c21.6-0.8,43.3-1.3,64.9-1.6c6.1-0.1,12.2-0.1,18.4-0.2c1,0,1.8-0.8,1.8-1.8s-0.8-1.8-1.8-1.8
	c-21.6,0.1-43.3,0.5-64.9,1.1c-6.1,0.2-12.2,0.4-18.4,0.6C277.6,588.9,277.6,592.5,279.9,592.5z"/>
<path class="st1" d="M333.3,559c-0.2,9.8,0,19.6-0.2,29.4c0,2.3,3.6,2.3,3.6,0c0.1-9.8,0-19.6,0.2-29.4c0-1-0.8-1.8-1.8-1.8
	S333.3,558,333.3,559z"/>
<path class="st1" d="M355.7,514.1c2.6,0.1,5.3,0.3,7.9,0.8c1.6,0.3,2.3,0.9,2.5,2.5c0.2,2,0,4-0.4,5.9c-0.8,3.8-2,7.5-3,11.2
	c-1,4-1.9,8-3,11.9c-0.2,1,0.4,1.9,1.3,2.2c0.9,0.2,1.9-0.3,2.1-1.2c1.3-4.5,2.3-9,3.4-13.5c1.2-4.5,2.7-8.8,3.1-13.4
	c0.3-3.7-0.2-7.8-4.4-8.9c-3.1-0.7-6.3-1-9.5-1.1C353.4,510.4,353.4,514,355.7,514.1L355.7,514.1z"/>
<path class="st1" d="M278,590.7c0.2,1.8,0.5,3.6,0.9,5.3c0.2,0.9,0.4,1.8,0.5,2.7c0,0.2,0.1,0.4,0.1,0.6c0,0.2,0.1,0.6,0,0.3
	c0,0.5,0.1,1,0.2,1.5c0.5,1.8,2.3,2.9,4.1,2.4c0.4-0.1,0.8-0.3,1.2-0.6c1.4-1.2,2.4-2.8,2.6-4.7c0.5-2.3,0.7-4.7,0.6-7.1
	c0-1-0.8-1.8-1.8-1.8s-1.8,0.8-1.8,1.8c0,1.1,0,2.2-0.1,3.3c-0.1,1-0.2,2-0.4,3c-0.1,0.4-0.2,0.8-0.3,1.2l-0.2,0.4
	c0.1-0.4-0.1,0.2-0.2,0.3c0,0.1-0.4,0.5-0.2,0.3c-0.1,0.1-0.5,0.4-0.2,0.2l0,0.2l0,0c-0.2,0-0.2,0,0,0c-0.2,0-0.2,0,0,0s0.2,0.1,0,0
	c0.1,0,0.2,0.1,0.2,0.2c0.1,0.2,0.1,0.2,0,0l-0.1-0.3c0.1,0.4,0-0.2,0-0.3c0-0.3-0.1-0.6-0.1-1c-0.1-0.9-0.3-1.7-0.5-2.6
	c-0.2-0.9-0.4-1.9-0.6-2.9c-0.1-0.5-0.2-0.9-0.2-1.4c0-0.1-0.1-0.8-0.1-0.4l-0.1-0.6c0-1-0.8-1.8-1.8-1.8
	C278.8,588.9,278,589.7,278,590.7L278,590.7z"/>
<path class="st1" d="M299.9,591.4c-0.1,1.9-0.1,3.8,0.2,5.6c0.1,0.9,0.3,1.8,0.6,2.7c0.2,0.9,0.6,1.7,1.3,2.3
	c1.6,1.3,3.9,1.2,5.3-0.2c1.2-1.3,1.9-3,2.1-4.8c0.4-2.1,0.5-4.2,0.4-6.4c0-1-0.8-1.8-1.8-1.8s-1.8,0.8-1.8,1.8
	c0.1,0.9,0.1,1.9,0,2.9c0,0.5-0.1,1-0.1,1.5c0,0.2,0,0.3,0,0.1c0,0.1,0,0.3-0.1,0.4c-0.1,0.1-0.1,0.4-0.1,0.6
	c-0.1,0.9-0.4,1.7-0.7,2.5c0.2-0.4-0.1,0.2-0.2,0.3l-0.2,0.3c0.1-0.2,0.1-0.2,0,0l-0.2,0.2c0.2-0.1,0.2-0.1,0,0s0.3-0.1-0.1,0.1
	c-0.4,0.1,0.2,0.1-0.1,0h-0.3c0.3,0,0.3,0,0.1,0c0.2,0.1,0.3,0.1,0.1,0c0.2,0.2,0.2,0.2,0,0c0.1,0.2,0.1,0.2,0,0
	c0-0.1-0.1-0.1-0.1-0.2c-0.1-0.1,0-0.1,0,0.1c0-0.1-0.1-0.2-0.1-0.3l-0.2-0.7c-0.1-0.5-0.2-0.9-0.3-1.4c0-0.2-0.1-0.4-0.1-0.7
	c0-0.2,0-0.3,0-0.1c0-0.1,0-0.3,0-0.4c0-0.5-0.1-0.9-0.1-1.4c-0.1-1-0.1-2,0-3c0-1-0.8-1.8-1.8-1.8
	C300.7,589.6,299.9,590.4,299.9,591.4L299.9,591.4z"/>
<path class="st1" d="M326.3,590c0.1,2.1,0.3,4.1,0.6,6.1c0.1,1,0.3,2,0.5,2.9c0.1,0.9,0.4,1.7,0.8,2.5c1.2,1.7,3.5,2,5.2,0.8
	c0.2-0.1,0.3-0.3,0.5-0.4c1.2-1.3,2-2.9,2.2-4.7c0.5-2.2,0.7-4.4,0.5-6.7c0-1-0.8-1.8-1.8-1.8s-1.8,0.8-1.8,1.8
	c0.2,1.9,0.1,3.9-0.4,5.7c-0.1,0.5-0.2,0.9-0.4,1.4c-0.1,0.2-0.1,0.4-0.2,0.6c0.1-0.3,0,0-0.1,0.2s-0.2,0.4-0.3,0.6
	c-0.2,0.4,0.2-0.2-0.1,0.1c-0.1,0.1-0.5,0.4-0.2,0.2l-0.3,0.1c0.2-0.1,0.2-0.1,0.1,0s-0.1,0,0.1,0c-0.2,0-0.2,0,0,0l0,0
	c0.2,0.1,0.2,0.1,0,0l0.1,0.1c-0.1-0.2-0.1-0.2,0,0c-0.1-0.2-0.1-0.4-0.2-0.6c-0.2-1-0.4-1.9-0.5-2.9c-0.3-2-0.5-4-0.6-6
	c0-1-0.8-1.8-1.8-1.8C327.2,588.3,326.4,589.1,326.3,590L326.3,590z"/>
<path class="st1" d="M355,590.1c0,2.4,0.2,4.7,0.5,7c0.3,2,0.6,4.5,2.1,6c1.9,1.9,4.9,1,6.2-1.1c1.1-1.7,1.3-4.2,1.5-6.2
	c0.3-2.4,0.2-4.9-0.2-7.3c-0.3-1-1.3-1.5-2.2-1.3c-0.9,0.3-1.4,1.3-1.2,2.2c0.3,2.1,0.3,4.2,0.1,6.3c-0.1,0.9-0.2,1.9-0.4,2.8
	c-0.1,0.4-0.2,0.8-0.3,1.2c-0.1,0.2-0.2,0.4-0.3,0.5l-0.3,0.2c0.1,0-0.1,0.1-0.1,0s-0.1,0,0,0s0.1,0.1-0.1,0c0.1,0.1,0-0.1,0,0
	s-0.3-0.5-0.2-0.3c-0.4-1-0.6-2.1-0.8-3.1c-0.3-2.3-0.5-4.6-0.5-6.9c0-1-0.8-1.8-1.8-1.8C355.9,588.4,355.1,589.2,355,590.1
	L355,590.1z"/>
<path class="st1" d="M413.5,548.8c-0.1,2.6,0,5.2,0.5,7.8c0.2,0.8,0.9,1.3,1.7,1.3c22.1-0.6,44.1-0.3,66.2,0.9c1,0,1.8-0.8,1.8-1.8
	l0.2-9.8c0-1-0.8-1.8-1.8-1.8c-22.3,1.3-44.6,1.7-67,1c-2.3-0.1-2.3,3.5,0,3.6c22.4,0.7,44.7,0.3,67-1l-1.8-1.8l-0.2,9.8l1.8-1.8
	c-22-1.2-44.1-1.5-66.2-0.9l1.7,1.3c-0.4-2.2-0.5-4.5-0.4-6.8C417.2,546.5,413.6,546.5,413.5,548.8L413.5,548.8z"/>
<path class="st1" d="M437.1,556.7c-0.4,2.5,0.4,5,2.3,6.6s4.4,2.5,6.9,2.4c4.9,0,10.4-3.1,10.3-8.7c0-2.3-3.6-2.3-3.6,0
	c0.1,3.4-3.5,5-6.4,5.1c-1.6,0.1-3.2-0.3-4.5-1.2c-1-0.8-1.6-2-1.5-3.3c0.2-0.9-0.3-1.9-1.2-2.2
	C438.5,555.2,437.5,555.7,437.1,556.7L437.1,556.7z"/>
<path class="st1" d="M448.7,602.8c1.5-0.8,2.5-2.2,3-3.9c0.6-1.7,0.4-3.6-0.6-5c-0.6-0.8-1.5-1.4-2.5-1.6c-1.3-0.2-2.6-0.1-3.8,0.4
	c-1.4,0.3-2.6,1.2-3.3,2.4c-0.6,1.3-0.7,2.8-0.3,4.2c0.4,1.5,1.3,2.8,2.6,3.6C445.3,603.6,447.1,603.6,448.7,602.8
	c0.8-0.5,1.1-1.6,0.6-2.4c-0.5-0.8-1.6-1.1-2.5-0.6c0.5-0.2,0.1,0,0,0l-0.3,0.1h-0.2c0.4-0.1,0.2,0,0,0H446c-0.2,0,0.4,0.1,0,0
	c-0.1,0-0.2-0.1-0.3-0.1c0.2,0.1,0.3,0.1,0.2,0l-0.2-0.1l-0.3-0.2c0,0,0.3,0.3,0.1,0c-0.1,0-0.5-0.4-0.4-0.5c0,0,0.2,0.3,0.1,0.1
	l-0.2-0.3c0-0.1-0.1-0.2-0.2-0.3c-0.2-0.3,0.1,0.3,0,0s-0.1-0.4-0.2-0.6v-0.1c0-0.2,0-0.2,0,0.1c0-0.1,0-0.2,0-0.4v-0.4
	c0-0.2,0-0.2,0,0.1c-0.1,0,0.2-0.6,0.2-0.7l-0.1,0.2c0-0.1,0.1-0.1,0.1-0.2c0-0.1,0.1-0.1,0.1-0.2c-0.2,0.6-0.1,0,0,0l-0.2,0.1
	l0.2-0.1c0,0,0.2-0.2,0.3-0.2l-0.2,0.1l0.2-0.1l0.6-0.2c0.4-0.1,0.8-0.2,1.2-0.3h0.1c0.2,0,0.2,0-0.1,0h0.3h0.5c-0.3,0-0.3,0-0.1,0
	l0.5,0.1c-0.6-0.2-0.2-0.1,0,0s0.1,0.1,0.2,0.1c-0.4-0.2-0.3-0.3-0.1-0.1l0.1,0.1l0.1,0.1c0.1,0.1,0.1,0-0.2-0.2
	c0.1,0.1,0.1,0.2,0.2,0.3c0.2,0.3-0.1-0.4,0-0.1l0.1,0.4c0,0,0,0.1,0,0.2c-0.2-0.6,0-0.3,0-0.1s0,0.5,0,0.7c0,0.3,0.1-0.5,0-0.2v0.1
	c0,0.2-0.1,0.3-0.1,0.5s-0.1,0.3-0.2,0.5s-0.1,0.3,0.1-0.2c0,0.1-0.1,0.2-0.1,0.3c-0.1,0.3-0.3,0.5-0.5,0.8s0.3-0.4,0.1-0.1
	l-0.1,0.2c-0.1,0.1-0.2,0.2-0.3,0.3c-0.1,0-0.1,0.1-0.2,0.1c0.3-0.4,0.3-0.2,0.1-0.1l-0.4,0.2c-0.8,0.5-1.1,1.6-0.6,2.4
	C446.8,602.8,447.8,603.2,448.7,602.8z"/>
<path class="st1" d="M442.8,600.8c-1.8,3.2-5.8,4.2-8.4,6.6c-2.8,2.7-3.6,6.3-4,10.1c0,1,0.8,1.8,1.8,1.8c9.3,0.1,18.7-0.2,28-0.7
	c2.3-0.1,2.3-3.7,0-3.6c-9.3,0.5-18.7,0.8-28,0.7l1.8,1.8c0.3-3.6,1.4-6.7,4.5-8.8c2.7-1.8,5.7-3.2,7.4-6.1c0.5-0.9,0.2-2-0.6-2.5
	C444.4,599.7,443.3,600,442.8,600.8L442.8,600.8z"/>
<path class="st1" d="M447.3,600.8c0,4,3.4,6.3,6.4,8.1c1.4,0.7,2.7,1.8,3.6,3.1c0.8,1.5,1.3,3.2,1.4,4.9c0.3,1,1.2,1.5,2.2,1.3
	c0.9-0.3,1.5-1.3,1.3-2.2c-0.2-1.8-0.7-3.5-1.4-5.1c-0.9-1.7-2.2-3.1-3.7-4.1c-2.1-1.5-6.1-3-6.2-6c0-1-0.8-1.8-1.8-1.8
	S447.2,599.8,447.3,600.8L447.3,600.8z"/>
<path class="st1" d="M443.9,564.5v29.8c0,1,0.8,1.8,1.8,1.8s1.8-0.8,1.8-1.8v-29.8c0-1-0.8-1.8-1.8-1.8S443.9,563.5,443.9,564.5z"/>
<path class="st1" d="M415.7,463.3c1.6-3.8,4.3-7,7.8-9.2c4-2.6,8.5-3.2,13.2-3.3c5.3,0,10.6,0,15.9,0.1s10.6,0.1,15.7,1.5
	c5,1.4,8.3,5,10.4,9.6l1.1-2.6c-10.8,1.7-21.8,0.9-32.6,0.8c-5.5-0.1-11.1-0.1-16.6-0.1c-5.3,0-10.8-0.4-16,0.6
	c-2.3,0.4-1.3,3.9,1,3.5c2.6-0.4,5.3-0.6,7.9-0.5h8.3c5.5,0,11.1,0,16.6,0.1c10.8,0.1,21.7,0.8,32.4-1c1.3-0.2,1.5-1.7,1.1-2.6
	c-1.8-4.4-5.1-8-9.4-10.1c-5-2.3-11.1-2.5-16.5-2.7c-6-0.2-12-0.1-18-0.1c-5.2,0-10.2,0.5-14.8,3c-4.6,2.5-8.3,6.5-10.4,11.3
	C411.8,463.5,414.9,465.4,415.7,463.3L415.7,463.3z"/>
<path class="st1" d="M442.6,448.7c0-1.5,0.8-2.8,2-3.6c0.6-0.3,1.2-0.5,1.8-0.6c-0.3,0,0,0,0.2,0h1c0,0,0.6,0.1,0.2,0
	c1.2,0.2,2.3,0.7,3.3,1.5c1.2,1,2.1,2.2,2.8,3.6c0.5,0.8,1.6,1.1,2.4,0.6s1.1-1.6,0.6-2.5c-1.7-3.7-5.2-6.3-9.2-6.8
	c-2-0.2-3.9,0.4-5.5,1.5c-2,1.5-3.2,3.9-3.2,6.4C438.9,451.1,442.5,451.1,442.6,448.7L442.6,448.7z"/>
<path class="st1" d="M423.6,462.1l-0.2,7.5l-0.1,3.7c0,1.2,0,2.5-0.1,3.7l0.2-0.9l-0.1,0.1l1.1-0.8h-0.1l1.4,0.2h-0.1l0.8,1.1v-0.1
	c-0.3-0.9-1.3-1.5-2.2-1.2c-0.9,0.3-1.4,1.3-1.2,2.2c0.3,1,1.3,1.6,2.3,1.4c1-0.3,1.6-1.2,1.5-2.2c0.1-1.6,0.1-3.2,0.1-4.8l0.2-9.7
	c0-2.3-3.6-2.3-3.6,0L423.6,462.1z"/>
<path class="st1" d="M424.8,475.8c-1.7,0-3.2,0.8-4.2,2.1c-1.2,1.5-1,3.6,0.4,4.9c1.3,1.1,3.2,1.4,4.8,0.8c1.8-0.6,3-2.2,3.2-4.1
	c0.1-2.1-1.4-3.9-3.5-4c0,0,0,0-0.1,0c-1,0-1.8,0.8-1.8,1.8s0.8,1.8,1.8,1.8h0.2l-0.5-0.1c0.1,0,0.2,0,0.4,0.1l-0.4-0.2
	c0.2,0.1,0.3,0.2,0.5,0.3l-0.4-0.3c0.1,0.1,0.3,0.2,0.4,0.4l-0.3-0.4c0.1,0.2,0.2,0.3,0.3,0.5l-0.2-0.4c0.1,0.1,0.1,0.3,0.1,0.4
	l-0.1-0.5c0,0.2,0,0.4,0,0.6l0.1-0.5c0,0.3-0.1,0.5-0.2,0.7l0.2-0.4c-0.1,0.2-0.2,0.4-0.3,0.6l0.3-0.4c-0.2,0.2-0.3,0.4-0.5,0.5
	l0.4-0.3c-0.2,0.2-0.5,0.3-0.7,0.4l0.4-0.2c-0.3,0.1-0.5,0.2-0.8,0.2l0.5-0.1c-0.3,0-0.6,0-0.9,0l0.5,0.1c-0.2,0-0.5-0.1-0.7-0.2
	l0.4,0.2c-0.2-0.1-0.4-0.2-0.6-0.3l0.4,0.3c-0.1-0.1-0.3-0.2-0.4-0.4l0.3,0.4c-0.1-0.1-0.1-0.2-0.2-0.3l0.2,0.4
	c0-0.1-0.1-0.2-0.1-0.3l0.1,0.5c0-0.2,0-0.4,0-0.6l-0.1,0.5c0-0.2,0.1-0.4,0.2-0.6l-0.2,0.4c0.1-0.2,0.2-0.4,0.4-0.6l-0.3,0.4
	c0.2-0.2,0.3-0.4,0.6-0.6l-0.4,0.3c0.2-0.2,0.5-0.3,0.7-0.4l-0.4,0.2c0.2-0.1,0.5-0.2,0.8-0.2l-0.5,0.1c0.2,0,0.4,0,0.6,0
	c1,0,1.8-0.8,1.8-1.8C426.7,476.6,425.9,475.9,424.8,475.8L424.8,475.8z"/>
<path class="st1" d="M437.6,462.2c-0.1,3.5,0.8,7,2.6,10.1c1.9,2.7,5,4.2,8.3,4c3.2,0.1,6.3-1.4,8.3-4c2-2.9,2.2-6.5,2.3-9.8
	c0-2.3-3.6-2.3-3.6,0c0,2.5-0.1,5.2-1.4,7.4c-1.2,1.9-3.3,3-5.5,2.8c-2.2,0.2-4.3-0.9-5.5-2.8c-1.2-2.4-1.9-5.1-1.8-7.8
	c0-1-0.8-1.8-1.8-1.8C438.4,460.4,437.6,461.3,437.6,462.2L437.6,462.2z"/>
<path class="st1" d="M446.1,475.3V503c0,1,0.8,1.8,1.8,1.8s1.8-0.8,1.8-1.8v-27.7c0-1-0.8-1.8-1.8-1.8S446.1,474.3,446.1,475.3z"/>
<path class="st1" d="M435.4,505.4H458c1,0,1.8-0.8,1.8-1.8s-0.8-1.8-1.8-1.8h-22.6c-1,0-1.8,0.8-1.8,1.8S434.4,505.4,435.4,505.4z"
	/>
<path class="st0" d="M488.1,204.2c-9.6-18.7-6.8-42.9,5.9-59.6c5.8-7.5,13.7-13.5,23.1-15.6c8.7-1.8,17.7,0.6,24.3,6.4
	c3.2,2.7,5.5,6.2,6.8,10.1c1.3,4.1,1.4,9.3-1.4,12.9c-2.8,3.5-7.6,3.6-11.3,1.8c-4.6-2.2-6.9-6.7-8.1-11.5c-1-4.9-1.3-10-0.9-15
	c0.2-4.6,0.8-9.2,1.8-13.7c6.1-27.7,24.6-51,50.2-63.2c2.1-1,4.2-1.8,6.4-2.6s1.2-4.3-1-3.5c-19.3,7.2-35.6,20.6-46.5,38
	c-5.5,8.6-9.5,18.1-12,28c-2.4,10-3.6,21-1.8,31.2c1,5.3,3.3,10.5,7.6,13.8c3.8,2.8,9.1,4.1,13.6,2.4c10.3-4,8.9-18,4-25.6
	c-5.2-7.9-14.4-12.8-23.7-13.6c-10.4-0.9-20.5,3.9-28,10.8c-16.6,15.2-22.6,41-15.6,62.3c0.9,2.7,2,5.4,3.3,8
	C486,208,489.2,206.2,488.1,204.2L488.1,204.2z"/>
<path class="st0" d="M613.5,45.6c17.9-4.3,36.6-3.1,53.8,3.4c4.9,1.9,9.6,4.2,14.1,6.8c0.9,0.5,2,0.2,2.5-0.6c0.5-0.9,0.2-2-0.6-2.5
	c-21.3-12.6-46.7-16.4-70.8-10.6C610.3,42.7,611.2,46.2,613.5,45.6z"/>
<path class="st0" d="M498.2,83.6c11.9-21.3,29.2-39.1,50.3-51.4c0.8-0.6,0.9-1.8,0.3-2.5c-0.5-0.6-1.4-0.8-2.1-0.5
	c-21.6,12.7-39.3,30.9-51.5,52.7C494,83.9,497.1,85.7,498.2,83.6L498.2,83.6z"/>
<path class="st0" d="M663.9,22.7c12.3-2.1,25,1.2,35.6,7.6s18.7,16,24.8,26.6c3.5,6.1,6.4,12.6,8.6,19.3c0.8,2.2,4.2,1.2,3.5-1
	c-8.4-24.6-25.2-48.2-51.7-55c-7.1-1.8-14.5-2.1-21.7-0.9C660.7,19.6,661.7,23.1,663.9,22.7L663.9,22.7z"/>
<circle class="st0" cx="567.6" cy="17.9" r="4.9"/>
<circle class="st0" cx="496.1" cy="217.6" r="4.9"/>
<path class="st2" d="M794.1,570.6l-0.5-0.7c-15.4-21.2-44.5-27.2-69-22.1c-25.3,5.3-52.3,22.3-61.8,47.2c-2.9,7.6-3.6,15.9-3.4,24.1
	c0.3,13.4,2.9,26.9,8.8,38.9c6,12,15.6,22.3,27.6,27.8c8.8,4,18.6,5.3,28.3,6c7.5,0.7,15.1,0.5,22.5-0.4
	c27.6-3.9,51.7-25.7,58.8-52.9c3.8-14.8,2.9-30.6-1.2-45.3C802.2,585.1,798.7,577.5,794.1,570.6z"/>
<path class="st1" d="M795.6,569.7C778.8,546,746.7,540.1,720,547c-14.2,3.6-27.3,10.4-38.6,19.7c-11.5,9.7-20.6,22.8-23,37.8
	c-1.2,8.8-1.2,17.7,0,26.5c1.1,8.9,3.5,17.7,7.2,25.9c6.5,14,17.6,25.9,32.1,31.6c8.4,3.3,17.4,4.4,26.4,5s18,0.7,26.8-1.1
	c29-6.4,51.5-29.3,57.4-58.4c3.3-17.7,0.7-36.8-6.6-53.3C800,576.9,798,573.1,795.6,569.7c-1.4-1.9-4.5-0.1-3.2,1.8
	c4.7,7,8.2,14.8,10.3,23c2.4,8.6,3.5,17.5,3.4,26.4c-0.3,15-5.3,29.5-14.3,41.5c-8.2,10.8-19.3,19.1-31.9,23.9
	c-7,2.6-14.4,4-21.9,4.2c-8.8,0.3-17.6-0.3-26.3-1.7c-7.9-1.2-15.5-4-22.2-8.4c-6-4.1-11.2-9.4-15.3-15.4
	c-9.4-13.8-12.9-30.8-13.1-47.3c-0.1-8.3,0.9-16.7,4.3-24.3c2.8-6.2,6.6-11.9,11.2-16.9c9.7-10.2,21.6-18,34.8-22.8
	c24.3-9,55-8.2,74.6,10.6c2.4,2.2,4.5,4.7,6.4,7.3C793.8,573.3,797,571.6,795.6,569.7z"/>
<path class="st2" d="M707.3,611.7c1.1,0.3,2.1,0.8,3,1.5c4.7,3.8,9.1,10.4,12.3,15.5c0.1,0.1,20.5-16.9,22.4-18.6
	c3.7-3.3,7.4-6.7,11.1-10.1c2.8-2.6,7.9-7.8,11.3-3.6c3.1,3.9,7.1,8.4,8.2,13.4c0.7,3.2-0.3,4.4-2.5,6.4c-3.3,3-6.3,6.4-9.6,9.5
	c-11.5,10.8-24.1,20.4-37.4,28.8c-10.1,6.4-19.8-8.5-25.2-15.1c-2.8-3.5-5.4-7.1-7.8-10.9c-0.8-1.3-2.9-3.7-3-5.3
	c-0.1-2.9,5.5-6.2,7.5-7.6C700.7,613.5,703.8,610.9,707.3,611.7z"/>
<path class="st1" d="M706.8,613.4c1.6,0.6,3.1,1.6,4.2,2.9c1.3,1.3,2.6,2.7,3.7,4.2c2.2,2.9,4.3,5.9,6.3,9c0.4,0.7,1.3,1,2,0.8
	c0.9-0.2,1.8-1.3,2.5-1.8c1.5-1.2,3-2.5,4.5-3.7c3.9-3.2,7.7-6.4,11.6-9.6c3.8-3.2,7.5-6.5,11.2-9.8c2.8-2.5,5.5-5.6,8.7-7.6
	c1-0.6,2.4-1.5,3.6-0.8c0.7,0.5,1.3,1.1,1.7,1.8c0.7,0.8,1.4,1.6,2,2.5c1.4,1.7,2.6,3.6,3.6,5.5c1,1.6,1.5,3.5,1.5,5.4
	c-0.2,1.4-1.6,2.4-2.6,3.3c-1.7,1.6-3.3,3.3-5,4.9c-6.5,6.6-13.5,12.8-20.9,18.5c-3.7,2.9-7.5,5.7-11.4,8.4
	c-1.9,1.3-3.8,2.6-5.7,3.8c-1.6,1.2-3.3,2.2-5.2,3c-5.9,1.9-11.4-4-14.8-7.9c-5-5.6-9.5-11.6-13.5-18c-1-1.4-2-2.8-2.8-4.3
	c-0.5-1.1,0.4-2,1.2-2.8c2.4-2.2,5.1-4.1,7.9-5.8C702.9,614.3,704.8,613.1,706.8,613.4c2.2,0.5,3.2-3,0.9-3.4
	c-4.6-0.8-8.1,2.2-11.7,4.6c-2.6,1.8-5.8,3.6-7.2,6.6c-1.7,3.6,2,7.2,3.8,9.9c2.5,3.9,5.3,7.5,8.1,11.1c4.2,5.3,8.6,11.6,14.9,14.5
	c2.9,1.5,6.4,1.6,9.4,0.4c2-1,4-2.2,5.8-3.5c2.1-1.4,4.3-2.9,6.4-4.3c8.3-5.8,16.3-12.1,23.8-18.9c3.9-3.5,7.5-7.2,11.2-10.9
	c1.6-1.3,3.1-2.8,4.3-4.5c0.9-1.5,1.1-3.2,0.8-4.9c-0.8-4.6-3.7-8.5-6.5-12.1c-1.2-1.6-2.4-3.5-4.3-4.4c-1.6-0.7-3.4-0.7-5,0
	c-3.5,1.4-6.2,4.6-9,7c-3.1,2.8-6.2,5.7-9.4,8.5c-6.9,6-14,11.8-21.1,17.5c-0.2,0.1-0.4,0.3-0.6,0.4c0.1-0.2,0.3-0.2,0.5-0.3l2,0.8
	c-2.2-3.5-4.6-6.9-7.2-10.1c-2.4-3-5.4-6.7-9.2-7.6C705.6,609.3,704.6,612.8,706.8,613.4z"/>
<path class="st0" d="M593,643.2c7.4-14.5,16.1-28.3,26-41.2c1.4-1.8-1.7-3.6-3.1-1.8c-9.9,12.9-18.6,26.7-26,41.2
	C588.8,643.5,591.9,645.3,593,643.2z"/>
<path class="st0" d="M654.7,571.2c13-13.8,29.1-24.3,47-30.6c2.2-0.8,1.2-4.2-1-3.5c-18.5,6.5-35.1,17.3-48.6,31.5
	C650.6,570.3,653.1,572.9,654.7,571.2z"/>
<circle class="st0" cx="635.9" cy="588.2" r="4.9"/>
<path class="st0" d="M565.9,631c8.9-18,21.6-33.9,37.3-46.4c4.5-3.6,9.1-6.8,14-9.8c2-1.2,0.2-4.3-1.8-3.1
	c-17.6,10.8-32.6,25.3-44,42.5c-3.2,4.8-6.1,9.9-8.6,15C561.9,631.3,565,633.1,565.9,631L565.9,631z"/>
<path class="st0" d="M616.5,652.8c14.9-9.7,26.2-24,32.3-40.6c0.8-2.2-2.7-3.1-3.5-1c-5.8,15.8-16.6,29.3-30.7,38.5
	C612.8,650.9,614.6,654.1,616.5,652.8L616.5,652.8z"/>
<path class="st0" d="M640.2,512.8c0.5,0.2,1.1,0.4,1.6,0.6c1.6,0.4,2.8,1.8,3.1,3.4c0.8,3.5,1.1,7.1,0.8,10.7c0,3,1,6.7-0.7,9.5
	c-3.2,5.4-12,4.2-17.3,4.4c-9.5,0.4-19,0.7-28.4,0.9c-19,0.5-37.9,0.8-56.9,0.6c-0.6,0-1.2-0.1-1.7-0.4c-0.4-0.4-0.7-1-0.8-1.6
	c-1-5-1-10.1-0.2-15.1c0.5-3.5-0.2-8.8,2.4-11.4c4.2-4.4,15.9-2.7,21.4-3.1c6.8-0.4,13.7-0.2,20.5-0.3c11.5-0.3,23-0.3,34.5-0.1
	C626,511.1,633.1,510.3,640.2,512.8z"/>
<path class="st1" d="M639.7,514.5c0.9,0.2,1.8,0.6,2.6,1.2c0.6,0.8,0.9,1.7,1,2.6c0.4,2.1,0.6,4.3,0.5,6.4c0,2,0,3.9,0.1,5.9
	s0.3,3.8-0.6,5.4c-1.4,2.4-4.5,3.1-7.1,3.4c-2.9,0.3-5.8,0.1-8.6,0.2c-18.7,0.6-37.5,1.3-56.3,1.5c-9.5,0.1-19,0.2-28.4,0
	c-1.3,0-1.3-0.2-1.5-1.4c-0.2-1-0.3-2-0.4-3c-0.2-2.4-0.2-4.7,0-7.1c0.1-1.7,0.4-3.5,0.5-5.2s0.1-3.3,0.3-5c0.1-1.5,0.6-2.8,1.6-3.9
	c0.9-0.8,2-1.3,3.1-1.6c3-0.7,6-1,9-0.8c7.5,0,15-0.2,22.5-0.2c10.5,0,21-0.3,31.5-0.3c5.2,0,10.4,0,15.6,0
	C630,512.4,635,513,639.7,514.5c2.1,0.7,3.1-2.8,0.9-3.6c-4.5-1.4-9.2-2.1-13.9-1.9c-5,0-10.1,0-15.1,0c-10.4,0-20.8,0.2-31.1,0.3
	c-8.3,0-16.6,0.3-24.8,0.2c-6,0-14.4,0.1-16.7,6.9c-1.2,3.5-0.9,7.5-1.2,11.1c-0.6,4.6-0.5,9.4,0.5,14c0.4,2,2.2,3.4,4.2,3.3
	c2.6,0.1,5.1,0,7.7,0c5.2,0,10.5,0,15.7,0c20.6-0.2,41.3-0.9,61.9-1.5c5.9-0.2,13.8,1,18-4.2c2.7-3.3,1.7-7.3,1.7-11.2
	c0.1-2.4,0-4.8-0.1-7.2c-0.1-2.2-0.6-4.3-1.6-6.3c-1.1-1.8-3.2-2.5-5.1-3.2C638.5,510.3,637.6,513.8,639.7,514.5z"/>
<path class="st3" d="M558.6,528.5c0.4,0.5,0.6,1.2,0.6,1.8s-0.2,1.2-0.5,1.7c-0.4,0.5-0.9,0.9-1.5,1.2c-0.7,0.3-1.5,0.4-2.2,0.4
	h-4.5c-0.4,0-0.8-0.1-1.1-0.4c-0.3-0.3-0.4-0.7-0.4-1.1v-9c0-0.4,0.1-0.8,0.4-1.1c0.3-0.3,0.7-0.4,1.1-0.4h4.3
	c1.1-0.1,2.1,0.2,3,0.8c0.7,0.5,1.1,1.4,1.1,2.3c0,1.2-0.7,2.3-1.9,2.6C557.7,527.7,558.2,528,558.6,528.5z M552,526.4h2.2
	c0.4,0,0.9-0.1,1.3-0.3c0.3-0.2,0.4-0.5,0.4-0.9s-0.1-0.7-0.4-0.9c-0.4-0.2-0.8-0.3-1.3-0.3H552V526.4z M555.9,531
	c0.3-0.2,0.4-0.6,0.4-1s-0.1-0.7-0.4-1c-0.4-0.2-0.9-0.3-1.3-0.3H552v2.5h2.5C555,531.3,555.5,531.2,555.9,531L555.9,531z"/>
<path class="st3" d="M562.4,532.5c-1-1-1.5-2.4-1.4-3.8v-5.5c0-0.8,0.7-1.5,1.5-1.5s1.5,0.7,1.5,1.5l0,0v5.5c0,0.7,0.2,1.4,0.6,2
	c0.4,0.5,1,0.7,1.7,0.7c0.6,0,1.2-0.2,1.7-0.7c0.4-0.6,0.6-1.3,0.6-2v-5.6c0-0.9,0.8-1.5,1.6-1.5c0.4,0,0.7,0.2,1,0.4
	c0.3,0.3,0.4,0.7,0.4,1.1v5.5c0.1,1.4-0.4,2.8-1.4,3.8C567.9,534.2,564.7,534.2,562.4,532.5L562.4,532.5z"/>
<path class="st3" d="M582.4,521.6c0.4,0,0.7,0.2,1,0.4s0.4,0.6,0.5,1c0,0.3-0.1,0.7-0.4,0.9l-3.6,4.1v4.1c0,0.4-0.1,0.9-0.4,1.2
	c-0.3,0.3-0.7,0.4-1.1,0.4c-0.4,0-0.8-0.1-1.1-0.4c-0.3-0.3-0.5-0.8-0.4-1.2V528l-3.5-4.1c-0.2-0.3-0.4-0.6-0.4-0.9
	c0-0.4,0.2-0.7,0.4-1c0.3-0.3,0.6-0.4,1-0.4s0.8,0.2,1,0.5l3,3.6l3-3.6C581.6,521.8,582,521.6,582.4,521.6z"/>
<path class="st3" d="M600.7,522.1c0.3,0.3,0.4,0.7,0.4,1.1v9c0,0.4-0.1,0.8-0.4,1.1c-0.3,0.3-0.7,0.4-1.1,0.4
	c-0.5,0-0.9-0.1-1.2-0.5l-5.1-6.4v5.4c0,0.4-0.1,0.8-0.4,1.1c-0.3,0.3-0.7,0.4-1,0.4c-0.4,0-0.8-0.1-1-0.4c-0.3-0.3-0.4-0.7-0.4-1.1
	v-9c0-0.4,0.1-0.8,0.4-1.1c0.6-0.6,1.5-0.6,2.1,0c0,0,0,0,0.1,0.1l5.1,6.4v-5.4c0-0.4,0.1-0.8,0.4-1.1
	C599.2,521.5,600.1,521.5,600.7,522.1L600.7,522.1z"/>
<path class="st3" d="M606.1,533c-0.9-0.5-1.6-1.2-2.1-2.1c-1-2-1-4.4,0-6.5c0.5-0.9,1.2-1.6,2.1-2.1c2-1,4.3-1,6.3,0
	c0.9,0.5,1.6,1.2,2.1,2.1c0.5,1,0.7,2.1,0.7,3.2c0,1.1-0.2,2.2-0.7,3.2c-0.5,0.9-1.2,1.6-2.1,2.1c-1,0.5-2.1,0.8-3.2,0.8
	C608.2,533.8,607.1,533.6,606.1,533z M611.4,530.5c0.6-0.8,0.8-1.8,0.8-2.8c0.1-1-0.2-2-0.8-2.8c-0.5-0.6-1.3-1-2.1-0.9
	c-0.8,0-1.6,0.3-2.1,0.9c-1,1.7-1,3.8,0,5.6c1,1.2,2.8,1.3,4,0.2C611.3,530.6,611.3,530.5,611.4,530.5z"/>
<path class="st3" d="M632.2,521.9c0.2-0.2,0.5-0.3,0.8-0.3c0.4,0,0.7,0.1,1,0.4c0.3,0.2,0.4,0.6,0.4,1c0,0.2-0.1,0.5-0.1,0.7
	l-3.4,9.2c-0.1,0.3-0.3,0.6-0.6,0.7c-0.3,0.2-0.6,0.3-1,0.3c-0.3,0-0.7-0.1-1-0.3s-0.5-0.4-0.6-0.7l-2.2-6.3l-2.3,6.3
	c-0.1,0.3-0.3,0.6-0.6,0.7c-0.3,0.2-0.6,0.3-1,0.3c-0.3,0-0.7-0.1-1-0.3s-0.5-0.4-0.6-0.7l-3.4-9.2c-0.1-0.2-0.1-0.4-0.1-0.6
	c0-0.4,0.2-0.7,0.5-1c0.3-0.2,0.7-0.4,1-0.4s0.6,0.1,0.9,0.3c0.3,0.2,0.5,0.4,0.6,0.7l2.3,6.7l2.4-6.7c0.1-0.3,0.3-0.5,0.5-0.7
	s0.5-0.3,0.8-0.3c0.6,0,1.2,0.4,1.4,1l2.3,6.8l2.4-6.8C631.7,522.3,631.9,522,632.2,521.9z"/>
</svg>
