<?xml version="1.0" encoding="utf-8"?>
<!-- Generator: Adobe Illustrator 24.3.0, SVG Export Plug-In . SVG Version: 6.00 Build 0)  -->
<svg version="1.1" id="Artwork" xmlns="http://www.w3.org/2000/svg" xmlns:xlink="http://www.w3.org/1999/xlink" x="0px" y="0px"
	 viewBox="0 0 840 700" style="enable-background:new 0 0 840 700;" xml:space="preserve">
<style type="text/css">
	.st0{fill:#FF5850;}
	.st1{fill:#0D0D2D;}
	.st2{fill:#FFFFFF;}
</style>
<path class="st0" d="M487.5,662.7c-4.9,0.8-6.6-2.5-6.6-2.5c-0.8-9.8,4-82,7-104.1c2.9-22.1,12.3-91.4,12.3-91.4l48.8,9.8
	c35.2,10.7,53.3,52,53.3,52c37.3,67.2,20.9,135.6,20.9,135.6S492.4,661.9,487.5,662.7z"/>
<path class="st0" d="M300.2,474.7c-107.8,16-73.3,187.7-73.3,187.7l125.4-0.4l7.7-95.4l3.8-98.4L300.2,474.7z"/>
<path class="st0" d="M272.8,694.9c-29.6,5.8-24.9-39.1-24.9-39.1l55.1,5.1C303,660.8,298.5,689.8,272.8,694.9z"/>
<path class="st1" d="M397.6,434.8l4.6,28.2c0,0,18.9-33.3,18.9-33.8L397.6,434.8z"/>
<path class="st1" d="M460.5,446.8c0.6,2.2,4,1.3,3.4-0.9c-1.5-5.7-2.9-11.4-4.3-17.1c-4.9-19.9-9.5-39.9-13.7-60l-1.7,2.2
	c4.6,0.3,9-1.5,12-5c5.9-6.7,5.1-17.3,0.2-24.4c-2.4-3.6-6.3-5.9-10.6-6.2c-4.3-0.1-8.6,1.1-12.1,3.6l2.6,1.1
	c-3.2-13.1-6.6-26.7-14.8-37.7c-3.2-4.4-7.2-8.2-11.7-11.2c-5-3.1-10.5-5-16.3-5.8c-5.9-0.7-11.8-0.8-17.7-0.1
	c-5.9,0.5-11.7,1.4-17.5,2.6c-10.8,2.5-20.6,7.6-26.7,17.1c-5.4,8.5-7.1,18.9-4.6,28.7c0.3,0.9,1.2,1.5,2.2,1.2
	c0.9-0.3,1.5-1.2,1.2-2.2c-2.6-10.2-0.2-21.1,6.5-29.2c6.9-8.4,17.3-11.6,27.7-13.4c10.7-1.8,22.3-3.2,33-0.5
	c10.3,2.6,18.3,9.7,23.7,18.6c6.1,10,8.9,21.4,11.6,32.6c0,0.1,0.1,0.3,0.2,0.4c0.5,0.8,1.6,1.1,2.4,0.7c3.7-2.4,8.5-4,12.7-2.7
	c4.2,1.4,6.7,5.8,7.9,9.8c1.2,4.3,1.1,9.3-1.5,13.1c-2.3,3.5-6.3,5.5-10.5,5.1c-1.2-0.1-1.9,1.2-1.7,2.2c1.2,5.7,2.5,11.5,3.7,17.2
	C450.6,407,455.3,427,460.5,446.8L460.5,446.8z"/>
<path class="st1" d="M431.2,334.6c0.9,0.2,1.8-0.3,2.1-1.2c0.3-0.9-0.2-1.9-1.2-2.2c-7.7-2.1-15.6-1.8-23.5-1.4
	c-6.9,0.4-13.9,0.9-20.8,0c-6.5-0.9-12.8-2.6-18.8-5.2c-6.1-2.5-12-5.5-17.6-8.9c-5.8-3.4-11.3-7.4-17.4-10.2
	c-2.1-0.9-3.8,2.1-1.8,3c7,3.2,13.3,7.9,20,11.6c11.4,6.4,23.6,11.8,36.7,13.2C402.9,335.1,417.3,330.9,431.2,334.6L431.2,334.6z"/>
<path class="st1" d="M428.1,321.9c2.3-0.2,2.3-3.7,0-3.5c-6.5,0.5-13,0.3-19.5-0.4c-11.4-1.3-22.2-5.2-32.3-10s-20.1-10-30.9-13
	c-0.9-0.2-1.8,0.3-2.1,1.2c-0.3,0.9,0.2,1.9,1.2,2.2c6.2,1.8,12.2,4.1,18.1,6.9c10.2,4.8,20.2,10.2,31.1,13.3
	C404.9,321.6,416.5,322.8,428.1,321.9L428.1,321.9z"/>
<path class="st1" d="M421.5,305.5c-16.6,1.1-32.8-5.7-43.5-18.4c-1.5-1.7-3.9,0.8-2.5,2.5c11.4,13.4,28.4,20.6,46,19.5
	C423.7,308.8,423.8,305.3,421.5,305.5z"/>
<path class="st1" d="M386.7,286c-5.9-11.4-11.3-23.9-10.1-36.7c0.7-8.3,4.2-16.2,7.8-23.7c2-4.4,4.5-8.5,7.5-12.2
	c5.1-5.7,12-9.5,19.5-10.9c7.5-1.3,15.3-0.7,22.5,1.9c6,1.8,11.4,5.2,15.6,9.8c6.8,7.8,8.5,18.7,8.3,29c-0.2,9.8-2,20-7.4,28.2
	c-4.4,6.4-10.5,11.6-17.4,15c-7,3.4-14.3,6.1-21.9,7.9"/>
<path class="st1" d="M410.6,292.6c-0.9,0.3-1.4,1.2-1.2,2.1c0.2,0.9,1.2,1.5,2.1,1.3c2.2-0.6,4.4-1.2,6.5-1.8
	c8.2-2.5,16.3-5.8,23.2-10.9c6.6-4.8,11.7-11.4,14.6-19c2.9-7.7,3.8-16.2,3.6-24.4c-0.2-7.7-1.5-15.8-5.5-22.5
	c-4.1-7-11-11.6-18.5-14.4c-8.3-3.2-17.4-3.8-26.1-1.9c-7.7,1.7-14.5,5.9-19.5,12c-2.6,3.4-4.8,7-6.6,10.9c-2,4-3.8,8-5.4,12.2
	c-3.2,8.3-3.9,17.4-2.2,26.1c1.7,8.7,5.5,16.8,9.5,24.7c1,2,4.1,0.2,3-1.8c-4.2-8.1-8.1-16.7-9.6-25.8c-1.5-9.4,0.8-18.4,4.5-27
	c3.1-7.2,6.6-15,12.5-20.3c5.6-4.9,12.6-7.8,20-8.3c8.3-0.6,16.6,1.1,23.9,5c6.5,3.3,11.5,9,13.9,15.9c2.4,6.9,2.8,14.3,2.4,21.6
	c-0.4,7.8-2,15.8-6,22.6C441.6,282.8,425.4,288.6,410.6,292.6L410.6,292.6z"/>
<path class="st1" d="M382,342.4c3.2-3.1,8.1-3.3,12.3-3.2c4.3-0.1,8.5,1.5,11.8,4.3c5.9,5.2,7.8,13.4,7.3,21c-0.1,3.7-2.1,7.1-5.4,9
	c-3.6,2-7.8,2.8-11.9,2.5c-3.7-0.1-7.3-1.4-10.1-3.8c-2.4-2.2-4.4-4.9-5.7-8C377.1,357.2,376.2,348.3,382,342.4
	c1.6-1.6-0.9-4.1-2.5-2.5c-7.5,7.8-6,19.7-1,28.4c1.9,3.6,4.8,6.6,8.2,8.7c4.2,2.2,9,3.1,13.7,2.5c4.6-0.3,8.9-2,12.4-5.1
	c3.5-3.3,4.3-7.8,4.3-12.5c-0.1-9.1-3.6-18.5-11.7-23.4c-4.1-2.5-9-3-13.5-2.8c-4.5,0.2-8.9,1-12.3,4.2
	C377.7,341.4,380.2,343.9,382,342.4z"/>
<path class="st1" d="M321.3,345.4c0.9,0.4,1.9,0,2.3-0.9c1.1-4,3.9-6.5,7.5-8.3c4.5-2,9.5-2.5,14.2-1.3c8,1.7,14.4,7.6,16.7,15.5
	c1.2,4.3,1.2,8.8-0.1,13.1c-0.6,2.2-1.7,4.2-3.2,5.9c-1.7,1.5-3.6,2.7-5.7,3.5c-7.8,3.2-17.1,2.6-23.5-3.3c-3-2.8-5.1-6.5-5.8-10.5
	c-1.1-4.8-1.1-9.7-0.1-14.5c0.5-2.2-2.9-3.1-3.4-0.9c-0.7,3.1-1,6.3-0.7,9.5c0.1,3.2,0.6,6.5,1.5,9.6c1.6,4.9,4.9,9.1,9.3,11.9
	c8.5,5.4,20.2,4.8,28.5-0.7c8.8-5.8,9.4-19.1,5.4-28.1c-4-9-12.9-14.2-22.5-14.9c-8.8-0.7-18.9,3.6-21.5,12.7
	C320.2,344.4,320.6,345.1,321.3,345.4z"/>
<path class="st1" d="M388.8,351.7c0.2,1,0.7,1.9,1.4,2.6c0.7,0.7,1.7,1.1,2.7,0.9c0.2,0,0.4-0.1,0.5-0.2c0.2-0.2,0.4-0.6,0.4-0.9
	c0.2-1.5-0.1-3-0.9-4.4c-0.8-1.2-2.9-2.4-3.9-0.9C388.6,349.7,388.5,350.8,388.8,351.7z"/>
<path class="st1" d="M340.5,347.4c0.2,1,0.7,1.9,1.4,2.6c0.7,0.7,1.7,1.1,2.7,0.9c0.2,0,0.4-0.1,0.6-0.2c0.2-0.2,0.4-0.6,0.4-0.9
	c0.2-1.5-0.1-3-0.9-4.4c-0.8-1.2-2.8-2.4-3.9-0.9C340.3,345.4,340.2,346.5,340.5,347.4z"/>
<path class="st1" d="M373.8,352.8c0,0,0.1,0,0.1,0.1c0.9,0.5,1.9,0.1,2.4-0.7c0.5-0.9,0.1-1.9-0.7-2.4c-1.7-1.2-3.7-1.8-5.7-1.7
	c-2,0.3-3.8,1.2-5.3,2.5c-0.8,0.5-1.1,1.6-0.6,2.4c0.5,0.8,1.5,1.1,2.3,0.6c0.6-0.5,1.3-0.9,2-1.3c0.2-0.1,0.4-0.2,0.6-0.3l0.3-0.1
	c-0.2,0.1-0.2,0.1,0,0c0.3-0.1,0.7-0.2,1-0.3c-0.4,0.1,0.2,0,0.3,0h0.5c-0.4,0,0.2,0.1,0.3,0.1l0.6,0.2c0.2,0.1,0.2,0.1,0,0l0.2,0.1
	l0.5,0.3C373,352.3,373.3,352.6,373.8,352.8L373.8,352.8z"/>
<path class="st1" d="M373,371c-1.1-2-4.1-0.2-3,1.8c1.6,2.8,3,5.7,4.2,8.6c0.6,1.5,1.2,2.9,1.7,4.4c0.3,0.7,0.5,1.4,0.7,2.1
	c0.3,0.6,0.5,1.3,0.6,2l0.2-0.9c0.5-0.3,0.5-0.4,0-0.2l-0.4,0.1l-0.9,0.2l-1.6,0.3c-1.2,0.2-2.4,0.4-3.6,0.5c-1,0-1.8,0.8-1.8,1.8
	c0,1,0.8,1.8,1.8,1.8c2.7-0.2,5.4-0.6,8.1-1.4c3-1,1.3-4.5,0.6-6.5C377.8,380.6,375.6,375.7,373,371L373,371z"/>
<path class="st1" d="M394,397c-0.3-0.9-1.3-1.4-2.2-1.2c-0.9,0.3-1.4,1.3-1.2,2.2c0.9,2.5,1.8,5.3,0.9,8c-0.7,1.9-2.2,3.4-4.1,4.1
	c-4.1,1.6-8.7-0.1-10.6-4.1l-0.6,2.4c5.7-3.1,11.5-6,17-9.5c1.9-1.2,0.1-4.2-1.8-3c-5.5,3.5-11.3,6.4-17,9.5
	c-0.8,0.5-1.1,1.6-0.6,2.4c2.8,5.5,9.3,7.8,15,5.5c2.7-1.1,4.9-3.2,6-6c1.3-3.4,0.5-7.1-0.8-10.4C394,397,394,397,394,397z"/>
<path class="st1" d="M331.4,336.1c-0.3-2.2-3.8-2.2-3.5,0c1.7,13.5,3.6,26.9,5.8,40.3c2,11.9,4.1,23.8,6.5,35.6
	c1.8,9.2,3.2,20.7,12.6,25.4c4.6,2.3,10.1,3,15.3,3.2c5.9,0.1,11.7-0.5,17.5-1.7c11.7-2.2,23.2-5.6,34.6-8.7c0.8-0.3,1.3-1.1,1.1-2
	c-0.2-1-1.1-1.6-2.1-1.4c-12.3,3.4-24.8,7.1-37.4,9.2c-5.5,1-11,1.3-16.5,0.9c-4.8-0.4-10.2-1.4-13.9-4.7c-3.4-3-4.8-7.5-5.9-11.8
	c-1.2-5.3-2.2-10.6-3.2-15.9c-4.4-22.7-8-45.5-10.9-68.5L331.4,336.1z"/>
<path class="st1" d="M398.5,435.6c-0.6-2.2-3.9-1.3-3.4,0.9c1.5,6.1,2.6,12.4,3.2,18.7c0.1,1.5,0.2,3,0.3,4.5c0,0.4,0.2,1.6,0.1,2
	c-0.2,0.3-0.9,0.4-1.3,0.5c-2.6,0.6-5.3,1.1-7.9,1.3c-5,0.5-10.2,0.8-15.3,1.2c-10,0.8-20,1.9-30,2.3c-2.3,0.1-2.3,3.6,0,3.5
	c6.1-0.3,12.2-0.8,18.3-1.3c5.5-0.5,11.1-1,16.6-1.5c5.6-0.3,11.2-0.9,16.8-1.8c2.3-0.5,6-0.8,6.3-3.8c0.1-3-0.1-5.9-0.5-8.8
	C401.1,447.5,400,441.5,398.5,435.6L398.5,435.6z"/>
<path class="st1" d="M463.9,446c-0.8-2.1-4.2-1.2-3.4,0.9c0.7,2,1.8,3.7,3.3,5.2c3.2,3,7.6,4.4,11.6,6c5.2,2.1,10.5,4,15.9,5.5
	c9.6,2.8,19.3,4.7,29.1,6.7c18.4,3.7,38,7.9,52.8,20.2c7.9,6.6,14,15,19.5,23.7c5.4,8.6,10.1,17.7,14.2,27
	c8.2,18.8,13.6,38.7,16.1,59c2.5,20.3,2.1,40.9-1.2,61.1c-0.4,2.2,3,3.2,3.4,0.9c0.5-2.5,0.8-4.9,1.2-7.4
	c5.3-41-1.1-82.7-18.5-120.3c-4.3-9.3-9.3-18.3-15-26.9c-5.7-8.5-12.2-16.4-20.5-22.5c-15.7-11.5-35.3-15.3-53.9-19
	c-10-1.9-20-4.3-29.8-7.3c-5.2-1.6-10.3-3.5-15.4-5.6C469.4,451.9,465.5,450.1,463.9,446L463.9,446z"/>
<path class="st1" d="M625.4,662.4c0-1-0.8-1.8-1.8-1.8H305.4c-1,0-1.8,0.8-1.8,1.8c0,1,0.8,1.8,1.8,1.8h318.3
	C624.6,664.1,625.4,663.3,625.4,662.4z"/>
<path class="st1" d="M534.6,592c-1,0-1.8,0.8-1.8,1.8v67.7c0,1,0.8,1.8,1.8,1.8s1.8-0.8,1.8-1.8v-67.7
	C536.3,592.8,535.5,592,534.6,592z"/>
<path class="st1" d="M310.9,473.3c0.8-0.3,1.3-1.1,1.1-2c-0.2-1-1.1-1.6-2.1-1.4c-7.4,2-14.8,4.1-22.1,6.6c-7.1,2.3-14,5.3-20.6,8.9
	c-6.2,3.5-11.9,7.9-16.9,13c-5.2,5.4-9.3,11.8-12.2,18.7c-3,7.2-5.5,14.7-7.3,22.3c-2,7.9-3.7,15.9-4.9,24
	c-5,32.6-4.1,65.7-1.7,98.4c0.2,2.3,3.7,2.3,3.5,0c-1.3-18.1-2.2-36.2-1.9-54.3c0.2-16,1.6-31.9,4.2-47.7c1.3-7.8,3-15.5,5.1-23.1
	c1.9-7.6,4.6-15,8-22.1c6.5-12.7,17.6-22.2,30.3-28.5C285.3,480.2,298.3,476.7,310.9,473.3L310.9,473.3z"/>
<path class="st0" d="M614.7,213.4c-0.8,2.1,2.6,3,3.4,0.9c1.2-3.3,2.2-6.6,2.9-10c3-14,1.8-28.6-2-42.3
	c-3.7-13.6-9.9-26.4-18.3-37.8c-8.1-10.7-19-18.9-32.5-21c-13.3-1.9-26.9,1.1-38.2,8.2c-11,6.9-21,18.5-18.2,32.3
	c1.1,6.1,5.4,11.2,11.2,13.4c5.5,2.1,11.9,1.2,16.1-3.1s5.2-10.5,4.8-16.3c-0.5-6.1-2.2-12-4.9-17.5c-5.5-11.1-13.9-20.5-24.4-27.1
	c-25-16.3-56.9-15.2-84.5-6.9c-2.2,0.6-1.2,4,0.9,3.4c3.4-1,6.9-1.9,10.4-2.7c25.7-5.8,54.3-4.1,75.9,12.4
	c9.2,6.8,16.2,16.1,20.4,26.8c2.1,5.2,3,10.8,2.7,16.4c-0.5,5.1-3.2,10.4-8.5,11.7c-5.2,1.2-10.6-0.8-13.8-5
	c-3.7-4.9-3.9-11.5-2-17.3c1.9-5.8,6.3-10.6,11-14.3c4.9-3.8,10.4-6.8,16.4-8.8c11.5-3.9,24.7-4.2,35.8,1.2
	c11.4,5.4,19.4,15.7,25.4,26.4C617.5,159.6,624.2,188.1,614.7,213.4L614.7,213.4z"/>
<path class="st0" d="M234.1,189.3c0-1-0.8-1.8-1.8-1.8c-1,0-1.8,0.8-1.8,1.8c0,2.2-0.1,4.4-0.3,6.7c-1.4,17.8-8.7,35.7-22.6,47.3
	c-13,10.8-32.1,15.1-48.1,8.9c-7.4-2.9-16.2-9-16.7-17.8c-0.3-3.7,1.1-7.4,3.8-9.9c3.3-2.7,8-2.5,11.6-0.6
	c8.2,4.2,10.6,15.3,10.6,23.7c0,8.9-2.5,17.5-7.4,24.9c-9.8,15.1-29,22.5-46.5,18.5c-2.2-0.5-3.1,2.9-0.9,3.4
	c2.4,0.5,4.7,0.9,7.1,1.1c20.1,1.4,39-9.9,47.1-28.3c3.9-9,5-19.1,3.1-28.7c-1.9-9.4-8.2-19.6-18.9-19.5
	c-9.7,0.1-14.9,10.2-12.6,18.9c2.5,9.4,11.9,15.5,20.6,18.4c18,6,38.9,0.1,52.4-12.8C227.4,229.5,234.1,209.1,234.1,189.3
	L234.1,189.3z"/>
<path class="st1" d="M382.7,30c-7.9-0.5-15.9-0.6-23.8-0.6c-1,0-1.8,0.8-1.8,1.8c0,1,0.8,1.8,1.8,1.8c8-0.1,15.9,0.1,23.8,0.6
	C385,33.6,385,30.1,382.7,30z"/>
<path class="st1" d="M202.5,24.4l-19.5,0.3c-2.3,0-2.3,3.5,0,3.5l19.5-0.3C204.8,28,204.8,24.4,202.5,24.4z"/>
<path class="st1" d="M202.5,31.6c-5.5,0.1-11,0.1-16.4-0.1c-2.3-0.1-2.3,3.4,0,3.5c5.5,0.2,11,0.2,16.4,0.1
	C204.8,35.1,204.8,31.6,202.5,31.6z"/>
<path class="st1" d="M202,39.6c-6.2-0.2-12.4-0.1-18.6,0.2c-2.3,0.1-2.3,3.6,0,3.5c6.2-0.3,12.4-0.4,18.6-0.2
	C204.3,43.1,204.2,39.6,202,39.6z"/>
<path class="st1" d="M376.9,84.2L376.9,84.2c0-1-0.8-1.8-1.8-1.8c-1,0-1.8,0.8-1.8,1.8c0.1,13.9-0.1,27.7-0.6,41.6
	c-0.1,3.1-0.2,6.2-0.4,9.3L372,140c0,0.7-0.1,1.2-0.1,2s0,0.7-0.8,0.7c-6.2,0.1-12.3,0.1-18.5,0c-12.5-0.1-25-0.4-37.5-0.9
	c-3-0.1-6-0.2-9.1-0.4l-2.6-0.1c-0.8-0.1-1.6-0.1-2.3-0.1h-0.6l0.3,0.4c0.1-0.3,0.2-0.7,0.2-1.1c0.1-0.7,0.2-1.3,0.3-2
	c0.8-6,1.5-12,2-18c1-12.3,1.2-24.6,0.7-37l-1.8,1.8c24.1-1.1,48.2-0.9,72.2,0.6c2.3,0.1,2.3-3.4,0-3.5c-24-1.5-48.2-1.7-72.2-0.6
	c-1,0-1.7,0.8-1.8,1.8c0.6,14.8,0.2,29.7-1.4,44.5c-0.3,3.3-0.7,6.6-1.2,9.9c-0.3,2.4-1.5,6,1.8,6.7c1.6,0.2,3.1,0.3,4.7,0.3l5,0.2
	c3.3,0.1,6.6,0.3,10,0.4c13.2,0.5,26.5,0.7,39.8,0.8c3.3,0,6.6,0,10,0c2.6,0,5.8,0.2,6.3-3.1c0.4-3.2,0.5-6.4,0.5-9.6
	c0.2-3.3,0.3-6.6,0.4-9.9C376.8,110.6,377,97.4,376.9,84.2L376.9,84.2z"/>
<path class="st1" d="M371.2,144.9c0.5,0.8,1.5,1,2.3,0.6c0.9-0.5,1.2-1.5,0.7-2.4L353,105.2c-0.5-0.8-1.6-1.1-2.4-0.6
	c-4.7,2.2-9.1,4.8-13.3,7.9c-4.3,2.9-8.5,5.8-12.7,8.7c-8.4,5.8-16.3,12.4-23.5,19.7c-1.6,1.6,0.9,4.1,2.5,2.5
	c7.1-7.2,14.8-13.8,23.2-19.5c4.1-2.9,8.3-5.8,12.5-8.6c4.1-3,8.5-5.6,13.1-7.8l-2.3-0.6L371.2,144.9L371.2,144.9z"/>
<path class="st1" d="M332.1,95.8c-0.3-0.9-1.2-1.5-2.2-1.2c-0.9,0.3-1.5,1.2-1.2,2.2c0.1,0.2,0.1,0.3,0.2,0.8c0.1,0.4,0-0.2,0,0.1
	c0,0.1,0,0.2,0,0.3c0,0.3,0,0.5,0,0.8c0,0.3,0-0.2,0,0l-0.1,0.4c0,0.1-0.1,0.2-0.1,0.4c0,0-0.1,0.3,0,0.1l-0.1,0.2l-0.1,0.2
	c-0.2,0.4,0.3-0.3,0,0.1l-0.2,0.2c-0.1,0.1-0.2,0.2-0.3,0.3c-0.2,0.2-0.1,0.2,0,0c-0.1,0.1-0.4,0.2-0.5,0.3l-0.2,0.1l0.2-0.1
	c-0.1,0-0.2,0.1-0.2,0.1l-0.3,0.1c-0.2,0.1-0.1,0.1,0.1,0c-0.2,0-0.4,0-0.5,0h0.2l-0.3-0.1l-0.3-0.1c-0.1,0-0.3-0.2,0,0l-0.3-0.1
	c-0.2-0.1-0.2-0.1-0.5-0.3c-0.3-0.2,0,0,0,0l-0.2-0.2c-0.2-0.2-0.3-0.3-0.5-0.5c-0.1-0.1-0.3-0.3,0,0c-0.1-0.1-0.1-0.1-0.2-0.2
	c-0.1-0.1-0.2-0.4-0.3-0.5c0,0-0.1-0.2-0.1-0.2c0,0.2,0,0.1,0,0c-0.1-0.2-0.1-0.4-0.2-0.6c0-0.1,0-0.2,0-0.3c0,0.4,0,0.2,0,0.1
	c0-0.2,0-0.2,0-0.5s0,0.1,0,0.1c0-0.1,0-0.2,0-0.2c0-0.2,0.1-0.4,0.2-0.6c-0.2,0.2-0.1,0.2,0,0.1c0-0.1,0.1-0.1,0.1-0.2l0.1-0.2
	c0,0,0.2-0.3,0.1-0.1c-0.2,0.2,0.1-0.1,0.1-0.1l0.2-0.2l0.2-0.2c0.3-0.3,0,0,0,0c0.2-0.1,0.3-0.2,0.5-0.3h0.1c-0.2,0.1,0.1,0,0.1,0
	c0.2-0.1,0.3-0.1,0.5-0.1c0.4-0.1,0.1-0.1,0,0c0.1,0,0.2,0,0.3,0h0.5c0.5,0-0.3-0.1,0.2,0l0.5,0.2c0.3,0.1-0.2-0.1,0,0l0.2,0.1
	l0.4,0.3c0.2,0.1-0.2-0.2-0.1-0.1l0.2,0.2c0,0,0.2,0.2,0.2,0.2s-0.2-0.3,0-0.1c0.5,0.8,1.6,1.1,2.4,0.6c0.8-0.5,1.1-1.6,0.6-2.4
	c-1.5-2.2-4.3-3.1-6.8-2.2c-2.3,0.8-3.9,2.9-4.2,5.4c-0.1,2.4,1.1,4.7,3.1,6c2.2,1.5,5.1,1.3,7-0.6c1.8-1.9,2.4-4.6,1.5-7.1
	L332.1,95.8z"/>
<path class="st1" d="M274.8,83c0-2.3-3.5-2.3-3.5,0c0.3,14,0.3,28-0.1,42c-0.1,3.1-0.2,6.2-0.3,9.3c-0.1,1.6-0.1,3.1-0.2,4.7
	c0,0.4,0,0.8,0,1.2c0,0.3-0.1,0.2,0.2,0c-0.4,0.2-1.7,0-2.2,0l-18.3-0.2l-37.3-0.3l-9-0.1h-4.9c-0.4,0-0.7,0-1.1,0
	c-0.4,0.1-0.1,0.3-0.1,0.1c-0.1-0.5-0.1-1.1,0-1.6c0.1-6.2,0.3-12.3,0.6-18.4c0.7-12.3,1.8-24.6,3.5-36.8l-1.7,1.3
	c5.4-0.5,10.8-0.6,16.2-0.6c18.9,0.2,37.8,2.8,56.7,0.8c2.2-0.2,2.3-3.8,0-3.5c-5.4,0.5-10.8,0.8-16.1,0.7
	c-18.9-0.1-37.8-2.7-56.8-1c-0.8,0-1.5,0.5-1.7,1.3c-2,14.6-3.3,29.3-3.9,44.1c-0.1,3.3-0.2,6.5-0.3,9.8c0,2.3-0.8,6,2,7
	c1.5,0.4,3.1,0.5,4.7,0.3h5l9.9,0.1l39.9,0.3l9.9,0.1c1.7,0,3.4,0.1,5.1,0c1.2,0,2.3-0.6,2.9-1.6c0.6-1.2,0.5-2.9,0.5-4.3
	c0.1-1.6,0.1-3.1,0.2-4.7c0.1-3.4,0.2-6.8,0.3-10.2c0.3-13.3,0.3-26.6,0-39.9L274.8,83z"/>
<path class="st1" d="M272.9,112.3c2.3,0.2,2.2-3.3,0-3.5c-13.3-1.5-23.8-12-25.2-25.3c-0.2-2.2-3.7-2.3-3.5,0
	C245.5,98.8,257.6,111,272.9,112.3L272.9,112.3z"/>
<path class="st1" d="M270.9,135.3c0.7,2.1,4.1,1.2,3.4-0.9c-1.6-4.5-4.2-8.6-7.6-11.9c-3.2-3.5-7.2-6.3-11.7-8.1
	c-8.5-3.2-19.4-2-24.6,6.2c-2.3,3.6-2.7,9.1,1.9,11.3s8.4-2.6,8.3-6.9c-0.1-8.8-8.6-15.1-16-18.2c-8.3-3.3-17.3-4.5-26.2-3.5
	c-2.2,0.2-2.3,3.7,0,3.5c8.1-0.9,16.4,0.1,24.1,2.9c5.9,2.2,12.4,6.5,14.2,12.9c0.5,1.7,0.8,4.1-0.6,5.5c-0.2,0.2-0.5,0.4-0.8,0.5
	c-1,0.4-2.2-0.1-2.7-1.1c-1.8-3.3,2.1-7.3,4.6-8.9c6.3-4,14.8-2.7,20.8,1.2C263.6,123.3,268.9,129,270.9,135.3L270.9,135.3z"/>
<path class="st1" d="M237.6,327.5c-7.9-0.5-15.9-0.6-23.8-0.6c-1,0-1.8,0.8-1.8,1.8c0,1,0.8,1.8,1.8,1.8c8-0.1,15.9,0.1,23.8,0.6
	C239.9,331.1,239.9,327.6,237.6,327.5z"/>
<path class="st1" d="M59.2,323.7c0-1-0.8-1.8-1.8-1.8L38,322.2c-2.3,0-2.3,3.5,0,3.5l19.4-0.3C58.4,325.4,59.2,324.7,59.2,323.7z"/>
<path class="st1" d="M57.4,329.1c-5.5,0.1-11,0.1-16.4-0.1c-2.3-0.1-2.3,3.4,0,3.5c5.5,0.2,11,0.2,16.4,0.1
	C59.7,332.5,59.7,329,57.4,329.1z"/>
<path class="st1" d="M56.9,337.1c-6.2-0.1-12.4-0.1-18.6,0.2c-2.3,0.1-2.3,3.6,0,3.5c6.2-0.3,12.4-0.4,18.6-0.2
	C59.1,340.6,59.1,337.1,56.9,337.1z"/>
<path class="st1" d="M757,245.4c-7.9-0.5-15.9-0.6-23.8-0.6l0,0c-1,0-1.8,0.8-1.8,1.8c0,1,0.8,1.8,1.8,1.8c8-0.1,15.9,0.1,23.8,0.6
	C759.3,249.1,759.3,245.6,757,245.4z"/>
<path class="st1" d="M576.8,243.4c2.3,0,2.3-3.5,0-3.5l-19.4,0.3c-2.3,0-2.3,3.5,0,3.5L576.8,243.4L576.8,243.4z"/>
<path class="st1" d="M576.8,247c-5.5,0.1-11,0.1-16.4-0.1c-2.3-0.1-2.3,3.4,0,3.5c5.5,0.2,11,0.2,16.4,0.1
	C579.1,250.6,579.1,247,576.8,247z"/>
<path class="st1" d="M576.3,255c-6.2-0.1-12.4-0.1-18.6,0.2c-2.3,0.1-2.3,3.6,0,3.5c6.2-0.3,12.4-0.4,18.6-0.2
	C578.5,258.6,578.5,255,576.3,255z"/>
<path class="st1" d="M662.3,287.8c0.4-6.1,1.3-12.2,0.5-18.3c-0.1-0.8-1-1.2-1.7-1.3c-4.6-0.6-9.2,0-13.8-0.1c-1,0-1.7,0.8-1.8,1.8
	l-0.1,13.4c0,0.2-0.1,1.7,0.2,1.4c-0.2,0.1-0.4,0.1-0.7,0.1c-0.8,0.1-1.7,0.1-2.5,0.1c-1.6-0.1-3.2,0.1-4.7,0.4
	c-3.7,1-4.9,4.3-5.1,7.8c-0.3,4.4-0.5,8.8-0.6,13.2c-0.6,15.9-0.8,31.8-0.4,47.6c0,1.6-0.2,3.5,1,4.8c1,1,2.4,1.5,3.8,1.3
	c3.9,0.1,7.8,0.3,11.7,0.5c4,0.2,8,0.2,11.9,0.1c1.9-0.1,3.7-0.3,5.5-0.6c1.6-0.1,3.1-0.5,4.5-1.3c1.5-1.1,1.5-2.9,1.6-4.6l0.2-5.2
	l0.4-10.7l0.9-22.7c0.1-3.7,0.3-7.3,0.4-11c0.1-3.3,0.7-7,0.1-10.4c-0.5-2.7-2.5-5-5.1-5.9c-1.4-0.5-2.8-0.9-4.3-1
	c-0.7-0.1-1.3-0.2-2-0.2c-0.2,0-0.5,0-0.7,0c-0.9,0.2,0.9,1.9,0.9,0.8c0.1-2.3-3.4-2.3-3.5,0c-0.2,3.4,3.3,2.6,5.7,3
	c3,0.5,5.6,1.7,5.7,5c0.2,3.7-0.2,7.4-0.4,11.1l-0.5,11.6c-0.3,7.1-0.5,14.2-0.8,21.3c-0.1,3.4-0.3,6.8-0.4,10.2
	c-0.1,1.7,0,3.5-0.2,5.2c-0.1,0.9-0.4,0.9-1.2,1.1c-0.8,0.2-1.7,0.3-2.6,0.4c-7.3,0.9-14.6,0.4-21.9,0c-1.9-0.1-3.8-0.2-5.7-0.2
	c-0.8,0-1.2,0.2-1.5-0.5c-0.1-0.8-0.1-1.7,0-2.5c-0.1-3.8-0.2-7.5-0.2-11.3c-0.1-14.9,0.2-29.8,1-44.7c0.1-1.9,0.1-3.8,0.4-5.6
	c0-1.3,0.8-2.5,1.9-3.1c2.3-1,5.3-0.3,7.8-0.7c1.4-0.1,2.5-1,3-2.3c0.3-1.6,0.3-3.1,0.2-4.7l0.1-11.4l-1.8,1.8
	c4.6,0.1,9.2-0.5,13.8,0.1l-1.7-1.3c0.8,5.8-0.2,11.7-0.6,17.4C658.8,290,662.3,290,662.3,287.8z"/>
<path class="st1" d="M670.5,311.5l-35.2-1.7c-2.3-0.1-2.3,3.4,0,3.5l35.2,1.7C672.7,315.1,672.7,311.6,670.5,311.5z"/>
<path class="st1" d="M670.5,341.9c0-1-0.8-1.8-1.8-1.8c-11.2,0-22.3-0.5-33.4-1.2c-2.3-0.2-2.3,3.4,0,3.5
	c11.1,0.8,22.3,1.2,33.4,1.2C669.7,343.7,670.5,342.9,670.5,341.9z"/>
<path class="st1" d="M662.4,277.6c0-1-0.8-1.8-1.8-1.8c-3.9-0.2-7.7-0.2-11.6-0.2c-1,0-1.8,0.8-1.8,1.8s0.8,1.8,1.8,1.8
	c3.9,0,7.7,0,11.6,0.2C661.6,279.3,662.4,278.5,662.4,277.6z"/>
<path class="st1" d="M617,320.3c-0.1-2.3-3.6-2.3-3.5,0c0.5,12.1,0.5,24.2-0.2,36.3l1.8-1.8c-6.4,0.2-12.8,0.9-19.2,0.1
	c-0.5-0.1-1-0.2-1.5-0.2c0,0-0.5-0.1-0.3,0.1c0.1,0.1,0,0.1,0-0.2s0-0.7,0-1.1c0-1.2,0-2.5,0-3.7c0-2.7,0-5.4,0-8.2
	c0.1-5.3,0.2-10.6,0.5-15.9c0.1-1.4,0.1-2.9,0.2-4.3c0-0.6,0.1-1.2,0.1-1.8c0.1-0.3,0.1-0.5,0.1-0.8c0,0.5-1.2,0.2,0.2,0.4
	c1.5,0.1,2.9,0.1,4.4-0.1l4.1-0.1c2.7,0,5.5-0.2,8.2-0.1c1.1,0,1.6,0.2,1.9,1.3c0.1,0.9,0.1,1.7,0,2.6c-0.2,2.3,3.3,2.2,3.5,0
	c0.3-2.6-0.1-6-3-7c-1.5-0.4-3-0.5-4.5-0.4l-5.9,0.1l-5.5,0.1c-1.6-0.1-3.1-0.1-4.7,0.2c-2.9,0.8-2.3,5-2.4,7.3
	c-0.4,6.7-0.6,13.3-0.6,20c0,3.2,0,6.5,0,9.7c0,1.3-0.2,2.9,0.6,4.1c0.8,0.9,2,1.5,3.2,1.5c6.9,1,13.9,0.3,20.8,0.1
	c1,0,1.7-0.8,1.8-1.8C617.5,344.5,617.5,332.4,617,320.3L617,320.3z"/>
<path class="st1" d="M605.9,316.2c0,1,0.8,1.8,1.8,1.8c1,0,1.7-0.8,1.8-1.8c0.2-2.6,0.3-5.1,0.2-7.7c-0.1-2.1,0-5-2.4-5.9
	c-1-0.2-2.1-0.3-3.2-0.3c-1.2-0.1-2.3,0.2-3.2,1c-0.6,0.7-1.1,1.6-1.2,2.5c-0.2,1.2-0.3,2.3-0.4,3.5c-0.2,2.2-0.4,4.5-0.5,6.7
	c0,1,0.8,1.8,1.8,1.8c1,0,1.8-0.8,1.8-1.8c0.1-2.4,0.3-4.9,0.5-7.3c0.1-0.9,0.2-1.9,0.4-2.8c0.1-0.2,0.1-0.2,0,0l0.2-0.3
	c0,0.1-0.1,0.2-0.2,0.2c0.1-0.1,0.2-0.1,0,0h0.1c0.1,0,0.3,0,0.4,0h0.9c0.5,0,1,0,1.6,0c-0.2-0.1-0.2,0,0,0c-0.1,0-0.1-0.1-0.2-0.1
	c-0.1-0.2-0.1-0.2,0,0c-0.1-0.2,0-0.2,0,0c0,0.2,0,0.2,0,0c0,0.1,0,0.2,0,0.3c0,0.2,0,0.5,0,0.7c0.1,0.6,0.1,1.3,0.1,1.9
	C606.1,311.3,606,313.8,605.9,316.2L605.9,316.2z"/>
<path class="st1" d="M614,328.6c-6.6-0.4-13.3-0.5-19.9-0.2c-2.3,0.1-2.3,3.6,0,3.5c6.6-0.2,13.3-0.1,19.9,0.2
	C616.3,332.3,616.3,328.7,614,328.6z"/>
<path class="st1" d="M613.5,343.7c-6.6,0.2-13.1,0.2-19.7-0.1c-2.3-0.1-2.3,3.4,0,3.5c6.6,0.3,13.1,0.4,19.7,0.1
	C615.8,347.1,615.8,343.6,613.5,343.7z"/>
<path class="st1" d="M726.3,326.7c2.1,0.7,3.1-2.7,0.9-3.4c-7.3-2.3-14.8-3.5-22.4-3.7c-6.1-0.1-13.4,0.2-18.8,3.6
	c-2.4,1.5-3.3,4.5-1,6.6c1.2,0.9,2.6,1.4,4.1,1.5c1.6,0.2,3.2,0.4,4.8,0.6c6.8,0.9,13.6,1.1,20.4,0.6c4.6-0.5,12.8-1.1,14.1-6.9
	c0.5-2.2-2.9-3.1-3.4-0.9c-0.5,2.2-3.1,2.9-5,3.3c-3.2,0.7-6.4,1.1-9.6,1.2c-5.5,0.1-11.1-0.2-16.6-0.9c-0.8-0.1-7-0.3-6.8-1.6
	c0.1-0.7,2.6-1.5,3.2-1.8c1.2-0.4,2.4-0.8,3.7-1C704.6,321.8,716.1,323.4,726.3,326.7L726.3,326.7z"/>
<path class="st1" d="M726.7,323.8c-1,0-1.8,0.8-1.8,1.8c-0.1,3.7-0.2,7.4-0.4,11c0,1,0.8,1.8,1.8,1.8c1,0,1.8-0.8,1.8-1.8
	c0.1-3.7,0.2-7.4,0.4-11C728.5,324.6,727.7,323.8,726.7,323.8z"/>
<path class="st1" d="M685.7,326.1c-1,0-1.8,0.8-1.8,1.8v8.2c0,1,0.8,1.8,1.8,1.8s1.8-0.8,1.8-1.8v-8.2
	C687.5,326.9,686.7,326.1,685.7,326.1z"/>
<path class="st1" d="M726.2,339.4c2.2-0.6,1.3-4-0.9-3.4c-6.5,1.7-13.1,2.5-19.8,2.5c-3.3,0-6.7-0.2-10-0.7c-2.8-0.2-5.6-1.2-8-2.7
	c-1.9-1.3-3.6,1.7-1.8,3c2.7,1.7,5.7,2.7,8.8,3.1c3.4,0.5,6.9,0.7,10.4,0.8C712.1,342,719.3,341.1,726.2,339.4L726.2,339.4z"/>
<path class="st1" d="M728.2,336.4c0-1-0.8-1.8-1.8-1.8s-1.8,0.8-1.8,1.8c0,7.1,0.1,14.2,0.1,21.3c0,1,0.8,1.8,1.8,1.8
	c1,0,1.8-0.8,1.8-1.8C728.3,350.6,728.2,343.4,728.2,336.4L728.2,336.4z"/>
<path class="st1" d="M685.7,334.6c-1,0-1.8,0.8-1.8,1.8v19.1c0,1,0.8,1.8,1.8,1.8s1.8-0.8,1.8-1.8v-19.1
	C687.5,335.4,686.7,334.6,685.7,334.6z"/>
<path class="st1" d="M725.2,356.5c-2.5,2.3-6.7,2.6-10,3c-3.7,0.4-7.4,0.5-11.1,0.3c-6.1-0.4-12.5-2.1-17.5-5.8
	c-1.8-1.4-3.6,1.7-1.8,3c5.6,4.2,12.9,6,19.8,6.3c4.2,0.2,8.5,0,12.6-0.6c3.7-0.6,7.5-1.1,10.3-3.8
	C729.3,357.4,726.8,354.9,725.2,356.5z"/>
<path class="st1" d="M134.3,400.5c-2-1-3.8,2.1-1.8,3c5.5,2.5,10.7,5.5,16,8.3c10.7,5.5,21.7,10.2,32.4,15.7
	c5.6,2.8,11,5.8,16.4,8.9c2.7,1.5,5.4,3.1,8.1,4.6c2.4,1.2,4.8,2.7,6.9,4.3l1.2-3c-3.4,0.2-6.9-0.1-10.3-0.6c-3.1-0.7-6.1-1.7-9-3
	c-22.9-8.5-45.8-17.1-68.5-26c-2.1-0.8-3,2.6-0.9,3.4c6.6,2.6,13.2,5.2,19.7,7.7c11.5,4.4,22.9,8.8,34.5,13l17.4,6.5
	c5.5,2,11.3,2.9,17.1,2.6c1.4-0.1,2.4-2,1.2-3c-2.5-1.9-5.1-3.6-7.9-5c-3-1.7-6-3.4-9.1-5.2c-11.1-6.2-22.4-11.9-33.8-17.3
	c-5.2-2.5-10.4-4.8-15.5-7.5C143.8,405.4,139.1,402.8,134.3,400.5L134.3,400.5z"/>
<path class="st1" d="M124.5,403.4c-0.5-2.2-3.9-1.3-3.4,0.9c1.6,7,1.5,14.2,1.3,21.3c0,3-0.2,6-0.6,9c-0.4,2.4-1,5.6-2.8,7.3
	c-4.3,3.9-8.2-7.4-8.9-10c-2.8-10.4-3.1-22.3,2.3-31.9c0.4-0.8,0.2-1.8-0.6-2.3c-0.8-0.5-1.9-0.3-2.4,0.5
	c-3.5,6.3-5.1,13.5-4.8,20.8c0.1,6.4,1.4,12.8,3.8,18.7c1.2,2.8,2.9,5.9,5.6,7.5c2.5,1.6,5.8,1.1,7.7-1.1c2-2.2,2.9-5.4,3.4-8.3
	c0.5-3.4,0.8-6.8,0.8-10.2C126.1,418.2,126.2,410.7,124.5,403.4L124.5,403.4z"/>
<path class="st1" d="M134.2,403.1c0.9-0.3,1.4-1.2,1.2-2.2c-0.3-0.9-1.3-1.4-2.2-1.2c-3.4,0.5-6.8,0.6-10.2,0.4
	c-3,0-6.1-0.6-8.9-1.8c-0.9-0.5-1.1-0.5-1-1.5c0.1-0.7,0.3-1.4,0.4-2.1c0.3-1.6,0.7-3.1,1.2-4.6c0.9-3,2-5.9,3.1-8.8
	c2-5.1,3.9-10.2,5.6-15.4c1.5-4.9,3.3-9.8,5.3-14.5c1.1-2.4,2.3-4.7,3.8-6.9c0.7-1.1,1.5-2.2,2.4-3.1c1-0.8,2.2-1.2,3.5-1.2
	c6-0.6,11.9,0.5,17.7,1.9c2.8,0.7,5.6,1.4,8.4,2.2c0.7,0.2,6.6,1.6,6.5,2.2c-0.1,1.2-7.1-0.3-8-0.5c-2.9-0.4-5.7-0.8-8.7-1.1
	c-3.1-0.3-6.1-0.6-9.1-0.7c-1.3-0.2-2.7-0.2-4,0.1c-1,0.5-1.8,1.4-2.1,2.4c-2.3,4.8-4.1,9.9-6.5,14.7c-1,2,2,3.8,3,1.8
	c1.5-3.1,2.8-6.4,4.2-9.6c0.6-1.5,1.3-3,2-4.5c0.2-0.5,0.4-0.9,0.6-1.3c0.3-0.5,0.2-0.4,0-0.3c0.5-0.3,2.2,0.1,2.7,0.1
	c7.7,0.5,15.2,1.4,22.8,2.6c2.6,0.4,5.9-0.1,6.5-3.2c0.5-2.7-2-4.1-4.2-4.8c-6.3-2.1-12.8-3.7-19.4-4.9c-3.3-0.6-6.7-0.9-10-0.9
	c-2.8,0.1-6.1,0.1-8.3,2.1c-2,2-3.7,4.4-4.9,6.9c-1.4,2.6-2.7,5.2-3.7,8c-2.2,5.5-3.8,11.1-5.8,16.7c-2.1,6-4.7,11.8-6.6,17.8
	c-1,2.9-1.7,5.9-2.1,9c-0.3,3.2,2.8,4.5,5.3,5.3C120.9,404.4,127.9,404,134.2,403.1L134.2,403.1z"/>
<path class="st1" d="M141,389.4c10.2,10.6,19.3,22.3,29.5,32.9c1.6,1.6,4.1-0.9,2.5-2.5c-10.2-10.6-19.3-22.3-29.5-32.9
	C141.9,385.3,139.4,387.8,141,389.4z"/>
<path class="st1" d="M185.7,429.2c1.3,1.7,4.4,0,3-1.8c-3.1-4.1-6.2-8.2-9.3-12.3c-5.6-7.5-11.3-14.9-16.9-22.4
	c-3.1-4.1-6.2-8.2-9.1-12.5c-2.6-3.8-6.2-8.3-6.1-13.1c0-2.3-3.5-2.3-3.5,0c-0.2,5.8,3.8,10.8,6.9,15.4c5.5,8.1,11.7,15.9,17.6,23.8
	C174.2,413.9,179.9,421.5,185.7,429.2L185.7,429.2z"/>
<path class="st1" d="M142.8,389.9c0.8-0.5,1.1-1.6,0.6-2.4c-0.5-0.8-1.6-1.1-2.4-0.6c-2.5,1.6-4.6,3.7-6.4,6.1
	c-1.5,2.3-2.5,5-2.7,7.8c0,1,0.8,1.8,1.8,1.8c1,0,1.7-0.8,1.8-1.8c0-0.2,0-0.4,0-0.5c0,0.2,0,0.2,0-0.1c0-0.3,0.1-0.6,0.2-0.8
	c0.1-0.6,0.3-1.1,0.5-1.7c0.4-1,0.9-2,1.5-2.9c0.3-0.5,0.6-0.9,1-1.3c0.4-0.5,0.9-0.9,1.3-1.4c0.9-0.8,1.8-1.5,2.7-2.2L142.8,389.9z
	"/>
<path class="st1" d="M151.1,355.1c1,0,1.7-0.8,1.8-1.8c0-1-0.8-1.8-1.8-1.8c-1.8,0.2-3.6,0.5-5.4,0.9c-3.2,0.9-6.6,2.7-7,6.4
	c-0.4,3.9,3.2,6.6,6.5,7.5c0.9,0.3,1.9-0.3,2.2-1.2c0.3-0.9-0.3-1.9-1.2-2.2c-0.8-0.2-1.5-0.5-2.1-0.9c-0.6-0.3-1.1-0.8-1.4-1.4
	l-0.2-0.3c0-0.2-0.1-0.2,0-0.1c-0.1-0.2-0.1-0.3-0.2-0.5c0-0.1,0-0.2,0-0.4c0,0.2,0,0.2,0,0c0-0.2,0-0.4,0-0.5
	c0,0.3,0.1-0.3,0.1-0.4c-0.1,0.3,0.1-0.1,0.1-0.2c0-0.1,0.4-0.6,0.2-0.3c0.1-0.1,0.2-0.2,0.3-0.4c0,0,0.4-0.4,0.3-0.3
	c-0.1,0.1-0.1,0.1,0.1-0.1l0.3-0.2c0.3-0.2,0.7-0.4,1-0.6c0.1,0,0.5-0.2,0.2-0.1l0.6-0.2c0.4-0.1,0.7-0.2,1.1-0.3
	c0.8-0.2,1.6-0.4,2.5-0.5l0.5-0.1c0.1,0,0.8-0.1,0.4-0.1l1.2-0.1L151.1,355.1z"/>
<path class="st1" d="M152.5,354c-0.3-0.9-1.2-1.5-2.2-1.2c-0.9,0.3-1.5,1.2-1.2,2.2c-0.1-0.3,0,0,0,0.1c0,0.1,0,0.2,0,0.4
	c0,0.2,0,0.4,0,0.7c0,0.2,0,0.7,0,0.8c0,0.1,0,0.3,0,0.3s-0.1,0.4,0,0.2c0.1-0.2,0,0.3,0,0.3c0,0.1,0,0.2,0,0.3
	c0,0.2-0.2,0.4-0.2,0.7c-0.1,0.5-0.3,0.9-0.4,1.4c0,0.1-0.1,0.4,0,0.1l-0.1,0.3c-0.1,0.2-0.2,0.5-0.3,0.7c-0.2,0.4-0.5,0.8-0.8,1.2
	l-0.2,0.3l0,0c-0.2,0.2-0.3,0.4-0.5,0.6c-0.3,0.4-0.7,0.7-1.1,1c-0.7,0.7-0.7,1.8,0,2.5c0.7,0.7,1.8,0.7,2.5,0
	c3.6-3.2,5.4-8,4.7-12.8L152.5,354z"/>
<path class="st1" d="M151.3,351.6c-2.3,0.1-2.3,3.6,0,3.5c2,0,3.6,2.2,4.4,3.8c0.9,1.9,1.2,4,0.6,6c-0.5,1.9-1.9,3.4-3.9,3.9
	c-1.7,0.4-3.4-0.5-4-2.1c-0.5-0.8-1.5-1.1-2.3-0.6c-0.8,0.5-1.1,1.6-0.6,2.4c1.2,2.4,3.7,3.9,6.4,3.9c5.3-0.1,8.7-5.4,8.3-10.3
	c-0.2-2.5-1-4.8-2.4-6.8C156.2,353.4,154.1,351.5,151.3,351.6L151.3,351.6z"/>
<path class="st1" d="M157.9,367.8c-1,0-1.7,0.8-1.8,1.8c0,1,0.8,1.8,1.8,1.8c1.3-0.1,2.6,0,3.9,0.3c0.6,0.1,1.1,0.3,1.7,0.6
	c0.3,0.1,0.5,0.3,0.8,0.4l0.4,0.3c0.2,0.2-0.2-0.1,0.1,0.1c0.4,0.3,0.8,0.7,1.1,1.1l0.1,0.1l0.2,0.3c0.1,0.1,0.1,0.2,0.2,0.3
	l0.1,0.3l0.1,0.3c0,0.1,0,0.2,0.1,0.4c0.1,0.1,0.1,0.2,0.1,0.4c0-0.3,0-0.1,0,0c0,0.2,0,0.4,0,0.7v0.3c0-0.3,0-0.1,0,0
	c-0.1,0.3-0.1,0.5-0.2,0.8c0.1-0.3-0.1,0.3-0.2,0.3c0,0.1-0.4,0.6-0.2,0.3c-0.1,0.2-0.3,0.3-0.4,0.5c-0.3,0.3,0.2-0.1-0.1,0.1
	l-0.3,0.2c-0.1,0.1-0.2,0.1-0.3,0.1c0.1-0.1,0.2-0.1-0.1,0c-0.4,0.1-0.9,0.2-1.4,0.1c0,0-0.6,0-0.3,0l-0.4-0.1l-0.7-0.2l-0.3-0.1
	c0.1,0.1,0.2,0.2-0.1,0c-0.2-0.1-0.4-0.2-0.6-0.3c-0.3-0.2-0.5-0.3-0.8-0.5c0.2,0.1-0.3-0.3-0.3-0.3c-0.2-0.2-0.4-0.3-0.5-0.5
	l-0.2-0.3c0.1,0.1,0.2,0.2,0-0.1c-0.6-0.9-1-1.9-1.2-2.9c-0.2-1-0.2-1.9,0-2.9c0.2-0.9-0.3-1.9-1.2-2.2c-0.9-0.2-1.9,0.3-2.2,1.2
	c-0.8,3.4,0.1,7.1,2.5,9.7c1.9,2.1,4.8,3.2,7.6,3c3-0.4,5.3-2.8,5.5-5.8c0.2-2.9-1.1-5.6-3.5-7.2c-2.6-1.7-5.6-2.4-8.6-2.1
	L157.9,367.8z"/>
<path class="st1" d="M141.2,365.4c0.4-0.1,0.8-0.4,1.1-0.8c0.2-0.4,0.3-0.9,0.2-1.4c-0.3-0.9-1.2-1.5-2.2-1.2
	c-0.3,0.1-0.6,0.2-0.8,0.3l-0.4,0.1h-0.2c-0.2,0.1,0.4,0,0.2,0c-0.3,0-0.5,0-0.8,0h-0.4h-0.2h0h-0.2l-0.4-0.1
	c-0.3-0.1-0.5-0.2-0.8-0.3c0.1,0,0.4,0.1,0.1,0l-0.2-0.1c-0.1-0.1-0.2-0.1-0.4-0.2c-0.2-0.1-0.5-0.3-0.7-0.5
	c-0.4-0.2-0.9-0.3-1.3-0.2c-0.4,0.1-0.8,0.4-1.1,0.8c-0.2,0.4-0.3,0.9-0.2,1.3c0.1,0.4,0.4,0.8,0.8,1.1
	C135.6,366,138.6,366.4,141.2,365.4L141.2,365.4z"/>
<path class="st1" d="M149.4,380.7c0.9-0.3,1.5-1.2,1.2-2.2c-0.3-0.9-1.2-1.4-2.2-1.2c-2.2,0.8-4.6,0.2-6.8-0.4
	c-2-0.5-3.8-1.5-5.3-2.9c-2.5-2.7-2.1-7.4-0.9-10.6c0.3-0.9-0.3-1.9-1.2-2.2c-0.9-0.2-1.9,0.3-2.2,1.2c-1.7,4.5-1.6,10.4,1.8,14.1
	c1.9,1.9,4.3,3.2,7,3.8C143.5,381.1,146.7,381.8,149.4,380.7L149.4,380.7z"/>
<path class="st1" d="M165.9,445c0-1-0.8-1.8-1.8-1.8h-109c-1,0-1.8,0.8-1.8,1.8c0,1,0.8,1.8,1.8,1.8h109
	C165.1,446.8,165.9,446,165.9,445z"/>
<path class="st1" d="M79.6,443.2L79.6,443.2c-0.5,0.8-0.2,1.9,0.6,2.4c0.8,0.5,1.9,0.2,2.4-0.6c2.9-5,5.4-10.3,7.3-15.8
	c0-0.1,0.1-0.3,0.1-0.4c0-1-0.8-1.8-1.7-1.8c-9.1-0.3-18.1-0.5-27.2-0.6c-0.1,0-0.3,0-0.4,0.1c-1,0.2-1.5,1.2-1.3,2.2
	c1.8,5.8,4.4,11.3,7.7,16.4c1.2,1.9,4.2,0.1,3-1.8c-3.1-4.9-5.5-10.1-7.3-15.6l-1.7,2.2c9.1,0.1,18.1,0.2,27.2,0.6l-1.7-2.2
	C84.7,433.4,82.4,438.5,79.6,443.2L79.6,443.2z"/>
<path class="st1" d="M75.2,426.4c-1,0-1.8,0.8-1.8,1.8s0.8,1.8,1.8,1.8c5.1,0,8.3-4.5,10.3-8.7c2.3-4.4,3.1-9.4,2.3-14.3
	c-0.1-0.3-0.2-0.5-0.4-0.7c-0.7-0.7-1.8-0.7-2.5,0c-5.9,5.5-9.9,12.7-11.7,20.5c-0.5,2.2,2.9,3.1,3.4,0.9c1.6-7.2,5.4-13.8,10.8-19
	l-2.9-0.8c0.6,3.9,0,7.8-1.7,11.3C81.2,422.1,79,426.4,75.2,426.4L75.2,426.4z"/>
<path class="st1" d="M72.3,426c-0.4,2.2,3,3.2,3.4,0.9c1.7-9.8-4.9-17.6-11.1-24.2c-0.2-0.2-0.5-0.3-0.7-0.4
	c-0.9-0.3-1.9,0.3-2.2,1.2c-3.1,9.9,1.2,20.6,10.3,25.6c2,1.1,3.8-2,1.8-3c-7.7-4.2-11.3-13.2-8.7-21.6l-2.9,0.8
	C67.3,410.8,73.7,417.7,72.3,426L72.3,426z"/>
<polygon class="st2" points="338.9,459.9 324.3,469.8 304.1,487.9 289,525.8 314.9,534.1 338.3,537.9 347,471.5 "/>
<path class="st1" d="M731.3,662.4c0-1-0.8-1.8-1.8-1.8H607.9c-1,0-1.8,0.8-1.8,1.8c0,1,0.8,1.8,1.8,1.8h121.7
	C730.5,664.2,731.3,663.4,731.3,662.4z"/>
<path class="st1" d="M247.6,662.5c0-1-0.8-1.8-1.8-1.8H109.2c-1,0-1.8,0.8-1.8,1.8s0.8,1.8,1.8,1.8h136.6
	C246.8,664.3,247.6,663.5,247.6,662.5z"/>
<path class="st0" d="M730.3,472c1.3,1.9,4.3,0.1,3-1.8c-5.8-8.4-13.6-15.3-22.6-20.2c-16.8-9.4-36-12.7-54.8-15.3
	c-21.2-2.9-43.3-5.2-62.2-15.9c-0.8-0.5-1.9-0.2-2.4,0.6c-0.5,0.8-0.2,1.9,0.6,2.4c10.4,5.9,21.8,9.4,33.4,11.7
	c19.9,4,40.5,4.9,60.1,10.2C702.7,448.5,720,456.7,730.3,472L730.3,472z"/>
<path class="st0" d="M761.1,549.5c1.1,2,4.1,0.2,3-1.8c-4-7.2-8.9-14-14.5-20.1c-21.6-23.7-51.3-37.1-80-50c-2.1-0.9-3.9,2.1-1.8,3
	c8.5,3.8,17,7.6,25.3,11.7C719.9,505.5,746.4,522.6,761.1,549.5L761.1,549.5z"/>
<path class="st0" d="M700.6,157.4c-11.9-33-33.9-61.4-62.9-81.2c-1.9-1.3-3.6,1.8-1.8,3c6.2,4.2,12.1,8.9,17.6,13.9
	c19.6,17.9,34.6,40.2,43.7,65.1C697.9,160.5,701.3,159.5,700.6,157.4z"/>
<path class="st0" d="M692.9,90.4c1.2,1.9,4.2,0.2,3-1.8c-4.8-7.9-10.4-15.4-16.7-22.3c-11.1-12.2-24.1-22.6-38.4-30.7
	c-14.3-8.2-29.9-13.9-46.1-17c-2.2-0.4-3.2,3-0.9,3.4c9,1.7,17.8,4.2,26.3,7.5c15,5.9,28.9,14.2,41.3,24.6
	C673.8,64.4,684.4,76.6,692.9,90.4L692.9,90.4z"/>
<path class="st0" d="M601,60.7c2.1,0.8,3-2.6,0.9-3.4c-5.4-2-10.7-4.3-15.8-6.8c-18.1-9-34.4-21.3-48-36.2c-1.5-1.7-4,0.8-2.5,2.5
	c4,4.4,8.2,8.5,12.6,12.4C563.7,42.8,581.6,53.5,601,60.7L601,60.7z"/>
<circle class="st0" cx="619.6" cy="66.9" r="4.8"/>
<circle class="st0" cx="646.5" cy="472.8" r="4.8"/>
<path class="st1" d="M500.6,468c0.5-0.8,0.2-1.9-0.6-2.4s-1.9-0.2-2.4,0.6c-10.3,17.1-22.3,33-34.1,49.1
	c-5.3,7.2-10.6,14.5-15.7,21.9c-2.2,3-4.3,6.2-6.1,9.4c-1.3,2.3-2.4,4.7-3.7,7c-1.2,2.3-2.8,4.4-4.8,6.2c-0.9,0.7-1.9,1.2-3,1.4
	c-0.7,0.1-1.4,0-2-0.3c-1.8-1.1-3.4-2.5-4.6-4.3c-1.6-2.1-3.2-4.4-4.5-6.7c-2.5-4.2-4.7-8.6-7.3-12.7c-4.8-7.5-10-14.8-15-22.2
	l-31.4-46.4c-1.3-1.9-4.3-0.1-3,1.8l36.4,53.7c4.1,6.1,8.6,12,12.1,18.4c2.7,5.1,5.6,10,8.9,14.7c2.6,3.5,6,8,10.8,7.5
	c5.7-0.6,9.1-6.3,11.6-10.8c1.2-2.3,2.3-4.7,3.7-6.9c2.4-3.9,5-7.6,7.6-11.3c5.3-7.6,10.8-15,16.3-22.4
	C480.2,498.5,491.1,483.7,500.6,468L500.6,468z"/>
<path class="st1" d="M502.3,465.8c0.3-2.2-3.1-3.2-3.4-0.9c-2.3,14.3-4.5,28.6-6.6,43c-3.8,25.5-7.1,51-9.5,76.7
	c-2.4,25.6-3.3,51.4-2.8,77.1c0,2.3,3.5,2.3,3.5,0c-0.4-14.5-0.1-28.9,0.5-43.4c1.2-25.4,3.8-50.8,7-76
	C494.4,516.7,498.4,491.2,502.3,465.8L502.3,465.8z"/>
<path class="st1" d="M362.3,470.5c-0.3,14-0.8,28-1.3,42c-1,24.8-2.3,49.6-3.9,74.4c-1.7,24.8-3.7,49.5-6,74.2
	c-0.2,2.3,3.3,2.2,3.5,0c1.3-14,2.5-27.9,3.6-41.9c2-24.7,3.6-49.5,4.8-74.3c1.3-24.8,2.2-49.6,2.7-74.4
	C365.8,468.2,362.3,468.2,362.3,470.5z"/>
<path class="st1" d="M651.7,380.7c0-1-0.8-1.8-1.8-1.8h-59.6c-13.3,0-26.7-0.3-40.1,0.3c-3,0.3-5.9,0.4-8.9,0.3
	c-2.3,0-4.5-1-6.1-2.7c-1.9-2.2-2.2-5.5-2.5-8.3c-0.4-3.1-0.5-6.2-0.6-9.3c-0.1-6.4,0.2-12.7,0.4-19.1c0.2-6.6,0.1-13.2,0.1-19.7
	v-40.1c0-6.7,0-13.6,0-20.2c0-6.7-0.4-13.3-0.2-20c-0.1-3,0.2-5.9,0.8-8.8c0.5-2.1,2.3-3.7,4.5-3.8c2.2-0.2,4.4-0.1,6.6,0.2
	c2.9,0.2,5.9,0.1,8.9,0.1c13.2,0,26.5-0.2,39.7-0.2c26.8-0.1,53.6,0,80.4,0h40.2c13.3,0,26.6-0.8,39.9-0.3
	c4.9,0.2,11.3,0.5,13.7,5.6c1.8,3.9,1,8.7,0.8,12.9c-0.3,6-0.1,12.1-0.1,18.1c0,6.7,0,13.3,0,20c0,13.1-0.2,26.3,0.2,39.5
	c0.4,13.2,1,26.4,0.6,39.5c0,2.9-0.2,5.9-0.6,8.8c-0.2,1.7-0.9,3.2-1.9,4.5c-2,2.4-5.3,3-8.3,3.2c-3.4,0.2-6.7-0.1-10.1-0.3
	c-6-0.2-11.9,0-17.9,0H650c-1,0-1.8,0.8-1.8,1.8c0,1,0.8,1.8,1.8,1.8h81.9c5.8,0,11.5-0.2,17.3,0.1c6.4,0.3,14.9,1.3,19.6-4.2
	c3.1-3.7,3-8.8,3.3-13.4c0.3-6.8,0.3-13.7,0.2-20.6c-0.3-13.6-0.8-27-0.8-40.7s0.1-27.4,0.1-41.1c0-6.1-0.2-12.2,0.2-18.3
	c0.3-4.5,0.7-9.3-1.4-13.4c-2.5-5-8.1-6.6-13.3-7c-6.7-0.5-13.5-0.4-20.2-0.2c-27.7,0.6-55.2,0.3-82.8,0.3c-27.6,0-55.3,0-82.9,0.2
	c-6.9,0-13.8,0-20.7,0c-2.6,0-5.2-0.1-7.8-0.3c-2.4-0.3-4.7-0.2-7,0.5c-5.7,1.9-6.1,8.2-6.3,13.3c-0.3,6.8,0,13.7,0.1,20.5
	c0.2,13.9,0,27.8,0,41.6c0,13.7,0.3,27.4-0.1,41.1c-0.2,6.6-0.5,13.1-0.3,19.7c0.1,3.2,0.3,6.5,0.8,9.7c0.4,2.8,0.9,5.8,2.6,8.1
	c3.4,4.6,9,4.7,14.2,4.4c6.9-0.3,13.8-0.5,20.7-0.5h82.9C650.9,382.5,651.7,381.7,651.7,380.7z"/>
<path class="st1" d="M287.3,162c0-1-0.8-1.8-1.8-1.8H226c-13.3,0-26.7-0.3-40.1,0.3c-3,0.3-5.9,0.4-8.9,0.3c-2.3,0-4.5-1-6.1-2.7
	c-1.9-2.2-2.2-5.5-2.5-8.3c-0.4-3.1-0.6-6.2-0.6-9.3c-0.1-6.4,0.2-12.7,0.4-19.1c0.2-6.6,0.1-13.2,0.1-19.7V61.6
	c0-6.7,0-13.6,0-20.2c0-6.7-0.4-13.3-0.2-20c-0.1-3,0.2-5.9,0.8-8.8c0.5-2.1,2.3-3.7,4.5-3.8c2.2-0.2,4.4-0.1,6.6,0.2
	c2.9,0.2,5.9,0.1,8.9,0.1c13.2,0,26.5-0.2,39.7-0.2c26.8-0.1,53.6,0,80.4,0h40.1c13.3,0,26.6-0.8,39.9-0.3
	c4.9,0.2,11.3,0.5,13.7,5.6c1.8,3.9,1,8.8,0.8,12.9c-0.3,6-0.1,12.1-0.1,18.1c0,6.7,0,13.3,0,20c0,13.1-0.2,26.3,0.2,39.5
	s1,26.4,0.6,39.5c0,2.9-0.2,5.9-0.6,8.8c-0.2,1.7-0.9,3.2-1.9,4.5c-2,2.4-5.3,3-8.3,3.2c-3.4,0.2-6.7-0.1-10.1-0.3
	c-6-0.2-11.9,0-17.9,0h-79.8c-1,0-1.8,0.8-1.8,1.8s0.8,1.8,1.8,1.8h81.9c5.8,0,11.5-0.2,17.3,0.1c6.4,0.3,14.9,1.3,19.6-4.2
	c3.1-3.7,3-8.8,3.3-13.4c0.3-6.8,0.3-13.7,0.2-20.6c-0.3-13.6-0.8-27-0.8-40.7s0.1-27.4,0.1-41.1c0-6.1-0.2-12.2,0.2-18.3
	c0.3-4.5,0.7-9.3-1.4-13.4c-2.5-5-8.1-6.6-13.3-7C385.8,4.8,379,5,372.2,5.1c-27.7,0.6-55.2,0.3-82.8,0.3s-55.3,0-82.9,0.2
	c-6.9,0-13.8,0-20.7,0c-2.6,0-5.2-0.1-7.8-0.3c-2.4-0.3-4.7-0.2-7,0.5c-5.7,1.9-6.1,8.2-6.3,13.3c-0.3,6.8,0,13.7,0.1,20.5
	c0.2,13.9,0,27.8,0,41.6c0,13.7,0.3,27.4-0.1,41.1c-0.2,6.6-0.5,13.1-0.3,19.7c0.1,3.2,0.3,6.5,0.8,9.7c0.4,2.8,0.9,5.8,2.6,8.1
	c3.4,4.6,9,4.7,14.2,4.4c6.9-0.3,13.8-0.5,20.7-0.5h82.9C286.5,163.8,287.3,163,287.3,162z"/>
<path class="st1" d="M137.9,460.9c0-1-0.8-1.8-1.8-1.8H76.4c-13.3,0-26.7-0.3-40.1,0.3c-3,0.3-5.9,0.4-8.9,0.3c-2.3,0-4.5-1-6.1-2.7
	c-1.9-2.2-2.2-5.5-2.5-8.3c-0.4-3.1-0.5-6.2-0.6-9.3c-0.1-6.4,0.2-12.7,0.4-19.1c0.2-6.6,0.1-13.2,0.1-19.7v-40.1
	c0-6.7,0-13.6,0-20.2c0-6.7-0.4-13.3-0.2-20c-0.1-3,0.2-5.9,0.8-8.8c0.5-2.1,2.3-3.7,4.5-3.8c2.2-0.2,4.4-0.1,6.6,0.2
	c3,0.2,5.9,0.1,8.9,0.1c13.2,0,26.5-0.2,39.7-0.2c26.8-0.1,53.6,0,80.4,0h40.3c13.3,0,26.6-0.8,39.9-0.3c4.9,0.2,11.3,0.5,13.7,5.6
	c1.8,3.9,1,8.8,0.8,12.9c-0.3,6-0.1,12.1-0.1,18.1c0,6.7,0,13.3,0,20c0,13.2-0.2,26.3,0.2,39.5c0.4,13.2,1,26.3,0.6,39.5
	c0,3-0.2,5.9-0.6,8.8c-0.2,1.7-0.9,3.2-1.9,4.5c-2,2.4-5.3,3-8.2,3.2c-3.4,0.2-6.7-0.1-10.1-0.3c-6-0.2-12,0-17.9,0h-79.8
	c-1,0-1.8,0.8-1.8,1.8c0,1,0.8,1.8,1.8,1.8H218c5.8,0,11.5-0.2,17.3,0.1c6.4,0.3,14.9,1.3,19.6-4.2c3.1-3.7,3.1-8.7,3.3-13.3
	c0.3-6.9,0.3-13.7,0.2-20.6c-0.3-13.6-0.8-27-0.8-40.7c0-13.7,0.1-27.4,0.1-41c0-6.1-0.2-12.2,0.2-18.3c0.3-4.5,0.7-9.3-1.4-13.4
	c-2.5-5-8.1-6.6-13.3-7c-6.7-0.4-13.5-0.5-20.2-0.2c-27.7,0.6-55.2,0.3-82.8,0.3s-55.3,0-82.9,0.2c-6.9,0-13.8,0-20.7,0
	c-2.6,0-5.2-0.1-7.8-0.3c-2.4-0.3-4.7-0.2-7,0.5c-5.7,1.9-6,8.2-6.3,13.3c-0.3,6.8,0,13.7,0.1,20.5c0.2,13.9,0,27.7,0,41.6
	c0,13.7,0.3,27.4-0.1,41.1c-0.2,6.6-0.5,13.1-0.3,19.7c0.1,3.2,0.4,6.5,0.8,9.7c0.4,2.8,0.9,5.8,2.6,8.1c3.4,4.6,9,4.7,14.2,4.4
	c6.9-0.3,13.8-0.5,20.7-0.5h82.9C137.1,462.7,137.9,461.9,137.9,460.9z"/>
<path class="st1" d="M310.5,476.2c0.9-2.1-2.1-3.9-3-1.8l-4.9,11.3c-13.4,30.8-26.5,61.7-37.8,93.4c-5.7,15.8-10.9,31.8-15.3,48
	c-3.8,14-6.9,29-3.7,43.4c2.7,12.3,12,27.2,26.4,26.3c6.9-0.4,12.8-4.4,17.5-9.2c5.1-5.4,9.5-11.5,13.1-18
	c7.7-13.4,13.1-28,17.6-42.8c4.9-15.8,8.9-31.9,12.5-48.1c7.1-32.8,11.7-66,16.1-99.2c0-1-0.8-1.8-1.8-1.8c-1,0-1.7,0.8-1.8,1.8
	c-0.5,3.9-1,7.8-1.6,11.7c-4.3,32.1-9.1,64.2-16.4,95.7c-3.6,15.6-7.7,31.1-12.7,46.3c-4.7,14.2-10.5,28.1-18.8,40.6
	c-6.6,9.9-18.2,24.4-31.8,17.7c-12.5-6.2-16.4-22.2-16.2-35c0.3-14.9,4.9-29.5,9.1-43.6c4.7-15.6,10-31.1,15.7-46.3
	C284.4,536.2,297.4,506.2,310.5,476.2L310.5,476.2z"/>
<path class="st1" d="M287.2,527.2c15.7,6.8,32.4,11.1,49.5,12.8c2.3,0.2,2.2-3.3,0-3.5c-16.4-1.7-32.5-5.8-47.7-12.3
	C286.9,523.2,285.1,526.3,287.2,527.2z"/>
<path class="st1" d="M283.7,535.6c-0.8-0.4-1.8-0.2-2.3,0.6c-0.5,0.8-0.3,1.9,0.5,2.4c8.2,4.6,16.8,8.2,25.8,10.9
	c4.5,1.3,9,2.4,13.6,3.2c4.4,0.8,9.5,2,13.8,0.5c2.1-0.8,1.2-4.1-0.9-3.4c-2.2,0.6-4.4,0.7-6.6,0.3c-2.2-0.3-4.4-0.6-6.5-1
	c-4.3-0.8-8.6-1.8-12.8-3.1C299.7,543.4,291.5,539.9,283.7,535.6L283.7,535.6z"/>
<path class="st1" d="M375.4,426c1.5,3.8-1.6,7.6-4.4,10.5c-20.5,20.9-42.4,40.4-65.6,58.2c-0.3,0.3-0.6,0.4-1,0.5
	c-0.6,0-1.3-0.3-1.7-0.8c-3.4-3-7.6-9-10.4-12.6c23.4-18.4,43.9-38.6,65.1-59.6c1.6-1.8,3.5-3.3,5.6-4.4c2.2-1.1,4.7-1.1,6.9,0.1
	c2.7,1.8,4.7,4.6,5.5,7.9"/>
<path class="st1" d="M373.7,426.3c0.5,2.2,3.9,1.3,3.4-0.9c-0.9-3.7-3.2-6.9-6.4-8.9c-3.3-2-7.3-1.2-10.3,0.9c-3,2-5.5,4.9-8.1,7.4
	c-2.8,2.8-5.6,5.6-8.4,8.3c-5.6,5.5-11.2,10.9-16.9,16.3c-11.6,10.9-23.5,21.5-35.8,31.2c-0.7,0.7-0.7,1.8,0,2.5
	c2.4,3.1,4.7,6.4,7.3,9.4c1.1,1.4,2.4,2.7,3.8,3.8c2.1,1.3,3.6,0.3,5.3-1c13.6-10.5,26.8-21.6,39.5-33.2
	c6.4-5.8,12.6-11.7,18.7-17.8c3-2.8,5.8-5.7,8.5-8.8c2.3-2.8,4.2-6.4,2.9-10.1c-0.7-2.1-4.1-1.2-3.4,0.9c1.3,3.9-2.6,7.4-5.1,10
	c-3.1,3.1-6.3,6.2-9.4,9.3c-11.3,11-23,21.5-35,31.6c-6,5-12.1,10-18.4,14.8c-0.4,0.4-0.9,0.8-1.4,1.1c-0.5,0.2-0.3,0.2-0.8-0.2
	c-0.5-0.4-1-0.9-1.4-1.4c-1-1.1-2-2.2-2.9-3.4c-2-2.5-3.9-5.1-5.9-7.6v2.5c6.5-5.1,12.8-10.4,19-15.8c11-9.7,21.6-19.8,32.1-30
	c5.2-5.1,10.3-10.5,15.7-15.4c2.1-1.9,5.3-4,8.2-2.6C371.2,420.7,373,423.2,373.7,426.3L373.7,426.3z"/>
<ellipse transform="matrix(0.792 -0.6106 0.6106 0.792 -203.0111 295.0289)" class="st2" cx="331.4" cy="445.4" rx="6.1" ry="10"/>
<ellipse transform="matrix(0.792 -0.6106 0.6106 0.792 -209.7337 291.3197)" class="st2" cx="322.6" cy="453.4" rx="5.4" ry="10"/>
<ellipse transform="matrix(0.923 -0.3848 0.3848 0.923 -153.8723 156.1213)" class="st2" cx="313.2" cy="462.6" rx="5.4" ry="10"/>
<path class="st1" d="M339,445.2c0.5,0.8,1.6,1.1,2.4,0.6c0.8-0.5,1.1-1.6,0.6-2.4c-1.7-3.7-4.7-6.8-8.3-8.7
	c-2.9-1.6-6.6-2.5-9.8-0.7c-3.3,1.8-3.8,5.8-3.3,9.2c0.6,3.1,1.9,6.1,3.8,8.6c1.8,2.7,4.2,5,7,6.6c2,1.1,3.8-1.9,1.8-3
	c-2.5-1.5-4.5-3.5-6.1-5.9c-1.5-2.1-2.5-4.4-3.1-6.8c-0.4-2.1-0.2-5.2,2.2-5.9c2.5-0.7,5.2,0.6,7.2,2
	C335.9,440.3,337.8,442.6,339,445.2L339,445.2z"/>
<ellipse transform="matrix(0.923 -0.3848 0.3848 0.923 -156.926 153.1469)" class="st2" cx="304.2" cy="468.7" rx="5.4" ry="10"/>
<path class="st1" d="M303.9,459.3c2,1.1,3.8-1.9,1.8-3c-0.1,0-0.1-0.1-0.2-0.1c-3.3-1.7-7.4-0.4-9.1,2.9c-1.5,3.1-1.9,6.5-1.3,9.9
	c0.4,2.3,1.3,4.5,2.7,6.4c2.5,3.4,7.1,8.5,11.9,6.8c2.1-0.8,1.2-4.1-0.9-3.4c-0.7,0.3-1.5,0.2-2.2-0.1c-1-0.5-2-1.1-2.8-1.9
	c-1.6-1.5-3-3.2-4.1-5.1l-0.3-0.6c-0.2-0.4,0,0.1-0.1-0.2c-0.3-0.8-0.5-1.6-0.6-2.5c-0.2-1.6-0.2-3.1,0.1-4.7c0.1-1.6,0.8-3,1.8-4.2
	C301.5,458.7,302.9,458.6,303.9,459.3L303.9,459.3z"/>
<path class="st1" d="M320.5,444.6c2.2,0.7,3.1-2.7,0.9-3.4c-2.6-0.7-5.3,0.3-6.9,2.3c-1.7,2.3-2.3,5.3-1.6,8.1
	c1,5.3,3.9,10,8.2,13.2c0.8,0.5,1.9,0.2,2.3-0.6c0.5-0.8,0.2-1.9-0.6-2.4c-3.1-2.4-5.3-5.7-6.3-9.5c-0.7-1.9-0.6-4.1,0.2-6
	C317.4,445,319,444.3,320.5,444.6L320.5,444.6z"/>
<path class="st1" d="M312.9,453.1c2,1.1,3.8-1.9,1.8-3c-0.1,0-0.1-0.1-0.2-0.1c-3.3-1.7-7.4-0.4-9.1,2.9c-1.5,3.1-1.9,6.5-1.3,9.9
	c0.3,2.3,1.3,4.5,2.7,6.4c2.5,3.4,7.1,8.5,11.9,6.8c2.1-0.8,1.2-4.1-0.9-3.4c-0.7,0.3-1.5,0.2-2.2-0.1c-1-0.5-2-1.1-2.8-1.9
	c-1.6-1.5-3-3.2-4.1-5.1c-0.1-0.2-0.2-0.4-0.3-0.6c-0.2-0.4,0,0.1-0.1-0.2c-0.3-0.8-0.5-1.6-0.6-2.5c-0.2-1.6-0.2-3.1,0.1-4.7
	c0.2-1.4,0.7-3.2,1.8-4.2C310.4,452.5,311.8,452.4,312.9,453.1L312.9,453.1z"/>
<path class="st2" d="M332.4,473.4c3.1,3.3,7.3,5.4,11.7,5.9c2.4,0.3,5.2-0.1,6.6-2c0.9-1.5,1.1-3.3,0.4-4.9c-0.7-1.6-1.8-2.9-3.1-4
	c-2.7-2.4-6.1-4-9.6-4.6c-3-0.4-7-0.7-8.2,2.7C329.3,468.9,330.8,471.5,332.4,473.4z"/>
<path class="st1" d="M329.6,468.1c0.9,0.2,1.9-0.3,2.2-1.2c0.9-2.5,5.2-1.7,7.2-1.3c3.6,0.8,6.8,2.7,9.3,5.5
	c1.1,1.1,1.6,2.8,1.3,4.3c-0.5,1.2-1.7,2-3,2.1c-3.4,0.2-6.8-0.7-9.6-2.7c-2.4-1.5-6.1-4.6-5.1-7.9c0.7-2.2-2.7-3.1-3.4-0.9
	c-1.6,5.5,3.9,10.4,8.2,12.7c3.8,2,8.9,3.4,13,1.6c2.1-1,3.5-3.1,3.6-5.4c0-2.5-1-4.9-2.8-6.6c-3.3-3.5-7.8-5.8-12.6-6.4
	c-3.8-0.4-7.9,0-9.4,4.1C328.2,466.9,328.8,467.8,329.6,468.1z"/>
<path class="st2" d="M292.5,481.7c-4.1,5.5-9.3,11.6-12.1,17.9c8-0.4,16-1.8,23.7-4.1"/>
<path class="st1" d="M304.6,497.2c2.2-0.6,1.2-4-0.9-3.4c-7.6,2.3-15.4,3.6-23.3,4l1.5,2.7c3-6.6,7.7-12.2,12-17.9c0,0,0,0,0,0
	c0.5-0.8,0.2-1.9-0.6-2.4c-0.8-0.5-1.9-0.2-2.4,0.6c-4.3,5.7-9.1,11.3-12,17.9c-0.1,0.3-0.2,0.5-0.2,0.8c0,1,0.8,1.8,1.7,1.8
	C288.6,500.9,296.8,499.5,304.6,497.2L304.6,497.2z"/>
<path class="st2" d="M425.6,678.7c-7.9,0.2-20.6,2.6-27.8-0.4s-13.5-10.1-13-17.9c0.2-2.3,0.8-4.5,1.9-6.6
	c3.7-7.6,11.3-12.8,19.4-15.1c7.9-2.4,16.2-3.5,24.5-3"/>
<path class="st1" d="M430.6,637.5c2.3,0.1,2.3-3.4,0-3.5c-9.8-0.6-19.6,0.9-28.8,4.5c-6.6,2.7-12.6,7.1-16.1,13.4
	c-2,3.4-2.9,7.3-2.6,11.2c0.4,3.6,1.9,6.9,4.2,9.7c4.3,5.3,10.6,8.5,17.4,8.9c7,0.5,14-0.8,21-1c2.3,0,2.3-3.5,0-3.5
	c-7.1,0.2-14.1,1.5-21.2,1c-6.1-0.4-11.7-3.5-15.1-8.5c-1.8-2.5-2.8-5.5-2.7-8.6c0.3-3.6,1.6-7.1,3.9-9.9c3.9-5.3,9.9-8.7,16.1-10.6
	C414.3,638.1,422.5,637,430.6,637.5L430.6,637.5z"/>
<path class="st0" d="M426.3,647.4c-1.9,8.9-4,18.1-2.8,27.2c0,1.8,0.8,3.6,2.1,4.9c1.4,1.1,3.3,1.2,5.1,1.2l140,0.3
	c16.1,0.1,33.3-0.2,46.5-9.4c2.2-1.5,4.4-3.5,5.3-6c1.2-3.3,0-7-2.2-9.8c-2.3-2.6-5.2-4.7-8.4-6.1c-14.1-7.3-29.8-11-45.6-13.4
	c-29.7-4.5-59.5-3.5-89.4-3.5c-8.2,0-16.3-0.3-24.5-0.1c-3.8,0.1-7.6,0.4-11.4,0.8c-1.9,0.2-3.8,0.2-5.5,0.4
	C429.4,634.9,427.4,642.2,426.3,647.4z"/>
<path class="st1" d="M436,635.6c1.9-0.3,3.7-0.3,5.6-0.4s3.8-0.4,5.7-0.5c7.6-0.5,15.3-0.3,22.9-0.2s15.3,0,22.9,0
	c15.4-0.1,30.8-0.1,46.2,0.8c15,0.7,29.9,2.8,44.5,6.2c7,1.6,13.8,3.8,20.4,6.6c3.1,1.3,6.2,2.8,9.1,4.4c2.8,1.4,5.2,3.6,6.8,6.4
	c1.5,2.6,1.3,5.8-0.5,8.2c-1.9,2.4-4.8,4.1-7.5,5.5c-5.7,2.9-11.8,4.8-18.1,5.6c-6.5,0.9-13,1.2-19.5,1.2c-7.5,0.1-15.1,0-22.6,0
	l-93.1-0.2h-23.5c-1.9,0-3.9,0.1-5.8,0c-1.4-0.1-2.8-0.3-3.5-1.6c-0.7-1.5-1-3.1-1-4.7c-0.1-1.8-0.2-3.5-0.1-5.3
	c0.4-7.1,1.6-14.2,3.4-21.1c1-4.3,2.7-9.7,7.6-10.6c2.2-0.4,1.3-3.8-0.9-3.4c-2.5,0.5-4.8,2-6.3,4.1c-3.4,4.5-4.2,10.7-5.3,16.2
	c-1.5,7.5-2.8,15.4-1.6,23.1c0.5,3.1,2,5.8,5.2,6.6c1.8,0.3,3.6,0.4,5.4,0.3h5.9h24.9l98.7,0.2c14.1,0,28.8,0.8,42.5-3.3
	c6-1.8,12.8-4.6,17.2-9.3c4.8-5.1,3.5-12.3-1.3-17c-2.5-2.2-5.3-4.1-8.4-5.5c-3.3-1.7-6.7-3.2-10.2-4.5c-7.1-2.7-14.4-4.8-21.9-6.3
	c-15.6-3.1-31.5-5-47.4-5.5c-16.2-0.7-32.4-0.5-48.5-0.4c-8.3,0-16.6-0.1-24.8-0.1c-4,0-8.2,0.1-12.1,0.3c-4,0.3-8,0.5-11.9,1
	C432.8,632.6,433.8,635.9,436,635.6z"/>
</svg>
