<?xml version="1.0" encoding="utf-8"?>
<!-- Generator: Adobe Illustrator 15.0.0, SVG Export Plug-In . SVG Version: 6.00 Build 0)  -->
<!DOCTYPE svg PUBLIC "-//W3C//DTD SVG 1.1//EN" "http://www.w3.org/Graphics/SVG/1.1/DTD/svg11.dtd">
<svg version="1.1" id="bear_1_" xmlns="http://www.w3.org/2000/svg" xmlns:xlink="http://www.w3.org/1999/xlink" x="0px" y="0px"
	 width="478.667px" height="245.333px" viewBox="0 0 478.667 245.333" enable-background="new 0 0 478.667 245.333"
	 xml:space="preserve">
	<g id="all-bear">
<g id="back">
	<path fill="#D8DDE5" d="M263.585,8.514c0,0,31.149,1.398,52.717,47.729c21.566,46.326,33.55,1.596,41.138-1.998
		c7.588-3.596,10.769-3.938,24.761,7.588c13.994,11.525,17.574-12.381,35.146-5.191c17.572,7.188,15.979,42.92,0,62.795
		c-15.977,19.875,31.951,32.655,31.951,32.655s29.953,9.187,23.563,40.736c-6.391,31.551-35.545,43.633-71.889,34.744
		c-36.342-8.888-63.104-15.935-77.879-15.355c-14.775,0.58-59.907,4.173-79.275,14.156c-19.369,9.983-40.784,23.063-71.163,7.688
		C180.915,208.403,166.137,110.954,263.585,8.514z"/>
	<g id="balloon_1_">
		<path fill="#313131" d="M298.362,140.456c0,27.957-10.483,61.258-51.521,61.258c-27.558,0-52.777-21.166-52.777-49.123
			c0-50.318,34.207-64.697,54.275-62.604C274.023,92.67,298.362,112.497,298.362,140.456z"/>
	</g>
	<g id="_x34_04">
		<g>
			<path fill="#313131" d="M314.378,176.575c6.506-8.488,13.332-17.188,20.476-26.098c7.142-8.912,14.321-17.893,21.537-26.945
				c7.213-9.051,14.39-18.033,21.532-26.947c7.145-8.91,13.97-17.609,20.479-26.096v85.08h21.004v21.006h-21.004v35.646h-21.855
				v-35.646H314.378L314.378,176.575z M376.546,129.471c-1.135,1.414-2.619,3.289-4.457,5.621c-1.838,2.334-3.711,4.773-5.621,7.32
				c-1.907,2.545-3.786,5.021-5.623,7.426c-1.842,2.404-3.256,4.314-4.243,5.729h19.944V129.471L376.546,129.471z"/>
		</g>
	</g>
	<polygon fill="#313131" points="283.804,106.561 285.544,103.252 288.996,101.444 291.318,104.366 296.037,94.782 305.718,97.077 
		312.208,86.295 305.623,98.575 296.735,96.278 291.742,106.165 289.097,103.317 287.397,104.817 286.328,109.204 	"/>
	<path fill="#313131" d="M281.358,189.53c0,0,4.069-2.043,8.44-3.611c2.791,2.291,7.186,5.506,18.566,3.611
		c2.994,2.748,4.344,7.391,4.344,7.391l9.584-9.584l4.045,4.119l3.443-0.676c0,0,10.334,6.891,12.432,7.189
		c-1.631-0.629-11.532-7.115-12.131-7.939c-0.75,0.15-3.597,0.824-3.597,0.824l-4.192-4.119l-9.358,8.836
		c0,0-0.824-4.717-4.567-7.188c-1.271,0.148-12.806,1.697-17.027-4.305c-3.766,0.91-6.783,1.635-6.783,1.635
		S283.025,186.856,281.358,189.53z"/>
	<path opacity="0.3" fill="#313131" enable-background="new    " d="M255.399,91.211c0,0,20.368-0.924,38.79,20.492
		c1.797,3.895,9.234,21.865,9.234,21.865s0.3,13.183-2.098,21.867c-2.396,8.685-2.966,17.819-2.966,17.819
		s-12.013,24.713-29.907,24.188c12.852-6.604,17.598-12.805,21.189-28.979C293.24,152.292,312.859,113.801,255.399,91.211z"/>
	<path fill="none" stroke="#313131" stroke-miterlimit="10" d="M255.748,91.811c0,0,20.021-1.523,38.44,19.893
		c1.797,3.895,9.233,21.865,9.233,21.865s0.3,13.182-2.096,21.867c-2.396,8.686-2.967,17.82-2.967,17.82
		s-12.484,24.438-30.383,23.914"/>
	<polygon opacity="0.3" fill="#313131" enable-background="new    " points="302.775,117.247 308.016,134.018 306.667,151.391 
		309.065,134.319 307.417,126.53 	"/>
	<polygon opacity="0.3" fill="#313131" enable-background="new    " points="255.399,69.319 265.533,73.813 261.939,86.295 
		276.316,88.94 282.607,92.834 277.814,88.34 271.524,86.295 273.77,83.397 269.003,86.295 263.585,85.495 267.03,72.885 	"/>
</g>
<g id="bear">
	<path fill="#635241" stroke="#231F20" stroke-linecap="round" stroke-linejoin="round" stroke-miterlimit="10" d="M60.701,101.036
		c0,0,81.197-3.578,93.929,15.086c2.596,2.006,20.262,40.457,6.189,56.466c-18.922,21.527-94.217,25.759-98.731,25.224
		C62.451,191.627,60.701,101.036,60.701,101.036z"/>
	<path opacity="0.3" fill="#231F20" enable-background="new    " d="M138.024,112.62c0,0-19.635,1.48-19.25,27.689
		c0.388,26.209,5.132,40.088,24.399,39.141c-6.49-5.443-14.877-14.17-15.252-34.967C127.546,123.684,132.173,116.678,138.024,112.62
		z"/>
	<path fill="#846D57" stroke="#231F20" stroke-linecap="round" stroke-linejoin="round" stroke-miterlimit="10" d="M186.891,165.667
		c5.978-11.078,7.264-32.896-3.655-44.83c1.288-2.123,2.864-7.65-1.492-9.973c-4.953-2.641-8.842,1.9-8.842,1.9
		c-0.175,0.254-0.656,0.902-0.714,1.168c-5.562-1.764-20.616-5.631-34.606-1.18c-17.572,5.592-13.479,25.561-13.629,35.943
		c-0.148,10.386,1.25,29.755,19.223,30.753c12.99,0.723,25.301,0.479,34.451-4.703c1.234,1.551,7.104,5.141,10.51,0.907
		c4.658-5.791-0.479-9.483-0.479-9.483C187.423,165.932,187.166,165.772,186.891,165.667z"/>
	<path fill="#F2F2F2" stroke="#231F20" stroke-linecap="round" stroke-linejoin="round" stroke-miterlimit="10" d="M157.388,117.186
		c0,0-7.141,39.988,2.646,55.863c-3.097,0.896-20.617,4.941-25.709-8.537c-5.094-13.479-3.099-33.178-2.099-36.443
		C133.925,122.528,143.562,117.43,157.388,117.186z"/>
	<path fill="none" stroke="#231F20" stroke-width="0.5" stroke-linecap="round" stroke-linejoin="round" stroke-miterlimit="10" d="
		M147.542,118.28c0,0-3.084,7.902-2.029,14.791c-1.547,0.797-2.24,2.146-2.24,2.146l2.24,1.947c0,0-2.438,15.125-0.691,19.619
		c1.207,0.354,1.797,0.57,2.694,1.146c-0.449,0.823-1.06,2.146-2.003,2.694c0.6,3.744,1.328,9.987,3.438,13.631"/>
	
		<path fill="#846D57" stroke="#231F20" stroke-width="0.5" stroke-linecap="round" stroke-linejoin="round" stroke-miterlimit="10" d="
		M175.123,116.448c0,0,1.946-2.797,3.844-1.947c2.103,0.939,2.246,3.193,0.101,4.592"/>
	
		<path fill="#846D57" stroke="#231F20" stroke-width="0.5" stroke-linecap="round" stroke-linejoin="round" stroke-miterlimit="10" d="
		M183.714,168.084c0,0,2.582,2.225,1.543,4.023c-1.15,1.994-3.407,1.906-4.578-0.373"/>
	
		<path fill="#846D57" stroke="#231F20" stroke-width="0.5" stroke-linecap="round" stroke-linejoin="round" stroke-miterlimit="10" d="
		M127.921,141.352c0,0-2.93,1.707-1.133,4.049c-0.6,1.742-2.414,3.279,1.133,4.738"/>
	<path opacity="0.3" fill="#231F20" enable-background="new    " d="M153.343,117.405c0,0,2.012-0.459,1.212,5.133
		c-0.8,5.591-4.229,36.634,1.929,48.27c0.758,1.459-0.831,2.726-0.831,2.726s3.021-0.248,3.819-0.746
		c-0.749-1.799-9.385-14.92-2.084-55.599C156.353,117.247,153.343,117.405,153.343,117.405z"/>
	<path opacity="0.3" fill="#231F20" enable-background="new    " d="M175.285,116.717c0,0,3.557-0.146,3.557,2.213
		c0.877-0.354,3.037-2.023,0.789-4.045C177.38,112.863,175.322,116.413,175.285,116.717z"/>
	<path opacity="0.3" fill="#231F20" enable-background="new    " d="M183.56,168.084c0,0-0.352,3.555-2.709,3.594
		c0.365,0.871,2.05,2.984,4.057,0.723C186.705,170.375,183.863,168.118,183.56,168.084z"/>
	<path opacity="0.3" fill="#231F20" enable-background="new    " d="M127.521,141.352c0,0-1.872,0.455-2.098,1.803
		c-0.225,1.348,0.252,2.203,0.252,2.203s-2.547,3.986,1.846,4.936c-0.697-0.623-2.359-2.008-0.868-4.547
		C126.324,144.852,125.25,143.569,127.521,141.352z"/>
	<g>
		<path fill="#9D8A79" d="M185.267,152.622c-0.205,0-0.412-0.035-0.616-0.105c-0.933-0.342-1.413-1.373-1.071-2.307
			c2.805-7.695,0.092-13.563,0.064-13.621c-0.426-0.896-0.045-1.969,0.852-2.395s1.969-0.047,2.395,0.852
			c0.141,0.293,3.382,7.299,0.064,16.396C186.69,152.168,186,152.622,185.267,152.622z"/>
	</g>
	<path opacity="0.3" fill="#231F20" enable-background="new    " d="M170.274,126.418c0,0-3.087,2.199-1.858,4.357
		c1.301,2.293,1.703,2.051,1.946,4.25c0.374,3.393,5.776,2.268,6.761,0.146C178.354,132.53,174.572,123.887,170.274,126.418z"/>
	<path opacity="0.3" fill="#231F20" enable-background="new    " d="M177.5,151.262c0,0-3.522-1.398-4.672,0.805
		c-1.219,2.338-0.793,2.543-2.512,3.943c-2.643,2.154,1.234,6.08,3.549,5.758C176.755,161.366,181.958,153.497,177.5,151.262z"/>
	<path fill="none" stroke="#231F20" stroke-linecap="round" stroke-linejoin="round" stroke-miterlimit="10" d="M171.828,129.725
		c0,0,2.297,0.352,2.496,2.746c0.117,1.406-0.998,2.445-1.798,2.746"/>
	<path fill="none" stroke="#231F20" stroke-linecap="round" stroke-linejoin="round" stroke-miterlimit="10" d="M174.332,158.256
		c0,0,2.297-0.35,2.496-2.746c0.117-1.406-0.998-2.445-1.798-2.744"/>
	<path opacity="0.3" fill="#231F20" enable-background="new    " d="M167.326,141.833c0,0-2.923,0.563-2.755,2.504
		c0.181,2.063,0.548,2.018,0,3.668c-0.841,2.539,3.382,3.504,4.775,2.314C171.089,148.834,171.218,141.432,167.326,141.833z"/>
	
		<path fill="#555560" stroke="#231F20" stroke-width="0.5" stroke-linecap="round" stroke-linejoin="round" stroke-miterlimit="10" d="
		M165.531,142.35c0,0-1.617-0.02-1.447,1.922c0.179,2.063,0.748,2.102,0,3.67c-0.85,1.775,1.703,2.822,3.099,1.635
		C168.925,148.092,169.425,141.95,165.531,142.35z"/>
	<path opacity="0.3" fill="#FFFFFF" enable-background="new    " d="M166.81,144.807c0,0-0.368-0.008-0.33,0.697
		c0.041,0.748,0.17,0.762,0,1.332c-0.193,0.645,0.389,1.023,0.707,0.594C167.585,146.891,167.699,144.663,166.81,144.807z"/>
</g>
		<g id="hands-move">
<g id="hands">
	<polygon opacity="0.3" fill="#231F20" enable-background="new    " points="150.216,110.805 150.216,181.344 155.907,179.747 
		155.06,110.805 	"/>
	<path fill="#635241" stroke="#231F20" stroke-linecap="round" stroke-linejoin="round" stroke-miterlimit="10" d="M140.439,191.94
		c0,0,13.811,3.818,20.518,4.492c7.438,0.748,13.829,1.199,19.705-5.143c4.963-5.355,3.267-13.83,0-17.145
		c-5.405-5.479-14.722-5.033-16.577,5.705c-1.647-0.5-17.356,0.553-23.646-3.041"/>
	<path fill="#635241" stroke="#231F20" stroke-linecap="round" stroke-linejoin="round" stroke-miterlimit="10" d="M137.403,100.174
		c0,0,13.811-3.818,20.518-4.492c7.438-0.748,13.828-1.199,19.705,5.143c4.963,5.355,3.265,13.83,0,17.143
		c-5.404,5.48-14.722,5.033-16.577-5.705c-1.647,0.5-17.356-0.553-23.646,3.041"/>
	<polygon opacity="0.3" fill="#231F20" enable-background="new    " points="151.265,108.807 151.008,112.62 160.825,112.735 
		161.073,107.844 	"/>
	
		<rect x="153.261" y="108.342" fill="#A0BA4D" stroke="#231F20" stroke-linecap="round" stroke-linejoin="round" stroke-miterlimit="10" width="34.296" height="74.629"/>
	<path fill="#635241" stroke="#231F20" stroke-linecap="round" stroke-linejoin="round" stroke-miterlimit="10" d="M157.662,106.667
		c0,0,0.17,9.57,10.809,11.543c9.784,1.813,13.505-4.627,12.094-11.23"/>
	<path fill="#635241" stroke="#231F20" stroke-linecap="round" stroke-linejoin="round" stroke-miterlimit="10" d="M160.698,185.45
		c0,0,0.17-9.572,10.808-11.545c9.785-1.813,13.506,4.625,12.095,11.23"/>
	<path opacity="0.3" fill="#231F20" enable-background="new    " d="M157.64,183.327c0,0,3.396-9.277,14.079-9.982
		c-3.406,1.182-9.337,3.107-11.021,9.949C159.815,183.342,157.64,183.327,157.64,183.327z"/>
	<path opacity="0.3" fill="#231F20" enable-background="new    " d="M155.308,108.858c0,0,1.698,9.422,14.478,9.979
		c-3.544-1.641-10.063-3.537-12.146-10.229C156.856,108.559,155.308,108.858,155.308,108.858z"/>
	<polygon opacity="0.3" fill="#231F20" enable-background="new    " points="151.602,179.747 151.602,184.79 160.475,184.79 
		160.698,183.024 153.623,182.842 153.474,179.522 	"/>
	<g enable-background="new    ">
		<path fill="#FFFFFF" d="M166.24,129.211c-1.118-1.146-1.678-2.557-1.678-4.232s0.56-3.086,1.678-4.232
			c1.119-1.146,2.511-1.719,4.176-1.719c1.664,0,3.057,0.573,4.176,1.719c1.118,1.146,1.678,2.556,1.678,4.232
			s-0.56,3.086-1.678,4.232c-1.119,1.146-2.512,1.719-4.176,1.719C168.75,130.93,167.359,130.357,166.24,129.211z M170.408,128.352
			c1.011,0,1.872-0.324,2.586-0.973s1.07-1.446,1.07-2.393c0-0.945-0.356-1.742-1.07-2.391s-1.575-0.973-2.586-0.973
			c-1.012,0-1.871,0.324-2.578,0.973c-0.709,0.649-1.063,1.446-1.063,2.391c0,0.946,0.354,1.744,1.063,2.393
			C168.537,128.028,169.396,128.352,170.408,128.352z"/>
		<path fill="#FFFFFF" d="M166.24,142.605c-1.118-1.146-1.678-2.557-1.678-4.232s0.56-3.087,1.678-4.231
			c1.119-1.146,2.511-1.719,4.176-1.719c1.664,0,3.057,0.572,4.176,1.719c1.118,1.145,1.678,2.556,1.678,4.231
			s-0.56,3.087-1.678,4.232c-1.119,1.146-2.512,1.719-4.176,1.719C168.75,144.324,167.359,143.75,166.24,142.605z M170.408,141.746
			c1.011,0,1.872-0.325,2.586-0.974s1.07-1.445,1.07-2.391c0-0.947-0.356-1.744-1.07-2.393s-1.575-0.973-2.586-0.973
			c-1.012,0-1.871,0.324-2.578,0.973c-0.709,0.648-1.063,1.445-1.063,2.393c0,0.945,0.354,1.742,1.063,2.391
			C168.537,141.42,169.396,141.746,170.408,141.746z"/>
		<path fill="#FFFFFF" d="M174.997,154.272c-0.676,0.794-1.714,1.191-3.113,1.191c-1.4,0-2.425-0.408-3.073-1.225
			s-0.973-2.063-0.973-3.737v-1.508h-3.162v-2.53h11.334v4.006C176.009,152.209,175.671,153.477,174.997,154.272z M170.537,152.415
			c0.341,0.303,0.838,0.454,1.492,0.454s1.119-0.197,1.395-0.592s0.413-1.008,0.413-1.841v-1.442h-3.811v1.702
			C170.026,151.54,170.197,152.112,170.537,152.415z"/>
		<path fill="#FFFFFF" d="M173.748,160.092c-0.2-0.243-0.465-0.365-0.794-0.365c-0.33,0-0.593,0.148-0.787,0.447
			c-0.194,0.297-0.424,0.982-0.688,2.059c-0.266,1.076-0.663,1.91-1.192,2.506c-0.529,0.594-1.303,0.891-2.318,0.891
			c-1.017,0-1.841-0.381-2.473-1.143c-0.633-0.762-0.949-1.765-0.949-3.008c0-1.795,0.665-3.41,1.995-4.848l1.848,1.508
			c-1.069,1.221-1.604,2.351-1.604,3.389c0,0.465,0.1,0.829,0.3,1.094c0.199,0.266,0.47,0.398,0.811,0.398s0.61-0.141,0.811-0.422
			s0.402-0.838,0.608-1.67c0.313-1.319,0.722-2.284,1.224-2.895c0.503-0.611,1.292-0.916,2.368-0.916
			c1.075,0,1.905,0.386,2.488,1.158c0.584,0.773,0.876,1.738,0.876,2.895c0,0.757-0.13,1.514-0.389,2.271
			c-0.26,0.757-0.628,1.416-1.103,1.979l-1.849-1.281c0.745-0.983,1.118-2,1.118-3.048
			C174.047,160.668,173.948,160.336,173.748,160.092z"/>
		<path fill="#FFFFFF" d="M164.959,167.924c0.275-0.275,0.613-0.414,1.013-0.414c0.4,0,0.738,0.139,1.014,0.414
			s0.414,0.613,0.414,1.014c0,0.399-0.139,0.737-0.414,1.013c-0.275,0.276-0.613,0.413-1.014,0.413
			c-0.399,0-0.737-0.137-1.013-0.413c-0.276-0.275-0.414-0.613-0.414-1.013C164.545,168.538,164.683,168.2,164.959,167.924z
			 M176.009,167.51v2.87H174l-5.838-0.486v-1.913L174,167.51H176.009z"/>
	</g>
	<path fill="none" stroke="#231F20" stroke-linecap="round" stroke-linejoin="round" stroke-miterlimit="10" d="M168.357,116.747
		c0,0,0.785,1.705-0.768,3.066"/>
	<path fill="none" stroke="#231F20" stroke-linecap="round" stroke-linejoin="round" stroke-miterlimit="10" d="M171.176,117.559
		c0,0,0.785,1.705-0.768,3.066"/>
	<path fill="none" stroke="#231F20" stroke-linecap="round" stroke-linejoin="round" stroke-miterlimit="10" d="M174.253,117.303
		c0,0,0.785,1.705-0.768,3.068"/>
	<path fill="none" stroke="#231F20" stroke-linecap="round" stroke-linejoin="round" stroke-miterlimit="10" d="M170.6,172.202
		c0,0,0.993,1.594-0.378,3.141"/>
	<path fill="none" stroke="#231F20" stroke-linecap="round" stroke-linejoin="round" stroke-miterlimit="10" d="M173.497,171.772
		c0,0,0.995,1.596-0.376,3.143"/>
	<path fill="none" stroke="#231F20" stroke-linecap="round" stroke-linejoin="round" stroke-miterlimit="10" d="M176.499,171.776
		c0,0,1.367,1.287,0.439,3.133"/>
</g>
			</g>
		<g id="be-sky">
<g id="be">
	<path fill="#E0E0E0" stroke="#000000" stroke-miterlimit="10" d="M179.138,190.336c0,0-4.229,4.09-1.933,6.336
		c2.298,2.246,5.977-2.336,6.321-2.555c0.344-0.22,2.883-3.277,1.467-4.82C182.768,186.87,180.984,188.575,179.138,190.336z"/>
	<path fill="#E0E0E0" stroke="#000000" stroke-miterlimit="10" d="M176.333,191.081c0,0-3.702-4.572-6.141-2.482
		c-2.439,2.092,1.803,6.158,1.99,6.521c0.187,0.361,3.012,3.159,4.673,1.885C179.47,195,177.927,193.075,176.333,191.081z"/>
	<path fill="#E5A235" stroke="#000000" stroke-miterlimit="10" d="M175.858,195.879c0,0-9.012-0.948-9.392,3.983
		c-0.379,4.935,8.668,4.743,9.267,4.935c0.599,0.188,6.722,0.16,7.145-3.037C183.542,196.734,179.765,196.314,175.858,195.879z"/>
	<path fill="#4E4E51" stroke="#000000" stroke-miterlimit="10" d="M185.092,200.333c0,0,2.372,3.23,1.233,5.412
		c-1.139,2.182-7.441,1.83-6.325-4.933C181.733,200.352,183.1,198.336,185.092,200.333z"/>
	<circle fill="#FFFFFF" stroke="#000000" stroke-miterlimit="10" cx="185.692" cy="198.347" r="3.479"/>
	<path d="M177.883,196.818c0,0-1.739,3.921-0.095,7.524c0.537,0.285,2.75,0.189,2.75,0.189s-2.055-3.896,0-8.008
		C179.659,196.445,177.883,196.818,177.883,196.818z"/>
	<circle fill="#FFFFFF" stroke="#000000" stroke-miterlimit="10" cx="180" cy="197.335" r="3.479"/>
	<circle cx="180" cy="197.335" r="0.822"/>
	<circle cx="186.119" cy="198.347" r="0.822"/>
	<path d="M167.64,197.292c0,0-1.773,2.32-0.129,5.926c0.537,0.285,2.688,0.855,2.688,0.855s-2.055-3.896,0-8.01
		C169.319,195.982,167.64,197.292,167.64,197.292z"/>
	<path d="M172.57,196.351c0,0-1.731,4.284-0.087,7.89c0.537,0.283,2.936,0.516,2.936,0.516s-2.249-4.586-0.194-8.698
		C174.347,195.977,172.57,196.351,172.57,196.351z"/>
	<path d="M166.265,199.168c0,0-1.719,0.289-2.438,1.164c1.438,0.219,2.317,0.719,2.627,0.969
		C166.202,200.271,166.171,199.536,166.265,199.168z"/>
	<path fill="none" stroke="#000000" stroke-width="0.5" stroke-miterlimit="10" d="M170.136,192.391c0,0,0.806-6.994,6.945,2.775"/>
	<path fill="none" stroke="#000000" stroke-width="0.5" stroke-miterlimit="10" d="M171.138,193.856c0,0,0.636-3.668,5.586,2.912"/>
	<path fill="none" stroke="#000000" stroke-width="0.5" stroke-miterlimit="10" d="M184.864,189.161c0,0-3.427-1.265-5.327,4.728"/>
	<path fill="none" stroke="#000000" stroke-width="0.5" stroke-miterlimit="10" d="M185.186,191.597c0,0-0.914-1.683-2.431,0.091
		s-1.318,2.479-1.318,2.479"/>
	<path fill="none" stroke="#000000" stroke-linecap="round" stroke-linejoin="round" stroke-miterlimit="10" d="M174.747,204.547
		c0,0-2.157,0.566-1.511,3.035"/>
	<path fill="none" stroke="#000000" stroke-linecap="round" stroke-linejoin="round" stroke-miterlimit="10" d="M179.25,207.661
		c0,0,1.084-1.947-1.146-3.189"/>
</g>
			</g>
<g id="front">
	<path fill="#D8DDE5" d="M263.361,7.917l-8.986,27.557l2.696,3.895l-6.29,30.521l6.29,3.025l-2.021,17.623
		c0,0-46.531-9.846-60.595,50.216c-2.382,10.039,2.136,74.142,73.419,56.615c1.498,10.506,0.063,17.071,0.063,17.071l-86.949,6.144
		l-8.561,12.879c0,0-16.325-7.42-35.57-9.284c-31.951-3.095-48.125,0.6-48.125,0.6s-59.272,9.554-76.061-30.518
		c-25-59.669,17.333-83.455,29.711-87.594c6.828-2.283,65.192-19.209,45.623-48.363c-19.569-29.154,12-47.5,31.909-43.396
		c7.205,1.484,20.438,6.988,30.622-0.799c10.184-7.789,37.342-18.973,56.312,2.795C225.82,38.668,232.609,0.928,263.361,7.917z"/>
	<path fill="#313131" d="M67.628,176.575c6.505-8.488,13.329-17.188,20.474-26.098c7.141-8.912,14.322-17.893,21.536-26.945
		c7.214-9.051,14.391-18.033,21.535-26.947c7.141-8.91,13.968-17.609,20.475-26.096v85.08h21.005v21.006h-21.005v35.646h-21.853
		v-35.646H67.628L67.628,176.575z M129.795,129.471c-1.133,1.414-2.619,3.289-4.456,5.621c-1.839,2.334-3.713,4.773-5.622,7.32
		c-1.91,2.545-3.786,5.021-5.623,7.426c-1.841,2.404-3.255,4.314-4.244,5.729h19.944L129.795,129.471L129.795,129.471z"/>
	<path fill="#E8EBEF" d="M186.756,145.752c0,0-0.599,18.57,3.444,26.51c1.348,4.643-0.599,4.043,4.193,10.332
		c4.793,6.291,14.527,16.924,27.407,21.418c-4.643-0.301-24.361-2.098-28.705-7.49c0-7.986-4.693-12.879-4.693-12.879
		s-2.247-1.348-2.546-5.99s-4.792-11.383-3.145-18.57C184.358,151.896,186.756,145.752,186.756,145.752z"/>
	<path fill="#E8EBEF" d="M228.84,82.672c0,0-17.822,4.564-25.76,15.076c1.048-4.164,6.291-13.68,6.291-13.68l-1.048-5.74
		l7.638-1.947l0.749-16.025l6.89,20.07L228.84,82.672z"/>
	<path fill="#313131" d="M244.517,90.786l1.896-9.186h3.494v-6.891l-7.789-1.797l1.197-9.086l-2.296-8.887l3.192,8.887l-0.697,8.287
		l7.888,1.996v9.387l-3.295,0.301c0,0-0.798,5.092,0.5,6.988C246.714,90.885,244.517,90.786,244.517,90.786z"/>
	<path fill="#313131" d="M206.121,183.024c0,0,0.002,0.963,0.048,1.092c0.267,0.736,1.124,2.58,0.805,3.855
		c0.749,0.225,1.348,1.123,1.348,1.123l-5.242,3.596l0.674,3.145l-3.07,2.1l-3.07,7.563l3.445-7.188l3.37-2.396l-0.524-2.848
		l5.691-3.594c0,0-0.956-2.057,0.645-1.863"/>
	<path fill="#313131" d="M205.044,114.172c0,0-3.063,5.371-6.457,2.975c-0.2-0.898,0.5-3.795,0.5-3.795l-7.204-3.17l-3.294,8.48
		l-5.278-5.313l5.792,6.891l3.294-8.287l5.792,1.896l-0.699,3.693c0,0,1.397,1.299,2.696,1.299c1.298,0,1.602,1.102,1.602,1.102
		S202.731,118.045,205.044,114.172z"/>
	<path opacity="0.3" fill="#313131" enable-background="new    " d="M233.932,202.913c0,0,14.678,3.367,20.368,2.582
		c3.896,1.012,5.242,1.461,5.242,1.461v-2.021l15.426-5.468l-13.928,6.027l-0.75,3.854l-5.84-1.646L233.932,202.913z"/>
	<path fill="none" stroke="#231F20" stroke-linecap="round" stroke-linejoin="round" stroke-miterlimit="10" d="M255.399,91.559
		c0,0-39.838-10.957-57.785,38.273c-9.11,24.055,2.967,45.02,6.313,49.914c3.346,4.893,20.794,30.129,65.038,17.432"/>
</g>
	</g>
</svg>
