<?xml version="1.0" standalone="no"?>
<!DOCTYPE svg PUBLIC "-//W3C//DTD SVG 20010904//EN"
 "http://www.w3.org/TR/2001/REC-SVG-20010904/DTD/svg10.dtd">
<svg version="1.0" xmlns="http://www.w3.org/2000/svg"
 width="635.000000pt" height="633.000000pt" viewBox="0 0 635.000000 633.000000"
 preserveAspectRatio="xMidYMid meet">

<g transform="translate(0.000000,633.000000) scale(0.100000,-0.100000)"
fill="#000000" stroke="none">
<path d="M120 5870 l0 -350 350 0 350 0 0 350 0 350 -350 0 -350 0 0 -350z
m600 0 l0 -250 -250 0 -250 0 0 250 0 250 250 0 250 0 0 -250z"/>
<path d="M320 5870 l0 -150 150 0 150 0 0 150 0 150 -150 0 -150 0 0 -150z"/>
<path d="M920 6120 l0 -100 50 0 50 0 0 -50 0 -50 -50 0 -50 0 0 -50 0 -50 50
0 50 0 0 50 0 50 50 0 50 0 0 50 0 50 50 0 50 0 0 -100 0 -100 149 0 150 0 3
-47 3 -48 48 -3 47 -3 0 -50 0 -49 -50 0 -50 0 0 -100 0 -100 -100 0 -100 0 0
50 0 50 50 0 50 0 0 100 0 100 -150 0 -150 0 0 -100 0 -100 50 0 50 0 0 -50 0
-50 -100 0 -100 0 0 100 0 100 -50 0 -50 0 0 -100 0 -100 -150 0 -150 0 0 -50
0 -50 -50 0 -50 0 0 50 0 50 -100 0 -100 0 0 -150 0 -150 -100 0 -100 0 0
-100 0 -100 100 0 100 0 0 -50 0 -50 100 0 100 0 0 -50 0 -50 -100 0 -100 0 0
-50 0 -50 -50 0 -50 0 0 -100 0 -100 -50 0 -50 0 0 -50 0 -50 50 0 50 0 0
-195 0 -195 -50 0 -50 0 0 -50 0 -50 150 0 150 0 0 -50 0 -50 -50 0 -50 0 0
-100 0 -100 -50 0 -50 0 0 50 0 50 -50 0 -50 0 0 -150 0 -150 50 0 50 0 0 -50
0 -50 -50 0 -50 0 0 -100 0 -100 50 0 50 0 0 100 0 100 50 0 50 0 0 -50 0 -50
100 0 100 0 0 -100 0 -100 200 0 200 0 0 -50 0 -50 50 0 50 0 0 50 0 50 100 0
100 0 0 50 0 50 100 0 100 0 0 50 0 50 50 0 50 0 0 50 0 50 -250 0 -250 0 0
50 0 50 50 0 50 0 0 50 0 50 100 0 100 0 0 50 0 50 50 0 50 0 0 -100 0 -100
150 0 150 0 0 100 0 100 -150 0 -150 0 0 50 0 50 -50 0 -50 0 0 200 0 200 100
0 100 0 0 -50 0 -50 -50 0 -50 0 0 -100 0 -100 50 0 50 0 0 -50 0 -50 100 0
100 0 0 50 0 50 -50 0 -50 0 0 50 0 50 -50 0 -50 0 0 50 0 50 50 0 50 0 0 50
0 50 50 0 50 0 0 95 0 95 -50 0 -50 0 0 -95 0 -95 -50 0 -50 0 0 45 0 45 -100
0 -100 0 0 50 0 50 50 0 50 0 0 50 0 50 50 0 50 0 0 100 0 100 -50 0 -50 0 0
-50 0 -50 -50 0 -50 0 0 50 0 50 -50 0 -50 0 0 50 0 50 50 0 50 0 0 50 0 50
50 0 50 0 0 50 0 50 100 0 100 0 0 -50 0 -50 -50 0 -50 0 0 -50 0 -50 50 0 50
0 0 50 0 50 50 0 50 0 0 50 0 50 -50 0 -50 0 0 50 0 50 50 0 50 0 0 50 0 50
50 0 50 0 0 -100 0 -100 100 0 100 0 0 50 0 50 50 0 50 0 0 -100 0 -100 -100
0 -100 0 0 -150 0 -150 50 0 50 0 0 -50 0 -50 -100 0 -100 0 0 -50 0 -50 49 0
50 0 3 -47 3 -48 48 -3 47 -3 0 -45 0 -44 -100 0 -100 0 0 -50 0 -50 50 0 50
0 0 -50 0 -50 -50 0 -50 0 0 -100 0 -100 50 0 50 0 0 -50 0 -50 50 0 50 0 0
150 0 150 50 0 50 0 0 50 0 50 50 0 50 0 0 -100 0 -100 -50 0 -50 0 0 -100 0
-100 50 0 50 0 0 -50 0 -50 -150 0 -150 0 0 -50 0 -50 -50 0 -50 0 0 -100 0
-100 150 0 150 0 0 50 0 50 -100 0 -100 0 0 50 0 50 150 0 150 0 0 -50 0 -50
100 0 100 0 0 -50 0 -50 -50 0 -50 0 0 -50 0 -50 -50 0 -50 0 0 -100 0 -100
-50 0 -50 0 0 50 0 50 -100 0 -100 0 0 50 0 50 -50 0 -50 0 0 -50 0 -50 50 0
50 0 0 -100 0 -100 -50 0 -50 0 0 -150 0 -150 -50 0 -50 0 0 -50 0 -50 -100 0
-100 0 0 50 0 50 50 0 50 0 0 50 0 50 50 0 50 0 0 50 0 50 -50 0 -50 0 0 100
0 100 50 0 50 0 0 100 0 100 -50 0 -50 0 0 -50 0 -50 -50 0 -50 0 0 -250 0
-250 -100 0 -100 0 0 50 0 50 50 0 50 0 0 100 0 100 -50 0 -50 0 0 50 0 50 50
0 50 0 0 50 0 50 -50 0 -50 0 0 -50 0 -50 -50 0 -50 0 0 -100 0 -100 50 0 50
0 0 -50 0 -50 -100 0 -100 0 0 -50 0 -50 -50 0 -50 0 0 50 0 50 -50 0 -50 0 0
50 0 50 50 0 50 0 0 50 0 50 -50 0 -50 0 0 -50 0 -50 -100 0 -100 0 0 -50 0
-50 -50 0 -50 0 0 100 0 100 -50 0 -50 0 0 50 0 50 -100 0 -100 0 0 50 0 50
50 0 50 0 0 50 0 50 -50 0 -50 0 0 -50 0 -50 -50 0 -50 0 0 -50 0 -50 -50 0
-50 0 0 -50 0 -50 50 0 50 0 0 50 0 50 50 0 50 0 0 -100 0 -100 50 0 50 0 0
-100 0 -100 -100 0 -100 0 0 50 0 50 -50 0 -50 0 0 -100 0 -100 100 0 100 0 0
-50 0 -50 -50 0 -50 0 0 -50 0 -50 -50 0 -50 0 0 -50 0 -50 50 0 50 0 0 50 0
50 100 0 100 0 0 -150 0 -150 -50 0 -50 0 0 50 0 50 -50 0 -50 0 0 -50 0 -50
-50 0 -50 0 0 -50 0 -50 50 0 50 0 0 -50 0 -50 -50 0 -50 0 0 -50 0 -50 50 0
50 0 0 -100 0 -100 -50 0 -50 0 0 -50 0 -50 100 0 100 0 0 -50 0 -50 -100 0
-100 0 0 -100 0 -100 200 0 200 0 0 50 0 50 50 0 50 0 0 50 0 50 100 0 100 0
0 50 0 50 50 0 50 0 0 -300 0 -300 50 0 50 0 0 -50 0 -50 -50 0 -50 0 0 -100
0 -100 100 0 99 0 3 -97 3 -98 48 -3 47 -3 0 100 0 101 50 0 50 0 0 -100 0
-100 100 0 100 0 0 50 0 50 -50 0 -50 0 0 50 0 50 100 0 100 0 0 50 0 50 50 0
50 0 0 -50 0 -50 100 0 100 0 0 -50 0 -50 150 0 150 0 0 -50 0 -50 50 0 50 0
0 50 0 50 100 0 100 0 0 -50 0 -50 150 0 150 0 0 50 0 50 50 0 50 0 0 100 0
100 -50 0 -50 0 0 -50 0 -50 -50 0 -50 0 0 200 0 200 -50 0 -50 0 0 -100 0
-100 -50 0 -50 0 0 -100 0 -100 -100 0 -100 0 0 50 0 50 50 0 50 0 0 50 0 50
-50 0 -50 0 0 100 0 100 50 0 50 0 0 -50 0 -50 50 0 50 0 0 100 0 100 -100 0
-100 0 0 50 0 50 100 0 100 0 0 50 0 50 50 0 50 0 0 150 0 150 -50 0 -50 0 0
100 0 100 50 0 50 0 0 100 0 100 50 0 50 0 0 50 0 50 200 0 200 0 0 50 0 50
45 0 45 0 0 50 0 50 -45 0 -45 0 0 50 0 50 -50 0 -50 0 0 -50 0 -50 -100 0
-100 0 0 -50 0 -50 -50 0 -50 0 0 50 0 50 -150 0 -150 0 0 -50 0 -50 -50 0
-50 0 0 -50 0 -50 -50 0 -50 0 0 50 0 50 -50 0 -50 0 0 50 0 50 -50 0 -50 0 0
50 0 50 -50 0 -50 0 0 50 0 50 -50 0 -50 0 0 -100 0 -100 50 0 50 0 0 -100 0
-100 50 0 50 0 0 50 0 50 50 0 50 0 0 -100 0 -100 -50 0 -50 0 0 -50 0 -50
-50 0 -50 0 0 50 0 50 -50 0 -50 0 0 50 0 50 -100 0 -100 0 0 50 0 50 50 0 50
0 0 50 0 50 -50 0 -50 0 0 -50 0 -50 -50 0 -50 0 0 100 0 100 100 0 100 0 0
100 0 100 100 0 100 0 0 100 0 100 50 0 50 0 0 150 0 150 50 0 50 0 0 -100 0
-100 50 0 50 0 0 -50 0 -50 50 0 50 0 0 -100 0 -100 -50 0 -50 0 0 -100 0
-100 100 0 100 0 0 50 0 50 -50 0 -50 0 0 50 0 50 100 0 100 0 0 -50 0 -50 99
0 100 0 3 -47 3 -48 48 -3 47 -3 0 50 0 51 -50 0 -50 0 0 100 0 100 50 0 50 0
0 -50 0 -50 50 0 50 0 0 -50 0 -50 50 0 50 0 0 50 0 50 50 0 50 0 0 -50 0 -50
145 0 145 0 0 50 0 50 100 0 100 0 0 -50 0 -50 50 0 50 0 0 -50 0 -50 150 0
150 0 0 -50 0 -50 -200 0 -200 0 0 -50 0 -50 100 0 100 0 0 -50 0 -50 -50 0
-50 0 0 -100 0 -100 50 0 50 0 0 50 0 50 50 0 50 0 0 -50 0 -50 50 0 50 0 0
50 0 50 -50 0 -50 0 0 50 0 50 100 0 100 0 0 150 0 150 -50 0 -50 0 0 50 0 50
50 0 50 0 0 50 0 50 50 0 50 0 0 -150 0 -150 50 0 50 0 0 -50 0 -50 100 0 100
0 0 -50 0 -50 -50 0 -50 0 0 -51 0 -50 -47 3 -48 3 -3 48 -3 47 -50 0 -49 0 0
-50 0 -50 -50 0 -50 0 0 -50 0 -50 100 0 100 0 0 -50 0 -50 50 0 50 0 0 50 0
50 50 0 50 0 0 -50 0 -50 50 0 50 0 0 -50 0 -50 50 0 50 0 0 -50 0 -50 -50 0
-50 0 0 -50 0 -50 50 0 50 0 0 -50 0 -50 50 0 50 0 0 -50 0 -50 -51 0 -50 0 3
-47 3 -48 98 -3 97 -3 0 -49 0 -50 -50 0 -50 0 0 -50 0 -50 50 0 50 0 0 -50 0
-50 -50 0 -50 0 0 -50 0 -50 100 0 100 0 0 150 0 150 50 0 49 0 3 -148 3 -147
48 -3 47 -3 0 -50 0 -49 -50 0 -50 0 0 -50 0 -50 50 0 50 0 0 -50 0 -50 -100
0 -100 0 0 50 0 50 -50 0 -50 0 0 50 0 50 -50 0 -50 0 0 -50 0 -50 -50 0 -50
0 0 150 0 150 -100 0 -100 0 0 -100 0 -100 -50 0 -50 0 0 100 0 100 -50 0 -50
0 0 100 0 100 -50 0 -50 0 0 -50 0 -50 -50 0 -50 0 0 100 0 100 -50 0 -50 0 0
-50 0 -50 -50 0 -50 0 0 -150 0 -150 -50 0 -50 0 0 50 0 50 -50 0 -50 0 0 50
0 50 50 0 50 0 0 100 0 100 -50 0 -50 0 0 50 0 50 50 0 50 0 0 50 0 50 50 0
50 0 0 50 0 50 100 0 100 0 0 -50 0 -50 -50 0 -50 0 0 -50 0 -50 50 0 50 0 0
50 0 50 50 0 50 0 0 -100 0 -100 100 0 100 0 0 -100 0 -100 50 0 50 0 0 50 0
50 50 0 50 0 0 -50 0 -50 50 0 50 0 0 50 0 50 -50 0 -50 0 0 50 0 50 -50 0
-50 0 0 100 0 100 -100 0 -100 0 0 150 0 150 -50 0 -50 0 0 50 0 50 -100 0
-100 0 0 -50 0 -50 -50 0 -50 0 0 50 0 50 -50 0 -50 0 0 -100 0 -100 -50 0
-50 0 0 100 0 100 -100 0 -100 0 0 100 0 100 50 0 50 0 0 50 0 50 -100 0 -100
0 0 100 0 100 -50 0 -50 0 0 -150 0 -150 50 0 50 0 0 -50 0 -50 -50 0 -50 0 0
-50 0 -50 -50 0 -50 0 0 100 0 100 -95 0 -95 0 0 -50 0 -50 -50 0 -50 0 0 50
0 50 -50 0 -50 0 0 -50 0 -50 -50 0 -50 0 0 -100 0 -100 50 0 50 0 0 -50 0
-50 -50 0 -50 0 0 -50 0 -50 50 0 50 0 0 -100 0 -100 -50 0 -50 0 0 -100 0
-100 50 0 50 0 0 -50 0 -50 50 0 50 0 0 -50 0 -50 -50 0 -50 0 0 -50 0 -50
245 0 245 0 0 -50 0 -50 -50 0 -50 0 0 -150 0 -150 50 0 50 0 0 150 0 150 50
0 50 0 0 -150 0 -150 100 0 100 0 0 150 0 150 100 0 100 0 0 -100 0 -100 -50
0 -50 0 0 -50 0 -50 200 0 200 0 0 50 0 50 50 0 50 0 0 -50 0 -50 150 0 150 0
0 50 0 50 150 0 150 0 0 -50 0 -50 200 0 200 0 0 50 0 50 50 0 50 0 0 50 0 50
-50 0 -50 0 0 50 0 50 100 0 100 0 0 -50 0 -50 100 0 100 0 0 100 0 100 200 0
200 0 0 -50 0 -50 -150 0 -150 0 0 -100 0 -100 -150 0 -150 0 0 -50 0 -50 150
0 150 0 0 50 0 50 50 0 50 0 0 -50 0 -50 50 0 50 0 0 50 0 50 49 0 50 0 3 -47
3 -48 98 -3 97 -3 0 100 0 100 -47 3 -48 3 -3 48 -3 47 50 0 51 0 0 50 0 50
-50 0 -50 0 0 50 0 50 50 0 50 0 0 100 0 100 -50 0 -50 0 0 150 0 150 -100 0
-100 0 0 -50 0 -50 -100 0 -100 0 0 50 0 50 50 0 50 0 0 50 0 50 50 0 50 0 0
50 0 50 -50 0 -50 0 0 -50 0 -50 -50 0 -50 0 0 -50 0 -50 -50 0 -50 0 0 100 0
100 50 0 50 0 0 50 0 50 -100 0 -100 0 0 50 0 50 50 0 50 0 0 50 0 50 50 0 50
0 0 50 0 50 -50 0 -50 0 0 -50 0 -50 -100 0 -100 0 0 50 0 50 50 0 50 0 0 50
0 50 200 0 200 0 0 50 0 50 99 0 100 0 3 -47 3 -48 48 -3 47 -3 0 100 0 100
-47 3 -48 3 -3 47 -3 48 50 0 51 0 0 50 0 50 -100 0 -100 0 0 -50 0 -50 -50 0
-50 0 0 50 0 50 -100 0 -100 0 0 50 0 50 100 0 100 0 0 150 0 150 50 0 50 0 0
-150 0 -150 50 0 50 0 0 100 0 100 50 0 50 0 0 200 0 200 -100 0 -100 0 0 50
0 49 -97 3 -98 3 -3 98 -3 97 101 0 100 0 0 50 0 50 50 0 50 0 0 50 0 50 -50
0 -50 0 0 -50 0 -50 -100 0 -100 0 0 50 0 50 50 0 50 0 0 150 0 150 -50 0 -50
0 0 -100 0 -100 -50 0 -50 0 0 -50 0 -50 -50 0 -50 0 0 100 0 100 50 0 50 0 0
150 0 150 49 0 50 0 3 -47 3 -48 48 -3 47 -3 0 50 0 51 100 0 100 0 0 50 0 50
50 0 50 0 0 45 0 45 -100 0 -100 0 0 -45 0 -45 -50 0 -50 0 0 -50 0 -50 -50 0
-50 0 0 145 0 145 -150 0 -150 0 0 50 0 50 100 0 100 0 0 50 0 50 -150 0 -150
0 0 50 0 50 50 0 50 0 0 50 0 50 50 0 50 0 0 -50 0 -50 100 0 100 0 0 -100 0
-100 50 0 50 0 0 -50 0 -50 100 0 100 0 0 50 0 50 50 0 50 0 0 50 0 50 -50 0
-50 0 0 -50 0 -50 -50 0 -50 0 0 50 0 50 -50 0 -50 0 0 250 0 250 -50 0 -50 0
0 50 0 50 50 0 50 0 0 50 0 50 -50 0 -50 0 0 100 0 100 50 0 50 0 0 50 0 50
-50 0 -50 0 0 -50 0 -50 -100 0 -100 0 0 50 0 50 -50 0 -50 0 0 -50 0 -50 -50
0 -50 0 0 50 0 50 -50 0 -50 0 0 50 0 50 50 0 50 0 0 50 0 50 -50 0 -50 0 0
-50 0 -50 -50 0 -50 0 0 100 0 100 50 0 50 0 0 50 0 50 50 0 50 0 0 200 0 200
-100 0 -100 0 0 -100 0 -100 -50 0 -50 0 0 50 0 50 -50 0 -50 0 0 50 0 50 -50
0 -50 0 0 -50 0 -50 50 0 50 0 0 -50 0 -50 50 0 50 0 0 -150 0 -150 -50 0 -50
0 0 100 0 100 -50 0 -50 0 0 -100 0 -100 50 0 50 0 0 -50 0 -50 -50 0 -50 0 0
-50 0 -50 49 0 50 0 3 -47 3 -48 48 -3 47 -3 0 -100 0 -99 -50 0 -50 0 0 -50
0 -50 100 0 100 0 0 -50 0 -50 -50 0 -50 0 0 -50 0 -50 -50 0 -50 0 0 50 0 50
-50 0 -50 0 0 -100 0 -100 -50 0 -50 0 0 -100 0 -100 -50 0 -50 0 0 50 0 50
-50 0 -50 0 0 -50 0 -50 -50 0 -50 0 0 -100 0 -100 -50 0 -50 0 0 -50 0 -50
50 0 50 0 0 -50 0 -50 -100 0 -100 0 0 -50 0 -50 -50 0 -50 0 0 100 0 100 50
0 50 0 0 50 0 50 -50 0 -50 0 0 -50 0 -50 -50 0 -50 0 0 50 0 50 -50 0 -50 0
0 50 0 50 100 0 100 0 0 50 0 50 100 0 100 0 0 100 0 100 50 0 50 0 0 50 0 50
-50 0 -50 0 0 -50 0 -50 -50 0 -50 0 0 -50 0 -50 -50 0 -50 0 0 100 0 100
-100 0 -100 0 0 50 0 50 100 0 100 0 0 50 0 50 100 0 100 0 0 -50 0 -50 149 0
150 0 3 -47 3 -48 48 -3 47 -3 0 100 0 101 -50 0 -50 0 0 100 0 100 -150 0
-150 0 0 50 0 50 -50 0 -50 0 0 50 0 50 50 0 50 0 0 150 0 150 50 0 50 0 0
-50 0 -50 50 0 50 0 0 -50 0 -50 -50 0 -50 0 0 -100 0 -100 100 0 100 0 0 50
0 50 50 0 50 0 0 50 0 50 -50 0 -50 0 0 150 0 150 50 0 50 0 0 100 0 100 -200
0 -200 0 0 50 0 50 -50 0 -50 0 0 -50 0 -50 -50 0 -50 0 0 -50 0 -50 -50 0
-50 0 0 100 0 100 -50 0 -50 0 0 -51 0 -50 -47 3 -48 3 -3 48 -3 47 -50 0 -49
0 0 -100 0 -100 -50 0 -50 0 0 -50 0 -50 -50 0 -50 0 0 150 0 150 -50 0 -50 0
0 -50 0 -50 -50 0 -50 0 0 -50 0 -50 -50 0 -50 0 0 50 0 50 -50 0 -50 0 0 50
0 50 -45 0 -45 0 0 -100 0 -100 45 0 45 0 0 -50 0 -50 -45 0 -45 0 0 -50 0
-50 -100 0 -100 0 0 50 0 50 50 0 50 0 0 50 0 50 -50 0 -50 0 0 100 0 100 -50
0 -50 0 0 -51 0 -50 -47 3 -48 3 -3 48 -3 47 -50 0 -49 0 0 -50 0 -50 -100 0
-100 0 0 50 0 50 -50 0 -50 0 0 -50 0 -50 -50 0 -50 0 0 -50 0 -50 -50 0 -50
0 0 -100 0 -100 -50 0 -50 0 0 50 0 50 -50 0 -50 0 0 -50 0 -50 50 0 50 0 0
-50 0 -50 -50 0 -50 0 0 -150 0 -150 -100 0 -100 0 0 50 0 50 50 0 50 0 0 100
0 100 -100 0 -100 0 0 50 0 50 50 0 50 0 0 50 0 50 50 0 50 0 0 50 0 50 50 0
50 0 0 100 0 100 -50 0 -50 0 0 -50 0 -50 -50 0 -50 0 0 50 0 50 -100 0 -100
0 0 -150 0 -150 -50 0 -50 0 0 50 0 50 -100 0 -100 0 0 50 0 50 50 0 50 0 0
50 0 50 -100 0 -100 0 0 -100 0 -100 -50 0 -50 0 0 100 0 100 -50 0 -50 0 0
-100z m800 -100 l0 -100 -50 0 -50 0 0 -50 0 -50 -50 0 -50 0 0 50 0 50 50 0
50 0 0 100 0 100 50 0 50 0 0 -100z m700 50 l0 -50 -50 0 -50 0 0 -50 0 -50
50 0 50 0 0 -50 0 -50 50 0 50 0 0 -50 0 -50 50 0 50 0 0 -50 0 -50 50 0 50 0
0 50 0 50 50 0 50 0 0 50 0 50 50 0 50 0 0 -50 0 -50 -50 0 -50 0 0 -50 0 -50
50 0 50 0 0 -50 0 -50 -50 0 -50 0 0 -50 0 -50 -50 0 -50 0 0 -50 0 -50 50 0
50 0 0 -50 0 -50 -50 0 -50 0 0 50 0 50 -50 0 -50 0 0 50 0 50 50 0 50 0 0 50
0 50 -50 0 -50 0 0 50 0 50 -50 0 -50 0 0 -150 0 -150 -50 0 -50 0 0 -50 0
-50 -50 0 -50 0 0 50 0 50 50 0 50 0 0 250 0 250 -50 0 -50 0 0 -50 0 -50 -50
0 -50 0 0 -50 0 -50 50 0 50 0 0 -50 0 -50 -50 0 -50 0 0 50 0 50 -50 0 -50 0
0 -100 0 -100 50 0 50 0 0 -250 0 -250 -50 0 -50 0 0 50 0 50 -50 0 -50 0 0
50 0 50 -50 0 -50 0 0 50 0 50 50 0 50 0 0 50 0 50 50 0 50 0 0 50 0 50 -50 0
-50 0 0 150 0 150 50 0 50 0 0 50 0 50 100 0 100 0 0 50 0 50 -50 0 -50 0 0
50 0 50 50 0 50 0 0 50 0 50 50 0 50 0 0 -50z m200 -100 l0 -50 50 0 50 0 0
-50 0 -50 -50 0 -50 0 0 50 0 50 -50 0 -50 0 0 50 0 50 50 0 50 0 0 -50z m300
0 l0 -50 -50 0 -50 0 0 50 0 50 50 0 50 0 0 -50z m590 0 l0 -50 50 0 50 0 0
-100 0 -100 100 0 100 0 0 50 0 50 49 0 50 0 3 -47 3 -48 48 -3 47 -3 0 -50 0
-49 50 0 50 0 0 -50 0 -50 50 0 50 0 0 100 0 100 -50 0 -50 0 0 50 0 50 50 0
50 0 0 50 0 50 50 0 50 0 0 50 0 50 50 0 50 0 0 -100 0 -100 -100 0 -100 0 0
-50 0 -50 50 0 50 0 0 -100 0 -100 -50 0 -50 0 0 -50 0 -50 -100 0 -100 0 0
100 0 100 -50 0 -51 0 3 -147 3 -148 98 -3 97 -3 0 -49 0 -50 50 0 50 0 0 50
0 50 50 0 50 0 0 -50 0 -50 -50 0 -50 0 0 -50 0 -50 -100 0 -100 0 0 -50 0
-50 -50 0 -50 0 0 50 0 50 -50 0 -50 0 0 -50 0 -50 -50 0 -50 0 0 -100 0 -100
50 0 50 0 0 50 0 50 100 0 100 0 0 -50 0 -50 50 0 50 0 0 -100 0 -100 -100 0
-100 0 0 50 0 50 -50 0 -50 0 0 -100 0 -100 -50 0 -50 0 0 -50 0 -50 -50 0
-50 0 0 50 0 50 50 0 50 0 0 50 0 50 -150 0 -150 0 0 50 0 50 100 0 100 0 0
50 0 50 -50 0 -50 0 0 50 0 50 50 0 50 0 0 50 0 50 50 0 50 0 0 50 0 50 -50 0
-50 0 0 100 0 100 -50 0 -50 0 0 -100 0 -100 -50 0 -50 0 0 -100 0 -100 -50 0
-50 0 0 100 0 100 -50 0 -50 0 0 50 0 50 50 0 50 0 0 50 0 50 50 0 50 0 0 50
0 50 50 0 50 0 0 50 0 50 -50 0 -50 0 0 150 0 150 50 0 50 0 0 50 0 50 -50 0
-50 0 0 50 0 50 50 0 50 0 0 -50z m600 0 l0 -50 -100 0 -100 0 0 50 0 50 100
0 100 0 0 -50z m1200 -100 l0 -50 -50 0 -50 0 0 50 0 50 50 0 50 0 0 -50z
m-2000 -300 l0 -150 -145 0 -145 0 0 150 0 150 145 0 145 0 0 -150z m-1990 0
l0 -50 -50 0 -50 0 0 50 0 50 50 0 50 0 0 -50z m400 0 l0 -50 -50 0 -50 0 0
50 0 50 50 0 50 0 0 -50z m2990 0 l0 -50 -50 0 -50 0 0 50 0 50 50 0 50 0 0
-50z m400 0 l0 -50 -50 0 -50 0 0 50 0 50 50 0 50 0 0 -50z m-4090 -200 l0
-50 -50 0 -50 0 0 -50 0 -50 100 0 100 0 0 50 0 50 50 0 50 0 0 50 0 50 50 0
50 0 0 -50 0 -50 50 0 50 0 0 -50 0 -50 -50 0 -50 0 0 -50 0 -50 50 0 50 0 0
-50 0 -50 -100 0 -100 0 0 -50 0 -50 50 0 50 0 0 -100 0 -100 -50 0 -50 0 0
-50 0 -50 -51 0 -50 0 3 -47 3 -48 48 -3 47 -3 0 -50 0 -49 50 0 50 0 0 -50 0
-50 -50 0 -50 0 0 -50 0 -50 -50 0 -50 0 0 50 0 50 50 0 50 0 0 50 0 50 -100
0 -100 0 0 50 0 50 -50 0 -50 0 0 -50 0 -50 -150 0 -150 0 0 100 0 100 -50 0
-50 0 0 50 0 50 50 0 50 0 0 100 0 100 -50 0 -50 0 0 150 0 150 50 0 50 0 0
-50 0 -50 100 0 100 0 0 -50 0 -50 50 0 50 0 0 100 0 100 -100 0 -100 0 0 50
0 50 100 0 100 0 0 50 0 50 50 0 50 0 0 -50z m4290 0 l0 -50 -50 0 -50 0 0 50
0 50 50 0 50 0 0 -50z m-3590 -100 l0 -50 -50 0 -50 0 0 50 0 50 50 0 50 0 0
-50z m1300 -150 l0 -200 50 0 50 0 0 50 0 50 45 0 45 0 0 -100 0 -100 50 0 50
0 0 -50 0 -50 -50 0 -50 0 0 -50 0 -50 50 0 50 0 0 -50 0 -50 -50 0 -50 0 0
-100 0 -100 50 0 50 0 0 50 0 50 50 0 50 0 0 50 0 50 50 0 50 0 0 -100 0 -100
149 0 150 0 3 -47 3 -48 98 -3 97 -3 0 51 0 50 -50 0 -50 0 0 50 0 50 50 0 50
0 0 -50 0 -50 50 0 50 0 0 -100 0 -100 50 0 50 0 0 -45 0 -45 50 0 50 0 0 -50
0 -50 150 0 150 0 0 95 0 95 100 0 100 0 0 50 0 50 -50 0 -50 0 0 50 0 50
-100 0 -100 0 0 50 0 50 200 0 200 0 0 -50 0 -50 -50 0 -50 0 0 -50 0 -50 149
0 150 0 3 -47 3 -48 48 -3 47 -3 0 -45 0 -44 50 0 50 0 0 45 0 45 50 0 50 0 0
-45 0 -45 100 0 100 0 0 -150 0 -150 -50 0 -50 0 0 -50 0 -50 -50 0 -50 0 0
200 0 200 -50 0 -50 0 0 -50 0 -50 -50 0 -50 0 0 -50 0 -50 -50 0 -50 0 0 -50
0 -50 100 0 100 0 0 -100 0 -100 50 0 50 0 0 -50 0 -50 -100 0 -100 0 0 -50 0
-50 50 0 50 0 0 -50 0 -50 -50 0 -50 0 0 50 0 50 -50 0 -50 0 0 -50 0 -50
-150 0 -150 0 0 -50 0 -50 150 0 150 0 0 -50 0 -50 -150 0 -150 0 0 -100 0
-100 -50 0 -50 0 0 50 0 50 -100 0 -100 0 0 50 0 50 100 0 100 0 0 50 0 50
-100 0 -100 0 0 50 0 50 50 0 50 0 0 50 0 50 -50 0 -50 0 0 50 0 50 -50 0 -50
0 0 50 0 50 50 0 50 0 0 100 0 100 -50 0 -50 0 0 -50 0 -50 -50 0 -50 0 0 100
0 100 -50 0 -50 0 0 -50 0 -50 -50 0 -50 0 0 50 0 50 -50 0 -50 0 0 -100 0
-100 50 0 50 0 0 -50 0 -50 100 0 100 0 0 -200 0 -200 50 0 50 0 0 -50 0 -50
-50 0 -50 0 0 -50 0 -50 50 0 50 0 0 -150 0 -150 50 0 50 0 0 50 0 50 100 0
99 0 3 -97 3 -98 48 -3 47 -3 0 50 0 51 50 0 50 0 0 150 0 150 50 0 50 0 0
-200 0 -200 50 0 50 0 0 -50 0 -50 100 0 100 0 0 50 0 50 -50 0 -50 0 0 50 0
50 -50 0 -50 0 0 50 0 50 50 0 50 0 0 50 0 50 -50 0 -50 0 0 50 0 50 50 0 50
0 0 50 0 50 50 0 50 0 0 -150 0 -150 100 0 100 0 0 50 0 50 150 0 150 0 0 50
0 50 100 0 100 0 0 -100 0 -100 -100 0 -100 0 0 -150 0 -150 -100 0 -100 0 0
-50 0 -50 -100 0 -100 0 0 -50 0 -50 -50 0 -50 0 0 50 0 50 -50 0 -50 0 0 -50
0 -50 -50 0 -50 0 0 -50 0 -50 50 0 50 0 0 -50 0 -50 -50 0 -50 0 0 50 0 50
-100 0 -100 0 0 -50 0 -50 -50 0 -50 0 0 49 0 50 -47 3 -48 3 -3 48 -3 47
-100 0 -99 0 0 50 0 50 -100 0 -100 0 0 50 0 50 50 0 50 0 0 100 0 100 -50 0
-50 0 0 -50 0 -50 -50 0 -50 0 0 -50 0 -50 -100 0 -100 0 0 -100 0 -100 -50 0
-50 0 0 100 0 100 50 0 50 0 0 49 0 50 -47 3 -48 3 -3 48 -3 47 -50 0 -49 0 0
-200 0 -200 -50 0 -50 0 0 100 0 100 -50 0 -50 0 0 150 0 150 -50 0 -50 0 0
50 0 50 -50 0 -50 0 0 -100 0 -100 -50 0 -50 0 0 -50 0 -50 -50 0 -50 0 0 100
0 100 -95 0 -95 0 0 -50 0 -50 50 0 50 0 0 -50 0 -50 -50 0 -50 0 0 -50 0 -50
-100 0 -100 0 0 50 0 50 100 0 100 0 0 50 0 50 -100 0 -100 0 0 100 0 100
-100 0 -100 0 0 -100 0 -100 50 0 50 0 0 -100 0 -100 -100 0 -100 0 0 50 0 50
-100 0 -100 0 0 50 0 50 100 0 100 0 0 50 0 50 -50 0 -50 0 0 50 0 50 -50 0
-50 0 0 -50 0 -50 -50 0 -50 0 0 50 0 50 50 0 50 0 0 50 0 50 50 0 50 0 0 -50
0 -50 100 0 100 0 0 100 0 100 -50 0 -50 0 0 100 0 100 -50 0 -50 0 0 100 0
100 50 0 50 0 0 50 0 50 -50 0 -50 0 0 50 0 50 -50 0 -50 0 0 -50 0 -50 -50 0
-50 0 0 100 0 100 50 0 50 0 0 50 0 50 100 0 100 0 0 -150 0 -150 50 0 50 0 0
-50 0 -50 50 0 50 0 0 -50 0 -50 100 0 100 0 0 -150 0 -150 -50 0 -50 0 0 -50
0 -50 150 0 150 0 0 -50 0 -50 45 0 45 0 0 50 0 50 150 0 150 0 0 50 0 50 -50
0 -50 0 0 150 0 150 50 0 50 0 0 -100 0 -100 50 0 50 0 0 -50 0 -50 50 0 50 0
0 50 0 50 100 0 100 0 0 50 0 50 -50 0 -50 0 0 50 0 50 50 0 50 0 0 50 0 50
-100 0 -100 0 0 -100 0 -100 -50 0 -50 0 0 100 0 100 -150 0 -150 0 0 100 0
100 100 0 100 0 0 -50 0 -50 50 0 50 0 0 100 0 100 50 0 50 0 0 -50 0 -50 100
0 100 0 0 50 0 50 -50 0 -50 0 0 100 0 100 -50 0 -50 0 0 -50 0 -50 -100 0
-100 0 0 100 0 100 -50 0 -50 0 0 -50 0 -50 -50 0 -50 0 0 -50 0 -50 50 0 50
0 0 -50 0 -50 -100 0 -100 0 0 -50 0 -50 -95 0 -95 0 0 -50 0 -50 95 0 95 0 0
-50 0 -50 -145 0 -145 0 0 50 0 50 -100 0 -100 0 0 50 0 50 -50 0 -50 0 0 50
0 50 50 0 50 0 0 50 0 50 -50 0 -50 0 0 50 0 50 -100 0 -100 0 0 95 0 95 50 0
50 0 0 50 0 50 -100 0 -100 0 0 50 0 50 -100 0 -100 0 0 -50 0 -50 -50 0 -50
0 0 50 0 50 50 0 50 0 0 50 0 50 -50 0 -50 0 0 50 0 50 50 0 50 0 0 100 0 100
100 0 100 0 0 150 0 150 150 0 150 0 0 50 0 50 -50 0 -50 0 0 50 0 50 50 0 50
0 0 -50 0 -50 150 0 150 0 0 100 0 100 50 0 50 0 0 -200z m2590 150 l0 -50 50
0 50 0 0 -50 0 -50 -50 0 -50 0 0 -50 0 -50 50 0 50 0 0 -50 0 -50 50 0 50 0
0 -150 0 -150 -100 0 -100 0 0 50 0 50 -50 0 -50 0 0 50 0 50 -50 0 -50 0 0
-150 0 -151 -147 3 -148 3 -3 48 -3 47 -50 0 -49 0 0 50 0 50 -50 0 -50 0 0
50 0 50 100 0 100 0 0 50 0 50 150 0 150 0 0 50 0 50 50 0 50 0 0 50 0 50 -50
0 -50 0 0 50 0 50 50 0 50 0 0 50 0 50 50 0 50 0 0 -50z m-300 -100 l0 -50
-50 0 -50 0 0 50 0 50 50 0 50 0 0 -50z m-4890 -100 l0 -50 -50 0 -50 0 0 50
0 50 50 0 50 0 0 -50z m1300 0 l0 -50 -50 0 -50 0 0 50 0 50 50 0 50 0 0 -50z
m-1300 -500 l0 -50 -50 0 -50 0 0 50 0 50 50 0 50 0 0 -50z m100 -200 l0 -50
150 0 150 0 0 -50 0 -50 50 0 50 0 0 -50 0 -50 50 0 50 0 0 -45 0 -45 50 0 50
0 0 45 0 45 50 0 50 0 0 -95 0 -95 -50 0 -50 0 0 -50 0 -50 -100 0 -100 0 0
-50 0 -50 50 0 50 0 0 -50 0 -50 -50 0 -50 0 0 -50 0 -50 50 0 50 0 0 -50 0
-50 -150 0 -150 0 0 50 0 50 -50 0 -50 0 0 -50 0 -50 -50 0 -50 0 0 -100 0
-100 -50 0 -50 0 0 50 0 50 -100 0 -100 0 0 50 0 50 100 0 100 0 0 150 0 150
50 0 50 0 0 50 0 50 100 0 100 0 0 50 0 50 -50 0 -50 0 0 50 0 50 -50 0 -50 0
0 145 0 145 -150 0 -150 0 0 50 0 50 150 0 150 0 0 -50z m4790 0 l0 -50 50 0
50 0 0 -50 0 -50 -50 0 -50 0 0 50 0 50 -150 0 -150 0 0 50 0 50 150 0 150 0
0 -50z m-2990 -295 l0 -45 -50 0 -50 0 0 45 0 45 50 0 50 0 0 -45z m2190 0 l0
-45 -50 0 -50 0 0 45 0 45 50 0 50 0 0 -45z m-3290 -445 l0 -100 -50 0 -50 0
0 100 0 100 50 0 50 0 0 -100z m-300 -450 l0 -150 -150 0 -150 0 0 150 0 150
150 0 150 0 0 -150z m2390 0 l0 -150 -145 0 -145 0 0 150 0 150 145 0 145 0 0
-150z m2400 0 l0 -150 -150 0 -150 0 0 150 0 150 150 0 150 0 0 -150z m-5190
-500 l0 -50 -50 0 -50 0 0 50 0 50 50 0 50 0 0 -50z m400 -200 l0 -50 -100 0
-100 0 0 50 0 50 100 0 100 0 0 -50z m2590 0 l0 -50 -50 0 -50 0 0 50 0 50 50
0 50 0 0 -50z m-300 -100 l0 -50 -45 0 -45 0 0 50 0 50 45 0 45 0 0 -50z
m-2390 -100 l0 -50 50 0 50 0 0 50 0 50 50 0 50 0 0 -150 0 -150 -50 0 -50 0
0 50 0 50 -50 0 -50 0 0 -50 0 -50 -50 0 -50 0 0 50 0 50 50 0 50 0 0 50 0 50
-150 0 -150 0 0 -50 0 -50 50 0 50 0 0 -100 0 -100 100 0 100 0 0 -50 0 -50
-50 0 -50 0 0 -50 0 -50 100 0 100 0 0 50 0 50 50 0 50 0 0 50 0 50 50 0 50 0
0 100 0 100 50 0 50 0 0 100 0 100 150 0 150 0 0 -100 0 -100 -50 0 -50 0 0
-50 0 -50 -50 0 -50 0 0 -100 0 -100 -100 0 -100 0 0 -50 0 -50 -50 0 -50 0 0
-50 0 -50 -50 0 -50 0 0 -50 0 -50 100 0 100 0 0 50 0 50 100 0 100 0 0 50 0
50 50 0 50 0 0 -150 0 -150 100 0 100 0 0 50 0 50 50 0 50 0 0 50 0 50 -100 0
-100 0 0 50 0 50 100 0 100 0 0 -50 0 -50 50 0 50 0 0 -50 0 -50 50 0 50 0 0
-50 0 -50 -50 0 -50 0 0 50 0 50 -50 0 -50 0 0 -100 0 -100 50 0 50 0 0 -100
0 -100 100 0 100 0 0 -50 0 -50 50 0 50 0 0 100 0 100 50 0 50 0 0 -50 0 -50
50 0 50 0 0 50 0 50 100 0 100 0 0 -100 0 -100 -50 0 -50 0 0 50 0 50 -50 0
-50 0 0 -100 0 -100 -50 0 -50 0 0 -50 0 -50 50 0 50 0 0 -50 0 -50 -50 0 -50
0 0 50 0 50 -50 0 -50 0 0 -50 0 -50 -50 0 -50 0 0 50 0 50 -50 0 -50 0 0 -50
0 -50 -50 0 -50 0 0 -50 0 -50 100 0 100 0 0 -50 0 -50 -50 0 -50 0 0 -50 0
-50 50 0 50 0 0 -50 0 -50 -50 0 -50 0 0 50 0 50 -100 0 -100 0 0 50 0 50 -50
0 -50 0 0 -50 0 -50 -100 0 -100 0 0 -50 0 -50 -50 0 -50 0 0 50 0 50 -50 0
-50 0 0 150 0 150 50 0 50 0 0 -150 0 -150 50 0 50 0 0 50 0 50 100 0 100 0 0
50 0 50 50 0 50 0 0 50 0 50 -100 0 -100 0 0 50 0 50 100 0 100 0 0 -50 0 -50
50 0 50 0 0 100 0 100 50 0 50 0 0 50 0 50 -50 0 -50 0 0 50 0 50 -50 0 -50 0
0 100 0 100 -100 0 -100 0 0 -50 0 -50 50 0 50 0 0 -50 0 -50 -50 0 -50 0 0
-50 0 -50 100 0 100 0 0 -50 0 -50 -100 0 -100 0 0 50 0 50 -50 0 -50 0 0
-100 0 -100 -50 0 -50 0 0 100 0 100 -50 0 -50 0 0 50 0 50 50 0 50 0 0 -50 0
-50 50 0 50 0 0 50 0 50 50 0 50 0 0 50 0 50 -150 0 -150 0 0 50 0 50 50 0 50
0 0 50 0 50 -100 0 -100 0 0 -150 0 -150 -50 0 -50 0 0 50 0 50 -50 0 -50 0 0
150 0 150 -50 0 -50 0 0 -50 0 -50 -100 0 -100 0 0 -50 0 -50 100 0 100 0 0
-50 0 -50 -150 0 -150 0 0 100 0 100 -50 0 -50 0 0 -100 0 -100 -50 0 -50 0 0
150 0 150 -50 0 -50 0 0 50 0 50 100 0 100 0 0 -50 0 -50 100 0 100 0 0 150 0
150 -50 0 -50 0 0 150 0 150 -50 0 -50 0 0 50 0 50 50 0 50 0 0 50 0 50 150 0
150 0 0 -50z m3590 -100 l0 -50 100 0 100 0 0 -100 0 -100 -50 0 -50 0 0 50 0
50 -100 0 -100 0 0 100 0 100 50 0 50 0 0 -50z m1300 0 l0 -51 -97 3 -98 3 -3
48 -3 47 100 0 101 0 0 -50z m-300 -250 l0 -200 -50 0 -50 0 0 -100 0 -100 50
0 50 0 0 -50 0 -50 50 0 50 0 0 -50 0 -50 -150 0 -150 0 0 50 0 50 -150 0
-150 0 0 -100 0 -100 50 0 50 0 0 50 0 50 50 0 50 0 0 -50 0 -50 150 0 150 0
0 -100 0 -100 -50 0 -50 0 0 50 0 50 -50 0 -50 0 0 -150 0 -150 50 0 50 0 0
-150 0 -150 -50 0 -50 0 0 150 0 150 -50 0 -50 0 0 100 0 100 -50 0 -50 0 0
-50 0 -50 -50 0 -50 0 0 50 0 50 50 0 50 0 0 50 0 50 -100 0 -100 0 0 50 0 50
-50 0 -50 0 0 50 0 50 50 0 50 0 0 100 0 100 -50 0 -50 0 0 50 0 50 -50 0 -50
0 0 50 0 50 -50 0 -50 0 0 50 0 50 100 0 100 0 0 50 0 50 50 0 50 0 0 -50 0
-50 50 0 50 0 0 50 0 50 50 0 50 0 0 -50 0 -50 100 0 100 0 0 50 0 50 50 0 50
0 0 100 0 100 50 0 50 0 0 -200z m500 149 l0 -50 -47 3 -48 3 -3 48 -3 47 50
0 51 0 0 -51z m-200 -99 l0 -50 -50 0 -50 0 0 50 0 50 50 0 50 0 0 -50z
m-4190 -100 l0 -50 -50 0 -50 0 0 50 0 50 50 0 50 0 0 -50z m1200 0 l0 -50
-100 0 -100 0 0 -100 0 -100 -50 0 -50 0 0 -50 0 -50 -50 0 -50 0 0 50 0 50
50 0 50 0 0 100 0 100 50 0 50 0 0 50 0 50 100 0 100 0 0 -50z m-500 -250 l0
-100 -50 0 -50 0 0 -50 0 -50 100 0 100 0 0 -50 0 -50 -100 0 -100 0 0 50 0
50 -50 0 -50 0 0 50 0 50 50 0 50 0 0 100 0 100 50 0 50 0 0 -100z m700 -100
l0 -100 -50 0 -50 0 0 100 0 100 50 0 50 0 0 -100z m200 0 l0 -100 45 0 45 0
0 -50 0 -50 50 0 50 0 0 -50 0 -50 50 0 50 0 0 50 0 50 50 0 50 0 0 -50 0 -50
-50 0 -50 0 0 -50 0 -50 -50 0 -50 0 0 50 0 50 -50 0 -50 0 0 -100 0 -100 -45
0 -45 0 0 200 0 200 -50 0 -50 0 0 100 0 100 50 0 50 0 0 -100z m290 -50 l0
-50 -50 0 -50 0 0 50 0 50 50 0 50 0 0 -50z m700 -100 l0 -50 -50 0 -50 0 0
50 0 50 50 0 50 0 0 -50z m-1190 -100 l0 -50 -50 0 -50 0 0 50 0 50 50 0 50 0
0 -50z m990 0 l0 -50 -50 0 -50 0 0 -50 0 -50 -50 0 -50 0 0 50 0 50 50 0 50
0 0 50 0 50 50 0 50 0 0 -50z m-3390 -200 l0 -50 -50 0 -50 0 0 50 0 50 50 0
50 0 0 -50z m3090 0 l0 -50 -50 0 -50 0 0 50 0 50 50 0 50 0 0 -50z m2000 0
l0 -50 -50 0 -50 0 0 50 0 50 50 0 50 0 0 -50z m-2690 -100 l0 -50 -50 0 -50
0 0 50 0 50 50 0 50 0 0 -50z m3090 0 l0 -50 -50 0 -50 0 0 -100 0 -100 50 0
50 0 0 50 0 50 50 0 50 0 0 -50 0 -50 -50 0 -50 0 0 -50 0 -50 -50 0 -50 0 0
50 0 50 -50 0 -50 0 0 100 0 100 50 0 50 0 0 50 0 50 50 0 50 0 0 -50z m-4790
-100 l0 -50 -50 0 -50 0 0 50 0 50 50 0 50 0 0 -50z m2090 -100 l0 -150 -145
0 -145 0 0 150 0 150 145 0 145 0 0 -150z m200 100 l0 -50 100 0 100 0 0 -50
0 -50 -50 0 -50 0 0 -50 0 -50 50 0 50 0 0 -50 0 -50 -50 0 -50 0 0 -50 0 -50
-100 0 -100 0 0 100 0 100 50 0 50 0 0 100 0 100 -50 0 -50 0 0 50 0 50 50 0
50 0 0 -50z m2200 -100 l0 -150 -150 0 -150 0 0 150 0 150 150 0 150 0 0 -150z
m-4590 -100 l0 -50 -50 0 -50 0 0 50 0 50 50 0 50 0 0 -50z m2990 -100 l0 -50
100 0 100 0 0 -50 0 -50 50 0 50 0 0 -50 0 -50 50 0 50 0 0 -50 0 -50 -100 0
-100 0 0 100 0 100 -50 0 -50 0 0 -50 0 -50 -50 0 -50 0 0 -50 0 -50 -100 0
-100 0 0 150 0 150 50 0 50 0 0 50 0 50 50 0 50 0 0 -50z m-2990 -100 l0 -50
-50 0 -50 0 0 50 0 50 50 0 50 0 0 -50z m1200 0 l0 -50 -50 0 -50 0 0 -50 0
-50 -50 0 -50 0 0 50 0 50 50 0 50 0 0 50 0 50 50 0 50 0 0 -50z m300 -200 l0
-50 -50 0 -50 0 0 50 0 50 50 0 50 0 0 -50z m3290 0 l0 -50 -50 0 -50 0 0 50
0 50 50 0 50 0 0 -50z"/>
<path d="M2720 5570 l0 -50 50 0 50 0 0 50 0 50 -50 0 -50 0 0 -50z"/>
<path d="M3510 5620 l0 -100 50 0 50 0 0 -100 0 -100 50 0 50 0 0 100 0 100
50 0 50 0 0 50 0 50 -50 0 -50 0 0 -50 0 -50 -50 0 -50 0 0 100 0 100 -50 0
-50 0 0 -100z"/>
<path d="M3910 5170 l0 -50 50 0 50 0 0 50 0 50 -50 0 -50 0 0 -50z"/>
<path d="M3120 5570 l0 -50 45 0 45 0 0 50 0 50 -45 0 -45 0 0 -50z"/>
<path d="M1120 5170 l0 -50 -50 0 -50 0 0 -100 0 -100 -50 0 -50 0 0 -50 0
-50 -100 0 -100 0 0 -50 0 -50 -50 0 -50 0 0 -50 0 -50 50 0 50 0 0 -50 0 -50
100 0 100 0 0 50 0 50 100 0 100 0 0 50 0 50 50 0 50 0 0 50 0 50 -50 0 -50 0
0 -50 0 -50 -100 0 -100 0 0 50 0 50 50 0 50 0 0 50 0 50 50 0 50 0 0 100 0
100 50 0 50 0 0 50 0 50 -50 0 -50 0 0 -50z m-300 -500 l0 -50 -50 0 -50 0 0
50 0 50 50 0 50 0 0 -50z"/>
<path d="M720 4970 l0 -50 50 0 50 0 0 50 0 50 -50 0 -50 0 0 -50z"/>
<path d="M2820 4970 l0 -50 -150 0 -150 0 0 -50 0 -50 -50 0 -50 0 0 -50 0
-50 -50 0 -50 0 0 -50 0 -50 -50 0 -50 0 0 -50 0 -50 -50 0 -50 0 0 -50 0 -50
50 0 50 0 0 50 0 50 50 0 50 0 0 -50 0 -50 150 0 150 0 0 -50 0 -50 -50 0 -50
0 0 -50 0 -50 50 0 50 0 0 50 0 50 100 0 100 0 0 -50 0 -50 -51 0 -50 0 3 -47
3 -48 48 -3 47 -3 0 -45 0 -44 -50 0 -50 0 0 -100 0 -100 50 0 50 0 0 -100 0
-100 100 0 100 0 0 50 0 50 95 0 95 0 0 50 0 50 -145 0 -145 0 0 50 0 50 -50
0 -50 0 0 50 0 50 50 0 50 0 0 145 0 145 50 0 50 0 0 -50 0 -50 95 0 95 0 0
-50 0 -50 -45 0 -45 0 0 -45 0 -45 95 0 95 0 0 95 0 95 -50 0 -50 0 0 50 0 50
-95 0 -95 0 0 50 0 50 50 0 50 0 0 50 0 50 -50 0 -50 0 0 50 0 50 50 0 50 0 0
50 0 50 -50 0 -50 0 0 50 0 50 -50 0 -50 0 0 100 0 100 -50 0 -50 0 0 -50z
m100 -200 l0 -50 50 0 50 0 0 -50 0 -50 -50 0 -50 0 0 -50 0 -50 -50 0 -50 0
0 100 0 100 -50 0 -50 0 0 -100 0 -100 -200 0 -200 0 0 50 0 50 50 0 50 0 0
50 0 50 50 0 50 0 0 50 0 50 200 0 200 0 0 -50z m0 -400 l0 -50 -50 0 -50 0 0
50 0 50 50 0 50 0 0 -50z"/>
<path d="M2520 4670 l0 -50 50 0 50 0 0 50 0 50 -50 0 -50 0 0 -50z"/>
<path d="M3412 4273 l3 -48 48 -3 47 -3 0 -95 0 -94 150 0 150 0 0 45 0 45
-100 0 -100 0 0 50 0 50 -50 0 -50 0 0 50 0 50 -51 0 -50 0 3 -47z"/>
<path d="M3910 4025 l0 -95 100 0 100 0 0 -50 0 -50 50 0 50 0 0 50 0 50 -50
0 -50 0 0 95 0 95 -100 0 -100 0 0 -95z"/>
<path d="M4910 4075 l0 -45 50 0 50 0 0 -50 0 -50 50 0 50 0 0 50 0 50 -50 0
-50 0 0 45 0 45 -50 0 -50 0 0 -45z"/>
<path d="M4610 3780 l0 -150 50 0 50 0 0 -50 0 -50 50 0 50 0 0 -50 0 -50
-100 0 -100 0 0 50 0 50 -50 0 -50 0 0 -50 0 -50 50 0 50 0 0 -50 0 -50 100 0
100 0 0 50 0 50 50 0 50 0 0 -50 0 -50 100 0 100 0 0 50 0 50 -50 0 -50 0 0
50 0 50 -100 0 -100 0 0 50 0 50 -50 0 -50 0 0 50 0 50 100 0 100 0 0 -50 0
-50 100 0 100 0 0 -50 0 -50 50 0 50 0 0 50 0 50 -50 0 -50 0 0 50 0 50 -50 0
-50 0 0 50 0 50 -50 0 -50 0 0 50 0 50 -150 0 -150 0 0 -150z"/>
<path d="M3910 3580 l0 -50 50 0 50 0 0 50 0 50 -50 0 -50 0 0 -50z"/>
<path d="M3610 3480 l0 -50 50 0 50 0 0 50 0 50 -50 0 -50 0 0 -50z"/>
<path d="M2520 3380 l0 -50 50 0 50 0 0 -100 0 -100 50 0 50 0 0 -50 0 -50 50
0 50 0 0 50 0 50 -50 0 -50 0 0 100 0 100 -50 0 -50 0 0 50 0 50 -50 0 -50 0
0 -50z"/>
<path d="M4010 3280 l0 -150 -50 0 -50 0 0 -150 0 -150 -50 0 -50 0 0 -50 0
-50 100 0 100 0 0 200 0 200 50 0 50 0 0 150 0 150 -50 0 -50 0 0 -150z"/>
<path d="M4110 2930 l0 -100 100 0 100 0 0 50 0 50 -50 0 -50 0 0 50 0 50 -50
0 -50 0 0 -100z"/>
<path d="M3510 2880 l0 -50 50 0 50 0 0 -50 0 -50 50 0 50 0 0 100 0 100 -100
0 -100 0 0 -50z"/>
<path d="M3210 2780 l0 -50 50 0 50 0 0 50 0 50 -50 0 -50 0 0 -50z"/>
<path d="M4210 2680 l0 -50 50 0 50 0 0 50 0 50 -50 0 -50 0 0 -50z"/>
<path d="M2520 2580 l0 -50 50 0 50 0 0 50 0 50 -50 0 -50 0 0 -50z"/>
<path d="M4010 2580 l0 -50 50 0 50 0 0 50 0 50 -50 0 -50 0 0 -50z"/>
<path d="M4510 2580 l0 -50 50 0 50 0 0 50 0 50 -50 0 -50 0 0 -50z"/>
<path d="M5310 2580 l0 -50 100 0 100 0 0 -50 0 -50 50 0 50 0 0 50 0 50 50 0
50 0 0 50 0 50 -200 0 -200 0 0 -50z"/>
<path d="M4810 2480 l0 -50 -50 0 -50 0 0 -50 0 -50 50 0 50 0 0 -50 0 -50
150 0 150 0 0 50 0 50 -100 0 -100 0 0 50 0 50 50 0 50 0 0 50 0 50 -100 0
-100 0 0 -50z"/>
<path d="M5510 4870 l0 -50 50 0 50 0 0 -50 0 -50 50 0 50 0 0 100 0 100 -100
0 -100 0 0 -50z"/>
<path d="M5210 4720 l0 -100 50 0 50 0 0 100 0 100 -50 0 -50 0 0 -100z"/>
<path d="M720 4170 l0 -50 -50 0 -50 0 0 -45 0 -45 50 0 50 0 0 -50 0 -50 50
0 50 0 0 -50 0 -50 -50 0 -50 0 0 -50 0 -50 -100 0 -100 0 0 -100 0 -100 50 0
50 0 0 50 0 50 50 0 50 0 0 -50 0 -50 50 0 50 0 0 50 0 50 50 0 50 0 0 50 0
50 -50 0 -50 0 0 50 0 50 50 0 50 0 0 145 0 145 -50 0 -50 0 0 50 0 50 -50 0
-50 0 0 -50z m100 -95 l0 -45 -50 0 -50 0 0 45 0 45 50 0 50 0 0 -45z m0 -395
l0 -50 -50 0 -50 0 0 50 0 50 50 0 50 0 0 -50z"/>
<path d="M720 3180 l0 -50 50 0 50 0 0 50 0 50 -50 0 -50 0 0 -50z"/>
<path d="M3120 3180 l0 -50 45 0 45 0 0 50 0 50 -45 0 -45 0 0 -50z"/>
<path d="M5510 3180 l0 -50 50 0 50 0 0 50 0 50 -50 0 -50 0 0 -50z"/>
<path d="M1220 2080 l0 -50 50 0 50 0 0 50 0 50 -50 0 -50 0 0 -50z"/>
<path d="M720 1580 l0 -50 50 0 50 0 0 50 0 50 -50 0 -50 0 0 -50z"/>
<path d="M2120 980 l0 -50 -50 0 -50 0 0 -50 0 -50 50 0 50 0 0 50 0 50 50 0
50 0 0 50 0 50 -50 0 -50 0 0 -50z"/>
<path d="M4710 1730 l0 -100 50 0 50 0 0 -50 0 -50 50 0 50 0 0 100 0 100 -50
0 -50 0 0 50 0 50 -50 0 -50 0 0 -100z"/>
<path d="M5010 1180 l0 -50 50 0 50 0 0 50 0 50 -50 0 -50 0 0 -50z"/>
<path d="M3120 780 l0 -50 45 0 45 0 0 50 0 50 -45 0 -45 0 0 -50z"/>
<path d="M5510 780 l0 -50 50 0 50 0 0 50 0 50 -50 0 -50 0 0 -50z"/>
<path d="M4010 430 l0 -100 50 0 50 0 0 100 0 100 -50 0 -50 0 0 -100z"/>
<path d="M5510 5870 l0 -350 350 0 350 0 0 350 0 350 -350 0 -350 0 0 -350z
m600 0 l0 -250 -250 0 -250 0 0 250 0 250 250 0 250 0 0 -250z"/>
<path d="M5710 5870 l0 -150 150 0 150 0 0 150 0 150 -150 0 -150 0 0 -150z"/>
<path d="M120 5320 l0 -100 50 0 50 0 0 100 0 100 -50 0 -50 0 0 -100z"/>
<path d="M4810 5370 l0 -50 50 0 50 0 0 50 0 50 -50 0 -50 0 0 -50z"/>
<path d="M6010 5370 l0 -50 100 0 100 0 0 50 0 50 -100 0 -100 0 0 -50z"/>
<path d="M6110 5020 l0 -100 -50 0 -50 0 0 -150 0 -150 50 0 50 0 0 150 0 150
50 0 50 0 0 100 0 100 -50 0 -50 0 0 -100z"/>
<path d="M1720 4570 l0 -50 -50 0 -50 0 0 -100 0 -100 50 0 50 0 0 50 0 50 50
0 50 0 0 100 0 100 -50 0 -50 0 0 -50z"/>
<path d="M6012 3783 l3 -48 47 -3 47 -3 3 -97 3 -97 48 -3 47 -3 0 150 0 151
-101 0 -100 0 3 -47z"/>
<path d="M6112 3133 l3 -98 48 -3 47 -3 0 100 0 101 -50 0 -51 0 3 -97z"/>
<path d="M720 2780 l0 -50 50 0 50 0 0 50 0 50 -50 0 -50 0 0 -50z"/>
<path d="M2020 2330 l0 -100 50 0 50 0 0 100 0 100 -50 0 -50 0 0 -100z"/>
<path d="M6010 1680 l0 -50 -50 0 -50 0 0 -100 0 -100 50 0 50 0 0 -100 0
-100 50 0 50 0 0 50 0 50 50 0 50 0 0 50 0 50 -100 0 -100 0 0 100 0 100 100
0 100 0 0 50 0 50 -100 0 -100 0 0 -50z"/>
<path d="M720 980 l0 -50 50 0 50 0 0 50 0 50 -50 0 -50 0 0 -50z"/>
<path d="M120 480 l0 -350 350 0 350 0 0 350 0 350 -350 0 -350 0 0 -350z
m600 0 l0 -250 -250 0 -250 0 0 250 0 250 250 0 250 0 0 -250z"/>
<path d="M320 480 l0 -150 150 0 150 0 0 150 0 150 -150 0 -150 0 0 -150z"/>
<path d="M3020 280 l0 -50 50 0 50 0 0 50 0 50 -50 0 -50 0 0 -50z"/>
<path d="M920 180 l0 -50 50 0 50 0 0 50 0 50 -50 0 -50 0 0 -50z"/>
<path d="M1720 180 l0 -50 50 0 50 0 0 50 0 50 -50 0 -50 0 0 -50z"/>
</g>
</svg>
