<svg xmlns="http://www.w3.org/2000/svg" width="73.566" height="54.25" viewBox="0 0 73.566 54.25">
  <g id="Group_158" data-name="Group 158" transform="translate(114.543 313.445)">
    <rect id="Rectangle_88" data-name="Rectangle 88" width="70.564" height="51.247" rx="5.979" transform="translate(-113.043 -311.944)" fill="none" stroke="#fff" stroke-miterlimit="10" stroke-width="3"/>
    <path id="Path_611" data-name="Path 611" d="M-113.04-308.212v13.352h26.8v-17.085h-23.072" transform="translate(-0.001 0)" fill="none" stroke="#fff" stroke-miterlimit="10" stroke-width="3"/>
    <rect id="Rectangle_89" data-name="Rectangle 89" width="26.806" height="17.082" transform="translate(-113.043 -294.862)" fill="none" stroke="#fff" stroke-miterlimit="10" stroke-width="3"/>
    <path id="Path_612" data-name="Path 612" d="M-109.307-240.129h23.072v-17.085h-26.8v13.352" transform="translate(-0.001 -20.566)" fill="none" stroke="#fff" stroke-miterlimit="10" stroke-width="3"/>
    <path id="Rectangle_90" data-name="Rectangle 90" d="M6.917,0H26.806a0,0,0,0,1,0,0V17.082a0,0,0,0,1,0,0H0a0,0,0,0,1,0,0V6.917A6.917,6.917,0,0,1,6.917,0Z" transform="translate(-69.285 -294.862)" fill="none" stroke="#fff" stroke-miterlimit="10" stroke-width="3"/>
    <path id="Path_613" data-name="Path 613" d="M-16.135-243.862v-13.352h-26.8v17.085h23.072" transform="translate(-26.342 -20.566)" fill="none" stroke="#fff" stroke-miterlimit="10" stroke-width="3"/>
  </g>
</svg>
