<svg version="1.1" xmlns="http://www.w3.org/2000/svg" viewBox="-724.0516434011556 -1448.6586255626478 1822.6825711740112 1565.4515019404857"><desc>Created with Snap</desc><defs></defs><g><g transform="matrix(3.0765,0,0,3.0765,-439.1586,-1249.0534)">
<g id="gSku308zem116">
	<path d="M196.02133,47.02528C162.0565,63.37874,34.04472,181.23653,17.95026,220.8622
		C-23.53873,323.01114,64.3831,338.37173,131.90678,342.95166c83.79094,5.68329,233.84074-6.40137,262.61847-108.008
		C427.85785,117.2548,302.42114-4.2047,196.02133,47.02528z" fill="#e94b3c" style=""></path>
</g>


<desc>Created with Snap</desc><defs></defs></g><g><g transform="matrix(1.024,0,0,-1.024,0,0)"><path d="M150 556Q93 585 66 605Q40 625 40 645Q40 660 53 674Q66 688 82 688Q103 688 133 668Q164 649 193 624Q192 632 191 643Q191 654 191 667Q191 684 193 702Q195 720 201 735Q207 750 217 760Q228 770 245 770Q263 770 276 755Q289 741 289 709Q289 689 282 665Q276 641 268 608Q296 620 314 627Q333 634 344 637Q356 641 363 642Q370 643 377 643Q401 643 415 629Q429 615 429 598Q429 574 398 559Q368 545 291 535Q307 508 317 489Q328 471 333 458Q339 445 341 436Q343 428 343 421Q343 403 328 390Q313 377 299 377Q250 377 215 508Q202 490 187 473Q173 457 158 443Q144 430 130 422Q117 414 107 414Q89 414 77 427Q65 440 65 455Q65 468 73 481Q81 495 94 507Q107 520 121 532Q136 544 150 556Z" fill="#2d2926" style=""></path></g></g></g></svg>