<svg fill="#000000" xmlns="http://www.w3.org/2000/svg"  viewBox="0 0 64 64" width="64px" height="64px"><path d="M 15 4 C 8.925 4 4 8.925 4 15 L 4 49 C 4 55.075 8.925 60 15 60 L 49 60 C 55.075 60 60 55.075 60 49 L 60 15 C 60 8.925 55.075 4 49 4 L 15 4 z M 15 6 L 49 6 C 53.963 6 58 10.037 58 15 L 58 49 C 58 53.963 53.963 58 49 58 L 15 58 C 10.037 58 6 53.963 6 49 L 6 15 C 6 10.037 10.037 6 15 6 z M 27.582031 10 C 23.693031 10 23.712891 17.521484 23.712891 17.521484 C 23.712891 17.521484 22.613375 15.388672 21.234375 15.388672 C 19.218375 15.388672 18.556641 18.439094 18.556641 21.746094 C 14.574641 21.746094 11.223828 22.636656 10.923828 22.722656 C 10.623828 22.808656 9.6823281 23.49225 10.111328 23.40625 C 10.982328 23.12725 15.07425 22.495641 18.65625 22.806641 C 18.85325 25.950641 20.6875 30.044922 20.6875 30.044922 C 20.6875 30.044922 16.753906 35.744406 16.753906 39.816406 C 16.753906 40.888406 17.154469 42.998047 19.980469 42.998047 C 22.346469 42.998047 25.069312 41.425719 25.570312 41.136719 C 25.133312 41.760719 24.810547 42.946234 24.810547 43.490234 C 24.810547 43.747234 24.908125 44.269875 25.328125 44.671875 L 27.462891 42.537109 C 26.588891 42.377109 26.470703 41.730453 26.470703 41.564453 C 26.470703 40.976453 26.931641 40.28125 26.931641 40.28125 C 26.931641 40.28125 29.057406 38.844406 29.191406 38.691406 L 30.761719 41.621094 C 30.761719 41.621094 29.154625 42.574219 27.890625 42.574219 C 27.731625 42.574219 27.590844 42.562062 27.464844 42.539062 L 25.330078 44.673828 C 25.641078 44.971828 26.124391 45.203125 26.900391 45.203125 C 29.244391 45.203125 31.861328 43.40625 31.861328 43.40625 C 31.861328 43.40625 34.334266 47.515438 36.447266 49.398438 C 37.017266 49.906438 37.560547 49.998047 37.560547 49.998047 C 37.560547 49.998047 35.461312 47.977531 32.695312 42.769531 C 35.265313 41.180531 37.943359 37.433594 37.943359 37.433594 C 37.943359 37.433594 38.258219 37.443359 40.699219 37.443359 C 44.524219 37.443359 49.957031 36.637656 49.957031 33.597656 C 49.956031 30.461656 45.072266 27.626953 45.072266 27.626953 C 45.072266 27.626953 48.359375 27.794375 48.359375 25.859375 C 48.359375 23.332375 43.982422 21.052734 43.982422 21.052734 C 43.982422 21.052734 44.667703 19.596203 45.095703 18.783203 C 45.523703 17.970203 46.727938 14.797266 46.835938 14.072266 C 46.971938 13.161266 46.765625 12.873047 46.765625 12.873047 C 46.467625 14.826047 43.289109 20.449578 43.037109 20.642578 C 39.935109 19.188578 35.673828 18.783203 35.673828 18.783203 C 35.673828 18.783203 31.504031 10 27.582031 10 z M 29.494141 14.421875 C 31.291141 14.421875 33.859375 18.666016 33.859375 18.666016 C 33.859375 18.666016 31.963031 18.496484 29.707031 19.021484 C 28.684031 19.259484 27.586594 19.640141 26.558594 20.244141 C 26.648594 17.188141 27.676141 14.421875 29.494141 14.421875 z M 22.371094 17.863281 C 22.942094 17.863281 23.502422 18.559437 23.732422 19.148438 C 23.732422 19.537437 23.935547 21.810547 23.935547 21.810547 L 20.634766 21.685547 C 20.634766 18.707547 21.801094 17.863281 22.371094 17.863281 z M 31.832031 19.892578 C 37.441031 19.892578 41.951172 22.308594 41.951172 22.308594 L 40.185547 24.771484 C 40.185547 24.771484 38.613531 21.924969 36.394531 21.417969 C 37.565531 22.290969 38.875641 23.444469 39.556641 25.105469 C 34.908641 23.287469 29.3 22.327188 27.5 22.117188 C 27.343 22.781188 27.363281 23.728516 27.363281 23.728516 C 27.363281 23.728516 34.887328 25.118953 40.361328 28.251953 C 40.325328 35.105953 32.863031 40.365562 31.832031 40.976562 C 31.063031 39.630562 30.494141 38.224609 30.494141 38.224609 C 30.494141 38.224609 33.657469 38.428875 35.355469 36.671875 C 34.296469 37.148875 32.609531 37.749359 30.644531 37.568359 L 39.171875 28.619141 C 38.996875 28.409141 38.07075 27.763297 37.84375 27.654297 C 36.62075 29.126297 31.865891 34.211516 27.462891 36.728516 C 21.888891 33.687516 20.717609 24.740813 20.599609 22.882812 L 23.644531 23.173828 C 23.644531 23.173828 22.501953 25.202313 22.501953 26.695312 C 22.501953 28.188312 22.679687 28.267578 22.679688 28.267578 C 22.679688 28.267578 22.641047 25.664297 24.248047 23.654297 C 25.471047 30.172297 26.747187 33.513906 27.742188 35.503906 C 28.249188 35.293906 29.193359 34.873047 29.193359 34.873047 C 29.193359 34.873047 26.380109 26.765344 26.537109 21.277344 C 27.424109 20.803344 28.612797 20.325219 29.966797 20.074219 C 30.560797 19.964219 31.182031 19.892578 31.832031 19.892578 z M 42.958984 22.890625 C 43.213984 23.037625 45.498047 24.468281 45.498047 25.738281 C 45.498047 26.847281 44.443359 26.833984 44.443359 26.833984 L 43.640625 26.886719 L 41.195312 25.710938 C 41.195312 25.710938 42.624984 23.505625 42.958984 22.890625 z M 41.255859 28.730469 C 41.255859 28.730469 45.029297 31.067656 45.029297 33.347656 C 45.030297 35.894656 38.957031 35.855469 38.957031 35.855469 C 38.957031 35.855469 41.294859 32.791469 41.255859 28.730469 z M 21.490234 31.714844 C 21.490234 31.714844 23.320531 35.568312 26.519531 37.195312 C 24.931531 38.126312 23.62325 38.539063 22.03125 38.539062 C 20.22825 38.539062 19.855469 37.533906 19.855469 36.628906 C 19.855469 34.579906 21.490234 31.714844 21.490234 31.714844 z M 12 52 C 11.447 52 11 52.447 11 53 L 11 55 C 11 55.553 11.447 56 12 56 C 12.553 56 13 55.553 13 55 L 13 53 C 13 52.447 12.553 52 12 52 z M 17 52 C 16.447 52 16 52.447 16 53 L 16 55 C 16 55.553 16.447 56 17 56 C 17.553 56 18 55.553 18 55 L 18 53 C 18 52.447 17.553 52 17 52 z M 22 52 C 21.447 52 21 52.447 21 53 L 21 55 C 21 55.553 21.447 56 22 56 C 22.553 56 23 55.553 23 55 L 23 53 C 23 52.447 22.553 52 22 52 z M 27 52 C 26.447 52 26 52.447 26 53 L 26 55 C 26 55.553 26.447 56 27 56 C 27.553 56 28 55.553 28 55 L 28 53 C 28 52.447 27.553 52 27 52 z M 32 52 C 31.447 52 31 52.447 31 53 L 31 55 C 31 55.553 31.447 56 32 56 C 32.553 56 33 55.553 33 55 L 33 53 C 33 52.447 32.553 52 32 52 z M 37 52 C 36.447 52 36 52.447 36 53 L 36 55 C 36 55.553 36.447 56 37 56 C 37.553 56 38 55.553 38 55 L 38 53 C 38 52.447 37.553 52 37 52 z M 42 52 C 41.447 52 41 52.447 41 53 L 41 55 C 41 55.553 41.447 56 42 56 C 42.553 56 43 55.553 43 55 L 43 53 C 43 52.447 42.553 52 42 52 z M 47 52 C 46.447 52 46 52.447 46 53 L 46 55 C 46 55.553 46.447 56 47 56 C 47.553 56 48 55.553 48 55 L 48 53 C 48 52.447 47.553 52 47 52 z M 52 52 C 51.447 52 51 52.447 51 53 L 51 55 C 51 55.553 51.447 56 52 56 C 52.553 56 53 55.553 53 55 L 53 53 C 53 52.447 52.553 52 52 52 z"/></svg>