<?xml version="1.0" encoding="utf-8"?>
<!-- Generator: Adobe Illustrator 15.0.0, SVG Export Plug-In . SVG Version: 6.00 Build 0)  -->
<!DOCTYPE svg PUBLIC "-//W3C//DTD SVG 1.1//EN" "http://www.w3.org/Graphics/SVG/1.1/DTD/svg11.dtd">
<svg version="1.1" id="Слой_1" xmlns="http://www.w3.org/2000/svg" xmlns:xlink="http://www.w3.org/1999/xlink" x="0px" y="0px"
	 width="322.167px" height="438.498px" viewBox="0 0 322.167 438.498" enable-background="new 0 0 322.167 438.498"
	 xml:space="preserve">
	<g id="all-crocodile">
<g id="_x34_04">
	<g>
		<path fill="#313131" d="M14.917,98.307c5.978-7.8,12.251-15.795,18.817-23.985c6.563-8.19,13.163-16.444,19.792-24.765
			c6.63-8.318,13.226-16.575,19.792-24.765c6.563-8.19,12.836-16.185,18.817-23.985v78.194h19.305v19.305H92.137v32.76H72.052
			v-32.76L14.917,98.307L14.917,98.307z M72.052,55.017c-1.042,1.301-2.407,3.022-4.095,5.167c-1.691,2.145-3.413,4.387-5.168,6.728
			c-1.755,2.34-3.479,4.616-5.167,6.825c-1.691,2.212-2.992,3.967-3.9,5.265h18.33V55.017z"/>
	</g>
	<g>
		<path fill="#313131" d="M214.483,98.307c5.978-7.8,12.251-15.795,18.817-23.985c6.563-8.19,13.162-16.444,19.791-24.765
			c6.631-8.318,13.227-16.575,19.793-24.765c6.563-8.19,12.836-16.185,18.816-23.985v78.194h19.305v19.305h-19.305v32.76h-20.084
			v-32.76L214.483,98.307L214.483,98.307z M271.619,55.017c-1.043,1.301-2.408,3.022-4.096,5.167
			c-1.691,2.145-3.413,4.387-5.168,6.728c-1.755,2.34-3.479,4.616-5.167,6.825c-1.69,2.212-2.992,3.967-3.899,5.265h18.33V55.017z"
			/>
	</g>
	<path fill="#313131" d="M214.483,70.885c0-16.637-4.491-29.837-13.472-39.602c-8.982-9.765-20.045-14.647-33.184-14.647
		c-13.264,0-24.354,4.729-33.272,14.195c-8.923,9.462-13.382,22.694-13.382,39.693c0,16.515,4.458,29.504,13.382,38.969
		c7.28,7.723,16.048,12.292,26.3,13.712l0.305-0.111c0,0-1.044-0.652,0-1.827c1.044-1.174,1.566,1.044,1.566,1.044l0.521-2.349
		l1.695,0.783v-1.436l1.878,0.914V116.7l0.994,1.044l1.177-0.392c0,0-0.133-1.958,1.043-2.349c1.174-0.392,0.521,2.61,0.521,2.61
		h1.565l-1.565,2.177c0,0,0.913-0.563,1.565,0c0.651,0.564-0.914,2.261-0.914,2.261s2.148,0.208,2.488,1.34
		c10.965-1.131,20.194-5.607,27.674-13.445C210.112,100.782,214.483,87.762,214.483,70.885z M193.326,70.162
		c0,11.09-2.502,19.468-7.504,25.136c-5.004,5.665-11.003,8.499-17.992,8.499c-6.752,0-12.629-2.803-17.63-8.409
		c-5.004-5.606-7.504-13.715-7.504-24.322c0-11.212,2.5-19.742,7.504-25.588c5.001-5.849,10.94-8.771,17.81-8.771
		c6.631,0,12.508,2.893,17.633,8.68C190.763,51.175,193.326,59.431,193.326,70.162z"/>
</g>
<g id="pieces">
	<polygon fill="#313131" points="166.63,109.523 165.3,112.351 166.98,112.351 	"/>
	<polygon fill="#313131" points="157.648,107.297 158.024,109.274 158.9,108.639 	"/>
	<path fill="#313131" d="M170.617,105.634l-0.486,2.43l1.592,0.222c0,0-1.414-0.751-0.396-1.326c0.309-0.663,1.28-0.397,1.28-0.397
		l-1.235-1.813L170.617,105.634z"/>
	<path fill="#313131" d="M161.5,119.226l-1.248-2.466l-1.577,1.942c0,0-0.328,1.351-0.401,2.516c0.386,0.621,1.5-1.833,1.5-1.833
		l2.056,0.953L161.5,119.226z"/>
	<path fill="#313131" d="M176.457,108.314l-0.631,2.85c0,0,0.829-0.365,1.592,0.696c0.199-0.596,0.795-1.358,2.056-0.961
		c-0.53-0.895-0.332-2.055-0.332-2.055s-0.729,1.591-1.491,1.491C177.317,109.574,177.417,108.248,176.457,108.314z"/>
	<polygon fill="#313131" points="170.854,115.022 169.88,118.563 171.854,119.48 171.563,117.251 173.729,117.563 173.354,116.188 
		171.438,116.313 	"/>
	<polygon fill="#313131" points="178.979,117.302 179.074,119.679 179.979,121.76 180.417,120.21 181.854,119.843 179.574,117.251 	
		"/>
</g>
<g id="leg-back">
	<path fill="#476725" stroke="#231F20" stroke-linecap="round" stroke-linejoin="round" stroke-miterlimit="10" d="M132.094,301.843
		c0,0-17.258-6.242-13.559-30.148c8.317-10.582,4.131-19.012-1.54-19.893c-0.355,2.917-5.843,8.346-10.658,6.213
		c1.484-1.648,3.722-5.718,2.466-7.533c-1.297-1.877-1.68-2.94-5.287-3.133c-1.255-0.064-4.74,0.215-6.634,2.797
		c-0.904-1.535-0.632-2.902,0.147-4.568c2.533-4.483,8.033-2.299,8.033-2.299s-5.977-2.315-9.819,0.15
		c0.091-4.379,3.419-7.121,6.522-7.416c1.96-0.385,4.29,0.902,6.193,1.404c-2.938-2.139-8.009-2.65-8.009-2.65
		s2.755-4.938,9.437-3.289c4.003,0.99,7.863,4.176,8.97,9.25c1.545,0.346,18.936,3.192,20.866,19.189
		c1.928,15.994,1.729,24.932,1.729,24.932"/>
</g>
<g id="water">
	<path fill="#5BB1D3" d="M12.371,310.989c0,0,9-10.082,35.667-4.749s34.667,4.524,45.667,1.596s43.817-6.737,71.91,0
		c28.092,6.737,57.244-4.038,57.244-4.038s19.514-6.251,43.18,3.595c23.668,9.848,40,5.993,45.334,2.421c0,0,4.803,14.514-2.5,36.26
		c-11,32.75-37.968,55.25-70.168,41.5c-26.471-11.306-30.135-7-47.666,16c-18.672,24.496-68.228,44.095-96.333,16.333
		c-25.564-25.25-13.083-65.083-47.083-63.083C17.817,358.576,6.121,332.573,12.371,310.989z"/>
	<path fill="#44859E" d="M280.393,323.379c0,0-24.333-16.617-68.833-4.642c-44.5,11.975-54,4.131-62,2.887
		s-40.989-4.652-48.833-2.578c-7.844,2.074-25.039,5.499-31.103,4.166s-11.397-1.184-8.564,2.825s8.634,5.167,15.817,4.921
		s20.594-0.746,31.972,5.754c4.878,2.667,3.211,5.481-3.789,4.907s-8.132,6.76,2.768,6.26c10.9-0.5,10.461-4.833,21.514-1.5
		c11.053,3.333,19.552,7.333,31.552,2.667s16.167-21.313,48.333-13.491c32.166,7.824,32.667-3.605,29.167-6.475s-4.667-8.57,6-4.719
		C255.061,328.212,305.893,337.713,280.393,323.379z"/>
	<ellipse fill="#7CC1DC" cx="50.795" cy="368.227" rx="6.128" ry="5.313"/>
	<path fill="#7CC1DC" d="M217.119,396.438c-0.91,1.76-2.756,1.81-4.783,0.761c-2.026-1.048-2.957-2.524-2.047-4.282
		c0.908-1.757,3.289-2.331,5.315-1.283C217.63,392.682,218.026,394.682,217.119,396.438z"/>
	<path fill="#7CC1DC" d="M212.623,405.976c1.522,3.742-0.848,6.677-5.164,8.436c-4.314,1.757-7.84,1.244-9.361-2.499
		c-1.523-3.741,0.738-8.199,5.056-9.957C207.468,400.197,211.099,402.234,212.623,405.976z"/>
	<path fill="#7CC1DC" d="M172.714,428.8c0.757,1.859-0.422,3.317-2.565,4.19c-2.146,0.873-3.896,0.618-4.651-1.241
		c-0.758-1.859,0.367-4.074,2.512-4.947C170.153,425.929,171.958,426.941,172.714,428.8z"/>
	<ellipse fill="#7CC1DC" cx="59.364" cy="375.331" rx="2.066" ry="1.791"/>
	<path fill="#7CC1DC" d="M252.632,355.854c-28.539-12.188-32.489-7.547-51.391,17.25c-20.133,26.41-73.56,47.54-103.862,17.61
		c-27.562-27.223-18.058-58.206-54.714-56.049c-14.972,0.881-21.749-16.702-28.262-25.306c-1.403,0.931-2.83,0.921-2.83,0.921
		c-6.25,21.584,4.623,49.638,34.426,47.885c34-2,21.436,38.083,47,63.333c28.106,27.761,80.58,7.496,99.25-17
		c17.531-23,21.111-26.638,47.582-15.333c32.199,13.75,58.037-10.341,69.037-43.091c0.334-0.996,0.635-1.972,0.92-2.937
		C295.188,358.673,275.091,365.445,252.632,355.854z"/>
	<path fill="none" stroke="#231F20" stroke-linecap="round" stroke-linejoin="round" stroke-miterlimit="10" d="M4.583,315.748
		c0,0,13.583-16.417,44.594-9.508c26.544,5.914,34.667,4.524,45.667,1.596s43.817-6.737,71.91,0
		c28.093,6.737,57.244-4.038,57.244-4.038s19.515-6.251,43.181,3.595c23.668,9.848,40.489,7.007,53.157-2.426"/>
</g>
<g id="crocodile">
	<path fill="#5F8931" stroke="#231F20" stroke-linecap="round" stroke-linejoin="round" stroke-miterlimit="10" d="M158,234.504
		c0,0-10.114-1.006-17.057,1.994s-28.999,29.298-31.554,60.481c-2.555,31.185-2.158,27.352-2.158,27.352s2.596,6.427,54.599,4.713
		c52.004-1.714,50.461-3.047,56.482-6.214c-0.236-5.679,0.453-64.177-27.389-82.019C177.167,231.998,158,234.504,158,234.504z"/>
	<path fill="#7FA15A" d="M166.68,328.381c0,0,4.862-4.591,6.963-41.672c1.573-27.747,3.116-37.353,10.517-37.424
		c7.399-0.073,20.147,7.026,26.861,25.512c6.712,18.484,6.801,47.774,6.801,47.774s-3.953,2.328-7.135,2.844
		C191.367,328.545,166.68,328.381,166.68,328.381z"/>
	<path opacity="0.3" fill="#231F20" enable-background="new    " d="M116.839,327.634c0,0-4.375-51.523,22.52-84.018
		c2.427-2.646,2.688-2.856,2.688-2.856l-1.583-3.327c0,0-32.246,16.93-33.232,86.147
		C108.104,326.727,116.839,327.634,116.839,327.634z"/>
	<path fill="none" stroke="#231F20" stroke-width="0.5" stroke-linecap="round" stroke-linejoin="round" stroke-miterlimit="10" d="
		M123.748,263.213c0,0-10.683,28.099-11.292,42.466"/>
	<path fill="none" stroke="#231F20" stroke-width="0.5" stroke-linecap="round" stroke-linejoin="round" stroke-miterlimit="10" d="
		M202.042,263.213c3.442,6.634,5.156,6.315,5.283,6.364c-1.576,2.129-5.156,3.486-5.156,3.486s1.815,3.848,6.556,5.992
		c-0.726,2.361-3.873,4.881-3.873,4.881s1.048,2.295,5.487,4.48c-2.104,2.725-4.041,4.555-4.041,4.555s2.25,3.104,5.705,6.063
		c-0.7,1.463-3.071,4.379-4.246,4.713c0.705,3.118,4.104,7.109,6,8.246c-1.131,1.285-4.401,3.557-4.401,3.557l2.544,4.883"/>
	<path fill="none" stroke="#231F20" stroke-width="0.5" stroke-linecap="round" stroke-linejoin="round" stroke-miterlimit="10" d="
		M138.657,240.813c0,0-11.098,13.463-12.807,17.992"/>
	<path fill="none" stroke="#231F20" stroke-width="0.5" stroke-linecap="round" stroke-linejoin="round" stroke-miterlimit="10" d="
		M193.641,261.532c1.291,3.41,4.47,5.551,5.017,5.814c-1.746,1.992-4.912,5.535-4.912,5.535s3.377,5.818,7.922,8.35
		c-0.918,2.295-4.703,4.295-4.703,4.295s1.806,7.668,6.052,10.213c-2.324,2.54-4.948,3.922-4.948,3.922s1.915,4.087,5.114,7.32
		c-0.82,1.397-2.706,2.928-3.904,3.16c0.444,3.166,2.146,4.835,3.94,6.123c-1.233,1.188-5.713,2.4-5.713,2.4l2.263,3.41"/>
	<path fill="none" stroke="#231F20" stroke-width="0.5" stroke-linecap="round" stroke-linejoin="round" stroke-miterlimit="10" d="
		M184.99,252.365c0,0-0.096,2.407,4.352,5.159c-1.727,1.949-5.75,2.984-5.75,2.984s3.811,6.024,7.021,8.108
		c-1.981,1.757-5.327,4.38-5.327,4.38s2.311,5.512,6.504,8.592c-1.199,2.161-5.074,3.697-5.074,3.697s1.646,5.252,5.539,8.311
		c-2.623,2.229-5.34,2.582-5.34,2.582s1.291,5.016,4.06,8.625c-0.989,1.283-3.229,2.145-4.448,2.228
		c0.043,3.195,1.984,6.253,3.605,7.756c-1.375,1.022-4.938,2.992-4.938,2.992l3.567,4.937"/>
	<path fill="none" stroke="#231F20" stroke-width="0.5" stroke-linecap="round" stroke-linejoin="round" stroke-miterlimit="10" d="
		M111.5,326.489c0,0-0.307-11.234,0.409-17.136"/>
	<path opacity="0.3" fill="#231F20" enable-background="new    " d="M132.197,311.889c-0.333-2.455-1.063-4.385-3.453-4.061
		c-2.394,0.324-3.209,2.462-2.876,4.918c0.333,2.457,1.687,4.301,4.081,3.977C132.34,316.398,132.529,314.346,132.197,311.889z"/>
	<path opacity="0.3" fill="#231F20" enable-background="new    " d="M134.341,304.906c0.054-1.079-0.462-1.912-1.506-1.771
		c-1.044,0.142-1.398,1.073-1.253,2.144c0.145,1.072,0.625,1.832,1.598,1.428C134.059,306.338,134.299,305.744,134.341,304.906z"/>
	<path opacity="0.3" fill="#231F20" enable-background="new    " d="M128.641,304.554c-0.106-0.763-0.354-0.902-0.851-0.835
		c-0.439,0.06-0.686,0.392-0.659,1.156c0.027,0.763,0.42,0.911,0.865,0.707C128.404,305.396,128.711,305.062,128.641,304.554z"/>
</g>
<g id="head">
	<path fill="#FFFFFF" stroke="#231F20" stroke-linecap="round" stroke-linejoin="round" stroke-miterlimit="10" d="M175.275,186.215
		l-8.206-5.822c0,0,3.703-1.482,6.361-0.656c-3.841-2.119-5.175-3.355-5.175-3.355s4.074-1.185,5.637-0.73
		c-2.236-2.455-5.402-3.332-5.402-3.332l6.902-0.537c0,0-3.204-3.268-4.613-3.779c3.018-1.919,6.322-1.385,6.322-1.385l-6.967-4.016
		c0,0,5.438-0.974,6.933-0.928c-4.767-3.422-7.303-5.032-7.303-5.032s4.639-1.356,7.313-1.407c-2.402-2.225-5.66-4.391-5.66-4.391
		s4.271-0.912,6.597-0.743c-3.175-2.196-4.624-2.943-5.616-3.266c1.739-1.629,5.753-2.611,6.695-2.183
		c-2.432-1.607-7.318-2.741-7.318-2.741s3.122-2.234,5.96-2.085c-2.881-1.12-5.481-2.742-5.481-2.742l6.877-2.382l-8.076-2.622
		c0,0,7.084-1.738,9.083-1.97c-3.604-2.642-7.787-2.917-7.787-2.917s6.586-1.492,8.757-1.266
		c-2.668-2.339-10.281-2.614-10.281-2.614s5.813-3.793,11.371-3.499c3.361,0.143,8.074,1.737,8.074,1.737L175.275,186.215"/>
	<path opacity="0.3" fill="#231F20" enable-background="new    " d="M169.751,181.643c0,0,2.4,0.016,1.733-2.155
		c0.647-0.486,1.195-2.761,1.11-3.927c0.689-0.513,2.824-1.217,1.943-3.711c0.852-0.067,1.215-4.507,0.67-5.268
		c0.84-0.029,1.666-2.944,0.894-4.858c0.417-0.438,1.864-5.078,0.623-6.471c0.424-0.655,1.694-3.244,0.711-5.169
		c0.438-1.071,1.666-3.033,0.369-5.487c0.407-0.454,0.43-3.306-0.646-4.767c1.065-0.446,2.459-2.535,1.592-4.995
		c0.815-0.336,1.396-3.696,0.748-4.628c0.914-1.048,1.694-4.354,0.949-4.754c0.997-0.876,3.295-3.64,1.428-5.645
		c2.564,0.266,5.819,1.397,5.819,1.397s-6.586,25.977-6.512,34.241c0.073,8.264-2.067,20.749-8.913,28.729
		C171.107,183.289,169.751,181.643,169.751,181.643z"/>
	<path fill="#5F8931" stroke="#231F20" stroke-linecap="round" stroke-linejoin="round" stroke-miterlimit="10" d="M199.468,142.518
		c-1.625,15.027-2.491,28.559,4.135,47.694c4.441,11.752,15.389,29.59,2.663,47.107c-1.065,1.467-3.287,3.846-6.787,6.298
		c-13.66,8.739-47.427,8.007-55.169,4.014c-18.46-6.817-2.074-52.654-0.519-56.341c4.259,0.201,22.541,6.938,30.082-10.817
		c3.994-11.157,6.791-30.496,6.85-40.467c0.048-8.3,6.473-32.57,16.844-22.271C204.205,124.332,205.587,133.678,199.468,142.518z"/>
	<path opacity="0.3" fill="#231F20" enable-background="new    " d="M195.141,217.307c0,0-2.913,3.074-7.257,0.263
		c-6.086-3.939-7.233-13.284-1.541-19.534c1.32-1.138,2.808-2.259,4.768-1.952c-0.602,1.542-1.893,4.015,4.354,13.485
		C198.302,214.257,195.141,217.307,195.141,217.307z"/>
	<path fill="#231F20" d="M194.406,207.916c0,0-6.617-1.291-6.945-5.523c-0.237-3.076,2.002-3.794,3.117-3.835
		C191.212,202.349,194.406,207.916,194.406,207.916z"/>
	<path fill="none" stroke="#231F20" stroke-width="0.5" stroke-linecap="round" stroke-linejoin="round" stroke-miterlimit="10" d="
		M193.041,193.769c0,0-3.959,1.834-1.414,8.215c2.543,6.381,6.854,10.591,4.176,14.445"/>
	
		<path fill="#476725" stroke="#231F20" stroke-width="0.5" stroke-linecap="round" stroke-linejoin="round" stroke-miterlimit="10" d="
		M196.86,133.554c0,0,2.021,0.771,2.233-1.521c0.212-2.294-1.655-4.51-3.016-7.694c-0.56-1.551,0.424,7-0.271,8.72
		C196.453,133.55,196.86,133.554,196.86,133.554z"/>
	<path fill="none" stroke="#231F20" stroke-width="0.5" stroke-linecap="round" stroke-linejoin="round" stroke-miterlimit="10" d="
		M197.856,227.938c0.101,0.207-0.854,4.293-4.006,6.041c-3.151,1.746-5.92-1.104-7.004-4.918"/>
	<path fill="none" stroke="#231F20" stroke-width="0.5" stroke-linecap="round" stroke-linejoin="round" stroke-miterlimit="10" d="
		M173.621,207.516c0,0-3.867,3.186-4.129,6.95c2.281-0.76,2.666-0.017,2.666-0.017s-2.289,5.909-1.882,6.856
		c1.522-0.695,2.712-0.337,2.712-0.337s-1.47,2.087-1.49,4.617c1.957-0.267,2.477,0.192,2.477,0.192s-2.094,2.279-1.821,5.816
		c2.356-0.469,3.136-0.068,3.136-0.068s-1.971,4.381-2.078,6.164"/>
	<path fill="none" stroke="#231F20" stroke-width="0.5" stroke-linecap="round" stroke-linejoin="round" stroke-miterlimit="10" d="
		M169.396,206.023c0,0-3.174,1.755-4.572,5.261c2.406-0.027,2.54,0.789,2.54,0.789s-3.153,3.875-3.056,4.901
		c1.662-0.199,2.686,0.507,2.686,0.507s-2.49,2.141-3.281,4.545c1.942,0.342,2.752,0.336,2.752,0.336s-2.178,2.396-2.998,5.848
		c2.388,0.271,2.498,0.027,2.498,0.027s-1.762,2.953-1.713,5.906"/>
	<path opacity="0.3" fill="#231F20" enable-background="new    " d="M176.96,189.122c0.822-0.904,1.322-1.792,0.439-2.594
		c-0.882-0.803-1.947-0.433-2.771,0.472c-0.823,0.904-1.092,2.001-0.211,2.804C175.3,190.607,176.137,190.027,176.96,189.122z"/>
	<path opacity="0.3" fill="#231F20" enable-background="new    " d="M182.794,183.502c0.054-1.079-0.463-1.912-1.504-1.771
		c-1.045,0.142-1.4,1.074-1.256,2.145c0.146,1.071,0.627,1.829,1.6,1.425C182.513,184.935,182.753,184.341,182.794,183.502z"/>
	<path opacity="0.3" fill="#231F20" enable-background="new    " d="M179.944,177.439c-0.104-0.763-0.354-0.903-0.851-0.836
		c-0.438,0.06-0.686,0.391-0.658,1.156c0.027,0.763,0.42,0.913,0.865,0.708C179.708,178.281,180.015,177.945,179.944,177.439z"/>
	<path fill="none" stroke="#231F20" stroke-width="0.5" stroke-linecap="round" stroke-linejoin="round" stroke-miterlimit="10" d="
		M198.525,153.143c0,0,0.16,2.894-4.277,4.424c-4.438,1.531-5.922-1.119-5.922-1.119"/>
	<path fill="none" stroke="#231F20" stroke-width="0.5" stroke-linecap="round" stroke-linejoin="round" stroke-miterlimit="10" d="
		M198.352,162.586c0,0-1.44,3.821-4.526,3.865c-2.869,0.04-4.35-1.501-4.35-1.501"/>
	<path fill="none" stroke="#231F20" stroke-width="0.5" stroke-linecap="round" stroke-linejoin="round" stroke-miterlimit="10" d="
		M199.058,171.142c0,0-0.352,2.314-2.863,4.113c-1.799,1.289-3.537,1.446-5.197,0.927"/>
	<path fill="none" stroke="#231F20" stroke-width="0.5" stroke-linecap="round" stroke-linejoin="round" stroke-miterlimit="10" d="
		M182.884,203.938c0,0-1.281,6.665,2.348,11.213c2.703,3.389,5.541,3.826,5.541,3.826"/>
</g>
<g id="jaw">
	<path fill="#5F8931" stroke="#231F20" stroke-linecap="round" stroke-linejoin="round" stroke-miterlimit="10" d="M142.047,246.492
		c0,0-14.276-6.681-6.665-40.943c1.789-7.646,2.377-20.686,3.105-38.701c0.643-15.891,3.513-34.096,3.513-34.096
		s3.288-22.056,11.439-17.576c2.551,1.403,2.372,5.563,2.686,20.691c0.476,22.916,1.839,59.109,1.839,59.109"/>
	<path opacity="0.3" fill="#231F20" enable-background="new    " d="M142.398,246.286c0,0-5.304-12.532-2.63-27.526
		c2.672-14.994,4.891-24.051,2.923-50.449c-1.967-26.397,4.032-52.415,9.361-53.651c-3.18,0.808-6.477,2.439-8.266,10.266
		c-1.788,7.827-4.886,34.813-4.886,34.813l-2.089,34.813c0,0-2.721,14.67-3.051,22.512
		C133.43,224.905,131.773,240.245,142.398,246.286z"/>
	<path fill="none" stroke="#231F20" stroke-width="0.5" stroke-linecap="round" stroke-linejoin="round" stroke-miterlimit="10" d="
		M146.408,118.47c0,0-2.056,13.615-2.652,21.244"/>
	<path fill="none" stroke="#231F20" stroke-width="0.5" stroke-linecap="round" stroke-linejoin="round" stroke-miterlimit="10" d="
		M142.975,142.531c0,0-1.279,20.572-1.481,25.941"/>
	<path fill="none" stroke="#231F20" stroke-width="0.5" stroke-linecap="round" stroke-linejoin="round" stroke-miterlimit="10" d="
		M141.356,171.743c0,0-0.265,15.117,0.332,20.46c1.358,12.172-8.182,28.579-1.45,52.733"/>
	<path opacity="0.3" fill="#231F20" enable-background="new    " d="M157.962,188.164c0,0-1.555-0.458-2.17-4.149
		c-0.617-3.691-3.363-19.023-4.216-23.075c-0.852-4.052-2.426-26.833-0.268-34.906c2.158-8.073,0.798-9.362,3.741-8.734
		c0.612,3.151-0.104,18.728-0.104,18.728S154.031,149.896,157.962,188.164z"/>
	<path fill="#FFFFFF" stroke="#231F20" stroke-linecap="round" stroke-linejoin="round" stroke-miterlimit="10" d="M157.768,188.79
		l6.628-4.614c0,0-2.691-2.811-4.75-3.355c4.033-1.726,5.484-2.823,5.484-2.823s-3.938-1.585-5.538-1.29
		c3.308-0.994,4.25-2.525,4.25-2.525l-5.354-1.473c0,0,5.346-1.076,6.799-1.444c-2.812-2.209-7.984-3.865-7.984-3.865l7.018-1.881
		c0,0-4.998-2.93-6.49-3.034c5.085-2.93,7.632-2.576,7.632-2.576s-4.342-3.514-7-3.832c2.613-1.975,5.813-2.933,5.813-2.933
		s-3.901-2.205-6.231-2.27c3.378-1.868,5.993-3.478,7.011-3.701c-3.971-0.968-6.559-2.159-7.541-1.828
		c2.579-1.356,5.562-1.877,5.562-1.877s-2.703-2.611-5.542-2.746c4.07-1.616,6.101-3.516,6.101-3.516l-6.484-1.941l5.997-2.024
		c0,0-3.902-2.206-5.869-2.635c3.85-2.271,8.691-1.959,8.691-1.959s-6.637-3.47-8.82-3.462c5.016-1.693,10.521-2.836,10.521-2.836
		s-4.838-2.288-10.396-2.551c-2.074-0.065-3.181-1.833-4.053,7.949c-0.575,6.465-0.832,14.861,0.607,27.209
		C157.651,187.73,157.768,188.79,157.768,188.79"/>
</g>
<g id="leg-front">
	<path fill="#5F8931" stroke="#231F20" stroke-linecap="round" stroke-linejoin="round" stroke-miterlimit="10" d="M139.153,292.688
		c0,0-15.204,10.278-32.354-6.783c-7.324-7.383-12.938-14.527-16.987-10.461c2.149,2.005,3.685,7.604-0.874,10.242
		c-0.461-2.172-1.823-4.9-4.027-4.976c-3.116-0.106-3.896,1.047-4.518,3.261c-0.341,1.209-1.167,4.531,0.621,6.43
		c-1.333,0.545-4.102-0.305-5.591-2.381c-3.465-4.896,0.475-7.947,0.475-7.947s-5.128,2.254-3.838,7.285
		c-3.603-1.17-5.416-4.222-3.64-8.41c0.842-2.356,2.919-3.422,4.444-4.665c-2.988-0.986-6.697,3.635-6.697,3.635
		s-1.341-6.138,2.567-9.104c3.285-2.492,8.171-3.078,12.924-0.986c1.188-1.049,9.724-8.694,23.791-0.84
		c14.065,7.854,26.082,0.852,26.082,0.852"/>
	
		<path fill="#5F8931" stroke="#231F20" stroke-width="0.5" stroke-linecap="round" stroke-linejoin="round" stroke-miterlimit="10" d="
		M99.506,274.099c0,0,5.533,2.95,7.476,5.896"/>
	
		<path fill="#5F8931" stroke="#231F20" stroke-width="0.5" stroke-linecap="round" stroke-linejoin="round" stroke-miterlimit="10" d="
		M109.771,282.494c0,0,8.938,12.415,23.054,7.28"/>
	<path opacity="0.3" fill="#231F20" enable-background="new    " d="M118.87,285.838c0.973,0.47,1.94,0.318,2.218-0.696
		c0.276-1.017-0.443-1.707-1.486-1.99c-1.042-0.282-1.928-0.137-1.936,0.916C117.661,285.021,118.115,285.472,118.87,285.838z"/>
	<path opacity="0.3" fill="#231F20" enable-background="new    " d="M117.16,282.092c0.208-0.741,0.037-0.969-0.446-1.104
		c-0.426-0.121-0.784,0.082-1.066,0.795c-0.28,0.71,0.02,1.005,0.51,0.994C116.605,282.769,117.02,282.584,117.16,282.092z"/>
	<path opacity="0.3" fill="#231F20" enable-background="new    " d="M79.344,290.075c0,0-6.241-4.559-1.432-9.473
		c0.805-0.938,0.953-3.346-0.485-2.709c-1.438,0.638-6.381,1.922-4.806-0.144c1.575-2.063,3.066-4.151,3.066-4.151
		s2.801-2.613-1.47-1.942c-4.269,0.668-4.425-0.363-3.015-1.847c1.409-1.482,5.913-2.805,9.28-2.023
		c-2.799-1.516-9.086-2.863-13.507,3.105c-1.33,1.733-0.947,6.113-0.947,6.113s3.262-3.313,7.356-2.564
		c-2.034,0.984-9.716,7.549-2.203,12.576c0.784-1.912,2.19-5.91,4.478-6.693C74.102,283.112,72.466,288.388,79.344,290.075z"/>
</g>
	</g>
</svg>
