<?xml version="1.0" standalone="no"?>
<!DOCTYPE svg PUBLIC "-//W3C//DTD SVG 20010904//EN"
 "http://www.w3.org/TR/2001/REC-SVG-20010904/DTD/svg10.dtd">
<svg version="1.0" xmlns="http://www.w3.org/2000/svg"
 width="632.000000pt" height="629.000000pt" viewBox="0 0 632.000000 629.000000"
 preserveAspectRatio="xMidYMid meet">

<g transform="translate(0.000000,629.000000) scale(0.100000,-0.100000)"
fill="#000000" stroke="none">
<path d="M0 3145 c0 -2090 3 -3145 10 -3145 7 0 10 202 10 585 l0 585 600 0
600 0 0 -585 0 -585 85 0 85 0 0 245 0 245 85 0 86 0 -3 82 -3 83 -82 3 -83 3
0 339 0 340 170 0 170 0 0 -255 0 -255 -73 0 c-43 0 -78 -5 -85 -12 -7 -7 -12
-42 -12 -85 l0 -73 85 0 85 0 0 -85 0 -85 85 0 85 0 0 170 0 170 85 0 85 0 0
-175 0 -175 -85 0 -85 0 0 -80 0 -80 85 0 84 0 3 -87 3 -88 82 -3 83 -3 0 -69
0 -70 255 0 255 0 0 70 0 70 -85 0 -85 0 0 90 0 90 85 0 85 0 0 85 0 85 85 0
85 0 1 -67 c1 -38 1 -76 0 -85 -2 -16 8 -18 83 -18 l86 0 0 85 0 85 90 0 90 0
0 -85 0 -85 170 0 171 0 -3 78 -3 77 -82 3 -82 3 -3 85 c-2 46 -2 125 0 174
l3 90 85 0 84 0 0 -85 0 -85 170 0 170 0 0 -260 0 -259 -82 -3 -83 -3 -3 -67
-3 -68 171 0 170 0 0 70 0 69 83 3 82 3 3 82 3 83 -85 0 -86 0 -2 258 -3 257
-82 3 -82 3 -3 82 -3 82 -82 3 -83 3 0 69 c0 100 0 100 -85 100 -85 0 -85 0
-85 -101 l0 -69 85 0 85 0 0 -85 0 -85 -85 0 -84 0 -3 82 -3 83 -82 3 -83 3
-1 77 c-1 42 0 109 1 149 3 114 3 113 -96 113 l-84 0 0 170 0 170 90 0 90 0 0
-85 0 -85 85 0 85 0 0 69 c0 102 1 101 -91 101 l-79 0 -1 73 c-1 146 -1 274 0
354 l1 82 83 3 82 3 3 83 3 82 169 0 170 0 0 -85 0 -85 170 0 170 0 0 85 0 85
85 0 85 0 0 -255 0 -254 -82 -3 -83 -3 -3 -82 -3 -83 86 0 85 0 0 -595 0 -595
85 0 85 0 0 85 0 85 85 0 85 0 0 170 0 170 -85 0 -85 0 0 340 0 340 85 0 85 0
0 -85 0 -85 85 0 85 0 0 85 0 85 85 0 85 0 0 -85 0 -85 170 0 170 0 0 85 0 85
-85 0 -85 0 0 85 0 85 255 0 255 0 0 85 0 85 -85 0 -85 0 0 170 0 170 -69 0
c-102 0 -101 1 -101 -91 l0 -79 -72 0 c-40 0 -79 -4 -86 -9 -10 -6 -13 -31
-12 -92 1 -46 2 -119 1 -161 l-1 -78 -255 0 -255 0 0 85 0 85 85 0 85 0 0 85
0 85 -170 0 -170 0 0 85 0 85 85 0 85 0 0 345 0 345 85 0 85 0 0 80 0 80 -85
0 -85 0 0 91 0 91 -67 -2 c-112 -4 -103 -11 -103 85 l0 85 -73 0 c-43 0 -78
-5 -85 -12 -7 -7 -12 -41 -12 -84 0 -83 4 -81 -101 -76 l-69 4 0 169 0 169
-85 0 -85 0 0 170 0 170 -85 0 -85 0 0 85 0 85 85 0 85 0 0 170 0 170 85 0 85
0 0 -85 0 -85 85 0 85 0 0 -170 0 -170 -79 0 c-92 0 -91 1 -91 -101 l0 -69 85
0 85 0 0 -85 0 -85 170 0 170 0 0 -85 0 -85 170 0 170 0 0 255 0 255 -71 0
c-48 0 -75 -5 -85 -14 -11 -11 -14 -49 -14 -170 l0 -156 -85 0 -85 0 0 170 0
170 -85 0 -85 0 0 85 0 85 85 0 85 0 0 85 0 85 170 0 170 0 0 170 0 170 -85 0
-85 0 0 85 0 85 170 0 170 0 1 -87 c1 -49 0 -125 -1 -170 l-2 -83 256 0 256 0
0 170 0 170 90 0 90 0 0 -85 0 -85 160 0 160 0 0 170 0 170 -590 0 -590 0 0
600 0 600 -85 0 -85 0 0 -85 c0 -47 -3 -85 -7 -86 -5 0 -37 -1 -73 -1 -36 -1
-71 -6 -77 -11 -9 -6 -13 -36 -13 -83 l0 -74 85 0 85 0 0 -90 0 -90 -85 0 -85
0 0 85 0 85 -425 0 -424 0 -3 88 -3 87 -45 1 c-25 1 -62 2 -82 3 l-38 1 0 85
0 85 -85 0 -85 0 0 -85 0 -85 85 0 85 0 0 -90 0 -90 -85 0 -85 0 0 -425 0
-426 83 3 82 3 3 82 3 82 82 3 82 3 3 83 3 82 82 1 c80 1 208 1 355 0 l72 -1
0 -85 0 -84 -82 -3 -83 -3 -3 -82 -3 -83 86 0 85 0 0 85 0 85 85 0 85 0 0
-170 0 -170 -252 -2 -253 -3 -3 -82 -3 -83 -84 0 -85 0 0 85 0 86 -82 -3 -83
-3 -3 -82 -3 -83 86 0 85 0 0 -85 0 -85 -170 0 -170 0 0 69 c0 102 1 101 -91
101 l-79 0 0 73 c0 39 -4 78 -8 85 -7 9 -47 12 -168 10 l-159 -3 -3 -82 -3
-83 -77 0 c-47 0 -83 -5 -90 -12 -7 -7 -12 -42 -12 -85 l0 -73 -85 0 -85 0 0
340 0 340 -69 0 c-102 0 -101 1 -101 -91 l0 -79 -85 0 -85 0 0 85 0 85 -85 0
-85 0 0 255 0 255 -85 0 -85 0 0 -85 0 -84 -82 -3 -83 -3 -3 -82 -3 -83 -84 0
-85 0 0 85 0 85 -85 0 -85 0 0 85 0 85 -85 0 -85 0 0 90 0 90 170 0 171 0 -3
83 -3 82 -70 2 c-38 1 -76 2 -82 2 -9 1 -13 25 -13 86 l0 85 -170 0 -170 0 0
-600 0 -600 -600 0 -600 0 0 600 c0 393 -3 600 -10 600 -7 0 -10 -1055 -10
-3145z m3950 2545 l0 -90 -85 0 -85 0 0 90 0 90 85 0 85 0 0 -90z m850 -169
c0 -92 -1 -91 101 -91 l69 0 0 -170 0 -170 -85 0 -85 0 0 85 0 85 -85 0 -85 0
0 170 0 170 85 0 85 0 0 -79z m-3070 -176 l0 -85 85 0 85 0 0 -170 0 -170 85
0 85 0 0 170 0 170 85 0 84 0 3 -82 3 -83 83 -3 82 -3 0 -169 0 -170 -85 0
-85 0 0 85 0 85 -85 0 -85 0 0 -170 0 -169 -82 -3 -83 -3 -3 -82 -3 -83 86 0
85 0 0 -85 0 -85 85 0 85 0 0 170 0 170 85 0 85 0 0 -85 0 -85 170 0 170 0 0
-85 0 -85 85 0 85 0 0 85 0 85 85 0 85 0 0 85 0 85 90 0 90 0 0 -85 0 -85 85
0 85 0 0 85 0 85 85 0 85 0 0 -85 0 -85 85 0 85 0 0 -255 0 -255 -170 0 -170
0 0 85 0 85 85 0 85 0 0 69 c0 108 13 101 -181 101 l-169 0 0 85 0 85 -80 0
-80 0 0 -170 0 -170 -76 0 c-97 0 -104 -7 -104 -99 l0 -71 90 0 90 0 0 -85 0
-85 170 0 170 0 0 -85 0 -85 85 0 85 0 0 85 0 85 255 0 255 0 0 -85 0 -85 -82
-1 c-46 -1 -118 0 -162 1 -57 1 -81 -2 -87 -12 -5 -7 -9 -46 -9 -85 l0 -73 85
0 85 0 0 -175 0 -174 -82 -3 -83 -3 0 -80 0 -80 83 -3 82 -3 0 -84 0 -84 -82
-3 -83 -3 -3 -82 -3 -83 -169 0 -169 0 -3 83 -3 82 -87 3 -88 3 0 85 0 85 -77
-3 -78 -3 -3 -82 -3 -83 -77 0 c-42 0 -83 -4 -90 -9 -8 -5 -13 -23 -12 -42 1
-19 2 -53 1 -76 l-1 -43 -239 0 c-132 0 -246 -3 -255 -6 -14 -5 -16 -30 -16
-170 l0 -164 -170 0 -170 0 0 -170 0 -170 -170 0 -170 0 0 -85 0 -85 -170 0
-170 0 0 170 0 170 85 0 85 0 0 -85 0 -85 85 0 85 0 0 85 0 85 85 0 85 0 0 85
0 85 -170 0 -170 0 0 85 0 85 -85 0 -85 0 0 85 0 85 -85 0 -85 0 0 -85 0 -85
-85 0 -85 0 0 -85 0 -85 85 0 85 0 0 -85 0 -84 -82 -3 -83 -3 -3 -83 -3 -82
86 0 85 0 0 -85 0 -85 -85 0 -85 0 0 -85 0 -85 170 0 170 0 0 -85 0 -85 -340
0 -340 0 0 69 c0 102 1 101 -91 101 l-79 0 0 -85 0 -85 -90 0 -90 0 0 85 0 86
-83 -3 -82 -3 -3 -82 -3 -83 -84 0 -85 0 0 85 0 85 85 0 85 0 0 85 0 85 -85 0
-85 0 0 85 0 85 85 0 85 0 0 255 0 255 85 0 85 0 0 85 0 85 -170 0 -170 0 0
170 0 170 85 0 85 0 0 90 0 90 170 0 170 0 0 85 0 85 90 0 91 0 -3 83 -3 82
-135 2 c-74 1 -152 2 -172 2 l-38 1 0 85 0 85 85 0 85 0 0 85 0 84 -156 0
c-120 0 -160 -3 -170 -14 -11 -11 -14 -50 -13 -177 0 -90 0 -200 0 -245 l-1
-83 -85 0 -85 0 0 345 0 345 345 0 345 0 0 85 0 85 85 0 85 0 0 -85 0 -85 170
0 170 0 0 -85 0 -85 -79 0 c-92 0 -91 1 -91 -101 l0 -69 170 0 170 0 0 -85 c0
-81 -1 -85 -22 -86 -13 -1 -89 -1 -170 -1 l-148 0 0 -84 0 -84 85 0 85 0 0
-90 0 -90 -85 0 -85 0 0 -79 c0 -67 3 -81 18 -85 9 -3 127 -5 262 -5 135 0
280 0 323 0 l77 -1 0 -85 0 -85 -167 -2 -168 -3 -3 -83 -3 -84 93 2 c51 1 128
1 171 1 l77 -1 0 -85 0 -85 85 0 85 0 0 170 0 170 85 0 85 0 0 85 0 85 -85 0
-85 0 0 85 0 85 -255 0 -255 0 0 90 0 90 85 0 85 0 0 85 0 85 85 0 85 0 0 85
0 85 -85 0 -85 0 0 170 0 170 85 0 85 0 0 -170 0 -170 170 0 170 0 0 85 0 85
-85 0 -85 0 0 170 0 170 85 0 85 0 0 85 0 85 -85 0 -85 0 0 85 0 86 -82 -3
-83 -3 -3 -167 -2 -168 -340 0 -340 0 0 85 0 85 -85 0 -85 0 0 69 c0 102 1
101 -91 101 l-79 0 -1 75 c0 41 -1 120 -1 175 0 55 1 136 1 180 l1 80 340 0
340 0 0 170 0 170 85 0 85 0 0 85 0 85 85 0 85 0 0 -85z m-1190 -510 l0 -84
-82 -3 -83 -3 -3 -82 -3 -83 86 0 85 0 0 -170 0 -169 -82 -3 -83 -3 -3 -82 -3
-83 -174 0 -175 0 0 255 0 255 85 0 85 0 0 85 0 85 -85 0 -85 0 0 85 0 85 260
0 260 0 0 -85z m3920 -170 l0 -85 85 0 85 0 0 -85 0 -85 -85 0 -85 0 0 85 0
85 -85 0 -85 0 0 85 0 85 85 0 85 0 0 -85z m510 0 l0 -85 -85 0 -85 0 0 85 0
85 85 0 85 0 0 -85z m-680 -1360 l0 -85 170 0 170 0 0 -175 0 -174 -82 -3 -83
-3 -3 -82 -3 -83 -169 0 -170 0 0 345 0 345 85 0 85 0 0 -85z m-1020 -860 l0
-85 85 0 85 0 0 -85 0 -85 -85 0 -85 0 0 -85 0 -84 -82 -3 -83 -3 -3 -422 -2
-423 85 0 85 0 0 -170 0 -170 -79 0 c-92 0 -91 1 -91 -101 0 -73 1 -71 -55
-71 -8 0 -40 0 -70 1 l-55 1 0 85 0 85 -71 0 c-91 0 -99 -8 -99 -99 0 -67 -1
-71 -22 -72 -21 -1 -293 0 -310 1 -5 0 -8 39 -8 86 l0 86 -82 -2 c-46 -1 -122
-2 -170 -1 l-88 1 0 85 0 85 -85 0 -85 0 0 170 0 170 -85 0 -85 0 0 85 0 85
85 0 85 0 0 85 0 85 85 0 85 0 0 -85 0 -85 85 0 85 0 0 170 0 170 170 0 170 0
0 85 0 85 85 0 85 0 0 170 0 170 170 0 170 0 0 85 0 85 90 0 90 0 0 -85z
m1360 0 l0 -85 -85 0 -85 0 0 85 0 85 85 0 85 0 0 -85z m-2220 -2045 l0 -90
-85 0 -85 0 0 90 0 90 85 0 85 0 0 -90z"/>
<path d="M1560 5175 l0 -85 85 0 85 0 0 85 0 85 -85 0 -85 0 0 -85z"/>
<path d="M1567 4913 c-4 -3 -7 -42 -7 -85 l0 -78 85 0 85 0 0 85 0 85 -78 0
c-43 0 -82 -3 -85 -7z"/>
<path d="M1057 4743 c-4 -3 -7 -42 -7 -85 l0 -78 85 0 85 0 0 -85 0 -84 -82
-3 -83 -3 -3 -82 -3 -83 256 0 255 0 0 170 0 170 -170 0 -170 0 0 85 0 85 -78
0 c-43 0 -82 -3 -85 -7z"/>
<path d="M2240 4070 l0 -170 85 0 85 0 0 -85 0 -85 85 0 85 0 0 -85 0 -85 -71
0 c-91 0 -99 -8 -99 -99 l0 -71 -85 0 -85 0 0 85 0 85 -85 0 -85 0 0 -175 0
-175 -85 0 -85 0 0 -80 0 -80 85 0 84 0 3 -87 3 -88 83 -3 82 -3 0 91 0 90
255 0 255 0 0 -84 c0 -98 -2 -96 101 -96 l69 0 0 170 0 170 -170 0 -170 0 0
90 0 90 85 0 85 0 0 85 0 85 85 0 85 0 0 170 0 170 -170 0 -170 0 0 85 0 85
85 0 85 0 0 85 0 85 -255 0 -255 0 0 -170z"/>
<path d="M716 3544 c-3 -9 -6 -47 -6 -85 l0 -69 170 0 171 0 -3 83 -3 82 -162
2 c-138 2 -162 0 -167 -13z"/>
<path d="M3106 3544 c-3 -9 -6 -47 -6 -85 l0 -69 80 0 80 0 0 85 0 85 -74 0
c-58 0 -75 -3 -80 -16z"/>
<path d="M1730 3305 l0 -85 85 0 85 0 0 85 0 85 -85 0 -85 0 0 -85z"/>
<path d="M3270 3130 l0 -260 168 3 167 2 0 80 0 80 -82 3 -83 3 -1 82 c-1 45
0 114 1 154 3 113 3 113 -91 113 l-79 0 0 -260z"/>
<path d="M710 3040 l0 -170 -260 0 -260 0 0 -80 c0 -74 1 -80 23 -85 12 -3
166 -4 342 -2 l320 2 2 85 c1 47 2 124 2 173 l1 87 85 0 85 0 0 80 0 80 -170
0 -170 0 0 -170z"/>
<path d="M880 2530 l0 -170 -167 -2 -168 -3 -3 -82 -3 -83 86 0 85 0 0 -85 0
-85 -167 -2 -168 -3 -3 -82 -3 -83 -89 0 -90 0 0 -85 0 -85 90 0 90 0 0 -85 0
-85 80 0 80 0 0 170 0 170 90 0 90 0 0 -85 0 -85 170 0 170 0 0 85 0 85 -85 0
-85 0 -1 73 c-1 146 -1 274 0 354 l1 82 83 3 82 3 3 82 3 82 82 3 82 3 3 83 3
82 -171 0 -170 0 0 -170z"/>
<path d="M1900 2275 l0 -85 85 0 85 0 0 85 0 85 -85 0 -85 0 0 -85z"/>
<path d="M3100 2275 l0 -85 80 0 80 0 0 85 0 85 -80 0 -80 0 0 -85z"/>
<path d="M2580 1765 l0 -85 -73 0 c-43 0 -78 -5 -85 -12 -8 -8 -12 -60 -12
-170 l0 -158 85 0 85 0 0 -85 0 -85 -71 0 c-91 0 -99 -8 -99 -99 l0 -71 340 0
340 0 0 85 0 85 -170 0 -170 0 0 85 0 85 85 0 85 0 0 85 0 85 -170 0 -170 0 0
85 0 85 170 0 170 0 0 85 0 85 -170 0 -170 0 0 -85z"/>
<path d="M1900 1425 l0 -85 85 0 85 0 0 85 0 85 -85 0 -85 0 0 -85z"/>
<path d="M1730 6205 l0 -85 170 0 170 0 0 85 0 85 -170 0 -170 0 0 -85z"/>
<path d="M2240 6205 l0 -85 85 0 85 0 0 85 0 85 -85 0 -85 0 0 -85z"/>
<path d="M2580 6205 l0 -85 260 0 260 0 0 -85 0 -85 80 0 80 0 0 170 0 170
-340 0 -340 0 0 -85z"/>
<path d="M4120 6205 l0 -85 85 0 85 0 0 85 0 85 -85 0 -85 0 0 -85z"/>
<path d="M190 5690 l0 -430 430 0 430 0 0 429 0 429 -430 1 -430 1 0 -430z
m690 0 l0 -260 -260 0 -260 0 0 260 0 260 260 0 260 0 0 -260z"/>
<path d="M3446 6103 c-4 -8 -6 -46 -6 -84 l0 -69 85 0 86 0 -3 83 -3 82 -77 1
c-58 1 -78 -2 -82 -13z"/>
<path d="M5310 5689 l0 -429 430 0 430 0 0 429 0 429 -430 0 -430 1 0 -430z
m690 1 l0 -260 -260 0 -260 0 0 260 0 260 260 0 260 0 0 -260z"/>
<path d="M1907 5933 c-4 -3 -7 -39 -7 -80 l0 -73 85 0 85 0 0 80 0 80 -78 0
c-43 0 -82 -3 -85 -7z"/>
<path d="M2253 5933 c-9 -3 -13 -29 -13 -79 l0 -74 85 0 85 0 0 80 0 80 -72
-1 c-40 0 -79 -3 -85 -6z"/>
<path d="M2593 5932 c-19 -12 -17 -488 2 -496 8 -3 82 -5 166 -5 83 0 153 -2
155 -4 2 -2 5 -77 6 -168 l3 -164 83 -3 82 -3 0 256 0 255 -85 0 -85 0 0 85 0
85 -85 0 -85 0 0 85 0 85 -72 0 c-40 0 -78 -4 -85 -8z"/>
<path d="M2932 5928 c-7 -7 -12 -40 -12 -80 l0 -68 85 0 85 0 0 80 0 80 -73 0
c-43 0 -78 -5 -85 -12z"/>
<path d="M3277 5254 c-4 -4 -7 -43 -7 -86 l0 -79 83 3 82 3 0 80 0 80 -75 3
c-42 1 -79 0 -83 -4z"/>
<path d="M3950 5175 l0 -86 83 3 82 3 3 83 3 82 -86 0 -85 0 0 -85z"/>
<path d="M5830 4495 l0 -85 -249 0 c-189 0 -251 -3 -259 -13 -7 -8 -11 -150
-11 -425 l0 -412 85 0 84 0 0 -85 c0 -95 7 -88 -87 -85 -72 2 -83 -11 -83 -99
l0 -71 85 0 85 0 1 -85 c0 -47 0 -128 0 -180 0 -52 0 -131 0 -175 l-1 -80 -69
0 c-101 0 -101 0 -101 -85 0 -55 4 -74 15 -78 8 -4 84 -6 170 -6 l155 0 0 169
0 170 90 0 89 0 3 -82 3 -83 243 -2 242 -2 0 169 0 170 -74 0 -75 0 -3 85 c-2
47 -2 126 0 175 l3 90 75 0 74 0 0 86 0 86 -77 -2 c-43 -1 -117 -2 -165 -1
l-88 1 0 85 0 85 -85 0 -85 0 0 85 0 86 -82 -3 -83 -3 -3 -82 -3 -83 -84 0
-85 0 0 85 0 85 85 0 85 0 0 170 0 170 90 0 90 0 0 -170 0 -170 80 0 80 0 0
170 0 170 90 0 90 0 0 -85 0 -85 75 0 75 0 0 85 0 85 -75 0 -75 0 -1 78 c-1
42 0 109 1 149 3 121 15 113 -176 113 l-164 0 0 -85z m0 -1190 l0 -85 85 0 85
0 0 -90 0 -90 -175 0 -175 0 0 175 0 175 90 0 90 0 0 -85z"/>
<path d="M6000 3815 l0 -85 85 0 85 0 0 69 c0 102 1 101 -91 101 l-79 0 0 -85z"/>
<path d="M4983 3375 c-8 -9 -13 -42 -13 -85 l0 -70 85 0 85 0 0 83 0 84 -72 1
c-51 0 -77 -3 -85 -13z"/>
<path d="M4970 2961 c0 -60 4 -80 15 -84 8 -4 84 -6 170 -6 l155 0 0 84 0 85
-170 0 -170 0 0 -79z"/>
<path d="M4982 2521 c-9 -5 -12 -29 -10 -82 l3 -74 83 -3 82 -3 0 86 0 85 -72
0 c-40 0 -79 -4 -86 -9z"/>
<path d="M5837 2353 c-4 -3 -7 -80 -7 -170 l0 -163 85 0 85 0 0 -85 0 -86 83
3 82 3 1 85 c1 47 2 122 3 168 l1 82 75 0 75 0 0 85 0 86 -72 -3 -73 -3 -3
-82 -3 -83 -89 0 -90 0 0 85 0 85 -73 0 c-41 0 -77 -3 -80 -7z"/>
<path d="M3957 2013 c-4 -3 -7 -80 -7 -169 l0 -163 -82 -3 -83 -3 -3 -82 -3
-83 171 0 170 0 0 255 0 255 -78 0 c-43 0 -82 -3 -85 -7z"/>
<path d="M5830 1765 l0 -85 -78 0 c-47 0 -83 -5 -90 -12 -7 -7 -12 -42 -12
-85 l0 -73 90 0 90 0 0 -170 0 -170 170 0 170 0 0 69 c0 103 2 101 -96 101
l-84 0 0 85 0 85 165 0 165 0 0 85 0 85 -165 0 -165 0 0 85 0 85 -80 0 -80 0
0 -85z"/>
<path d="M3956 1324 c-3 -9 -6 -85 -6 -170 l0 -154 85 0 85 0 0 -85 0 -85 85
0 85 0 0 170 0 170 -85 0 -85 0 0 85 0 85 -79 0 c-63 0 -80 -3 -85 -16z"/>
<path d="M4983 1325 c-10 -10 -13 -76 -13 -255 l0 -240 255 0 255 0 0 255 0
255 -242 0 c-197 -1 -245 -3 -255 -15z m327 -240 l0 -85 -85 0 -85 0 0 85 0
85 85 0 85 0 0 -85z"/>
<path d="M5664 1156 c-8 -9 -12 -88 -13 -255 l0 -241 89 0 90 0 0 -85 0 -85
245 0 245 0 0 170 0 170 -69 0 c-81 0 -81 0 -81 -101 l0 -69 -40 -1 c-22 0
-53 -1 -70 -1 -77 0 -70 -17 -70 172 l0 170 -85 0 -85 0 0 85 0 85 -72 0 c-47
-1 -77 -5 -84 -14z"/>
<path d="M190 570 l0 -430 430 0 430 0 0 430 0 430 -430 0 -430 0 0 -430z
m690 0 l0 -260 -260 0 -260 0 0 260 0 260 260 0 260 0 0 -260z"/>
<path d="M4987 645 c-13 -10 -17 -29 -17 -89 l0 -76 -170 0 -170 0 0 -80 0
-80 255 0 255 0 0 -84 c0 -99 -1 -99 113 -96 40 1 107 2 150 1 l77 -1 0 -70 0
-70 85 0 85 0 0 155 0 155 -170 0 -170 0 0 175 0 174 -153 -1 c-103 -1 -159
-5 -170 -13z"/>
<path d="M5837 303 c-4 -3 -7 -73 -7 -155 l0 -148 80 0 80 0 0 155 0 155 -73
0 c-41 0 -77 -3 -80 -7z"/>
<path d="M6174 297 c-3 -8 -4 -45 -2 -83 l3 -69 73 -3 72 -3 0 86 0 85 -70 0
c-50 0 -72 -4 -76 -13z"/>
<path d="M1567 133 c-4 -3 -7 -35 -7 -70 l0 -63 85 0 85 0 0 70 0 70 -78 0
c-43 0 -82 -3 -85 -7z"/>
<path d="M1907 133 c-4 -3 -7 -35 -7 -70 l0 -63 85 0 85 0 0 70 0 70 -78 0
c-43 0 -82 -3 -85 -7z"/>
<path d="M3107 134 c-4 -4 -7 -36 -7 -71 l0 -63 255 0 256 0 -3 68 -3 67 -246
3 c-135 1 -248 -1 -252 -4z"/>
<path d="M4467 133 c-4 -3 -7 -35 -7 -70 l0 -63 85 0 85 0 0 70 0 70 -78 0
c-43 0 -82 -3 -85 -7z"/>
</g>
</svg>
