<svg version="1.1" x="0px" y="0px" width="355px"
	 height="158px" viewBox="0 0 355 158" enable-background="new 0 0 355 158" xml:space="preserve">
<g id="dog-size">
	<g id="_x34_">
	<g>
		<path fill="#313131" d="M2.161,115.875c5.978-7.8,12.251-15.795,18.817-23.984c6.563-8.19,13.163-16.445,19.792-24.766
			C47.4,58.807,53.996,50.55,60.562,42.36c6.563-8.19,12.836-16.185,18.817-23.985V96.57h19.305v19.305H79.38v32.76H59.295v-32.76
			H2.161z M59.295,72.585c-1.042,1.301-2.407,3.022-4.095,5.167c-1.691,2.145-3.413,4.387-5.168,6.729
			c-1.755,2.34-3.479,4.615-5.167,6.824c-1.691,2.213-2.992,3.967-3.9,5.266h18.33V72.585z"/>
	</g>
	<g>
		<path fill="#313131" d="M255.678,115.875c5.979-7.8,12.252-15.795,18.817-23.984c6.563-8.19,13.163-16.445,19.792-24.766
			c6.63-8.318,13.227-16.575,19.792-24.765c6.563-8.19,12.836-16.185,18.817-23.985V96.57h19.305v19.305h-19.305v32.76h-20.086
			v-32.76H255.678z M312.813,72.585c-1.041,1.301-2.406,3.022-4.095,5.167c-1.69,2.145-3.413,4.387-5.168,6.729
			c-1.755,2.34-3.479,4.615-5.167,6.824c-1.691,2.213-2.992,3.967-3.9,5.266h18.33V72.585z"/>
	</g>
</g>
<g id="shadow_1_">

	<g id="shadow">
		<ellipse opacity="0.2" fill="#231F20" enable-background="new    " cx="183.84" cy="152.034" rx="45.389" ry="3.517"/>
	</g>
</g>
<g id="body-dog">
	<g id="leg-top">
		<g>
			<path fill="#CCBFAA" stroke="#231F20" stroke-linecap="round" stroke-linejoin="round" stroke-miterlimit="10" d="
				M154.947,48.796c0,0-7.053,2.584-9.578-7.222c1.558,0.27,5.063,0.615,4.046-2.413c-1.016-3.028-3.21-2.274-3.766-1.262
				c0.105-2.228-1.135-7.347-3.757-5.299c-16.083,12.564-0.55,10.371-0.55,10.371s0.541,10.884,7.389,11.813
				C156.858,55.883,154.947,48.796,154.947,48.796z"/>
			<path opacity="0.3" fill="#231F20" enable-background="new    " d="M141.763,43.089c0,0,2.342,8.604,7.814,9.28
				c-0.612,0.772-1.674,2.028-1.674,2.028S141.627,53.166,141.763,43.089z"/>
			<path fill="#EDEDED" stroke="#231F20" stroke-linecap="round" stroke-linejoin="round" stroke-miterlimit="10" d="
				M154.249,27.205c0,0,1.751-0.946,1.19-3.327c-0.56-2.381-2.756-2.383-5.639-0.771c-3.222,1.803-1.295,4.728,0.175,5.708
				c-1.471,1.821-15.269,13.098-18.351,18.632c-2.032,0.07-4.694-1.681-5.604,1.261s1.191,5.743,4.693,3.992
				c0.49,1.961,0.49,4.551,3.853,3.711c3.362-0.839,5.202-3.528,1.375-6.643c1.636-2.112,8.081-11.39,16.696-18.117
				c2.171,1.503,5.762,2.679,6.689-1.418C160.673,24.29,154.249,27.205,154.249,27.205z"/>
			<path opacity="0.3" fill="#231F20" enable-background="new    " d="M134.238,44.534c0,0,2.521,2.108,5.122-1.021
				c0.896-1.145,0.788-2.026,0.788-2.026s2.259-0.131,2.968-2.601c0.709-0.446,2.697-1.009,2.609-3.958
				c-0.14-1.188-0.508-1.489-0.508-1.489L134.238,44.534z"/>
			<path fill="#CCBFAA" stroke="#231F20" stroke-linecap="round" stroke-linejoin="round" stroke-miterlimit="10" d="
				M133.531,42.249c0,0,1.495,2.837,3.99,1.103c2.498-1.735,0.804-3.838-0.289-4.625C135.649,37.584,131.457,37.609,133.531,42.249z
				"/>
			<path fill="#CCBFAA" stroke="#231F20" stroke-linecap="round" stroke-linejoin="round" stroke-miterlimit="10" d="
				M143.531,32.138c0,0,2.947,1.265,1.417,3.89c-1.531,2.628-3.761,1.106-4.634,0.08C139.05,34.621,138.741,30.439,143.531,32.138z"
				/>
			<path opacity="0.3" fill="#231F20" enable-background="new    " d="M140.612,32.369c0,0-0.602,2.244,1.185,3.216
				s2.906-0.04,3.149-0.42c-0.079,0.525-1.414,3.494-3.898,1.813C140.533,36.583,138.143,33.46,140.612,32.369z"/>
			<path fill="#CCBFAA" stroke="#231F20" stroke-linecap="round" stroke-linejoin="round" stroke-miterlimit="10" d="M135.922,37.95
				c0,0,2.126,3.814,4.761,1.984c2.636-1.832,0.74-4.448-0.413-5.28C138.6,33.45,133.815,33.769,135.922,37.95z"/>
			<path opacity="0.3" fill="#231F20" enable-background="new    " d="M134.211,38.56c0,0-0.602,2.244,1.185,3.216
				c1.786,0.972,2.906-0.04,3.149-0.42c-0.079,0.525-1.414,3.493-3.898,1.813C134.132,42.774,131.742,39.651,134.211,38.56z"/>
			<path opacity="0.3" fill="#231F20" enable-background="new    " d="M136.495,34.678c0,0-1.055,2.021,1.539,3.565
				c1.747,1.042,3.395-0.026,3.638-0.407c0.289,0.724-1.521,3.689-4.005,2.008C137.151,39.449,134.025,35.769,136.495,34.678z"/>
			<path opacity="0.3" fill="#231F20" enable-background="new    " d="M135.998,50.128c0,0,2.057,3.003-0.254,3.774
				c-1.712,0.571-3.132,0.889-3.515-1.646c-0.21-1.392-1.825-0.932-1.825-0.932s-3.271,1.458-3.428-0.867
				c-0.2-2.961,2.272-3.034,2.272-3.034c-0.814-0.158-2.863-0.867-3.205,2.154c-0.341,3.021,1.453,3.649,1.921,3.584
				c0.468-0.065,2.75-0.46,2.75-0.46s0.583,2.919,1.5,3.39c0.917,0.471,3.126,1.156,5.989-2.285
				C138.65,53.359,136.943,50.654,135.998,50.128z"/>
			<path opacity="0.3" fill="#231F20" enable-background="new    " d="M158.863,27.552c0,0-0.026,3.296-1.773,3.979
				c-1.248,0.488-3.217,0.207-4.325-0.254c0,0.254,0.519,0.566,0.519,0.566s4.139,2.754,5.365-0.368
				C159.874,28.354,158.863,27.552,158.863,27.552z"/>
			<path opacity="0.3" fill="#231F20" enable-background="new    " d="M145.27,38.808c0,0-0.438,4.176-3.568,4.281
				C141.725,42.38,144.429,39.202,145.27,38.808z"/>
		</g>
	</g>
	<g id="body">
		<path fill="#FFFFFF" stroke="#231F20" stroke-linecap="round" stroke-linejoin="round" stroke-miterlimit="10" d="M193.184,5.757
			c0,0-3.961-0.456-4.633,3.492c-0.672,3.947,1.674,6.122,3.676,6.766s6.061-0.598,6.736-3.693
			C199.639,9.229,198.205,5.685,193.184,5.757"/>
		<path fill="#CCBFAA" stroke="#231F20" stroke-linecap="round" stroke-linejoin="round" stroke-miterlimit="10" d="M179.439,32.492
			c0,0-27.122,4.896-41.374,40.436c-14.253,35.542-5.496,70.329,20.687,77.573c26.183,7.245,68.854,8.663,78.338-33.511
			c9.482-42.173-20.131-80.964-30.179-84.357C196.865,29.24,179.439,32.492,179.439,32.492z"/>

			<path fill="#8E7C75" stroke="#231F20" stroke-width="0.5" stroke-linecap="round" stroke-linejoin="round" stroke-miterlimit="10" d="
			M135.668,79.953c0,0,6.516-0.413,6.429,4.566c1.804-1.976,4.98-3.435,7.211,0c2.232,3.434-3.434,6.095-3.949,8.756
			c-0.515,2.66,2.06,2.832,2.661,4.377c0.601,1.546,1.46,4.035-1.459,5.494c-2.918,1.459-6.01,0.688-5.837,4.336
			c0.172,3.648-1.589,10.472-8.349,10.966C131.269,112.418,129.393,96.537,135.668,79.953z"/>

			<path fill="#8E7C75" stroke="#231F20" stroke-width="0.5" stroke-linecap="round" stroke-linejoin="round" stroke-miterlimit="10" d="
			M235.548,122.623c0,0-6.229,4.046-8.891,1.898c-2.662-2.145-6.954-4.832-8.671-0.957c-1.975-1.274-6.01-4.192-8.327-0.846
			c-2.318,3.348-0.859,7.641,3.433,8.156s1.289,6.695-1.63,5.494c-2.919-1.202-5.323,0.326-6.267,3.982
			c-3.092-0.291-9.481,2.795-8.131,13.356c2.273-0.364,12.351-1.002,22.432-8.44C222.342,143.508,232.917,134.205,235.548,122.623z"
			/>
		<path opacity="0.3" fill="#231F20" enable-background="new    " d="M209.745,35.734c0,0-9.526,7.501-21.153,3.543
			c-8.541-2.907-13.833-5.391-9.596-8.36c1.373-1.632,1.303-1.169,1.303-1.169S194.089,39.422,209.745,35.734z"/>
		<path opacity="0.3" fill="#231F20" enable-background="new    " d="M164.258,39.278c0,0-36.093,28.713-26.337,79.17
			c6.151,32.429,35.931,35.13,35.931,35.13s-31.521,0.707-40.265-30.014C124.843,92.845,139.977,56.104,164.258,39.278z"/>
		<path fill="#CCBFAA" stroke="#231F20" stroke-linecap="round" stroke-linejoin="round" stroke-miterlimit="10" d="M196.697,12.524
			c0,0-13.393-1.491-18.801-3.68c-5.408-2.188-12.678,5.124-7.511,14.944c5.167,9.821,20.752,13.702,23.393,14.371
			c1.933,0.49,18.715,2.527,20.175-11.012c-0.345-4.868,0.81-7.615-0.454-12.68c-1.264-5.065-7.408-8.503-14.57-6.013
			C199.357,12.665,196.697,12.524,196.697,12.524z"/>
		<path opacity="0.3" fill="#231F20" enable-background="new    " d="M196.225,13.908c0,0-1.481,5.818,3.605,8.65
			c4.094,2.281,9.555-2.446,9.554-4.635C206.977,18.824,197.576,18.004,196.225,13.908z"/>
		<path fill="#FFFFFF" stroke="#231F20" stroke-linecap="round" stroke-linejoin="round" stroke-miterlimit="10" d="M202.32,9.221
			c0,0-4.713-0.542-5.512,4.155c-0.8,4.697,1.99,7.285,4.373,8.052c2.383,0.766,7.211-0.712,8.016-4.394
			C210.002,13.352,208.296,9.135,202.32,9.221"/>
		<path opacity="0.3" fill="#231F20" enable-background="new    " d="M171.93,13.171c0,0-3.903,4.237,1.922,13.959
			c-0.484,0.579-0.484,0.579-0.484,0.579s-8.112-7.893-2.447-16.47C171.887,11.807,171.93,13.171,171.93,13.171z"/>
		<path fill="#CCBFAA" stroke="#231F20" stroke-linecap="round" stroke-linejoin="round" stroke-miterlimit="10" d="M211.852,16.497
			c0,0,4.19-4.968,7.582-1.084c3.394,3.884,7.701,9.723,5.584,18.717c-1.518,5.475-5.658,4.029-7.086,0.177
			c-1.837-4.96-1.318-20.509-7.084-13.659"/>
		<path fill="#5B524F" stroke="#231F20" stroke-linecap="round" stroke-linejoin="round" stroke-miterlimit="10" d="M167.831,9.193
			c0,0,0.075,3.814,3.401,3.69c2.012,0.231,2.981,1.017,2.981,1.017s0.736-2.398,2.561-2.965c2.042-0.635,3.343-4.004,0.061-5.075
			C173.551,4.788,167.618,5.603,167.831,9.193z"/>
		<path fill="#CCBFAA" stroke="#231F20" stroke-linecap="round" stroke-linejoin="round" stroke-miterlimit="10" d="M174.884,26.108
			c0,0-3.007-0.227-3.065,1.771c-0.09,3.106,2.587,2.802,3.906,2.82c-2.725-0.027-3.66,3.535-0.606,4.887
			c1.852,0.819,4.824-1.927,5.596-3.748"/>
		<circle fill="#231F20" cx="202.749" cy="14.902" r="0.995"/>
		<circle fill="#231F20" cx="193.157" cy="9.975" r="0.854"/>
		<path fill="#231F20" d="M174.207,11.571c0,0-1.057-2.515,0.356-2.643c1.414-0.127,1.405,0.853,1.405,0.853
			S174.183,10.822,174.207,11.571z"/>

			<path fill="none" stroke="#231F20" stroke-width="0.5" stroke-linecap="round" stroke-linejoin="round" stroke-miterlimit="10" d="
			M195.709,20.112c0,0,0.703,4.125,5.408,4.528c3.38,0.29,5.408-1.662,5.408-1.662"/>

			<path fill="none" stroke="#231F20" stroke-width="0.5" stroke-linecap="round" stroke-linejoin="round" stroke-miterlimit="10" d="
			M197.705,25.831c3.182,2.369,6.889,0.269,6.889,0.269"/>

			<path fill="none" stroke="#231F20" stroke-width="0.5" stroke-linecap="round" stroke-linejoin="round" stroke-miterlimit="10" d="
			M212.835,11.871c0,0,3.03-2.31,5.378-1.831"/>

			<path fill="none" stroke="#231F20" stroke-width="0.5" stroke-linecap="round" stroke-linejoin="round" stroke-miterlimit="10" d="
			M211.677,10.483c0,0,2.253-1.639,2.062-3.699"/>

			<path fill="none" stroke="#231F20" stroke-width="0.5" stroke-linecap="round" stroke-linejoin="round" stroke-miterlimit="10" d="
			M210.453,9.202c0,0,1.224-1.363-0.236-2.725"/>
		<path fill="none" stroke="#231F20" stroke-linecap="round" stroke-linejoin="round" stroke-miterlimit="10" d="M191.361,2.792
			c0,0,2.174-2.318,4.349,0.559"/>
		<path fill="none" stroke="#231F20" stroke-linecap="round" stroke-linejoin="round" stroke-miterlimit="10" d="M203.027,5.046
			c0,0,2.174-2.318,4.348,0.558"/>
		<path fill="#CCBFAA" stroke="#231F20" stroke-linecap="round" stroke-linejoin="round" stroke-miterlimit="10" d="M184.377,63.314
			c0,0-17.642,1.674-22.946,18.156c-4.03,12.523-2.5,19.831-1.641,26.011"/>
		<path fill="#CCBFAA" stroke="#231F20" stroke-linecap="round" stroke-linejoin="round" stroke-miterlimit="10" d="
			M163.001,117.398c0,0,5.795,13.648,25.625,12.232"/>

			<path fill="#8E7C75" stroke="#231F20" stroke-width="0.5" stroke-linecap="round" stroke-linejoin="round" stroke-miterlimit="10" d="
			M215.889,39.815c0,0-1.623,4.699-4.398,5.857c-2.775,1.159-6.251,3.477-4.965,6.954c-2.446,2.061-3.385,6.31-0.275,8.627
			s8.002-1.416,10.191,2.061c2.188,3.477,6.781,1.63,8.584-0.859c1.803-2.489,3.941-2.945,4.433-1.912
			C227.779,57.22,223.137,47.733,215.889,39.815z"/>

			<path fill="#8E7C75" stroke="#231F20" stroke-width="0.5" stroke-linecap="round" stroke-linejoin="round" stroke-miterlimit="10" d="
			M144.349,74.356c0,0-1.934,1.232-0.731,3.124c1.204,1.891,3.438,0.73,3.825-0.301C147.83,76.147,146.971,72.795,144.349,74.356z"
			/>

			<path fill="#8E7C75" stroke="#231F20" stroke-width="0.5" stroke-linecap="round" stroke-linejoin="round" stroke-miterlimit="10" d="
			M200.048,48.589c0,0-1.579,1.007-0.597,2.55s2.807,0.596,3.122-0.246C202.889,50.05,202.188,47.315,200.048,48.589z"/>
		<path opacity="0.3" fill="#231F20" enable-background="new    " d="M213.438,18.422c0,0,2.36-0.413,3.604,3.768
			c1.06,3.558,1.803,16.998,6.868,13.544c0.131,0.609-2.404,4.917-5.151-0.277C216.868,31.808,216.859,19.667,213.438,18.422z"/>
		<path fill="#9D9795" d="M176.864,7.094c0,0,0.833,0.414,0.555,1.029c-0.278,0.617-0.364-0.22-0.88-0.544
			C176.023,7.255,175.751,6.579,176.864,7.094z"/>
		<path opacity="0.3" fill="#231F20" enable-background="new    " d="M174.221,31.653c0,0-1.224,2.253,1.577,2.221
			c1.845-0.021,2.753-1.078,4.62-2.398c-0.162,0.612-2.962,5.215-5.537,3.573C172.305,33.408,174.221,31.653,174.221,31.653z"/>
		<path fill="#CCBFAA" stroke="#231F20" stroke-linecap="round" stroke-linejoin="round" stroke-miterlimit="10" d="M206.504,94.863
			c0,0,4.985,13.5-3.859,24.466"/>

			<path fill="#8E7C75" stroke="#231F20" stroke-width="0.5" stroke-linecap="round" stroke-linejoin="round" stroke-miterlimit="10" d="
			M182.042,10.094c0,0,0.897,0.219-0.052,2.494c-0.682,1.634,2.627,4.33,4.256,1.341c-0.153,1.961,0.473,4.18,3.415,3.76
			c2.207-0.315,2.853-2.156,2.644-3.781c-0.211-1.626-1.215-2.129-1.215-2.129l0,0C188.302,11.362,184.927,10.787,182.042,10.094
			L182.042,10.094z"/>
	</g>
	<g id="leg-bottom">
		<g>
			<path fill="#CCBFAA" stroke="#231F20" stroke-linecap="round" stroke-linejoin="round" stroke-miterlimit="10" d="
				M141.023,124.426c0,0-8.967,3.219-14.872,4.121c0.02,6.311,0,7.855,0,7.855s9.901-4.485,16.658-8.045"/>
			<path fill="#CCBFAA" stroke="#231F20" stroke-linecap="round" stroke-linejoin="round" stroke-miterlimit="10" d="
				M127.85,124.766c0,0,3.329,12.924-2.652,14.854c-5.981,1.931-10.945,0.008-11.167-5.726c-0.222-5.734,0.222-5.605,0-7.795
				c1.13,0.192,1.774-0.58,1.774-0.58s-2.211,1.416-3.606,0c-1.395-1.416-2.447-4.729,0.708-5.037
				c3.155-0.307,3.348,0.209,3.734,1.689c-0.128-1.395,0.044-3.208,3.048-3.412c2.768-0.188,3.396,1.751,3.2,3.477
				c-0.344-2.244,0.206-4.828,2.809-4.893C127.695,117.293,132.223,119.361,127.85,124.766z"/>
			<path fill="#CCBFAA" stroke="#231F20" stroke-linecap="round" stroke-linejoin="round" stroke-miterlimit="10" d="
				M116.642,122.172c0,0,0.082,3.653,3.937,2.567"/>
			<path fill="#CCBFAA" stroke="#231F20" stroke-linecap="round" stroke-linejoin="round" stroke-miterlimit="10" d="
				M122.89,122.236c0,0,0.062,1.609,1.864,2.189"/>
			<path opacity="0.3" fill="#231F20" enable-background="new    " d="M114.41,120.691c0,0-2.924,0.302-1.663,3.127
				c0.735,1.648,1.535,2.109,3.058,1.701c-0.236,0.967-0.181,8.81,0.579,10.881c0.944,2.576,3.219,3.563,4.55,3.605
				c-2.146-0.215-5.495,0.129-6.568-5.064c-0.374-2.188-0.077-8.82-0.077-8.82s-2.026,0.535-2.885-1.182
				C110.545,123.223,110.032,120.436,114.41,120.691z"/>

				<path fill="none" stroke="#231F20" stroke-width="0.5" stroke-linecap="round" stroke-linejoin="round" stroke-miterlimit="10" d="
				M122.179,136.402c0,0,2.511-1.599,1.996-4.469"/>
		</g>
	</g>
	<g id="leg-top-left">
		<g>
			<path opacity="0.3" fill="#231F20" enable-background="new    " d="M224.052,75.676c0,0-0.915,3.605-4.005,5.408
				c-3.091,1.803-7.984,3.541-7.984,4.313c0.645,0.646,1.804,3.606,0,4.379c-1.803,0.772-4.313,0-4.313,0s-0.822,2.511-3.469,1.16
				c-2.647-1.353-2.647-2.641-2.647-2.641s-1.225,1.738-2.705,0.9c-1.479-0.836-4.479-5.293,0.967-8.498
				C204.145,79.925,219.495,77.608,224.052,75.676z"/>
			<path fill="#CCBFAA" stroke="#231F20" stroke-linecap="round" stroke-linejoin="round" stroke-miterlimit="10" d="
				M220.113,67.191c0,0-3.252,9.525-9.99,10.756c-0.389-1.166,1.23-3.24-1.814-3.499c-3.045-0.259-4.316,0.907-2.969,3.045
				c-1.502-0.324-5.369-1.685-6.027,0.842c-0.657,2.526-0.609,4.332,1.246,3.494c1.854-0.837,2.631-0.384,2.631-0.384
				s-2.806-0.551-3.877,2.268c-0.642,1.684,0.549,2.877,1.897,2.902c2.032,0.037,2.401-0.611,3.377-2.189
				c-1.244,1.313-1.786,3.272,0.287,4.18c2.073,0.906,6.884-1.231,4.099-3.209c0.859-2.646,3.631-3.455,4.791-3.991
				c1.174-0.544,5.299-0.847,10.288-6.137"/>
		</g>
	</g>
	<g id="leg-bottom-right">
		<g>
			<path fill="#8E7C75" stroke="#231F20" stroke-linecap="round" stroke-linejoin="round" stroke-miterlimit="10" d="
				M226.059,129.329c0,0,10.014,4.96,15.069,5.073c-0.772,2.217,0.019,5.867,0.019,5.867s-8.875-1.639-15.98-7.064"/>
			<path fill="#CCBFAA" stroke="#231F20" stroke-linecap="round" stroke-linejoin="round" stroke-miterlimit="10" d="
				M239.335,127.705c0,0-3.649,13.384,2.136,15.842c4.49,1.908,9.817-1.211,10.78-5.477c1.267-5.598,0.298-5.602,0.722-7.76
				c-1.144,0.086-1.713-0.742-1.713-0.742s1.766,1.313,3.285,0.031c1.52-1.283,1.557-3.725-0.166-4.318
				c-2.997-1.033-3.123-0.563-3.645,0.877c0.258-1.376,0.255-3.199-2.719-3.68c-2.738-0.442-3.543,1.431-3.509,3.166
				c0.55-2.203,0.241-4.826-2.345-5.131C240.182,120.277,235.48,121.918,239.335,127.705z"/>
			<path opacity="0.3" fill="#231F20" enable-background="new    " d="M243.654,130.796c0,0-2.168,3.804-1.512,7.095
				c0.658,3.293,3.724,2.781,4.364,2.204C245.029,138.366,242.752,134.355,243.654,130.796z"/>

				<path fill="none" stroke="#231F20" stroke-width="0.5" stroke-linecap="round" stroke-linejoin="round" stroke-miterlimit="10" d="
				M243.825,130.361c0,0-5.777,11.753,3.356,9.681"/>
			<path fill="none" stroke="#231F20" stroke-linecap="round" stroke-linejoin="round" stroke-miterlimit="10" d="M250.734,126.158
				c0,0-0.975,4.443-2.982,4.078c-1.531-0.279-1.986-1.014-1.986-1.014"/>
			<path fill="none" stroke="#231F20" stroke-linecap="round" stroke-linejoin="round" stroke-miterlimit="10" d="M241.079,127.741
				c0,0,3.235,0.31,3.429-2.097"/>
		</g>
	</g>
</g>
	</g>
</svg>