<svg version="1.1" id="Слой_1" x="0px" y="0px"
	 width="314.333px" height="208.75px" viewBox="51.598 0 314.333 208.75" enable-background="new 51.598 0 314.333 208.75"
	 xml:space="preserve">
	<g id="neanderthal-size">
<g id="back">
	<path opacity="0.2" fill="#231F20" enable-background="new    " d="M301.429,204.045c0,0-4.408,0.16-5.683,1.211
		c-0.811,0.67,0.394,1.718,4.143,1.883c2.539,0.111,4.097,0.02,4.097,0.02s6.246-1.063,3.207-2.261
		C304.01,203.644,301.429,204.045,301.429,204.045z"/>
	<path opacity="0.2" fill="#231F20" enable-background="new    " d="M129.754,181.736c0,0-22.647,1.804-25.228,2.862
		c-2.58,1.059,0.382,3.093,9.46,3.1c9.079,0.006,38.773,0,38.773,0s20.354-1.846,10.894-4.5
		C154.193,180.542,129.754,181.736,129.754,181.736z"/>
	<path fill="#D9D9E2" stroke="#231F20" stroke-linecap="round" stroke-linejoin="round" stroke-miterlimit="10" d="M188.835,148.851
		c-0.736-7.384-2.74-27.063-2.74-27.063s-0.448-6.824-9.647-6.033c-4.055,0.35-6.482,0.285-6.482,0.285s-3.513,0.279-3.362-3.07
		c0.778-17.304-2.702-44.417-2.702-44.417s-1.667-27.348-15.447-29.831c0,0-18.046-6.398-42.72,1.15
		c-10.667,4-20.317,19.115-23.833,24.333c-6.5,9.647-22.723,50.009-27.75,77.309c-2.667,9.376,8.751,20.11,20.174,20.024
		c11.423-0.084,24.66-0.019,24.66-0.019s8.058-0.951,9,8.351c0.833,8.234,1.524,9.768,1.524,9.768s1.308,5.722,7.476,5.722
		s38.215,0,38.215,0s7.311,0.614,7.311-5.942c0-6.556,0-20.709,0-20.709l22.076-1.285
		C184.588,157.42,189.572,156.234,188.835,148.851z M112.312,118.771c-12.75,0.017,0.11-17.389,4.837-19.821
		c4.727-2.432,5.877,8.291,5.877,8.291C124.574,119.01,122.334,118.756,112.312,118.771z"/>
	
		<polyline fill="none" stroke="#231F20" stroke-width="0.5" stroke-linecap="round" stroke-linejoin="round" stroke-miterlimit="10" points="
		91.293,51.398 94.952,58.404 101.619,54.559 100.786,62.738 104.068,60.964 107.036,64.361 	"/>
	<path fill="none" stroke="#231F20" stroke-width="0.5" stroke-linecap="round" stroke-linejoin="round" stroke-miterlimit="10" d="
		M75.39,127.435l-3.051-4.533c0,0-0.77,5.419-3.29,5.782c-1.078-2.605-2.154-4.186-2.154-4.186l-3.691,1.565l-4.568-2.497"/>
	
		<polyline fill="none" stroke="#231F20" stroke-width="0.5" stroke-linecap="round" stroke-linejoin="round" stroke-miterlimit="10" points="
		119.286,118.79 123.619,121.896 119.286,124.706 122.619,125.793 123.619,130.09 128.619,128.984 127.452,137.726 	"/>
	
		<polyline fill="none" stroke="#231F20" stroke-width="0.5" stroke-linecap="round" stroke-linejoin="round" stroke-miterlimit="10" points="
		137.827,185.226 137.202,183.065 139.702,182.099 135.536,180.534 141.702,179.351 138.765,173.476 	"/>
	<path opacity="0.2" fill="#231F20" enable-background="new    " d="M304.563,177.932c0,0-22.646,1.803-25.229,2.861
		c-2.58,1.06,0.383,3.094,9.461,3.101c9.078,0.006,38.772,0,38.772,0s20.354-1.847,10.894-4.501
		C329.002,176.739,304.563,177.932,304.563,177.932z"/>
	<path opacity="0.2" fill="#231F20" enable-background="new    " d="M280.892,188.967c0,0-21.716,1.549-24.296,2.607
		s1.4,3.104,10.428,4.053c12.083,1.271,33.708,0.459,33.708,0.459s3.5,2.313,10.479,2c6.576-0.295,13.771-5.063,3.58-7.66
		C305.27,188.002,280.892,188.967,280.892,188.967z"/>
	<path fill="#D9D9E2" stroke="#231F20" stroke-linecap="round" stroke-linejoin="round" stroke-miterlimit="10" d="M360.57,154.486
		c2.479-8.604,3.606-24.198,3.606-24.198s1.496-8.934-7.731-10.793c-4.438-0.894-12.188-1.769-12.188-1.769s0.06-0.337,0.543-3.656
		c2.502-17.14,1.748-44.464,1.748-44.464s1.072-27.377-12.391-31.225c0,0-17.318-8.169-42.621-3.122
		c-11.015,2.915-22.125,16.991-26.146,21.832c-7.431,8.949-27.604,47.491-35.331,74.152c-3.59,9.063,6.699,20.885,18.074,21.939
		c11.375,1.057,24.537,2.443,24.537,2.443s8.113-0.141,8.121,9.209c0.008,8.275,0.541,9.869,0.541,9.869s0.73,5.824,6.869,6.44
		c6.137,0.616,37.366,0.673,37.366,0.673s8.257,0.537,9.625-5.875c2.226-10.427,0.968-16.771,0.968-16.771l13.657,2.804
		C349.82,161.976,357.82,164.034,360.57,154.486z M290.202,114.422c-12.688-1.256,1.846-17.292,6.793-19.239
		c4.946-1.948,5.021,8.836,5.021,8.836C302.377,115.885,300.174,115.409,290.202,114.422z"/>
	
		<polyline fill="none" stroke="#231F20" stroke-width="0.5" stroke-linecap="round" stroke-linejoin="round" stroke-miterlimit="10" points="
		271.454,49.99 273.594,54.997 280.26,51.151 279.428,59.33 282.709,57.557 285.678,60.954 	"/>
	<path fill="none" stroke="#231F20" stroke-width="0.5" stroke-linecap="round" stroke-linejoin="round" stroke-miterlimit="10" d="
		M254.032,124.027l-3.051-4.532c0,0-0.77,5.418-3.29,5.781c-1.078-2.605-2.153-4.186-2.153-4.186l-3.691,1.566l-4.568-2.498"/>
	
		<polyline fill="none" stroke="#231F20" stroke-width="0.5" stroke-linecap="round" stroke-linejoin="round" stroke-miterlimit="10" points="
		297.928,115.381 302.26,118.489 297.928,121.297 301.26,122.385 302.26,126.683 307.26,125.577 306.094,134.318 	"/>
	
		<polyline fill="none" stroke="#231F20" stroke-width="0.5" stroke-linecap="round" stroke-linejoin="round" stroke-miterlimit="10" points="
		316.469,181.818 315.844,179.659 318.344,178.691 314.178,177.125 320.344,175.943 317.407,170.068 	"/>
	
		<polyline fill="none" stroke="#231F20" stroke-width="0.5" stroke-linecap="round" stroke-linejoin="round" stroke-miterlimit="10" points="
		301.282,98.612 304.445,94.893 304.945,92.403 307.26,96.715 308.32,93.644 311.695,92.403 313.445,90.949 	"/>
	
		<polyline fill="none" stroke="#231F20" stroke-width="0.5" stroke-linecap="round" stroke-linejoin="round" stroke-miterlimit="10" points="
		319.82,87.275 324.695,84.449 325.195,81.976 327.32,84.243 331.57,84.625 328.57,76.323 333.07,79.56 335.32,76.976 
		339.445,77.853 339.445,75.408 343.945,73.099 346.639,75.408 	"/>
	<path fill="#D9D9E2" stroke="#231F20" stroke-linecap="round" stroke-linejoin="round" stroke-miterlimit="10" d="M262.915,193.614
		c0,0-7.254-0.398-4.145-5.313c3.109-4.913,8.883-24.94,27.094-26.899c6.811,5.207,8.439,7.425,15.102,10.511
		s8.734,17.832,8.734,17.832s0.592,5.127-14.064,5.152C280.978,194.924,262.915,193.614,262.915,193.614z"/>
	<path opacity="0.2" fill="#231F20" enable-background="new    " d="M270.358,169.219c0,0-5.165,13.035,0,15.306s18.915,0,18.915,0
		s5.667-2.001,8.75,2.093s10.565-2.093,10.565-2.093s4.281,9.181-8.559,10.183c-9.595,0.148-36.174-1.262-36.174-1.262
		s-7.736-0.059-5.48-4.428C260.633,184.649,267.314,171.965,270.358,169.219z"/>
	<path fill="#D9D9E2" stroke="#231F20" stroke-linecap="round" stroke-linejoin="round" stroke-miterlimit="10" d="M314.024,188.181
		c0,0-4-2.479-8.5-0.101c-4.5,2.381-2.833,6.817-2.833,6.817s3.388,3.17,11.333,0.813
		C323.293,192.961,314.024,188.181,314.024,188.181z"/>
	<path opacity="0.2" fill="#231F20" enable-background="new    " d="M305.607,188.306c0,0-2.155,3.97-0.405,5.142
		c1.75,1.17,7.688,1.764,11.405,0.827c-1.405,0.75-9.375,4.146-13.78,0.463C302.577,192.586,302.793,189.618,305.607,188.306z"/>
	<path fill="#D9D9E2" stroke="#231F20" stroke-linecap="round" stroke-linejoin="round" stroke-miterlimit="10" d="M305.795,200.167
		c0,0-2.051-2.498-5.051-1.629c-3.232,0.938-3.662,4.111-3.662,4.111s-1.545,4.49,7.112,3.244
		C309.036,205.196,305.795,200.167,305.795,200.167z"/>
	<path opacity="0.2" fill="#231F20" enable-background="new    " d="M300.745,198.538c0,0-2.979,2.351-2.084,4.567
		c0.834,2.06,4.187,2.454,7.03,1.95c-1.021,1.124-7.032,2.838-8.651-1.105C296.357,201.317,298.683,199.045,300.745,198.538z"/>
</g>
<g id="body">
	<g>
		<path opacity="0.2" fill="#231F20" enable-background="new    " d="M188.417,183.077c0,0-5.439,0.029-6.833,2
			c-1.375,1.945,0.792,3.369,0.792,3.369s1.419,1.162,2.917,0.799c-0.657,0.689,0.025,6.305,6.09,4.68
			c5.503-1.475,6.105-3.848,11.253-4.379c5.148-0.53,14.073-3.01,22.417-0.258c4.744,1.094,8.197,2.039,8.197,2.039
			s4.201,3.092,7.209,2.375c4.771-1.137,3.957-3.844,3.957-3.844s3.345,0.25,4.25-2.236c0.574-1.572,0.406-2.42-0.905-3.67
			s-6.941-1.375-6.941-1.375s-26.778-1.25-35.653-0.875C196.292,182.077,188.417,183.077,188.417,183.077z"/>
		<path fill="#EDE9D6" stroke="#231F20" stroke-linecap="round" stroke-linejoin="round" stroke-miterlimit="10" d="
			M232.956,156.831c0,0-0.197,6.08-0.447,11.164c-0.168,3.42-0.116,11.641-0.116,11.641s5.015,1.22,7.7,1.109
			c2.545-0.104,4.182-0.121,4.182-0.121s3.943-0.982,3.234,2.049c-0.666,1.5-2.965,1.234-2.965,1.234s3.338-0.127,3.215,1.702
			c-0.156,2.313-2.75,3.438-4.813,2.313c1.328,0.504,0.938,3.25-1.437,4.168c-2.715,1.051-5-0.416-6-1.584
			c-1.834-1.166-7.215-2.25-8.75-2.25c-1.364,0-5.438-0.567-4.813-5.053c0.938-2.688,2.224-3.344,2.224-3.344
			s0.498-10.488-0.502-21.906C225.667,156.786,232.956,156.831,232.956,156.831z"/>
		<path fill="#EDE9D6" stroke="#231F20" stroke-linecap="round" stroke-linejoin="round" stroke-miterlimit="10" d="M242.945,187.92
			c0,0-0.938-0.666-2.125-0.594"/>
		<path fill="#EDE9D6" stroke="#231F20" stroke-linecap="round" stroke-linejoin="round" stroke-miterlimit="10" d="
			M197.345,156.831c0,0,0.197,6.08,0.447,11.164c0.168,3.42,0.116,11.641,0.116,11.641s-5.014,1.22-7.7,1.109
			c-2.545-0.104-4.182-0.121-4.182-0.121s-3.943-0.982-3.235,2.049c0.667,1.5,2.813,1.213,2.813,1.213s-3.186-0.105-3.063,1.724
			c0.156,2.313,2.75,3.438,4.813,2.313c-1.328,0.504-0.938,3.25,1.437,4.168c2.714,1.051,5-0.416,6-1.584
			c1.833-1.166,7.214-2.25,8.75-2.25c1.364,0,5.438-0.567,4.813-5.053c-0.938-2.688-2.094-3.217-2.094-3.217
			s-0.094-10.74,0.906-22.158C205.167,156.661,197.345,156.831,197.345,156.831z"/>
		<path fill="#E8A358" stroke="#231F20" stroke-linecap="round" stroke-linejoin="round" stroke-miterlimit="10" d="M182.54,125.952
			c0,0,1.315,28.625,1.565,39.875c2.813-4,4.339-6,4.339-6l6.25,8.5l6.5-8.5l4.5,7l5.477-5.75l5.523,7.25l6.25-9l5.766,6.5l4.984-8
			l6.217,7.875l3.035-7.75l3.848,5.875c0,0-0.375-30.875-0.625-43.75c-0.246-12.602-10.975-18.25-22.975-22.75s-19.5,0-19.5,0
			S185.54,102.952,182.54,125.952z"/>
		
			<path fill="#595556" stroke="#231F20" stroke-width="0.5" stroke-linecap="round" stroke-linejoin="round" stroke-miterlimit="10" d="
			M205.271,141.202c0,0-2.063,5.25,1.063,6.625s4.25-0.716,4.25-0.716s1.192,1.904,2.752,1.529c1.56-0.375,3.127-3.233,0-6.806
			C209.771,141.64,205.271,141.202,205.271,141.202z"/>
		
			<path fill="#595556" stroke="#231F20" stroke-width="0.5" stroke-linecap="round" stroke-linejoin="round" stroke-miterlimit="10" d="
			M183.855,148.327c0,0,3.688,0.021,3.938-3.572c2.417,0.322,4.583-1.094,4.5-5.01c-1.833-0.834-8.788-4.402-8.788-4.402
			L183.855,148.327z"/>
		
			<path fill="#595556" stroke="#231F20" stroke-width="0.5" stroke-linecap="round" stroke-linejoin="round" stroke-miterlimit="10" d="
			M224.125,142.995c0,0,0.5,7.082,5.168,5.332c4.666-1.75,6.25-1.416,7.25,0c1,1.418,6.039,0.934,4.916-3.572
			c0.709,0.322,3.645,2.521,5.037-1.989c-0.025-1.83-0.232-8.513-0.232-8.513L224.125,142.995z"/>
		<path opacity="0.3" fill="#231F20" enable-background="new    " d="M183.292,135.342v7.234c0,0,13.171,7.281,32.835,6.891
			c19.664-0.389,30.35-7.633,30.35-7.633l-0.214-7.582C246.263,134.252,217.625,143.857,183.292,135.342z"/>
		<path fill="#EDE9D6" stroke="#231F20" stroke-linecap="round" stroke-linejoin="round" stroke-miterlimit="10" d="M187.355,187.92
			c0,0,0.938-0.666,2.125-0.594"/>
		<path fill="#F4F2E6" stroke="#231F20" stroke-width="0.5" stroke-miterlimit="10" d="M240.875,186.983
			c0,0-1.334,0.167-2.293,1.333c-0.896,1.208,1.709,1.792,1.709,1.792s1.354-2.125,2.955-1.833
			C243.016,187.827,242.104,187.165,240.875,186.983z"/>
		<path fill="#F4F2E6" stroke="#231F20" stroke-width="0.5" stroke-miterlimit="10" d="M189.129,187.025
			c0,0,2.749-0.155,2.176,1.781c-0.729,1.239-1.825,1.125-1.825,1.125s-1.33-1.423-2.6-1.476
			C187.109,188.006,187.355,187.336,189.129,187.025z"/>
		<path fill="#F4F2E6" stroke="#231F20" stroke-width="0.5" stroke-miterlimit="10" d="M185.537,183.792
			c0,0,1.555,0.357,1.203,1.551c-0.45,0.764-1.295,0.642-1.295,0.642s-0.867-1.524-1.649-1.558
			C183.937,184.148,183.831,184.125,185.537,183.792z"/>
		<path fill="#F4F2E6" stroke="#231F20" stroke-width="0.5" stroke-miterlimit="10" d="M185.636,180.687
			c0,0,1.454,0.337,0.547,1.188c-0.774,0.432-1.61,0.258-1.61,0.258s-0.296-0.961-0.778-1.461
			C184.402,180.67,184.902,180.571,185.636,180.687z"/>
		<path fill="#F4F2E6" stroke="#231F20" stroke-width="0.5" stroke-miterlimit="10" d="M244.422,183.717c0,0-0.766,0.025-1.234,0.97
			c-0.471,0.869,2.016,1.329,2.016,1.329s0.951-1.327,1.808-1.563C246.605,184.217,246.215,183.874,244.422,183.717z"/>
		<path fill="#F4F2E6" stroke="#231F20" stroke-width="0.5" stroke-miterlimit="10" d="M244.273,180.622
			c0,0-0.438,1.201,0.269,1.269c0.688-0.041,1.498-0.119,1.498-0.119s0.269-0.679,0.586-1.147
			C246.375,180.479,244.977,180.471,244.273,180.622z"/>
		
			<path fill="#595556" stroke="#231F20" stroke-width="0.5" stroke-linecap="round" stroke-linejoin="round" stroke-miterlimit="10" d="
			M214.084,164.161c0,0,3.416-0.832,1.957-3.957c0.625-0.75,2.584-1.369,1.334-3.373c-1.25-2.002-5.708-2.961-7-0.502
			c-1.292-0.834-4.125-1.668-4.25,1.791s1.958,2.084,1.958,2.084s-2.674,2.316-0.813,4.682c1.069-1.428,4.006-4.198,4.006-4.198
			L214.084,164.161z"/>
		
			<path fill="#595556" stroke="#231F20" stroke-width="0.5" stroke-linecap="round" stroke-linejoin="round" stroke-miterlimit="10" d="
			M191.905,163.807c0,0,1.304-0.48,0.804-2.23c0.625-0.457,2.058-1.75,1.266-3s-2.323-2.438-3.776-1.016
			c-1-0.625-4.869,0.014-3.398,3.734c0.846-1.196,1.726-2.25,1.726-2.25L191.905,163.807z"/>
		
			<path fill="#595556" stroke="#231F20" stroke-width="0.5" stroke-linecap="round" stroke-linejoin="round" stroke-miterlimit="10" d="
			M191.184,145.756c0,0-1.834,0.207-1.292,1.832s2.167,2.789,2.917,0.916s1.458-2.123,1.458-2.123s1.042-0.625,0.208-1.375
			S193.142,145.381,191.184,145.756z"/>
		
			<path fill="#595556" stroke="#231F20" stroke-width="0.5" stroke-linecap="round" stroke-linejoin="round" stroke-miterlimit="10" d="
			M227.293,150.411c0,0-1.209-0.416-1.375,0.918c-0.168,1.334,1,2.541,2.375,1.666S229.959,149.245,227.293,150.411z"/>
		
			<path fill="#595556" stroke="#231F20" stroke-width="0.5" stroke-linecap="round" stroke-linejoin="round" stroke-miterlimit="10" d="
			M202.577,154.034c0,0-1.208-0.416-1.375,0.918s1,2.541,2.375,1.666S205.244,152.868,202.577,154.034z"/>
		
			<path fill="#595556" stroke="#231F20" stroke-width="0.5" stroke-linecap="round" stroke-linejoin="round" stroke-miterlimit="10" d="
			M235.76,159.67c0,0-1.594-3.194,1.99-2.385c-0.32-1.968,1.51-4.931,4.834-2.424c-0.043-1.701,2.416-3.285,3.608-1.369
			c0.026,0.938,0.05,8.713,0.05,8.713l-3.449-5.088l-3.063,7.766L235.76,159.67z"/>
		
			<path fill="none" stroke="#231F20" stroke-width="0.5" stroke-linecap="round" stroke-linejoin="round" stroke-miterlimit="10" d="
			M206.121,183.077c0,0,0.859,1.813-0.953,2.5"/>
		
			<path fill="none" stroke="#231F20" stroke-width="0.5" stroke-linecap="round" stroke-linejoin="round" stroke-miterlimit="10" d="
			M224.605,182.167c0,0-1.188,0.976-0.375,2.725"/>
		
			<line fill="none" stroke="#231F20" stroke-linecap="round" stroke-linejoin="round" stroke-miterlimit="10" x1="232.392" y1="179.633" x2="232.392" y2="181.202"/>
		
			<line fill="none" stroke="#231F20" stroke-linecap="round" stroke-linejoin="round" stroke-miterlimit="10" x1="197.909" y1="179.633" x2="197.909" y2="180.786"/>
		<polygon opacity="0.3" fill="#231F20" enable-background="new    " points="197.909,168.327 201.186,166.015 206.121,171.452 
			206.324,166.167 205.694,166.827 201.186,160.361 197.633,164.483 		"/>
		<polygon opacity="0.3" fill="#231F20" enable-background="new    " points="224.605,165.907 228.98,171.077 232.392,165.907 
			232.392,160.161 228.834,165.907 224.275,161.245 		"/>
		<path opacity="0.3" fill="#231F20" enable-background="new    " d="M186.88,188.456c0,0,1.66,4.215,4.944,2.34
			c3.284-1.875,4.906-2.916,8.219-3.174c3.313-0.259,6.563,0.019,8.125-3.295c-0.479,2.172-1.125,3.688-4.938,3.594
			c-1.438,0.22-7.75,1.595-8.438,2.188C194.104,190.704,188.124,196.225,186.88,188.456z"/>
	</g>
</g>
<g id="stone">
	<path fill="#EDE9D6" stroke="#231F20" stroke-linecap="round" stroke-linejoin="round" stroke-miterlimit="10" d="M273.176,90.405
		c0,0,5.959-0.041,6.656,6.461c0.496,4.619-5.224,5.498-1.463,11.384c-3.369,1.584-9.18-4.306-9.18-4.306L273.176,90.405z"/>
	<path fill="#B7B6AD" stroke="#231F20" stroke-linecap="round" stroke-linejoin="round" stroke-miterlimit="10" d="M159.66,87.425
		c0,0-8.951-2.158-9.548,4.024c-0.458,4.734,6.21,5.604,1.515,10.998c3.172,2.114,9.946-2.975,9.946-2.975L159.66,87.425z"/>
	<path fill="#C6C6C6" stroke="#231F20" stroke-linecap="round" stroke-linejoin="round" stroke-miterlimit="10" d="M273.877,52.077
		c-2.518-23.745-22.875-45.929-54.328-48.479c-18.644-1.512-34.003,7.367-34.003,7.367s-30.036,13.318-31.453,57.521
		c-1.58,49.286,17.727,62.476,28.052,68.289c18.434,10.38,57.341,14.363,79.313-11.637
		C277.75,105.861,276.243,74.395,273.877,52.077z M216.542,107.861c-24.25,0.659-18.747-33.319-18.747-46.784
		c0-11.417,15.31-12.583,15.31-12.583c19.25-1,19.313,34.583,19.313,34.583S235.752,108.213,216.542,107.861z"/>
	<path fill="#EDE9D6" stroke="#231F20" stroke-linecap="round" stroke-linejoin="round" stroke-miterlimit="10" d="M165.631,93.607
		c0,0-4.762,3.274-11.519,5.707c-7.375,2.655-0.95,10.522,1.083,10.567c2.032,0.045,6.182-1.901,6.182-1.901
		s-5.153-0.703,5.073-3.155C176.675,102.373,172.137,90.015,165.631,93.607z"/>
	<path fill="#EDE9D6" stroke="#231F20" stroke-linecap="round" stroke-linejoin="round" stroke-miterlimit="10" d="M169.911,101.42
		c0,0-4.228,1.542-12.656,6.004c-8.545,4.527-2.641,10.973-0.633,11.291c2.008,0.316,5.706-1.303,5.706-1.303
		s1.891-2.652,11.975-6.524C180.637,108.456,179.909,95.985,169.911,101.42z"/>
	<path fill="#EDE9D6" stroke="#231F20" stroke-linecap="round" stroke-linejoin="round" stroke-miterlimit="10" d="M176.278,110.913
		c0,0-9.036,1.03-15.492,5.363c-6.255,4.198-2.387,8.785,2.147,8.615c2.032-0.077,4.375-0.366,4.375-0.366s-5.376-1.287,8.943-4.958
		C180.365,118.512,181.826,110.358,176.278,110.913z"/>
	<path fill="#F4F2E6" stroke="#231F20" stroke-width="0.5" stroke-miterlimit="10" d="M164.759,95.558c0,0,2.455,1.801,2.878,4.76
		c1.744-0.43,4.299-0.954,3.357-4.407c-0.714-2.621-3.25-2.383-3.25-2.383L164.759,95.558z"/>
	<path fill="#F4F2E6" stroke="#231F20" stroke-width="0.5" stroke-miterlimit="10" d="M170.751,102.961c0,0,1.718,0.998,2.222,4.612
		c1.744-0.431,4.323-0.088,3.674-3.609s-2.897-2.544-2.897-2.544L170.751,102.961z"/>
	<path fill="#F4F2E6" stroke="#231F20" stroke-width="0.5" stroke-miterlimit="10" d="M172.469,112.075c0,0,1.563,2.039,1.352,4.623
		c1.792-0.125,3.936-0.347,4.307-2.457c0.458-2.607-1.612-3.037-1.612-3.037L172.469,112.075z"/>
	<path fill="#EDE9D6" stroke="#231F20" stroke-linecap="round" stroke-linejoin="round" stroke-miterlimit="10" d="M266.113,97.696
		c0,0,4.128,3.848,10.308,7.17c6.742,3.625-0.598,10.302-2.567,10.052s-5.698-2.728-5.698-2.728s5.079,0.063-4.445-3.776
		C254.184,104.574,260.344,93.289,266.113,97.696z"/>
	<path fill="#EDE9D6" stroke="#231F20" stroke-linecap="round" stroke-linejoin="round" stroke-miterlimit="10" d="M260.854,104.627
		c0,0,3.861,2.097,11.361,7.622c7.604,5.603,0.973,10.98-1.014,10.998c-1.984,0.017-5.324-2.08-5.324-2.08
		s-1.444-2.834-10.629-8.025C249.48,109.879,251.978,97.938,260.854,104.627z"/>
	<path fill="#EDE9D6" stroke="#231F20" stroke-linecap="round" stroke-linejoin="round" stroke-miterlimit="10" d="M253.338,112.881
		c0,0,8.58,2.295,14.193,7.41c5.439,4.955,1.043,8.83-3.313,8.013c-1.952-0.367-4.334-1.027-4.334-1.027s5.539-0.426-7.766-6.032
		C248.295,119.633,248.058,111.547,253.338,112.881z"/>
	<path fill="#F4F2E6" stroke="#231F20" stroke-width="0.5" stroke-miterlimit="10" d="M266.561,99.719c0,0-2.532,1.094-3.154,4.653
		c-1.623-0.667-3.857-1.142-2.625-4.415c1.016-2.701,3.338-1.927,3.338-1.927L266.561,99.719z"/>
	<path fill="#F4F2E6" stroke="#231F20" stroke-width="0.5" stroke-miterlimit="10" d="M259.861,105.809c0,0-2.963,1.537-2.903,4.762
		c-1.621-0.667-4.11-1.146-2.978-4.455s3.146-2.653,3.146-2.653L259.861,105.809z"/>
	<path fill="#F4F2E6" stroke="#231F20" stroke-width="0.5" stroke-miterlimit="10" d="M255.681,114.352c0,0-1.552,1.723-1.722,4.25
		c-1.711-0.38-2.832-0.68-2.887-2.771c-0.066-2.584,1.994-2.703,1.994-2.703L255.681,114.352z"/>
	
		<polyline fill="none" stroke="#231F20" stroke-width="0.5" stroke-linecap="round" stroke-linejoin="round" stroke-miterlimit="10" points="
		176.75,16.84 184.417,24.577 183.667,27.827 189.417,29.952 188.792,31.827 	"/>
	<path fill="none" stroke="#231F20" stroke-width="0.5" stroke-linecap="round" stroke-linejoin="round" stroke-miterlimit="10" d="
		M234.458,6.471l-2.289,4.231l3.625,1.125l-1.125,5.013c0,0-5.25,1.362-0.688,4.112c-0.813,1.25-0.024,3.381-0.024,3.381"/>
	<path fill="none" stroke="#231F20" stroke-width="0.5" stroke-linecap="round" stroke-linejoin="round" stroke-miterlimit="10" d="
		M275.308,78.704c0,0-3.483,1.028-5.25,3.451c-1.392-0.703-3.498-2.537-3.498-2.537l-0.769,2.537l-1.832-1.92l-3.535,0.195"/>
	<path fill="none" stroke="#231F20" stroke-width="0.5" stroke-linecap="round" stroke-linejoin="round" stroke-miterlimit="10" d="
		M163.105,115.327c0,0-0.063,2.438,1.125,3.875"/>
	<path fill="none" stroke="#231F20" stroke-width="0.5" stroke-linecap="round" stroke-linejoin="round" stroke-miterlimit="10" d="
		M164.759,114.515c0,0,0.408,3.438,2.096,4.688"/>
	<path fill="none" stroke="#231F20" stroke-width="0.5" stroke-linecap="round" stroke-linejoin="round" stroke-miterlimit="10" d="
		M154.953,108.963c0,0-1.098,4.188,1.59,5.963"/>
	<path fill="none" stroke="#231F20" stroke-width="0.5" stroke-linecap="round" stroke-linejoin="round" stroke-miterlimit="10" d="
		M157.521,107.573c0,0-0.666,2.319,0.772,3.631"/>
	<path fill="none" stroke="#231F20" stroke-width="0.5" stroke-linecap="round" stroke-linejoin="round" stroke-miterlimit="10" d="
		M161.564,96.452c0,0,2.935,2.351,2.666,4.968"/>
	<path fill="none" stroke="#231F20" stroke-width="0.5" stroke-linecap="round" stroke-linejoin="round" stroke-miterlimit="10" d="
		M161.042,98.937c0,0,1.188,1.39,1.063,2.484"/>
	<path fill="none" stroke="#231F20" stroke-width="0.5" stroke-linecap="round" stroke-linejoin="round" stroke-miterlimit="10" d="
		M263.493,106.702c0,0-3.313,0.987-3.632,3.869"/>
	<path fill="none" stroke="#231F20" stroke-width="0.5" stroke-linecap="round" stroke-linejoin="round" stroke-miterlimit="10" d="
		M263.961,109.409c0,0-1.838-0.017-2.285,1.795"/>
	<path opacity="0.3" fill="#231F20" enable-background="new    " d="M152.762,100.179c0,0-2.1,6.607,3.068,5.482
		c3.246-0.707,9.178-3.065,10.545-3.208c-1.25,0.667-12.199,6.211-12.374,6.958C153.125,108.579,147.773,102.78,152.762,100.179z"/>
	<path opacity="0.3" fill="#231F20" enable-background="new    " d="M155.831,108.577c0,0-3.227,5.25,1.69,6.75
		c3.667,0.959,4.122-4.467,13.059-3.707c-4.662,2.625-7.425,2.059-12.75,6.916C152.709,119.036,150.327,109.702,155.831,108.577z"/>
	<path opacity="0.3" fill="#231F20" enable-background="new    " d="M159.917,117.265c0,0-2.088,4.991,3.031,5
		c3.663,0.007,7.469-3.394,11.531-3.509c4.062-0.116,5.229-3.117,5.229-3.117s-0.583,3.377-5.917,4.553
		c-5.438,1.198-8.688,3.073-6.938,4.068c-0.006,0.5-2.25,1.63-7.125-0.62S159.605,117.202,159.917,117.265z"/>
	<path opacity="0.3" fill="#231F20" enable-background="new    " d="M168.182,125.448c0,0-0.015-2.119,5.86-3.203
		c3.667-0.709,4.341-3.689,4.341-3.689s-4.521,1.708-6.806,2.334c-2.285,0.626-4.978,1.923-4.945,2.578
		C167.042,123.995,168.182,125.448,168.182,125.448z"/>
	<path opacity="0.3" fill="#231F20" enable-background="new    " d="M248.959,117.495c0,0,0.041,3.75,3,5.582
		c2.957,1.834,5.078,5.031,5.692,6.115c0.614-0.458,2.64-3.365,2.64-3.365l-6.371-3.804
		C253.92,122.023,250.375,121.036,248.959,117.495z"/>
	<path opacity="0.3" fill="#231F20" enable-background="new    " d="M250.334,113.911c0,0-1.334,3.875,2.332,5.75
		s8.75,2.928,10.543,4.959c2.166,2.457,7.375,1.291,5.541-2.293c0.877,0.631,2.541,3.709-1.291,5.334
		c-0.972,0.653-4.541,0.582-6.459-0.418c0.209-0.625,0.978-2.168-3.75-3.998C252.524,121.415,247.542,120.245,250.334,113.911z"/>
	<path opacity="0.3" fill="#231F20" enable-background="new    " d="M252.709,105.577c0,0-1.293,4.375,4.582,6.917
		c5.875,2.541,13.084,7.707,15,5.707c1.918-2,1.883-3.313,1.334-4.291c0.707,0.791,3.383,2.949,0.899,6.662
		s-4.653,2.674-4.653,2.674s-1.914-4.211-7.873-7.211S251.209,112.995,252.709,105.577z"/>
	<path opacity="0.3" fill="#231F20" enable-background="new    " d="M267.292,108.286c0,0,6.471,3.703,8.875,2.596
		c1.25-0.574,2.25-1.596,2.418-3.595c0.25,0.875,1.457,3.843-3.75,7.193C273.167,112.702,267.292,108.286,267.292,108.286z"/>
	
		<polyline fill="none" stroke="#231F20" stroke-width="0.5" stroke-linecap="round" stroke-linejoin="round" stroke-miterlimit="10" points="
		209.873,117.025 206.121,123.807 211.667,126.702 210.792,128.086 214.491,129.192 211.042,131.827 211.042,135.342 	"/>
	<path opacity="0.3" fill="#231F20" enable-background="new    " d="M274.167,95.994c0,0-0.25,5.208,2.063,3.833
		s2.651-5.594,2.651-5.594s2.316,3.75-0.901,7.125c-0.155,0.313-1.299,2.75-1.056,3.469c-0.664-0.375-4.194-2.531-4.194-2.531
		L274.167,95.994z"/>
	<path fill="none" stroke="#231F20" stroke-width="0.5" stroke-linecap="round" stroke-linejoin="round" stroke-miterlimit="10" d="
		M268.987,121.202c0,0,3.057-0.018,4.118-2.445"/>
</g>
<g id="head">
	<path opacity="0.3" fill="#231F20" enable-background="new    " d="M191.114,110.571c0,0,3.547,10.443,16.429,12.771
		c12.881,2.33,26.167-4.182,30.25-17.765C231.375,107.995,219.769,118.314,191.114,110.571z"/>
	<path fill="#B7B6AD" stroke="#231F20" stroke-linecap="round" stroke-linejoin="round" stroke-miterlimit="10" d="M197.328,86.947
		c0,0-3.45-4.42-7.7-2.837s-4,5.716-2.667,8.566c1.333,2.85,4.25,7.946,10.833,2.44C197.628,90.193,197.328,86.947,197.328,86.947z"
		/>
	<path fill="#595556" stroke="#231F20" stroke-linecap="round" stroke-linejoin="round" stroke-miterlimit="10" d="M195.818,71.942
		c0,0-3.722-1.48-8.682-1.677c-3.482-0.138-7.344,1.031-7.344,1.031s3.063-4.325,8.438-6.969c-1.061-1.092-6.699-1.81-6.699-1.81
		s3.91-3.363,12.765-5.576c7.268-1.817,21.399-3.782,36.526,1.383c-0.737-2.398-6.03-8.497-6.03-8.497s9.658,3.859,12.426,8.656
		c3.494-1.227,11.972-1.281,11.972-1.281l-8.147,4.844c0,0,3.25-0.063,5.375,2.844c-3.531,0.063-4.594,0.938-4.594,0.938
		s1.229,13.126-2.351,20.832C239.079,77.925,219.063,69.728,195.818,71.942z"/>
	<path fill="#EDE9D6" stroke="#231F20" stroke-linecap="round" stroke-linejoin="round" stroke-miterlimit="10" d="M192.636,67.996
		c0,0-1.707,16.695-1.521,25.795c-2.248,0.312-6.146,1.366-8.047,2.395c1.035,9.331,10.63,19.743,24.789,20.525
		c17.727,0.981,31.132-4.385,31.775-19.968c3.441,2.042,6.941,1.646,8.875-3.236c1.936-4.881,0.006-10.998-9.033-6.847
		c0-4.514-2.309-17.239-2.309-17.239S217.786,59.398,192.636,67.996z"/>
	<path opacity="0.75" fill="#B7B7B7" enable-background="new    " d="M191.115,90.667c0,0,13.927-3.078,21.26-1.274
		c7.332,1.804,23.487,2.508,27.098-2.734c-0.141,3.924,2.378,16.415-6.715,24.544c-1.736,1.215-14.092,9.741-33.758,3.311
		c-15-5.266-15.495-18.521-15.495-18.521l7.609-2.204v-3.832"/>
	
		<path fill="#FFFFFF" stroke="#231F20" stroke-width="0.5" stroke-linecap="round" stroke-linejoin="round" stroke-miterlimit="10" d="
		M193.625,93.254l-0.152-0.796c0,0-0.409-1.701,1.007-1.791c1.672-0.106,2.958-0.241,3.125,0.884s0.107,1.444,0.107,1.444"/>
	
		<path fill="#FFFFFF" stroke="#231F20" stroke-width="0.5" stroke-linecap="round" stroke-linejoin="round" stroke-miterlimit="10" d="
		M215.198,94.363l0.561-2.444c0,0,0.215-1.173,1.559-0.716c1.586,0.54,2.684,0.708,2.408,1.813
		c-0.275,1.103-0.541,1.879-0.541,1.879"/>
	<path fill="none" stroke="#231F20" stroke-linecap="round" stroke-linejoin="round" stroke-miterlimit="10" d="M191.114,93.791
		c0,0,16.429-2.834,30.261,2.204"/>
	
		<path fill="#EDE9D6" stroke="#231F20" stroke-width="0.5" stroke-linecap="round" stroke-linejoin="round" stroke-miterlimit="10" d="
		M241.792,89.977c0,0,2.23-0.305,2,1.6c-0.25,2.073-2.063,2.065-2.063,2.065"/>
	<path fill="#FFFFFF" stroke="#231F20" stroke-linecap="round" stroke-linejoin="round" stroke-miterlimit="10" d="M200.049,72.868
		c0,0-3.826,1.688-3.826,6.563c0,3.904,1.118,8.607,8.702,8.026c8.814-0.675,7.059-8.701,7.059-8.701S209.519,68.348,200.049,72.868
		z"/>
	
		<path fill="#B7B6AD" stroke="#231F20" stroke-width="0.5" stroke-linecap="round" stroke-linejoin="round" stroke-miterlimit="10" d="
		M210.089,84.217c0,0-6.63,4.601-13.3-1.389c1.215,1.703,1.895,4.048,6.486,4.504C207.192,87.72,210.089,84.217,210.089,84.217z"/>
	<path fill="#FFFFFF" stroke="#231F20" stroke-linecap="round" stroke-linejoin="round" stroke-miterlimit="10" d="M215.917,72.119
		c0,0-4.25,1.375-4.25,7.292c0,4.337,1.242,9.562,9.667,8.917c9.791-0.75,7.842-9.667,7.842-9.667S227.834,67.077,215.917,72.119z"
		/>
	<path fill="#231F20" d="M220.101,78.815c0,0-0.371,0.12-0.371,0.636c0,0.379,0.108,0.834,0.845,0.778
		c0.854-0.065,0.684-0.844,0.684-0.844S221.14,78.375,220.101,78.815z"/>
	<path fill="#231F20" d="M203.327,78.939c0,0-0.385,0.125-0.385,0.66c0,0.393,0.112,0.865,0.875,0.807
		c0.886-0.068,0.709-0.875,0.709-0.875S204.406,78.483,203.327,78.939z"/>
	<path fill="#EDE9D6" stroke="#231F20" stroke-linecap="round" stroke-linejoin="round" stroke-miterlimit="10" d="M211.996,84.171
		c0,0-1.292-0.358-2.578-1.51c-2.188-1.958-5.647,2.232-3.335,4.657c2.312,2.425,5.71,0.188,5.71,0.188"/>
	
		<path fill="#B7B6AD" stroke="#231F20" stroke-width="0.5" stroke-linecap="round" stroke-linejoin="round" stroke-miterlimit="10" d="
		M211.897,77.175c0,0,4.428-6.941,14.543-4.181c-1.316-1.171-4.484-3.821-10.49-1.042C212.51,73.421,211.897,77.175,211.897,77.175z
		"/>
	
		<path fill="#B7B6AD" stroke="#231F20" stroke-width="0.5" stroke-linecap="round" stroke-linejoin="round" stroke-miterlimit="10" d="
		M229.053,82.474c0,0-5.885,7.56-15.768,2.892c0.569,1.198,5.194,3.917,10.637,2.216C227.687,86.543,229.053,82.474,229.053,82.474z
		"/>
	<path fill="none" stroke="#231F20" stroke-width="0.5" stroke-linecap="round" stroke-linejoin="round" stroke-miterlimit="10" d="
		M222.542,90.667c0,0,4.668,0.731,6.793-2.221"/>
	<path fill="none" stroke="#231F20" stroke-width="0.5" stroke-linecap="round" stroke-linejoin="round" stroke-miterlimit="10" d="
		M191.114,88.381c0,0-2.154,0.186-1.738,2.024"/>
	
		<path fill="#B7B6AD" stroke="#231F20" stroke-width="0.5" stroke-linecap="round" stroke-linejoin="round" stroke-miterlimit="10" d="
		M197.715,74.819c0,0,6.647-4.576,13.294,1.44c-1.208-1.708-1.879-4.056-6.469-4.529C200.626,71.327,197.715,74.819,197.715,74.819z
		"/>
	<path opacity="0.3" fill="#231F20" enable-background="new    " d="M180.148,71.195c0,0,4.89-5.67,15.113-7.337
		c10.223-1.667,26.361-5.511,41.904,5.562c-5.955-2.427-17.996-7.581-40.039-2.785c-2.938,0.997-4.491,1.36-4.491,1.36l-0.262,2.73
		C192.374,70.726,182.652,70.056,180.148,71.195z"/>
	<path opacity="0.3" fill="#231F20" enable-background="new    " d="M201.167,87.506c0,0,3.049,0.97,4.149,0.875
		c-0.358,0.571,0.184,2.157,1.601,2.218s4.073-1.355,5.078-2.688c-1.37,0.5-5.289,0.928-6.205-0.549
		C205.251,87.494,201.167,87.506,201.167,87.506z"/>
</g>
	</g>
</svg>
